<?xml version="1.0" encoding="utf-8"?>
<!-- Generator: Adobe Illustrator 19.0.1, SVG Export Plug-In . SVG Version: 6.00 Build 0)  -->
<!DOCTYPE svg PUBLIC "-//W3C//DTD SVG 1.1//EN" "http://www.w3.org/Graphics/SVG/1.1/DTD/svg11.dtd">
<svg version="1.1" xmlns="http://www.w3.org/2000/svg" xmlns:xlink="http://www.w3.org/1999/xlink" x="0px" y="0px"
	 viewBox="0 0 960 560" enable-background="new 0 0 960 560" xml:space="preserve">
<g id="Layer_3">
	<rect x="11" y="35" fill="#000C17" width="922" height="506"/>
	<path opacity="0.1" fill="#BE00D0" d="M296,10.9c-35.1,2.9-70.3,7.2-104.7,14.8c-14.8,3.3-25.1,7.3-37.8,14.7
		c-13.1,7.6-29.3,7.9-43,14.2c-8,3.7-15.6,8.6-22.7,13.8C73,79.2,61.6,90.8,50,105c-22.3,27.4-35,72.2-35,107
		c0,16.7,1,42.5,12.5,55.7c8.6,9.8,14.5,4.5,24.8,1c18-6.3,37.6-0.8,56-4.8c11.7-2.5,21.2-7.4,13.6-20c-7.2-12-17.7-5.3-28.2-10.7
		c-0.5-13.3,28.9-27.5,39-32.3c14.9-7.1,43.9-17.2,59.4-5.2c13.3,10.4,9,39.4,6,53.2c-3.8,17.3-14.5,27.9-26.6,40.1
		c-14.6,14.7-29.8,30.1-6.3,44c24,14.3,74.2,23.7,101.2,12.1c5.8-21.1-29.7-2.9-35.3-15.3c-9.1-20.3,40.1-41.1,51.3-45.7
		c32.6-13.3,65.8-26.5,99.1-37.7c58.7-19.7,124.5-22.1,185.2-30.1c47.7-6.2,95.5-11.8,142.4-22.7c10.1-2.4,25.6-4.4,33.1-11.8
		c-9.5-14.1-48.4-5.6-63-5.1c-80.5,2.7-161.4,13.9-240.3,30.1c-37.2,7.6-73.8,17.6-110.7,26.4c-13.3,3.1-37.9,10.7-50.5,3.8
		c8.4-13.1,28.9-16.7,42.4-22.3c34.2-14.4,70.2-22.2,106-31.8c32.5-8.8,63.9-16.4,97.4-18.4c26.2-1.5,51.7-1.7,74.9-12
		c7.9-3.5,16.2-4.7,25.3-5.6c37.9-3.8,76.1-2.3,114.1-4.4c27.8-1.5,56.3-4.5,83.1-12.2c10.2-2.9,50.3-13.1,53.1-25.3
		c2.3-9.9-10.1-18.9-16.8-23.9c-34.3-25.5-85.6-35-126.1-44.8c-8.8-2.1-28.2-3.6-34.9-9.4c-5.7-4.9-17.7-4.3-25.1-5.8
		c-46.4-9.4-93.3-14.2-140.6-16.8C496.6,2.6,462.9,2,429.1,2C384.2,2,340.7,7.2,296,10.9z"/>
	<path opacity="0.2" fill="#BE00D0" d="M69.6,355.4c11.5-9.2,43.7-25.6,58.1-17.3c0.7,4.9-2.1,9-3.1,13.4c16.1,4.3,18.3,1,24.5,17.2
		c8.6,22.3,22.7,32.4,47,27.5c28.2-5.7,53.2-20.9,79.9-30.8c8.2-3,34.3-12,42-5.6c2.6,2.1,1,4.8,2.5,6.2c8.6,7.9,14.7,8.3,27.7,5.2
		c31.1-7.4,61.2-17.9,93-22.5c32.5-4.7,65.6-4.4,97.8-10.8c13.3-2.7,25.6-9.4,37.7-15.4c6.4-3.2,17.2-5.9,21-12.6
		c8.5-14.8-17.1-13.5-25-17.7c23-8.4,46.9-12.5,71-16.3c10.8-1.7,29.2-2.3,38.5-8c20.3-12.5-12.5-17-18.2-24.8
		c14.7-9.7,40.5-8.9,56.9-8.2c19,0.8,40.2,5.4,57.3,13.9c17.7,8.8,17.9,24.7,22,42.1c3.9,16.7-1.8,17.4-16.9,26.1
		c-67,38.5-150.5,52.3-226.7,51.9c-24.8-0.1-49.3-4.5-74.1-3.8c-11.5,0.4-23.3,1.8-34.3,5.2c-2,0.6-23.2,11.4-16.6,15.2
		c6.9,4,15.8,2.8,17.2,11.5c2.2,14.3-19,16.5-27.2,17c-65.1,4.1-131.7,4.9-195.6,19.7c-35,8.1,3.2,16.5,18.3,16.5
		c28.6-0.1,57-2.5,85.6-2.1c15.7,0.2,45.8-2,58.1,9c-14.6,9.6-50.9,1.8-58.7,18c14.4,7.6,51.2,15.7,24.5,34.3
		c-17.4,12.2-41.1,11.6-61.1,14c-44.4,5.3-87.6,6.6-132.3,7.8c-24.6,0.7-62.8-4.2-84.7,8.8c-4.3,2.5-7.9,10.7-12,12.2
		c-15.4,5.3-18.2-33.4-9.1-40.9"/>
	<path opacity="0.1" fill="#BE00D0" d="M709,60c9.4,1.1,36.2,3.2,39.1,13.8c5.6,19.9-31.5,24.9-42.8,26.7
		c-95.6,15.3-193.6,5.4-289.7,15.8c-2,0.2-73.6,2.3-76.6,17.4c-2.8,14,43.6,2.9,45.2,16.9c2.3,19.6-66.1,15.8-77.1,14.1
		c-15.2-2.3-41.7-13.3-22.9-30.6c22.4-20.6,70.6-20.1,99-25.3c34.2-6.3,68.9-8.5,103.3-13.2c33.5-4.6,67.2,2.7,100.9,1.1
		c7.3-0.3,56.4-0.2,37.6-12.5c-10.4-6.8-29.2-6.2-41.3-7.5c-20.2-2.2-39.4-6.1-59.6-6c-36,0.3-71.5,3.8-107.3,6.8
		c-40.1,3.4-78.8,9.7-118.6,15.2c-19.3,2.7-37.6,7.5-55.2,15.9c-5.4,2.6-21.4,9.8-22.9,17.2c-1,4.8,4.6,7.4,3.8,12.4
		c-1.9,11.7-28.7,13.8-37.8,14.7c-38.8,4.1-20-27.7-1.9-44.7c27.2-25.5,67.4-31.9,102.7-38.1c55.7-9.8,112.1-19.6,168.7-22.2
		C517,45.4,575.7,50.3,636,59"/>
	<path opacity="0.25" fill="#BE00D0" d="M348.4,308c-17.2,1.4-9.5-12.4,0.8-17.2c9.2-4.3,7.6-1.4,14.4,1.2c16.4,6.2,32,8.7,49.4,8.1
		c6.6-0.2,36.3,0.7,38.5-8.5c1.9-8.1-20.4-17-18.2-27.6c2.5-11.9,36.4-15.5,45.7-15c10.1,0.5,40.3,0.7,45.5,9.8
		c-7.3,5.3-19.2,8.4-9.6,15.4c15.9,11.6,35-8.3,47.8-14.2c8.1-3.8,33.6-12.3,33.8,3.1c0.1,8.7-8,10.6-15.1,11.6
		c-16,2.4-31.5,0.2-47.5,4.4c-15.5,4-34.9,8.3-50.5,1.9c0.8-6.5,9.9-8.3,13.2-13.8c-8.6-11.4-46.4-3.9-41.1,14.1
		c2.1,7.2,14.2,8.4,15.1,15.1c0.4,3-5.8,5.5-5.1,8.1c1.5,5.8,8.1,3.3,12.7,6.2c15.9,9.9-7.8,15.7-17.8,14.4
		c-25.1-3.2-50,1.7-75.8,3.1c-27.3,1.5-55.1,3.4-82.4,2.1c-9-0.4-25.7-2.9-19.1-15.6c6.8-13.2,14.5-5.5,21.9-1
		c10.4,6.2,36.2,5.5,17.2-7.5c7.3-7.1,9.3,1.9,13.5,5.1c6.5,5,13.5,8,22.3,7c17-2,7.6-13.6-2.5-10"/>
	<path opacity="0.1" fill="#BE00D0" d="M859,166c-7.5-7.3-33.8-5-42.9-5.1c-12-0.1-25.7-1.6-37.1,2.5c-25.5,9.2,16.1,14.8,24.2,20.5
		c-5.2,6.3-15.1,7.3-20.9,13c12.4,11.8,38.3,10.7,49.6,25.9c11.8,15.8-7,19.1-18.3,16.6c-5.3-1.2-27-9.3-17.2,2.4
		c6.5,7.8,33.3,7.5,43.1,10.2c3.9,1.1,17.7,4.7,18.3,9.8c0.8,6.6-6.7,5.2-10.9,7.2c-6.3,2.9-12.4,6.8-10.8,15.1
		c3.2,16.9,27.8,21,40.9,20.9c36.4-0.4,85.7-31.9,59.7-71.5c-7.1-10.8-34.9-26-29.1-41.7c4-10.8,31.2-13.8,41.3-14.9"/>
	<path opacity="0.15" fill="#BE00D0" d="M26,272c4.1,9,15.3,10.8,24.1,12.1c7.5,1.1,25.7-2.9,32.1,1.6c9.6,6.6-6.6,10.6,8,14.3
		c9.1,2.3,21.5-5.9,25.7,7.2c4.8,15-11.8,12.8-20.7,12c-4.8-0.4-22.7-4.7-22.1,3.3c0.2,2.6,7.2,2.9,8,6.5c0.9,4.6-3.8,7.9-7.3,9.8
		c-18.9,10.5-42.3-3-60.7-6.9c-12.8-2.7-18.9,1.1-29.1,6"/>
	<polygon points="996,18.8 996,4.8 1002.2,14.8 1014.2,11.8 1005.1,21 1008.8,31.5 1001.2,24 992.5,33.8 995.2,22.5 982.2,19.2 	"/>
</g>
<g id="Layer_4">
	<g>
		<g>
			<g>
				
					<rect x="728.7" y="-33.8" transform="matrix(0.8855 0.4647 -0.4647 0.8855 69.4522 -343.6288)" fill="none" width="6.3" height="5.7"/>
				<polygon fill="#00EEFF" points="732.2,-30.6 731,-28.2 730.8,-30.5 728.4,-31.1 730.9,-31.8 731.2,-34 731.8,-32 734.2,-32.9 
					732.7,-31.2 734.7,-29.4 				"/>
			</g>
			<g>
				
					<rect x="675.3" y="108.6" transform="matrix(-1.931662e-02 -0.9998 0.9998 -1.931662e-02 580.9718 806.8653)" fill="none" width="21.8" height="19.7"/>
				<polygon fill="#00EEFF" points="686.5,117 696,116.8 689.3,121.2 691.5,129.3 685.1,123.2 678,125.8 683,120.6 676.3,114.8 
					683.9,116.5 686,107.6 				"/>
			</g>
			<g>
				
					<rect x="581.5" y="66.2" transform="matrix(9.882773e-02 0.9951 -0.9951 9.882773e-02 611.6703 -521.1747)" fill="none" width="24.1" height="21.8"/>
				<polygon fill="#00EEFF" points="593.4,78.8 582.9,79.9 589.9,74.5 586.8,65.7 594.4,71.8 602,68.4 596.9,74.5 604.9,80.4 
					596.2,79.1 594.8,89.1 				"/>
			</g>
			<g>
				
					<rect x="530.2" y="36.1" transform="matrix(0.3577 0.9338 -0.9338 0.3577 389.5108 -475.5381)" fill="none" width="20.5" height="18.6"/>
				<polygon fill="#00EEFF" points="540.7,46.8 532.3,50.1 536.8,44 532.3,37.5 539.9,40.9 545.4,36.3 542.6,42.5 550.4,45.5 
					543.1,46.4 544.1,55 				"/>
			</g>
			<g>
				
					<rect x="432.5" y="57.2" transform="matrix(0.6409 -0.7676 0.7676 0.6409 108.2305 362.7793)" fill="none" width="18.8" height="17.1"/>
				<polygon fill="#00EEFF" points="442.9,64.9 449.3,70.2 442.4,69.2 439.2,75.8 438.5,68.2 432.4,65.8 438.6,65.3 437.5,57.7 
					441.5,63.1 447.9,58.5 				"/>
			</g>
			<g>
				
					<rect x="507.7" y="264.3" transform="matrix(0.9396 -0.3422 0.3422 0.9396 -60.7115 191.166)" fill="none" width="7.4" height="6.7"/>
				<polygon fill="#00EEFF" points="511.9,267.5 513,270.6 510.8,268.9 508.5,270.5 509.7,267.8 508.1,265.8 510.3,266.8 511.4,264 
					511.7,266.7 514.8,266.4 				"/>
			</g>
			<g>
				
					<rect x="336.2" y="185.5" transform="matrix(0.9485 -0.3167 0.3167 0.9485 -42.4649 117.5665)" fill="none" width="8.6" height="7.8"/>
				<polygon fill="#00EEFF" points="341.1,189.4 342.3,192.9 339.8,190.9 337,192.7 338.6,189.6 336.7,187.2 339.3,188.5 
					340.7,185.2 340.9,188.3 344.5,188.1 				"/>
			</g>
			<g>
				
					<rect x="380" y="306.3" transform="matrix(0.3885 0.9214 -0.9214 0.3885 523.1016 -164.9612)" fill="none" width="11.7" height="10.6"/>
				<polygon fill="#00EEFF" points="386,312.5 381.3,314.5 383.8,310.9 381,307.3 385.5,309.1 388.5,306.4 387,310 391.6,311.5 
					387.4,312.2 388.1,317.1 				"/>
			</g>
			<g>
				
					<rect x="202.3" y="214.3" transform="matrix(0.5741 0.8188 -0.8188 0.5741 267.3446 -76.5542)" fill="none" width="9.8" height="8.9"/>
				<polygon fill="#00EEFF" points="207.5,219.4 204,221.8 205.4,218.5 202.6,216 206.5,216.7 208.5,213.9 207.9,217.1 211.9,217.6 
					208.6,218.9 210.1,222.7 				"/>
			</g>
			<g>
				
					<rect x="125.7" y="277.2" transform="matrix(-0.5343 0.8453 -0.8453 -0.5343 449.4833 324.2967)" fill="none" width="19.3" height="17.5"/>
				<polygon fill="#00EEFF" points="134.4,287 127.3,282.4 134.4,282.5 136.7,275.4 138.5,283 145.1,284.6 138.8,286 141,293.6 
					136.1,288.5 130.2,294.1 				"/>
			</g>
			<g>
				
					<rect x="229.3" y="408.4" transform="matrix(-0.6112 0.7914 -0.7914 -0.6112 720.1583 484.4189)" fill="none" width="23.6" height="21.4"/>
				<polygon fill="#00EEFF" points="239.8,420.2 231.6,413.9 240.3,414.7 243.9,406.4 245.2,415.9 253,418.5 245.2,419.5 247,429 
					241.7,422.3 233.9,428.4 				"/>
			</g>
			<g>
				
					<rect x="188" y="463.1" transform="matrix(0.998 6.245108e-02 -6.245108e-02 0.998 29.9792 -11.5505)" fill="none" width="23.6" height="21.4"/>
				<polygon fill="#00EEFF" points="201.4,474.3 200.7,484.6 196.6,476.9 187.7,478.6 194.8,472.2 192.6,464.3 197.8,470.2 
					204.7,463.4 202.1,471.5 211.5,474.5 				"/>
			</g>
			<g>
				
					<rect x="198.3" y="535.2" transform="matrix(-0.2598 0.9657 -0.9657 -0.2598 786.6601 484.3953)" fill="none" width="18.7" height="17"/>
				<polygon fill="#00EEFF" points="207,544.9 199.1,542.8 205.7,540.8 205.9,533.5 209.7,540.1 216.2,539.6 210.8,542.7 215,549.2 
					209.1,545.9 205.2,552.7 				"/>
			</g>
		</g>
	</g>
	<g>
		<g>
			<g>
				
					<rect x="897.8" y="140.5" transform="matrix(-0.5327 0.8463 -0.8463 -0.5327 1513.0836 -540.1808)" fill="none" width="15.6" height="14.2"/>
				<polygon fill="#00EEFF" points="904.9,148.4 899.1,144.8 904.8,144.8 906.7,139 908.2,145.2 913.5,146.5 908.4,147.6 
					910.2,153.8 906.2,149.7 901.5,154.2 				"/>
			</g>
			<g>
				
					<rect x="795.2" y="124.2" transform="matrix(-0.1818 0.9833 -0.9833 -0.1818 1092.7384 -633.8198)" fill="none" width="29.7" height="26.9"/>
				<polygon fill="#00EEFF" points="809.2,139.7 796.4,137.3 806.6,133.3 805.9,121.8 812.8,131.7 823,130.2 814.9,135.8 
					822.3,145.4 812.5,141 807.4,152.3 				"/>
			</g>
			<g>
				
					<rect x="759.8" y="279.4" transform="matrix(0.7528 0.6582 -0.6582 0.7528 380.6155 -435.6705)" fill="none" width="21.2" height="19.2"/>
				<polygon fill="#00EEFF" points="771.3,290.2 765.2,297.2 766.5,289.5 759.2,285.7 767.7,285.1 770.5,278.3 771,285.3 
					779.6,284.2 773.3,288.7 778.4,295.9 				"/>
			</g>
			<g>
				
					<rect x="701.9" y="273.9" transform="matrix(0.3066 -0.9518 0.9518 0.3066 225.4925 862.6943)" fill="none" width="5.9" height="5.3"/>
				<polygon fill="#00EEFF" points="705.1,276.2 707.5,277 705.4,277.5 705.3,279.8 704.2,277.7 702.1,277.7 703.9,276.8 
					702.7,274.8 704.5,275.9 705.8,273.8 				"/>
			</g>
			<g>
				
					<rect x="693.1" y="379.2" transform="matrix(-0.8146 -0.58 0.58 -0.8146 1054.1875 1118.4723)" fill="none" width="25.5" height="23.1"/>
				<polygon fill="#00EEFF" points="704.6,389.4 711.1,380.3 710.5,389.7 719.7,393.3 709.5,395.1 707,403.6 705.6,395.2 
					695.4,397.5 702.4,391.5 695.5,383.4 				"/>
			</g>
			<g>
				
					<rect x="676" y="400.6" transform="matrix(-0.8554 -0.518 0.518 -0.8554 1066.3389 1124.5587)" fill="none" width="28.4" height="25.7"/>
				<polygon fill="#00EEFF" points="688.7,412 695.1,401.4 695.3,411.8 705.7,415.1 694.6,417.9 692.5,427.5 690.3,418.4 
					679.1,421.8 686.4,414.5 678,406.1 				"/>
			</g>
			<g>
				
					<rect x="515.9" y="264.8" transform="matrix(0.9877 0.1563 -0.1563 0.9877 49.0796 -78.6583)" fill="none" width="17.4" height="15.8"/>
				<polygon fill="#00EEFF" points="525.8,273.2 524.6,280.7 522.1,274.8 515.4,275.4 521.1,271.2 520,265.2 523.4,269.9 529,265.4 
					526.5,271.2 533.2,274.1 				"/>
			</g>
			<g>
				
					<rect x="449.6" y="359.4" transform="matrix(0.9571 -0.2899 0.2899 0.9571 -87.4827 149.6765)" fill="none" width="23.9" height="21.6"/>
				<polygon fill="#00EEFF" points="463.3,370 466.3,380 459.7,374.3 451.8,379 456.3,370.4 451.4,363.7 458.4,367.4 462.5,358.6 
					463,367.2 473,366.7 				"/>
			</g>
			<g>
				
					<rect x="325.2" y="349.6" transform="matrix(0.5628 0.8266 -0.8266 0.5628 437.8007 -118.3668)" fill="none" width="11.1" height="10.1"/>
				<polygon fill="#00EEFF" points="331.1,355.4 327.1,358.1 328.7,354.4 325.5,351.5 329.9,352.3 332.3,349.2 331.6,352.9 
					336.1,353.5 332.3,354.9 333.9,359.2 				"/>
			</g>
			<g>
				
					<rect x="339.1" y="462.5" transform="matrix(-0.7806 0.6251 -0.6251 -0.7806 930.0831 627.2)" fill="none" width="31.6" height="28.7"/>
				<polygon fill="#00EEFF" points="352.9,477.9 344.3,467 355.3,470.9 362.7,461.2 361.3,473.9 370.6,479.8 360.2,478.7 
					359.5,491.6 354.6,481.2 342.6,486.7 				"/>
			</g>
			<g>
				
					<rect x="317.1" y="496" transform="matrix(5.056421e-02 -0.9987 0.9987 5.056421e-02 -194.0363 797.3125)" fill="none" width="10.4" height="9.5"/>
				<polygon fill="#00EEFF" points="322.5,500 327.1,500.2 323.7,502.1 324.5,506 321.6,502.9 318.2,503.9 320.7,501.6 317.7,498.6 
					321.3,499.7 322.6,495.5 				"/>
			</g>
		</g>
	</g>
	<g>
		<g>
			<g>
				
					<rect x="521.4" y="-55.2" transform="matrix(0.1644 -0.9864 0.9864 0.1644 489.9507 473.4037)" fill="none" width="5.9" height="5.4"/>
				<polygon fill="#00EEFF" points="524.5,-52.9 527.1,-52.4 525.1,-51.6 525.3,-49.3 523.9,-51.3 521.8,-50.9 523.4,-52.1 
					521.9,-54 523.9,-53.1 524.9,-55.4 				"/>
			</g>
			<g>
				
					<rect x="503.2" y="110.2" transform="matrix(0.5508 -0.8347 0.8347 0.5508 132.1724 477.1432)" fill="none" width="12.2" height="11.1"/>
				<polygon fill="#00EEFF" points="510,115.2 514.4,118.1 509.9,118 508.4,122.5 507.3,117.6 503.2,116.6 507.2,115.7 505.9,110.9 
					508.9,114.1 512.7,110.7 				"/>
			</g>
			<g>
				
					<rect x="492.7" y="178.6" transform="matrix(0.6053 0.796 -0.796 0.6053 338.8177 -322.5391)" fill="none" width="3.9" height="3.5"/>
				<polygon fill="#00EEFF" points="494.8,180.7 493.4,181.7 493.9,180.3 492.8,179.4 494.3,179.6 495.1,178.5 494.9,179.8 
					496.5,179.9 495.2,180.5 495.9,182 				"/>
			</g>
			<g>
				
					<rect x="456.5" y="218.6" transform="matrix(-0.9486 -0.3163 0.3163 -0.9486 826.5416 578.0709)" fill="none" width="7.3" height="6.6"/>
				<polygon fill="#00EEFF" points="459.7,221.7 460.8,218.6 461.4,221.3 464.2,221.5 461.6,222.8 461.6,225.4 460.5,223.2 
					457.9,224.7 459.3,222.4 456.7,220.8 				"/>
			</g>
			<g>
				
					<rect x="375.3" y="233" transform="matrix(-0.7768 -0.6297 0.6297 -0.7768 529.6211 668.0832)" fill="none" width="15.9" height="14.4"/>
				<polygon fill="#00EEFF" points="382.5,239.3 386.9,233.9 386.2,239.7 391.7,242.3 385.3,243 383.4,248.2 382.9,243 376.5,244 
					381,240.5 377,235.2 				"/>
			</g>
			<g>
				
					<rect x="250.7" y="125.2" transform="matrix(-0.7049 0.7094 -0.7094 -0.7049 529.506 40.3941)" fill="none" width="11.3" height="10.2"/>
				<polygon fill="#00EEFF" points="255.7,130.8 252.2,127.3 256.2,128.2 258.5,124.5 258.5,129.1 262,130.8 258.3,130.8 
					258.5,135.4 256.4,131.9 252.4,134.4 				"/>
			</g>
			<g>
				
					<rect x="231.6" y="211.3" transform="matrix(-0.9536 0.3011 -0.3011 -0.9536 551.013 366.0905)" fill="none" width="31.4" height="28.4"/>
				<polygon fill="#00EEFF" points="245,225.7 240.9,212.6 249.7,220.1 260,213.8 254.2,225.1 260.7,233.9 251.5,229.1 246.2,240.8 
					245.4,229.4 232.3,230.2 				"/>
			</g>
			<g>
				
					<rect x="221.8" y="325.5" transform="matrix(0.8065 -0.5912 0.5912 0.8065 -151.9722 199.6592)" fill="none" width="14.5" height="13.1"/>
				<polygon fill="#00EEFF" points="230,331.6 233.8,336.7 228.8,334.7 225.2,339 226.1,333.2 222,330.4 226.7,331.1 227.3,325.2 
					229.3,330 234.9,327.7 				"/>
			</g>
			<g>
				
					<rect x="109.5" y="235.2" transform="matrix(0.4559 -0.89 0.89 0.4559 -151.0235 232.1446)" fill="none" width="9.8" height="8.9"/>
				<polygon fill="#00EEFF" points="114.8,239.1 118.6,241 115,241.3 114.2,245 112.9,241.2 109.6,240.7 112.7,239.8 111.2,236 
					113.9,238.3 116.6,235.2 				"/>
			</g>
			<g>
				
					<rect x="165.6" y="346.8" transform="matrix(-0.9589 0.2837 -0.2837 -0.9589 445.955 647.9448)" fill="none" width="20.9" height="18.9"/>
				<polygon fill="#00EEFF" points="174.6,356.4 172,347.6 177.7,352.7 184.7,348.6 180.7,356.1 184.9,362 178.8,358.7 175.1,366.4 
					174.8,358.9 166,359.2 				"/>
			</g>
			<g>
				
					<rect x="52.8" y="280.2" transform="matrix(-0.9803 -0.1978 0.1978 -0.9803 61.2139 578.7824)" fill="none" width="13.4" height="12.2"/>
				<polygon fill="#00EEFF" points="58.6,285.9 59.8,280.2 61.5,284.8 66.7,284.6 62.2,287.6 62.8,292.3 60.3,288.5 55.9,291.8 
					58,287.4 52.9,285 				"/>
			</g>
			<g>
				
					<rect x="66.1" y="411" transform="matrix(0.9632 0.2687 -0.2687 0.9632 114.5766 -4.1021)" fill="none" width="12.3" height="11.2"/>
				<polygon fill="#00EEFF" points="73.1,417 71.6,422.2 70.3,417.8 65.6,417.7 69.9,415.2 69.7,410.9 71.7,414.5 75.9,411.8 
					73.7,415.7 78.2,418.2 				"/>
			</g>
		</g>
	</g>
	<g>
		<g>
			<g>
				
					<rect x="773.3" y="191.8" transform="matrix(-0.7776 0.6288 -0.6288 -0.7776 1514.0704 -137.3357)" fill="none" width="16.1" height="14.6"/>
				<polygon fill="#E6FF2E" points="780.3,199.6 775.9,194.2 781.5,196.1 785.2,191.1 784.6,197.6 789.3,200.6 784,200 783.7,206.6 
					781.2,201.3 775.1,204.2 				"/>
			</g>
			<g>
				
					<rect x="716.7" y="173.7" transform="matrix(-0.3087 -0.9511 0.9511 -0.3087 774.2337 915.7684)" fill="none" width="6.4" height="5.8"/>
				<polygon fill="#E6FF2E" points="719.8,176.1 722.5,175.2 721,177 722.3,179.1 720,177.9 718.2,179.3 719.2,177.4 716.8,176.3 
					719.1,176.2 718.9,173.5 				"/>
			</g>
			<g>
				
					<rect x="650" y="202.7" transform="matrix(0.8688 0.4952 -0.4952 0.8688 191.0085 -298.7405)" fill="none" width="18.3" height="16.6"/>
				<polygon fill="#E6FF2E" points="660.1,211.9 656.2,218.9 655.9,212.1 649.1,210.2 656.2,208.2 657.4,202 659,207.8 666.1,205.5 
					661.6,210.3 667.1,215.5 				"/>
			</g>
			<g>
				
					<rect x="592.8" y="254.8" transform="matrix(-0.7099 -0.7043 0.7043 -0.7099 840.7572 866.9542)" fill="none" width="12.3" height="11.1"/>
				<polygon fill="#E6FF2E" points="598.4,259.6 602.2,255.8 601.2,260.2 605.3,262.6 600.3,262.7 598.5,266.5 598.4,262.4 
					593.4,262.7 597.2,260.4 594.6,256 				"/>
			</g>
			<g>
				
					<rect x="460.4" y="141.4" transform="matrix(0.9956 9.399227e-02 -9.399227e-02 0.9956 16.7237 -44.0563)" fill="none" width="31.2" height="28.3"/>
				<polygon fill="#E6FF2E" points="478.2,156.2 476.9,169.8 471.7,159.5 459.8,161.3 469.5,153.2 467,142.6 473.6,150.6 483,141.9 
					479.3,152.6 491.6,157 				"/>
			</g>
			<g>
				
					<rect x="406" y="198.7" transform="matrix(-0.9954 9.548766e-02 -9.548766e-02 -0.9954 858.9588 382.4146)" fill="none" width="28.8" height="26.1"/>
				<polygon fill="#E6FF2E" points="418.3,211.5 417.1,199 423.5,207.4 434,203.7 426.6,212.7 430.8,221.8 423.4,215.8 416.4,225.2 
					417.9,214.9 406,213.1 				"/>
			</g>
			<g>
				
					<rect x="379.1" y="301.7" transform="matrix(0.8288 -0.5596 0.5596 0.8288 -107.7486 271.9082)" fill="none" width="22.7" height="20.6"/>
				<polygon fill="#E6FF2E" points="391.9,311.4 397.5,319.6 389.8,316.2 384,322.8 385.7,313.7 379.4,309 386.8,310.4 388,301.2 
					390.9,308.9 399.8,305.7 				"/>
			</g>
			<g>
				
					<rect x="315.6" y="353.5" transform="matrix(0.7872 0.6167 -0.6167 0.7872 292.1378 -123.221)" fill="none" width="17.9" height="16.3"/>
				<polygon fill="#E6FF2E" points="325.4,362.7 320.6,368.9 321.3,362.3 314.9,359.5 322.2,358.5 324.2,352.6 324.9,358.5 
					332.2,357.3 327.1,361.3 331.7,367.2 				"/>
			</g>
			<g>
				
					<rect x="271.1" y="427.2" transform="matrix(0.51 -0.8602 0.8602 0.51 -235.0705 444.7212)" fill="none" width="3.4" height="3"/>
				<polygon fill="#E6FF2E" points="273,428.5 274.2,429.3 273,429.3 272.6,430.5 272.3,429.2 271.1,429 272.2,428.7 271.8,427.4 
					272.7,428.2 273.7,427.2 				"/>
			</g>
			<g>
				
					<rect x="213.6" y="451.3" transform="matrix(0.2694 -0.963 0.963 0.2694 -279.8086 549.7454)" fill="none" width="17.7" height="16.1"/>
				<polygon fill="#E6FF2E" points="223,458.2 230.5,460.3 224.2,462.1 224,468.9 220.5,462.7 214.3,463.1 219.4,460.2 215.5,454.1 
					221.1,457.2 224.8,450.8 				"/>
			</g>
			<g>
				
					<rect x="131.8" y="396.9" transform="matrix(-0.9982 -6.033873e-02 6.033873e-02 -0.9982 243.5365 804.984)" fill="none" width="4.3" height="3.9"/>
				<polygon fill="#E6FF2E" points="133.6,398.7 133.7,396.9 134.5,398.2 136.1,397.9 134.8,399.1 135.2,400.5 134.3,399.5 
					133,400.7 133.5,399.2 131.8,398.7 				"/>
			</g>
			<g>
				
					<rect x="173.8" y="530.4" transform="matrix(-0.9783 -0.2073 0.2073 -0.9783 258.049 1112.1437)" fill="none" width="26.9" height="24.4"/>
				<polygon fill="#E6FF2E" points="185.5,541.7 188,530.2 191.4,539.5 201.8,539.2 192.6,545.2 193.8,554.5 188.9,547 180,553.5 
					184.3,544.7 174.1,539.8 				"/>
			</g>
		</g>
	</g>
	<g>
		<g>
			<g>
				
					<rect x="306.2" y="148.3" transform="matrix(-0.2684 -0.9633 0.9633 -0.2684 251.5534 514.9483)" fill="none" width="30.2" height="27.3"/>
				<polygon fill="#E6FF2E" points="321.2,159.8 333.9,156.2 326.4,164.4 332.2,174.6 321.5,168.6 312.9,174.6 317.8,165.9 
					306.7,160.4 317.6,160 317.3,147.4 				"/>
			</g>
			<g>
				
					<rect x="303.2" y="257.8" transform="matrix(-0.2884 -0.9575 0.9575 -0.2884 147.3828 640.5195)" fill="none" width="17" height="15.4"/>
				<polygon fill="#E6FF2E" points="311.6,264.3 318.7,262.1 314.6,266.8 318,272.5 311.9,269.3 307.1,272.7 309.7,267.7 
					303.4,264.8 309.6,264.5 309.2,257.3 				"/>
			</g>
			<g>
				
					<rect x="289.2" y="312.6" transform="matrix(-0.9994 -3.465968e-02 3.465968e-02 -0.9994 585.9313 652.5359)" fill="none" width="18.9" height="17.1"/>
				<polygon fill="#E6FF2E" points="297.3,320.8 297.6,312.6 301.1,318.6 308.2,317.1 302.6,322.4 304.6,328.6 300.3,324 
					294.9,329.6 296.8,323 289.2,320.9 				"/>
			</g>
			<g>
				
					<rect x="259.3" y="360.5" transform="matrix(-0.3664 0.9304 -0.9304 -0.3664 696.913 252.429)" fill="none" width="6.5" height="5.9"/>
				<polygon fill="#E6FF2E" points="262.3,363.9 259.6,362.8 262,362.4 262.3,359.9 263.4,362.3 265.6,362.4 263.6,363.3 
					264.8,365.7 262.9,364.3 261.3,366.5 				"/>
			</g>
			<g>
				
					<rect x="141.8" y="364.5" transform="matrix(-0.6207 -0.7841 0.7841 -0.6207 -46.8717 724.4077)" fill="none" width="20" height="18.1"/>
				<polygon fill="#E6FF2E" points="151.2,372.2 158,366.8 155.5,373.8 161.6,378.5 153.6,377.6 149.9,383.4 150.6,376.8 
					142.5,376.3 149,373.3 145.6,365.7 				"/>
			</g>
			<g>
				
					<rect x="49.2" y="352" transform="matrix(0.9113 -0.4116 0.4116 0.9113 -143.4373 56.4903)" fill="none" width="20.5" height="18.6"/>
				<polygon fill="#E6FF2E" points="60.9,360.9 64.6,369.1 58.3,364.9 52.1,369.9 54.9,362 50.1,356.9 56.4,359.3 59,351.3 
					60.3,358.6 68.8,357 				"/>
			</g>
		</g>
	</g>
</g>
<g id="Layer_2">
	<path fill="#0057B9" d="M999,326.7v258.1H394.8c4.6-16.8,10.2-33.2,16.8-49.1c4.6-11.2,9.7-22.1,15.2-32.7
		c22.2-42.8,51.5-81.2,86.3-113.8c21.9-20.5,46.1-38.7,72-54.1c0.5-0.3,1-0.6,1.4-0.9c21.7-12.8,44.7-23.7,68.6-32.5c0,0,0,0,0,0
		c45-16.5,93.5-25.5,144.2-25.5c41.1,0,80.8,5.9,118.3,16.9c12.3,3.6,24.3,7.8,36.1,12.4c1.4,0.6,2.9,1.1,4.3,1.7
		c10,4.1,19.8,8.5,29.4,13.4C991.4,322.6,995.2,324.6,999,326.7z"/>
	<path fill="#007346" d="M988.1,329.1c-1.3,8.1-8.6,14.4-13.9,19.8c-6.4,6.5-13,18.3-19.4,27.9c-7.2,10.8-9.6,13.6-19.8,17.5
		c-4.6,1.7-5.9-0.9-10.3,2.5c-10.1,7.8-13.7,29.9-23.1,40.4c-10.5,11.9-24.5,23.3-39.3,28.5c-24.4,8.5-64.4,18.3-88.3,7.5
		c-1.8-0.8-3.4-1.7-4.8-2.6c-3.8-2.2-6.9-4.2-11.9-4.4c-7.9-0.3-14.7,6.1-22.4,5.7c-1.5-7.8-12.8-11.8-18.9-15
		c1.4-4.7,1.7-10.2-0.2-14.9c-15.2-0.9-26.9-7.4-42.6-8.4c-12.8-0.8-33-3.2-43-11.6c-5-4.2-7.7-16.3,0.4-19.3
		c0.9-0.3,1.9-0.5,3.1-0.6c4-0.3,10.6,7.7,14.7,9.3c4.1,1.6,9.7,2.3,14.1,2.5c13.6,0.7,27.2-3.2,40.7-4c17.3-1,31.7-6.4,42.1-20.9
		c0.4-0.6,0.8-1.1,1.1-1.6c10.5-16.8-11.1-23.2-23.9-31.4c-1.2-0.8-1.5-3.2-3.1-4.2c-1.6-1.1-5.1,0.5-7.2-0.7
		c-7.2-4.3,0.1-6.1-10.4-6.6c-9-0.5-14.4,4-16.7-6.5c-2.4,1.2-5.5,0.2-7.8,0.8c-1.6-7.8-16.5,1.5-24-1.9c-3.6-1.6-6.7-5.4-8.3-8.8
		c-5.5-0.3-12.2,0.8-17.1-1c3.4-10.2,14.7-18.5,27.5-25.2c0,0,0,0,0,0c0.5-0.2,0.9-0.3,1.4-0.5c44.6-16.2,92.7-25,142.8-25
		c67.6,0,131.5,16,188.1,44.4C988.2,323.5,988.5,326.3,988.1,329.1z"/>
	<path fill="#AEBA8E" d="M754.5,380.2c-1,2.3-6.1,5.6-8.4,7.1c10.5-16.8-11.1-23.2-23.9-31.4c-1.2-0.8-1.5-3.2-3.1-4.2
		c-1.6-1.1-5.1,0.5-7.2-0.7c-7.2-4.3,0.1-6.1-10.4-6.6c-9-0.5-14.4,4-16.7-6.5c-2.4,1.2-5.5,0.2-7.8,0.8c-1.6-7.8-16.5,1.5-24-1.9
		c-3.6-1.6-6.7-5.4-8.3-8.8c-5.5-0.3-12.2,0.8-17.1-1c3.4-10.2,14.7-18.5,27.5-25.2c0,0,0,0,0,0c0.5-0.2,0.9-0.3,1.4-0.5
		c-0.4,1.1-0.7,2.2-0.9,3.1c0.7,0,1.9,0.7,2.5,0.7c-0.4,2-2,3.6-2.6,5.5c5.6,1.1,3,5,6.6,7.1c5.6,3.2,14.2,2.3,20.3,5.3
		c4,2,7.6,4.7,11.6,6.8c2.9,1.6,4.8,3,6.9,4.8c1.2,1,1.2,1.6,3,2.4c2.6,1.1,8.5-1.1,9.6,2c-0.5,0.4-0.8,1-1.2,1.4
		c2.5,0.4,6.5,0,8.7,1.2c1.6,0.9,1,1.8,2.2,2.7c2.1,1.7,10.2,3.5,5.2,7.2c2,1.9,14.8,6.4,11.6,9.7c4.5,3.9,11.2,9.2,13.6,14.8
		C754.7,377.5,755.3,378.5,754.5,380.2z"/>
	<path fill="#AEBA8E" d="M800.8,436.1c-1,5-3.1,9.8-4.5,14.6c-1.5,4.9-1.6,9.9-6.2,12.8c-5.6,3.6-13.5,5.6-21,7
		c-3.8-2.2-6.9-4.2-11.9-4.4c-7.9-0.3-14.7,6.1-22.4,5.7c-1.5-7.8-12.8-11.8-18.9-15c1.4-4.7,1.7-10.2-0.2-14.9
		c-15.2-0.9-26.9-7.4-42.6-8.4c-12.8-0.8-33-3.2-43-11.6c-5-4.2-7.7-16.3,0.4-19.3c-0.7,3.2-0.8,7.2,0.8,9.1c3.2,3.8,8-0.8,7.5,6.2
		c7.5,1.4,13-1,18.9,4.7c7.3,6.9,21.1,2.2,30.4,4.2c1.4,0.3,3.4,1.4,4.6,1.5c4.4,0.6,9-1.6,13.4-2.8c4.5-1.2,14.8-6.3,15.4,1.2
		c1.8,0.5,5.4-0.3,6.7,0.8c1.8,1.6,0.2,3.5,2.6,4.8c1.1,0.6,6.4,0.7,8.2,0.9c6.2,0.6,12.4-2.4,18.6-2.7c8.5-0.4,16.6-0.4,25.1-1.9
		c3.3-0.6,15.9-4.7,18.6-0.9C802.4,429.7,801.2,434,800.8,436.1z"/>
	<path fill="#AEBA8E" d="M881.1,331.4c-15.7,0.2-31.1,3.2-46.2,7.1c-6.3,1.6-12.4,2.9-18.2,5.8c-2.7,1.3-7.9,2.6-9.4,4.9
		c2.4,0.1,4.8,0,7.2,0.1c-4.6,3.4-11.9,5-15.4,9.7c2.3,1.1,4.9,0.9,7.2,1.9c-0.3,1.7-1.7,3.3-2.1,5.2c1.8,1.6,4.4,1.4,6.5,2.6
		c0.9,0.6,1.3,1.9,2.2,2.4c2.7,1.4,6.6,1,9.5,1c2.2,0,6.8-1.3,8.9-0.4c1.6,0.7,1.3,1.9,3.4,2.6c2.2,0.7,8.9-1.3,10.7-1.4
		c2.4-0.1,4.4,0.2,6.8,0.6c2.4,0.4,1.6,2.1,4.4,0.9c3.8-1.6,3.1-8.4,6.3-11c4.9-4,12.2-1.6,17.6-4.3c2.8-1.4,4.5-4.4,7.1-5.8
		c3.3-1.7,8.2-0.8,12-0.8c10,0,18.7,0.7,26.6-6.7L881.1,331.4z"/>
	<path fill="#005646" d="M724.3,290.8c-4.9-0.1-11.3,2.4-14.8,5.6c0.7,0,1.5,0.3,1.8,0.3c-0.8,0.7-4,2.3-4.1,3.4
		c-0.2,2.4,2.1,1.3,3.2,2.3c2.8,2.5,0.8,0.9,1.1,4.1c0.1,1.3-0.9,0.9,0,2.2c0.8,1.1,7.6,1.8,8.4,2c2.6,0.8,5.9,1.8,6.9,4.7
		c0.5,1.2-0.4,2.9,0,4c2,4.5,12.1,2.3,16.1,5.6c4.7,3.9,1.2,9.8,4,13.8c2.5,3.6,7.6,2.2,11.2,2.6c-0.2,7.3,0.6,5.4,9.2,7.7
		c5.1,1.4,3.9,2.3,4.3,6.8c3.9,1.6,15.7-7.9,17.8-10.4c1.2-1.4,1.7-3.6,3.3-5.1c3.7-3.5,8.8-4.8,13.7-5.8c7.6-1.6,14.3-2.5,21.5-5.4
		c7.9-3.2,17.2-5.1,24.6-9.1c1.3-0.7,2.5-1.2,3.4-2.4c-2.9-2.1-6.4-3-9.1-5.4c3.2-2.9,14.1-0.6,15.5-5.5c0.9-3.4-3-2.6-5.1-4.5
		c0.1-0.4,0.3-0.8,0.5-1.1c-2.8-1.4-8.3-3.7-11.3-4.2c-7.5-1.1-20.2,2.9-27.5,4.8c0.9-0.4,1.7-1,2.6-1.3c-12.3,0.9-25.6,6.5-38,4.7
		c1-1.5,2.5-2.5,3.3-4.1c-4.4-1-9.4,1-13.9,1.2c-6.1-5.9-19.5-3.7-27.4-7.1c0-0.2,0.1-0.4,0.2-0.6c0.5-0.3,0.9-0.5,1.3-0.8
		c-6.1-0.5-10.7,1.7-17,0c0.4-2.7-3.1-2.8-4.8-2.3"/>
	<path fill="#005646" d="M831.2,386.9c-12.2,0-24.4,0.9-36.6,1.7c-7.5,0.5-15,1.5-22.4,3c-4.2,0.9-15.7,2-17.4,6.8
		c3,1.6,4.5,0.2,3.5,3.4c-1.4,4.6-10.2,4.6-12.5,8.6c4.4,1,2.4,3.2,1,5.9c4.7,4.3,15.1,4.5,21.2,6.2c4.1,1.1,8.2,3.2,12.5,3.6
		c7.4,0.6,16.5-4.5,22.9-7.4c6.2-2.8,18.4-7,22.9-12.8"/>
	<path opacity="0.54" fill="#71BDE7" d="M956.3,377.8c0,4.4-5.8,8.4-9.3,10c-4.9,2.3-12.3,2.4-17.6,3.4c-16.7,3-33.2,7.4-49.6,11.6
		c-10.5,2.7-59,22.8-64,3.8c-1-3.7,4.7-11.3,6.1-14.6c-10.4-0.3-33.8,4.8-40.9-2.7c2.1-3.4,4.8-7,5.7-10.3
		c-4.1,0.3-8.2,0.9-12.1,0.8c17.6-10.4-3.6-11.3-11.8-10.3c-9.2,1.2-24.7,4.3-33.7,1.7c1.1-1.2,1.9-4,2.8-5
		c-4.1-0.3-8.2-0.2-12.3-0.3c-2.5-12.9-36.3-4.8-45.3-9.7c2.1-3,1.7-6.1,2-8.9c-15.3-1.2-30.7,7.4-45.8,8.9c1.1-1.4,1.7-3.5,2.4-5
		c-5.6-0.2-11.4,0.1-17-0.2c-0.1-4.8-4.5-4.9-8.9-4c0-1.2-0.2-2.5-0.1-3.7c-1.8,0.2-4.1-0.6-5.9-0.3c1-1.5,1.7-5.1,3.1-6.8
		c-7.2,0-13.6,2.2-19-1c0.5-0.3,1-0.6,1.4-0.9c21.7-12.8,44.7-23.7,68.6-32.5c0,0,0,0,0,0c45-16.5,93.5-25.5,144.2-25.5
		c41.1,0,80.8,5.9,118.3,16.9c12.3,3.6,24.3,7.8,36.1,12.4c1.4,0.6,2.9,1.1,4.3,1.7c-3.7,4.2-7.7,7.7-12.4,9.5
		c-5.7,2.2-15.3,2.2-16.7,10c-1,5.6,7.6,10,6.6,15.3c-1.5,7.7-20.7,9.4-25.5,9.9c-14,1.3-24.1-5.4-36.2-6
		c-11.6-0.6-21.7,4.5-33.2,2.7c-7-1.2-16.7-0.4-22.6-4.7c0.9-2.2,0.9-4.5,0-6.7c-6-1.9-12.4-1.7-17.9-4.7c1.6-1.3,2.8-2.9,3.8-4.7
		c-10.4-5.6-36,2.3-41.9-9.6c25.2-4.9,48.5,7.6,72.9,5.9c9.2-0.7,18.1-3.5,27.3-4.6c10.9-1.4,26.1,3.2,35.1-3.6
		c-3.1-12.4-20.3-7.2-29.5-7c-9.4,0.3-15.4-2.1-24.1-4.3c-12-2.9-24.8-1.4-36.9-3.5c4.6-2.5,9.9-5,12.2-9.6c-5.3-12.2-25.6-2-35-3
		c2.5-0.7,3.6-2.3,3.3-4.6c-13.8-2.4-34.1,1.8-48.3,4.9c-9.3,2-21.7,7.1-29.1,14.3c2,0.3,5,2.5,6.8,2.9
		c-12.3,12.4-35.8,15.4-51.3,21c10.1,0.7,17.1,9.4,25.6,13.9c10.9,5.9,21,6.3,33.1,6.2c17.7-0.2,63.9-8.4,76,7.7c-2,2-3,5.1-6.1,6.7
		c6.8,6.9,35.9,1.6,46.9,1.5c-3.9,4-8.2,7.7-11.6,12.1C840.7,374.3,956.2,359,956.3,377.8z"/>
	<path opacity="0.54" fill="#71BDE7" d="M588.8,448.3c-4.7,14-31.8,19.9-44,19.8c-1.9,0-6.2-0.7-7.3-0.6c-5.1,0.3-14,2.7-20.5,3.5
		c-13.9,1.7-32.1-3.2-27.9-20.3c4.8-19.3,32.1-20.8,41-35.8c-6.6-8.8-22.4-3.5-28.1,4.3c0.1,0.5,0.5,0.8,1.1,0.9
		c-18.4,9.3-24.7,22-38.3,38.8c2.6,1.9,6.2,4,9.1,5.4c-4.6,4.4-10.7,6.9-13.1,12.9c4.2,3.4,12,2.6,15.3,5.8
		c3.7,3.5,0.8,7.2,3.4,10.6c3.2,4.1,11.7,3.4,13.8,7.6c3.3,6.6-6.9,14.2-11.1,17.6c-13.2,10.6-31.5,15.3-48.1,16.5
		c-5.4,0.4-14.1,1.1-22.6,0.5c4.6-11.2,9.7-22.1,15.2-32.7c22.2-42.8,51.5-81.2,86.3-113.8c0.6-0.1,1.2-0.1,1.8-0.2
		c-1,1.2-2.1,3.7-3.2,4.9c22.4,2.5,47.2-2,69.8-2.9c14.4-0.6,31.6-0.9,45.9-2.9c-18.9,17.5-53.2,27.6-78,35.3
		c-11.6,3.6-37.6,7.6-39.4,23.3c9.2,2.4,17.9-4.8,26.8-5.5c0.1,0.8-0.1,2,0.1,2.8c4.8,0.3,9.4-1.2,14.1-1.8c0.2,1,0.1,2.8,0,3.8
		c1.4,0.4,3.4,0.3,4.8,0.3c0,0.7-0.3,1.2-0.8,1.7c7.2,0.8,13.6-4.4,20.8-3.8c-0.4,1.9,0.7,4.9,0.3,6.6
		C580.2,449.1,584.8,447.8,588.8,448.3z"/>
	<path opacity="0.5" fill="#71BDE7" d="M892.7,300.6c-3.7-1.9-7.3-2.7-11.4-3.2c-17.8-2-36.2-2.2-54.2-1.9
		c-8.8,0.1-30.7,4-34.5,11.3c4,2.4,24.2,3.5,21.6,11.7c-1.1,3.5-20.2,4.6-22.8,5.1c-13,2.4-26.2,3.8-37.2,11.6
		c-9.6,6.7-8.5,10.9,2.7,13.4c11.7,2.6,23.9,2.5,35.8,4.3c4.5,0.7,10.2,0.8,14.1,3.5c-3.2,5.4-20.9,10.9-19.1,18.2
		c1.4,5.6,17.1,6.8,21.3,7.2c11.3,1.1,30.3-6,40.1,0.4c5.3,3.5,7.2,9.8,15.8,5.7c4.6-2.2,6.9-8.4,9.4-12.5
		c7.3-12.1,16.6-12,29.4-12.8c5.3-0.3,14.6-1.5,17.2-7c3.2-6.9-0.7-13.6,5.5-20.1c5.9-6.3,18-7.8,26.5-7.3"/>
	<path opacity="0.5" fill="#71BDE7" d="M435,503.1c-0.1-7.2,10.5-23.5,18.9-23c0.1,1.9-0.4,3.9-0.2,5.6c6-2.2,11.4,8.6,15.6,12.2
		c3.4,3,6.7,5.1,4.1,10.6c-3.2,6.8-18.3,9.5-25.1,9"/>
	<rect x="1012.3" y="246.3" fill="#1E2929" width="154" height="154"/>
	<path fill="#153535" d="M1161.7,310.8v77.4c0,4.2-5.4,7.6-12,7.6h-120.7c-3.8,0-7.1-1.1-9.3-2.8c-1.7-1.3-2.7-3-2.7-4.7v-77.4
		c0-4.2,5.4-7.6,12-7.6h120.7c1.7,0,3.2,0.2,4.7,0.6C1158.6,305,1161.7,307.7,1161.7,310.8z"/>
	<path fill="#1B2D32" d="M1161.7,310.8v77.4c0,4.2-5.4,7.6-12,7.6h-120.7c-3.8,0-7.1-1.1-9.3-2.8c10.7,1.2,21.7,1.5,32.6,1.3
		c10.6-0.2,21.4-1.9,31.9-1.1c5.2,0.4,10.5,0.5,15.8,0.6c9.6,0.2,20,0.2,29.6-0.3c4.3-0.2,8.5-0.7,12.7-0.9c3.2-0.2,6.6-0.4,9.3-1.6
		c4.4-1.9,4.8-5.2,5.1-8.3c0.6-5.5,0.7-11.1,1-16.6c0.2-3.3,1.4-6.5,2.1-9.7c1.2-5.6,0.5-11.2,0.2-16.8c-0.5-9.8-0.3-19.1-3.1-28.8
		c-0.7-2.3-1.6-4.6-2.4-6.9C1158.6,305,1161.7,307.7,1161.7,310.8z"/>
	<path fill="#235953" d="M1161.7,310.8v2.7c-2-1.3-4.2-2.4-6.6-3.4c-2.4-0.9-5-1.7-7.8-2.3c-3.1-0.4-6.2-0.8-9.3-1.2
		c-27.6-3.2-57.6-3.8-85.6-0.8c-3.2,0.4-6.3,0.8-9.3,1.4c-14.7,3.1-25,9.6-24.5,23.3c-0.3,2.4-0.5,4.8-0.6,7.1
		c-0.1,2.3-0.2,4.6-0.3,6.7c0,2,0.1,4,0.3,6.1c0.8,10.1,3.2,20.3,5.9,30.1c1,2.1,2.1,4.1,3.5,6.2c2.1,3.1,4.6,6.1,7.7,9h-6.2
		c-6.6,0-12-3.4-12-7.6v-77.4c0-4.2,5.4-7.6,12-7.6h120.7C1156.3,303.2,1161.7,306.6,1161.7,310.8z"/>
	<path fill="none" d="M1010.7,341.7c-0.1,0-0.1,0-0.2,0"/>
	<g>
		<path fill="#153535" d="M1153.7,308.6c0.1,0.1,0.3,0.2,0.4,0.3c2,1.6,3.1,4,3.1,6.4c0,1.7-0.5,3.5-1.5,5c-2.1,2.9-5.7,4.1-8.9,3.2
			c-0.9-0.2-1.9-0.7-2.7-1.3c-0.8-0.6-1.5-1.3-2.1-2.1c-1.9-2.8-1.9-6.6,0.1-9.5C1144.8,306.8,1150,305.9,1153.7,308.6z"/>
		<path fill="#1B2D32" d="M1153.7,308.6c0.1,0.1,0.3,0.2,0.4,0.3c2,1.6,3.1,4,3.1,6.4c-0.6-0.6-1.2-1.3-1.8-1.9
			c-2.8-2.8-6.1-4.8-9.5-0.9c-2.6,2.9-2.7,6.2-1.1,8.8c0.5,0.8,1.1,1.6,1.9,2.2c-0.9-0.2-1.9-0.7-2.7-1.3c-0.8-0.6-1.5-1.3-2.1-2.1
			c-1.9-2.8-1.9-6.6,0.1-9.5C1144.8,306.8,1150,305.9,1153.7,308.6z"/>
		<path fill="#235953" d="M1155.5,313.3c0.1-1.8-0.8-3-1.3-4.5c2,1.6,3.1,4,3.1,6.4c0,1.7-0.5,3.5-1.5,5c-2.1,2.9-5.7,4.1-8.9,3.2
			c-0.9-0.2-1.9-0.7-2.7-1.3c-0.8-0.6-1.5-1.3-2.1-2.1c0.5,0.3,0.9,0.5,1.4,0.7c0.5,0.2,1,0.4,1.5,0.5c2.3,0.6,4.9,0.4,6.8-1
			c1.8-1.4,3.2-3.8,3.7-6C1155.4,313.9,1155.4,313.6,1155.5,313.3z"/>
	</g>
	<g>
		<path fill="#153535" d="M1032.8,377.3c0.1,0.1,0.3,0.2,0.4,0.3c2,1.6,3.1,4,3.1,6.4c0,1.7-0.5,3.5-1.5,5c-2.1,2.9-5.7,4.1-8.9,3.2
			c-0.9-0.2-1.9-0.7-2.7-1.3c-0.8-0.6-1.5-1.3-2.1-2.1c-1.9-2.8-1.9-6.6,0.1-9.5C1023.8,375.5,1029,374.6,1032.8,377.3z"/>
		<path fill="#1B2D32" d="M1032.8,377.3c0.1,0.1,0.3,0.2,0.4,0.3c2,1.6,3.1,4,3.1,6.4c-0.6-0.6-1.2-1.3-1.8-1.9
			c-2.8-2.8-6.1-4.8-9.5-0.9c-2.6,2.9-2.7,6.2-1.1,8.8c0.5,0.8,1.1,1.6,1.9,2.2c-0.9-0.2-1.9-0.7-2.7-1.3c-0.8-0.6-1.5-1.3-2.1-2.1
			c-1.9-2.8-1.9-6.6,0.1-9.5C1023.8,375.5,1029,374.6,1032.8,377.3z"/>
		<path fill="#235953" d="M1034.5,382c0.1-1.8-0.8-3-1.3-4.5c2,1.6,3.1,4,3.1,6.4c0,1.7-0.5,3.5-1.5,5c-2.1,2.9-5.7,4.1-8.9,3.2
			c-0.9-0.2-1.9-0.7-2.7-1.3c-0.8-0.6-1.5-1.3-2.1-2.1c0.5,0.3,0.9,0.5,1.4,0.7c0.5,0.2,1,0.4,1.5,0.5c2.3,0.6,4.9,0.4,6.8-1
			c1.8-1.4,3.2-3.8,3.7-6C1034.4,382.6,1034.5,382.3,1034.5,382z"/>
	</g>
	<g>
		<path fill="#153535" d="M1153.3,375.4c0.1,0.1,0.3,0.2,0.4,0.3c2,1.6,3.1,4,3.1,6.4c0,1.7-0.5,3.5-1.5,5c-2.1,2.9-5.7,4.1-8.9,3.2
			c-0.9-0.2-1.9-0.7-2.7-1.3s-1.5-1.3-2.1-2.1c-1.9-2.8-1.9-6.6,0.1-9.5C1144.4,373.6,1149.6,372.7,1153.3,375.4z"/>
		<path fill="#1B2D32" d="M1153.3,375.4c0.1,0.1,0.3,0.2,0.4,0.3c2,1.6,3.1,4,3.1,6.4c-0.6-0.6-1.2-1.3-1.8-1.9
			c-2.8-2.8-6.1-4.8-9.5-0.9c-2.6,2.9-2.7,6.2-1.1,8.8c0.5,0.8,1.1,1.6,1.9,2.2c-0.9-0.2-1.9-0.7-2.7-1.3s-1.5-1.3-2.1-2.1
			c-1.9-2.8-1.9-6.6,0.1-9.5C1144.4,373.6,1149.6,372.7,1153.3,375.4z"/>
		<path fill="#235953" d="M1155,380.1c0.1-1.8-0.8-3-1.3-4.5c2,1.6,3.1,4,3.1,6.4c0,1.7-0.5,3.5-1.5,5c-2.1,2.9-5.7,4.1-8.9,3.2
			c-0.9-0.2-1.9-0.7-2.7-1.3s-1.5-1.3-2.1-2.1c0.5,0.3,0.9,0.5,1.4,0.7c0.5,0.2,1,0.4,1.5,0.5c2.3,0.6,4.9,0.4,6.8-1
			c1.8-1.4,3.2-3.8,3.7-6C1155,380.7,1155,380.4,1155,380.1z"/>
	</g>
	<g>
		<path fill="#153535" d="M1035.2,309.4c0.1,0.1,0.3,0.2,0.4,0.3c2,1.6,3.1,4,3.1,6.4c0,1.7-0.5,3.5-1.5,5c-2.1,2.9-5.7,4.1-8.9,3.2
			c-0.9-0.2-1.9-0.7-2.7-1.3s-1.5-1.3-2.1-2.1c-1.9-2.8-1.9-6.6,0.1-9.5C1026.2,307.6,1031.4,306.7,1035.2,309.4z"/>
		<path fill="#1B2D32" d="M1035.2,309.4c0.1,0.1,0.3,0.2,0.4,0.3c2,1.6,3.1,4,3.1,6.4c-0.6-0.6-1.2-1.3-1.8-1.9
			c-2.8-2.8-6.1-4.8-9.5-0.9c-2.6,2.9-2.7,6.2-1.1,8.8c0.5,0.8,1.1,1.6,1.9,2.2c-0.9-0.2-1.9-0.7-2.7-1.3s-1.5-1.3-2.1-2.1
			c-1.9-2.8-1.9-6.6,0.1-9.5C1026.2,307.6,1031.4,306.7,1035.2,309.4z"/>
		<path fill="#235953" d="M1036.9,314.2c0.1-1.8-0.8-3-1.3-4.5c2,1.6,3.1,4,3.1,6.4c0,1.7-0.5,3.5-1.5,5c-2.1,2.9-5.7,4.1-8.9,3.2
			c-0.9-0.2-1.9-0.7-2.7-1.3s-1.5-1.3-2.1-2.1c0.5,0.3,0.9,0.5,1.4,0.7c0.5,0.2,1,0.4,1.5,0.5c2.3,0.6,4.9,0.4,6.8-1
			c1.8-1.4,3.2-3.8,3.7-6C1036.8,314.7,1036.9,314.4,1036.9,314.2z"/>
	</g>
	<path fill="#012E2E" d="M1050,338.2c1.4,0,24.3,4.4,24.3,4.4l18.2,22.8l-28.7,3.9L1050,338.2z"/>
	<path fill="#153535" d="M1161.3,255.4v38.7c0,2.1-5.4,3.8-12,3.8h-120.7c-3.8,0-7.1-0.6-9.3-1.4c-1.7-0.7-2.7-1.5-2.7-2.4v-38.7
		c0-2.1,5.4-3.8,12-3.8h120.7c1.7,0,3.2,0.1,4.7,0.3C1158.3,252.5,1161.3,253.9,1161.3,255.4z"/>
	<path fill="#1B2D32" d="M1161.3,255.4v38.7c0,2.1-5.4,3.8-12,3.8h-120.7c-3.8,0-7.1-0.6-9.3-1.4c10.7,0.6,21.8,0.7,32.6,0.6
		c10.6-0.1,21.4-1,31.9-0.6c5.2,0.2,10.5,0.2,15.8,0.3c9.6,0.1,20,0.1,29.6-0.1c4.3-0.1,8.5-0.4,12.7-0.5c3.2-0.1,6.6-0.2,9.3-0.8
		c4.4-0.9,4.8-2.6,5.1-4.1c0.6-2.8,0.7-5.5,1-8.3c0.2-1.6,1.4-3.2,2.1-4.9c1.2-2.8,0.5-5.6,0.2-8.4c-0.5-4.9-0.3-9.5-3.1-14.4
		c-0.7-1.2-1.6-2.3-2.4-3.4C1158.3,252.5,1161.3,253.9,1161.3,255.4z"/>
	<path fill="#235953" d="M1161.3,255.4v1.3c-2-0.7-4.2-1.2-6.5-1.7c-2.4-0.5-5-0.8-7.8-1.1c-3.1-0.2-6.2-0.4-9.3-0.6
		c-27.6-1.6-57.6-1.9-85.6-0.4c-3.2,0.2-6.3,0.4-9.3,0.7c-14.7,1.5-25,4.8-24.5,11.6c-0.3,1.2-0.5,2.4-0.6,3.5
		c-0.1,1.2-0.2,2.3-0.3,3.3c0,1,0.1,2,0.3,3c0.8,5.1,3.2,10.1,5.9,15c1,1,2.2,2.1,3.5,3.1c2.1,1.5,4.6,3,7.7,4.5h-6.2
		c-6.6,0-12-1.7-12-3.8v-38.7c0-2.1,5.4-3.8,12-3.8h120.7C1155.9,251.6,1161.3,253.3,1161.3,255.4z"/>
	<polygon fill="#283E3D" points="1125.2,326.9 1079.9,341.7 1105.4,377.6 1135,352.4 	"/>
	<polygon fill="#012E2E" points="1077,256.9 1041.1,265.2 1087.4,292.4 1129.9,278.4 1084.3,274.6 	"/>
	<g>
		<path fill="#153535" d="M1035.2,268.7c0.1,0.1,0.3,0.2,0.4,0.3c2,1.6,3.1,4,3.1,6.4c0,1.7-0.5,3.5-1.5,5c-2.1,2.9-5.7,4.1-8.9,3.2
			c-0.9-0.2-1.9-0.7-2.7-1.3c-0.8-0.6-1.5-1.3-2.1-2.1c-1.9-2.8-1.9-6.6,0.1-9.5C1026.2,266.9,1031.4,266,1035.2,268.7z"/>
		<path fill="#1B2D32" d="M1035.2,268.7c0.1,0.1,0.3,0.2,0.4,0.3c2,1.6,3.1,4,3.1,6.4c-0.6-0.6-1.2-1.3-1.8-1.9
			c-2.8-2.8-6.1-4.8-9.5-0.9c-2.6,2.9-2.7,6.2-1.1,8.8c0.5,0.8,1.1,1.6,1.9,2.2c-0.9-0.2-1.9-0.7-2.7-1.3c-0.8-0.6-1.5-1.3-2.1-2.1
			c-1.9-2.8-1.9-6.6,0.1-9.5C1026.2,266.9,1031.4,266,1035.2,268.7z"/>
		<path fill="#235953" d="M1036.9,273.4c0.1-1.8-0.8-3-1.3-4.5c2,1.6,3.1,4,3.1,6.4c0,1.7-0.5,3.5-1.5,5c-2.1,2.9-5.7,4.1-8.9,3.2
			c-0.9-0.2-1.9-0.7-2.7-1.3c-0.8-0.6-1.5-1.3-2.1-2.1c0.5,0.3,0.9,0.5,1.4,0.7c0.5,0.2,1,0.4,1.5,0.5c2.3,0.6,4.9,0.4,6.8-1
			c1.8-1.4,3.2-3.8,3.7-6C1036.8,274,1036.9,273.7,1036.9,273.4z"/>
	</g>
	<g>
		<path fill="#153535" d="M1153.3,267.3c0.1,0.1,0.3,0.2,0.4,0.3c2,1.6,3.1,4,3.1,6.4c0,1.7-0.5,3.5-1.5,5c-2.1,2.9-5.7,4.1-8.9,3.2
			c-0.9-0.2-1.9-0.7-2.7-1.3c-0.8-0.6-1.5-1.3-2.1-2.1c-1.9-2.8-1.9-6.6,0.1-9.5C1144.4,265.6,1149.6,264.7,1153.3,267.3z"/>
		<path fill="#1B2D32" d="M1153.3,267.3c0.1,0.1,0.3,0.2,0.4,0.3c2,1.6,3.1,4,3.1,6.4c-0.6-0.6-1.2-1.3-1.8-1.9
			c-2.8-2.8-6.1-4.8-9.5-0.9c-2.6,2.9-2.7,6.2-1.1,8.8c0.5,0.8,1.1,1.6,1.9,2.2c-0.9-0.2-1.9-0.7-2.7-1.3c-0.8-0.6-1.5-1.3-2.1-2.1
			c-1.9-2.8-1.9-6.6,0.1-9.5C1144.4,265.6,1149.6,264.7,1153.3,267.3z"/>
		<path fill="#235953" d="M1155,272.1c0.1-1.8-0.8-3-1.3-4.5c2,1.6,3.1,4,3.1,6.4c0,1.7-0.5,3.5-1.5,5c-2.1,2.9-5.7,4.1-8.9,3.2
			c-0.9-0.2-1.9-0.7-2.7-1.3c-0.8-0.6-1.5-1.3-2.1-2.1c0.5,0.3,0.9,0.5,1.4,0.7c0.5,0.2,1,0.4,1.5,0.5c2.3,0.6,4.9,0.4,6.8-1
			c1.8-1.4,3.2-3.8,3.7-6C1155,272.7,1155,272.4,1155,272.1z"/>
	</g>
	<path fill="#235953" d="M902,180c15,37.3,18.3,73.4,9.1,113c-9.7,41.8-45.4,73.9-74.2,103.2c-35.9,36.5-92,56.9-138.6,74.8
		c-31.7,12.2-64.8,21.7-97.3,31.7c-16.6,5.1-33.4,9.3-50,14.2c-7.7,2.3-16.9,5.8-25,5c4.2-4.9,42.9-4.2,48.7-4.8
		c40.9-4.6,81.7-10.7,122.5-16.1c50.7-6.6,94.7-20.4,138.8-46c38.2-22.2,70.6-50.9,90.2-91.1c10.9-22.3,26.5-43.9,28.8-69.1
		c2.3-25.1-3.1-49.7-9.9-73.7"/>
</g>
<g id="Layer_1">
	<linearGradient id="SVGID_1_" gradientUnits="userSpaceOnUse" x1="477" y1="570" x2="477" y2="-9">
		<stop  offset="0" style="stop-color:#002126"/>
		<stop  offset="1" style="stop-color:#00362C"/>
	</linearGradient>
	<path fill="url(#SVGID_1_)" d="M-13-9v579h980V-9H-13z M472,492c-26.4,0-52.2-1.3-77.2-3.8C203.1,469,58,379.8,58,272.5
		C58,151.3,243.4,53,472,53c228.7,0,414,98.3,414,219.5c0,2,0,4-0.2,5.9C879.9,396.9,696.9,492,472,492z"/>
	<linearGradient id="SVGID_2_" gradientUnits="userSpaceOnUse" x1="8.3112" y1="481.3888" x2="271.0916" y2="481.3888">
		<stop  offset="0" style="stop-color:#002126"/>
		<stop  offset="1" style="stop-color:#00362C"/>
	</linearGradient>
	<path fill="url(#SVGID_2_)" d="M181.3,443.7c-10.6-8.3-21.8-18-33.7-24.1c-5.5-2.8-10.4-4.8-16.6-4.5c-0.5,3.4,5.9,7.2,7.7,9.9
		c1.2,1.8,2.1,3.4,3,5.3c2.6,5.3,6.6,8.4,11,12.2c5,4.3,10.2,9.1,15.6,12.7c2,1.4,6.4,1.8,6.3,4.7c-0.2,7.3-18.1,5-21.6,5
		c-7.4,0-14.2,2-21.3,3.8c-12.8,3.3-26.3,3.9-39.5,4.2c-5.7,0.1-15.4-1.1-18.5-7.1c-1.8-3.4,0.5-4.3,2.3-7.1
		c3.1-4.7,3.9-12.1,0.1-16.6c-4.6-5.4-14.2-6.5-20.7-7.4C44.4,433.4,33,434.4,22,436c-2.3,0.3-13.6,0-13.7,4.2
		c10.2,1.4,20.2-3.3,30.4-3.6c5-0.1,10-0.1,14.8,0.6c5.7,0.8,17.6,2.7,21.3,7.8c2.7,3.7-0.5,5.1-2.4,7.9c-1.9,2.9-2.5,6.6-2,10
		c1.3,9,9,11.9,16.6,15.3c6.6,3,10.7,6.7,4.2,12.2c-8.5,7.1-20,6.5-30.2,8.5c-11.7,2.3-22.4,7.5-31.7,15c-6,4.8-11.5,12.2-15.6,18.7
		c-1.7,2.6-5.1,7.7-3.7,11.3c1.3,3.5,4.9,4.1,8.3,3.5c-0.2-2.9-4.2-2.8-4.9-4.9c-1.9-5.3,10.5-14.4,12.7-17.6
		c3.3-4.7,7.2-8,11.9-11.5c4.4-3.2,9.9-4.6,15-6.5c4.2-1.5,8.2-2.8,12.6-3.4c8.9-0.6,17.7-0.4,26.5,0.7c4.4-0.9,7.4,0.2,9.1,3.3
		c-2.8,4.4-7.5,9.5,0,12.7c5.8,2.4,21.6,2.2,23.3-5.8c-5.5-3.2-9.6,1.4-14.3,2.4c-2.5,0.6-8.8,0.4-9.8-2.6
		c4.9-3.3,5.9-10.7-0.6-13.5c-5.4-2.3-12.8,0.1-17.8-2.9c5.5-1.2,11-2,14-7.1c1.5-2.5,1.6-6.4,3-8.6c2.4-3.6,15.1-3.7,19-4.4
		c9.2-1.5,17.8-4.1,27-5.2c2.9-0.4,15.8-3.4,18.2-0.6c1.6,1.8-2.2,5-3.6,6c-5.8,4.3-22.3,6.7-19.8,17.1c0.7,2.7,5.2,7.2,6.5,8.8
		c2.3,2.8,4.7,6.1,7.6,8.4c4.5,3.4,11.6,4.7,17.1,3.2c0.7-4.2-11.1-7.1-14.3-9c-3.5-2.1-7.5-5.8-9.1-9.7c-2.2-5.3,0.3-8.5,6-9.8
		c3.4-0.8,6.7-1.1,9.9-2.8c4.8-2.5,3.5-4.9,5.2-9.3c1.6-4.2,4.7-5.4,8.8-7.4c2.7-1.3,4.4-3.5,7-4.8c3.7-1.9,8.5-0.8,12.4,0
		c24.2,5.6,49.5,6,74.3,6.8c-7.2-5.4-17.6-8.8-25.8-12.2c-4.8-2-9.3-3.4-14.4-4.5c-2.7-0.6-5.9-0.7-8.3-2"/>
	<linearGradient id="SVGID_3_" gradientUnits="userSpaceOnUse" x1="836.6033" y1="536.6946" x2="836.6033" y2="412.7129">
		<stop  offset="0" style="stop-color:#002126"/>
		<stop  offset="1" style="stop-color:#00362C"/>
	</linearGradient>
	<path fill="url(#SVGID_3_)" d="M786.6,444.4c-7.6,5.2-34.7,15.4-35,24.9c15,3.9,35.2-5.2,48.5,6.5c6.8,6,2.6,11.4-1.5,17.9
		c-6.3,9.7-7.4,19-8.4,30c6.3,2,11.2,2.1,15.9,5.5c5,3.6,6.8,6.3,13.6,6.8c11.8,0.8,28,1.2,39.1-1.4c6.3-1.5,15.4-3.1,20.8-7.4
		c-6.3-0.6-14.4,0.7-18-6.4c-7.5-14.6,12.5-11.7,19.8-10.3c9.3,1.8,34.8,9.4,40.3-0.8c-6.8-2.4-14.5,1.7-21.9,0.6
		c-7.6-1.1-14.8-4.3-22.2-5.7c-15.3-3-26.2,11.1-14.6,22.2c-9.4,11.7-41.7,8.9-51.6,0.5c-7.8-6.6-18.3-7.5-15.9-19.7
		c1.5-7.5,6.7-18.4,12.4-23.4c4.6-4.1,13.2-5.1,18.8-6.6c8.7-2.3,15.5-7.9,23.8-9.6c10.8-2.2,48.4,6.2,52.4-9.8
		c-7.7-7.8-6.9,2.1-12.7,4.7c-10.1,4.4-25.3,0.1-36.1,0.6c-8.3,0.4-11.3,3.4-18,7.4c-8.4,5-19.1,6.2-28.3,8.4
		c-6.8-13.2,61-20.6,63.6-33.7c-4.6-2.7-9.2,3.2-13.9,4.9c-8,2.9-15.1,5.8-22.7,9.2c-6.5,2.9-14,3.2-20.6,6c-5,2.1-9.2,4.3-14.9,3.9
		c-5.2-0.4-11.7-2.7-17.5-3.3c-7-0.8-21.9-1.8-9.1-10.2c14.8-9.6,34.8-13,50.6-21.4c15.1-8,30.2-23.3,48-16.7
		c-0.5,0.7-0.9,1.6-1.4,2.3c4,3.6,23-1.2,26.5-4.3c-3.8-3.4-16.6,2.9-22.1,2.7c3.9-7.4-15.2-6.4-19.7-5.4c-8.3,1.7-15,8.4-24.1,8.8
		c-3.6,0.1-6.4-1.2-10.1-0.6c-6.8,1.2-12.4,6.8-19.2,8.4"/>
	<linearGradient id="SVGID_4_" gradientUnits="userSpaceOnUse" x1="834.4814" y1="140.674" x2="834.4814" y2="102.2011">
		<stop  offset="0" style="stop-color:#002126"/>
		<stop  offset="1" style="stop-color:#00362C"/>
	</linearGradient>
	<path fill="url(#SVGID_4_)" d="M819.9,126c-3.3-2.6-6.5-5-9.4-8.1c-1.3-1.4-4.6-3.9-4.2-6c2.2-1.1,4.5,2.4,6.2,3.3
		c3.4,1.9,6.6,4,9.6,6.5c2.1,1.7,3.3,2.4,6,2.7c1.7,0.2,2.2,0,1.5-1.9c-0.7-1.9-3.6-4.4-1.9-6.3c1.9-2.1,2.9,0,5.1,0.2
		c0.7-1.3,0-3.6,0.2-5c0.8-5.3,7.1-7.5,11.6-8.8c2.5-0.7,4.3-0.7,6.9-0.1c1.5,0.4,2.9,0.9,4.5,0.8c1.7-0.1,4.1-1,5.8-0.4
		c1.3,0.4,1.4,1.4,0.1,2.1c-1.8,1-5,0.1-7.1,0.1c-2.8,0.1-5.6-0.4-8.4-0.3c-3.5,0.1-9.1,1-11.8,3.6c-0.5,0.5-0.7,0.7-0.7,1.4
		c0.1,1,1,1,1.3,1.7c0.4,1.1-0.5,1.1-1,1.7c-1.3,1.7,0.2,2.7,0.5,4.5c0.1,0.9,0.2,1.4-1,1.3c-1.4-0.1-1.7-1.6-2.7-2.1
		c-1.4-0.8-1.9,0.4-1.5,1.7c0.5,1.4,1.9,3.4,3,4.3c2.9,2.2,6,1.3,9.3,2.5c2.2,0.8,7,2.8,7.9,5.3c-2.1,0.1-3.9-2.5-5.7-3.2
		c-1.8-0.6-4-1-5.9-1.3c-1.2-0.2-2.2-0.2-3.3-0.6c-1-0.3-1.7-0.7-2.7-0.4c-1,0.3-1.1,0.7-2.3,0.6c-0.6,0-1.4-0.3-2-0.2
		c0.4,2.2,3.7,3.7,5.4,4.6c3.8,2,9.5,5.2,10.1,10.1c-0.8,0.3-1.8,0.1-2.6,0c-3-0.4-6.1-1.1-9-2.1c-1.3-0.4-2.8-1-3.8-1.8"/>
	<rect x="1029" y="28" fill="#00362C" width="70" height="70"/>
	<rect x="1029" y="125" fill="#002126" width="79" height="79"/>
	<linearGradient id="SVGID_5_" gradientUnits="userSpaceOnUse" x1="32" y1="277.105" x2="924" y2="277.105">
		<stop  offset="0" style="stop-color:#002126"/>
		<stop  offset="1" style="stop-color:#00362C"/>
	</linearGradient>
	<path fill="url(#SVGID_5_)" d="M843.5,369.5c8.7-9.3,26-26.3,28.3-39.5c0-0.1,0-0.2,0.1-0.4C864.8,343.5,855.3,356.8,843.5,369.5z
		 M793.8,410.6c-26.1,17.1-57,32-91.5,44.3C734.3,443.6,765.4,429.2,793.8,410.6z M689.5,459.3c0.8-0.2,1.5-0.5,2.2-0.8
		c-1.2,0.4-2.4,0.8-3.6,1.2C688.7,459.6,689.1,459.4,689.5,459.3z M610,480.8c3.4-0.6,6.8-1.3,10.2-2c23.4-5,46.5-12.1,68-19.2
		c-27.9,9.1-58,16.5-89.7,21.8C602.3,481.4,606.2,481.1,610,480.8z M918.4,239.7c-0.1-0.3-0.2-0.6-0.3-0.8c0,0,0,0,0,0
		c-26-84.7-137.2-154.2-285.5-183.3C584.5,46.1,532.4,41,478,41C231.7,41,32,146.7,32,277.1c0,28.4,9.5,55.7,26.9,80.9
		c58.9,85.5,208.4,147.9,387,154.6c0,0,0,0,0,0c10.6,0.4,21.3,0.6,32.1,0.6c43.2,0,85.1-3.3,124.6-9.3
		C788.3,475.3,924,384.6,924,277.1C924,264.4,922.1,251.9,918.4,239.7z M871.8,329.6c-7,13.9-16.6,27.2-28.4,39.9c0,0,0,0,0,0
		c-2,2.1-4,4.2-6,6.2c-0.5,0.5-1.1,1.1-1.6,1.6c-1.3,1.3-2.7,2.6-4.1,3.9c-0.5,0.5-1,0.9-1.5,1.4c-1.7,1.6-3.4,3.1-5.1,4.5
		c-0.7,0.6-1.3,1.1-2,1.7c-2.6,2.2-5.1,4.3-7.8,6.3c-0.8,0.7-1.7,1.3-2.5,2c-0.9,0.7-1.8,1.4-2.8,2.1c-1.9,1.4-3.8,2.8-5.8,4.2
		c-1.9,1.3-3.8,2.7-5.7,4c-0.6,0.4-1.2,0.9-1.9,1.3c-0.8,0.5-1.6,1.1-2.5,1.6c-0.1,0.1-0.2,0.2-0.4,0.2c-26.1,17.1-57,32-91.5,44.3
		c-1.2,0.4-2.3,0.8-3.5,1.2c-0.8,0.3-1.6,0.5-2.3,0.8c-1,0.3-2,0.7-2.9,1c-0.6,0.2-1.2,0.4-1.7,0.6c-1.2,0.4-2.4,0.8-3.6,1.2
		c-27.9,9.1-58,16.5-89.7,21.8c0,0,0,0,0,0c-22.8,3.9-46.5,6.7-70.8,8.5c-18.2,1.3-36.8,2-55.7,2c-37.5,0-73.9-2.7-108.4-7.6
		C187.5,459.1,58,373.8,58,272.5c0-3.4,0.2-6.8,0.5-10.2C68.5,145.8,249.8,53,472,53c3.8,0,7.5,0,11.3,0.1
		C706.7,56.3,886,153.3,886,272.5C886,292.3,881.1,311.4,871.8,329.6z"/>
	<path fill="#235953" d="M924,277.1c0,107.5-135.7,198.2-321.4,226.8c-39.5,6.1-81.4,9.3-124.6,9.3c-10.8,0-21.5-0.2-32.1-0.6
		c43-2,85.9-3.2,128.6-7.6c3.8-0.5,7.5-1,11.2-1.6c3.7-0.6,7.4-1.2,11.1-1.8c3.6-0.6,7.3-1.2,10.9-1.8
		c43.6-7.4,87.8-18.6,128.9-33.7c25.8-9.5,49.2-22.2,72-36.7c2.5-1.6,5.1-3.2,7.6-4.9c22.3-16.7,45.6-33.8,63.5-56.4
		c2-2.5,3.9-5.1,5.8-7.8c1.8-2.6,3.5-5.3,5.3-8c1.7-2.7,3.5-5.5,5.2-8.2c19.9-31.5,25.4-68.2,22.3-105.3c0.1,0.3,0.2,0.6,0.3,0.8
		C922.1,251.9,924,264.4,924,277.1z"/>
	<path fill="#235953" d="M483.3,53.1c-3.8,0-7.5-0.1-11.3-0.1C249.8,53,68.5,145.8,58.5,262.3c-0.4-27.7,10-55.3,26.9-76.9
		c2.4-2.9,4.8-5.8,7.4-8.5c2.6-2.7,5.3-5.3,8.1-7.8c3.8-4,7.6-8.1,12-11.5c1.7-1.3,3.4-2.5,5-4c2.8-2.5,5.8-4.9,8.7-7.3
		c3.2-2.7,6.9-4.6,10.2-7.1c4.2-3.2,8.5-6.3,13.3-8.5c7.3-3.4,13.6-8.5,20.5-12.5c7.2-4.2,14.4-8.4,21.8-12.3c1.8-1,3.5-2.1,5.2-3.2
		c3.6-2.3,7.6-3.3,11.6-4.8c4.9-1.9,9.9-3.7,14.8-5.5c9.9-3.5,19.9-6.9,30-10c20.1-6.2,40.5-11.6,61.2-15.8
		c12.5-2.6,25-4.7,37.6-6.4c3.7-0.5,7.4-0.9,11.1-1.3c10.3-1.2,20.5-2.6,30.7-3.8c3.4-0.4,6.8-0.8,10.2-1.2c2.6-0.1,5.2-0.2,7.8-0.3
		c2.6-0.1,5.3-0.3,7.9-0.4C441,53,463.3,48.7,483.3,53.1z"/>
	<path fill="#041816" d="M632.6,55.6c-29.1-2.2-58.2-4-87.2-5.5c-38.2-1.9-77.3-6.5-115.5-3.9c-17.7,1.2-35.5,1.8-53.1,3.5
		c-27.8,2.8-55.5,9.9-82.8,16.2c-23.3,5.4-47.5,10-70,18c-59.9,21.4-116.8,58.6-154.6,110.3c-15.7,21.4-24.3,47.2-26.3,73.6
		c-0.8,11.2-2.5,23.9-1,35c1.7,11.7,6.3,22.6,10.1,33.7c2.5,7.2,3.9,14.6,6.7,21.6C41.5,332.8,32,305.5,32,277.1
		C32,146.7,231.7,41,478,41C532.4,41,584.5,46.1,632.6,55.6z"/>
	<path fill="#041816" d="M871.8,330c-0.1,0.4-0.1,0.7-0.2,1c-0.4,2.6-1,5.1-1.7,7.6C850,399,785,425,732.6,451.8
		c-3.7,1.7-7.3,3.3-11,4.8c-30,12.7-61.4,21.8-93.3,28.4c-3.2,0.7-6.4,1.3-9.6,1.9c-30.7,2.9-61.5,7.7-91.1,3.1
		c24.3-1.7,48-4.6,70.8-8.5c0,0,0,0,0,0c3.8-0.2,7.6-0.4,11.4-0.7c3.4-0.6,6.8-1.3,10.2-2c23.4-5,46.5-12.1,68-19.2
		c0.4-0.1,0.9-0.3,1.3-0.4c0.8-0.2,1.5-0.5,2.2-0.8c0.6-0.2,1.2-0.4,1.7-0.6c1-0.3,2-0.7,2.9-1c0.8-0.3,1.6-0.5,2.3-0.8
		c1.2-0.4,2.3-0.8,3.5-1.2c32-11.3,63.1-25.7,91.5-44.3c0.1-0.1,0.2-0.2,0.4-0.2c0.8-0.5,1.6-1.1,2.5-1.6c0.6-0.4,1.2-0.8,1.9-1.3
		c1-0.7,2.1-1.4,3.1-2.1c0.9-0.6,1.8-1.2,2.7-1.9c1.9-1.4,3.8-2.8,5.8-4.2c0.9-0.7,1.8-1.4,2.8-2.1c0.8-0.7,1.7-1.3,2.5-2
		c2.6-2.1,5.2-4.2,7.8-6.3c0.7-0.5,1.3-1.1,2-1.7c1.7-1.5,3.4-3,5.1-4.5c0.5-0.4,1-0.9,1.5-1.4c1.4-1.3,2.7-2.6,4.1-3.9
		c0.5-0.5,1.1-1.1,1.6-1.6c2.1-2,4.1-4.1,6-6.2c0,0,0,0,0,0C852.2,360.1,869.4,343.2,871.8,330z"/>
	<linearGradient id="SVGID_6_" gradientUnits="userSpaceOnUse" x1="819.5151" y1="52.8801" x2="932.1244" y2="52.8801">
		<stop  offset="0" style="stop-color:#002126"/>
		<stop  offset="1" style="stop-color:#00362C"/>
	</linearGradient>
	<path fill="url(#SVGID_6_)" d="M851,38c-1.8,2.2,1.7,3,2.7,4.5c0.3,0.5-0.2,1.5,0.1,2c0.2,0.3,1.9,1.7,2.3,2c2,1.4,4.6,1.1,6.5,2.4
		c1.4,1,1.3,2,1.9,3.6c0.5,1.2-0.4,0.6,0.7,1.7c0.8,0.9,2.9,1.4,3.9,1.8c2.5,0.9,8.3,1.9,6.4,5.9c-1.5,3.1-7.3,3.5-10.2,4.2
		c-4.8,1.1-9.8,0.9-14.7,1.3c-6.2,0.6-12.5,1.5-18.8,1.8c-2.6,0.1-5.3,0-7.9-0.6c-1.5-0.3-2.9-1.1-4.5-0.9c1.1,2.4,5.8,2.1,8,2.2
		c3.4,0.2,6.8,0.5,10.3,0.5c6.5,0,12.8-1.2,19.2-1.2c3.3,0,5.8,0,8.8-1c3.1-1,6.8-2.1,10-2.6c3.2-0.5,6.6-0.3,9.8-0.6
		c4.4-0.3,8.4-1.8,12.6-3.1c8.3-2.8,16.7-6.2,24.5-10.1c2.9-1.5,6.4-2.4,8.6-5c0.6-0.8,1.5-2.5-0.1-2.5c-0.9,0-2,1.4-2.7,1.9
		c-2.1,1.5-4.5,2-6.8,3c-5.8,2.6-11.3,5.3-17.5,7c-8.6,2.3-17.4,8.8-26.7,6.5c2.2-2.2,2.7-3-0.2-5.2c-3.3-2.5-7.8-3.2-11.6-4.8
		c0.2-1-0.6-2.8-0.5-3.2c0.6-2.3,4.6-1.5,6.6-1.9c4.1-0.7,9-2.9,12.2-5.6c2.3-2,3.9-6.5-0.7-6.8c-0.6,1.5,1.2,1.5,1.5,2.8
		c0.5,2-0.8,2.4-2.2,3.2c-2.6,1.5-6,3.2-8.8,4.1c-1.8,0.6-16.4,3.6-15.9-0.3c-0.7,0.2-1.6-0.2-2.3-0.1c0-1.3-0.3-2,0.2-3.2
		c-1.6-1.3-3.2-1.8-4.2-3.7"/>
</g>
</svg>
