<?xml version="1.0" encoding="utf-8"?>
<!-- Generator: Adobe Illustrator 19.0.1, SVG Export Plug-In . SVG Version: 6.00 Build 0)  -->
<!DOCTYPE svg PUBLIC "-//W3C//DTD SVG 1.1//EN" "http://www.w3.org/Graphics/SVG/1.1/DTD/svg11.dtd">
<svg version="1.1" id="Layer_1" xmlns="http://www.w3.org/2000/svg" xmlns:xlink="http://www.w3.org/1999/xlink" x="0px" y="0px"
	 viewBox="0 0 960 560" enable-background="new 0 0 960 560" xml:space="preserve">
<rect x="428.5" y="248.1" fill="#DCD5D7" width="4.2" height="6.8"/>
<polygon fill="#00185C" points="483.3,251.4 483.3,256.6 486.1,256.6 486.1,308 466.8,308 466.8,305.1 447.6,305.1 447.6,308 
	428.3,308 428.3,262.7 431.1,262.7 431.1,246.8 428.3,246.8 428.3,232.3 470.8,232.3 486.1,247.1 486.1,251.4 "/>
<path fill="#A1A200" d="M481.6,248.1v52c0,1.7-1.4,3-3,3h-42.7c-0.1,0-0.2,0-0.2,0c-1.6-0.1-2.8-1.4-2.8-3v-52c0-1.6,1.3-3,3-3h42.7
	C480.2,245.1,481.6,246.5,481.6,248.1z"/>
<path fill="#FCA200" d="M475.3,290.5c2.1-0.1,4.2-0.1,6.2-0.2v9.8c0,1.7-1.4,3-3,3h-42.7c-0.1,0-0.2,0-0.2,0
	c-1.3-2.5-1.2-5.8,1.1-7.9c4.8-4.5,11.9-5.4,17.8-7.9c0.9-0.4,1.9-0.8,2.8-1.2c-0.2-0.8-0.2-1.6-0.1-2.4c-3.2,0.6-6-1.7-7-4.6
	c-3.2,0.2-5.8-2.5-6.3-5.4c-0.9,0.3-1.8,0.5-2.5,0.7c-2.9,0.7-5.7,1.6-8.5,2.6v-7.5c2.2-1.1,4.4-2.1,6.7-3.1
	c4.4-1.8,10.2-2.4,14.2-4.9c2.8-1.8,5.6-0.7,7.3,1.4c1.2,0.1,2.3,0.4,3.4,1c1.1,0.6,1.9,1.6,2.5,2.7c1.5-0.4,3.1-0.7,4.7-0.9
	c5.2-0.6,7.1,4.8,5.9,8.9c2.2,0.8,3.7,2.9,4.1,5.2c0.2,0.9,0.2,1.8,0,2.8c-0.2,1.2-0.7,2.3-1.5,3.3
	C478.6,287.5,477,289.1,475.3,290.5z"/>
<path fill="#931F00" d="M454.3,269.6l-1-0.3c-0.1,0-0.1,0-0.2,0c1.5-1.5,2.5-3.5,2.5-5.6c0-2.5-2-4.2-4.5-3.8
	c-0.5,0.1-1.4,0.3-1.6,0.9c-0.1,0-0.1,0.1-0.2,0.1c-2,1.6-2.7,5.6-2.5,8c0.2,2.6,2.4,2.7,4.3,1.8c-5.8,3.5-11.5,7.1-17.3,10.6
	c4.3-6.5,8.2-13.1,11.9-20c0.5-1-1.4-0.8-1.9-0.5c-3.6,1.6-7.3,3.2-10.9,4.8v1.3c0.3,0,0.7,0,1.1-0.2c2.7-1.2,5.4-2.4,8.1-3.6
	c-2.8,5.3-5.9,10.5-9.1,15.5v5.1c7.1-4.3,14.1-8.7,21.2-13C454.4,270.4,455,269.8,454.3,269.6z M450.6,268.6c-0.9,0.5-1-0.1-0.9-1.1
	c0-0.7,0.1-1.4,0.3-2.1c0.3-1.2,0.6-2.9,1.5-3.8C453.7,262.2,452.2,267.9,450.6,268.6z"/>
<path fill="#931F00" d="M441,283.6c-0.7,0.1-1.5,0.5-1.7,1.2c-0.2,0.1-0.3,0.3-0.5,0.4c-0.7,0.6-0.1,0.8,0.6,0.8
	c0.5,4,1,8.1,1.6,12.1c-0.1,0.2-0.2,0.5-0.2,0.8c0.3,1.4,0.6,2.7,0.8,4.1c0,0,0,0.1,0,0.1h4.6c0.2-0.7,0.4-1.4,0.6-2.3
	c0.9-4.4,2-9,2-13.5C448.9,280.3,445,281,441,283.6z M445.4,293.8c-0.1,0.9-0.4,4.3-1,7.1c-0.8-5.4-1.5-10.8-2.1-16.2
	c1.7-1.3,2.6-1.5,3.7,1.2C446.7,288,445.7,291.5,445.4,293.8z"/>
<path fill="#931F00" d="M481.6,252.6c-0.2,0-0.4,0.1-0.5,0.2c-1.9,1.2-3.8,2.4-5.6,3.6c-0.9,0.6-0.4,1.5,0.5,1.7
	c1.1,0.3,1.6,1,1.6,2.2c-0.4,0.7-0.7,1.2-1,1.4c-0.4-0.7-0.8-1.5-1.3-2.2c-0.2-0.8-0.5-1.6-0.6-2.4c-0.4-2.2-0.8-6.8,1.1-8.6
	c1.3-1.2-1.5-1.7-2.4-0.8c-2,1.9-2,5.6-1.8,8.2c-0.3,0.1-0.6,0.2-0.8,0.4c-1.1-2.2-2.2-4.3-3.3-6.5c-0.5-1-2.7-0.5-2.9,0.5
	c-0.5,2.2-0.7,4.4-0.8,6.6c-1.7-2.8-3-5.7-5.8-7.8c-0.8-0.6-2.6,0.1-2.6,1.2c0.3,5.8,0.8,11.5,1.6,17.2c0.2,1.2,3.1,0.5,2.9-0.8
	c-0.6-4.3-1-8.6-1.3-12.9c1.8,2.7,3,5.7,5.3,8.1c0.6,0.6,2.8,0.4,2.8-0.8c0-2.1,0-4.2,0.1-6.2c1,2.1,2.1,4.1,3.2,6.2
	c0.1,0.2,0.3,0.3,0.5,0.4c0,1.6,0.1,3.1,0.1,4.7c-5.2,2.7-10.3,5.4-15.4,8.2c-0.3-0.4-0.7-0.9-1-1.3c-0.6-0.8-2.8-0.4-2.8,0.8
	c0.1,7.2,0.9,14.7,0.2,21.9c-0.2,1.4,2.8,1,2.9-0.2c0.3-3.4,0.3-7,0.3-10.5c1.2-0.6,2.4-1.2,3.6-1.9c1.1,1.5,2.3,2.9,3.4,4.4
	c0.8,1,3.5-0.1,2.7-1.3c-1-1.2-1.9-2.4-2.9-3.7c0.5,0,1-0.2,1.3-0.4c0.5-0.3,1-0.7,1.5-1c1.2,3.1,2.3,6.1,3.5,9.1
	c0.5,1.2,3.3,0.4,2.9-0.8c-1.3-3.4-2.5-6.7-3.8-10.1c1-0.7,2-1.3,3-2c0.5-0.3,0.7-0.9,0.2-1.3c-0.6-0.4-1.6-0.1-2.1,0.2
	c-0.6,0.4-1.2,0.8-1.8,1.2c-0.7-1.9-1.4-3.8-2.2-5.7c0-0.1-0.1-0.2-0.1-0.2c2.3-1.2,4.6-2.4,6.8-3.6c0.2,5.5,0.7,11,1.3,16.5
	c0.1,0.8,3,0.2,2.9-0.8c-0.4-3-0.7-6.1-0.9-9.1c0.1-0.1,0.3-0.1,0.4-0.2c1.5-1.1,3-2.2,4.5-3.3c0.9,1.4,1.8,2.9,2.8,4.3v-5.2
	c-1.2-1.9-2.4-3.9-3.6-5.9c1.1-0.6,2.3-1.1,3.5-1.7c0.1,0,0.1-0.1,0.2-0.1v-1.3c-0.4-0.1-0.9-0.1-1.3,0.2c-0.2,0.1-0.3,0.2-0.5,0.2
	c0.7-1.6,0.5-3.6-1-4.8c0.9-0.6,1.9-1.2,2.8-1.8V252.6z M454.5,283.2c-0.1-1.7-0.1-3.3-0.2-5c0.9,1.2,1.8,2.4,2.8,3.5
	C456.2,282.2,455.4,282.7,454.5,283.2z M460.8,281.1C460.8,281.1,460.8,281.1,460.8,281.1c0-0.1-0.1-0.3-0.3-0.4
	c-0.2-0.1-0.5-0.2-0.8-0.2c-1.2-1.6-2.4-3.1-3.6-4.7c1.7-0.9,3.3-1.8,5-2.7c0.8,2.1,1.6,4.1,2.4,6.2
	C462.6,279.9,461.7,280.5,460.8,281.1z M473.3,263c0.3,0.4,0.7,0.7,1.1,0.9c0.1,0.1,0.1,0.2,0.2,0.3c-0.4,0.2-0.8,0.4-1.2,0.6
	C473.3,264.2,473.3,263.6,473.3,263z M473.8,272.9c-0.2-2.1-0.3-4.2-0.4-6.3c0.7-0.3,1.3-0.7,2-1c0.8,1.4,1.7,2.8,2.6,4.2
	C476.6,270.9,475.2,271.9,473.8,272.9z"/>
<path fill="#931F00" d="M445.3,248.4c-0.4-0.5-1.5-0.3-1.9-0.1c-0.3,0.2-0.6,0.3-0.9,0.5c-0.4-0.7-0.8-1.3-1.1-2
	c-0.6-1.1-3.4,0-2.7,1.3c0.4,0.7,0.8,1.4,1.2,2.2c-0.6,0.3-1.1,0.7-1.7,1.1c-0.4,0.3-0.8,0.8-0.2,1.2c0.6,0.4,1.6,0.1,2.1-0.3
	c0.2-0.2,0.5-0.3,0.8-0.5c0.3,0.6,0.6,1.1,1,1.7c0.6,1.1,3.4,0,2.7-1.3c-0.4-0.6-0.7-1.3-1.1-1.9c0.4-0.2,0.8-0.5,1.2-0.7
	C445,249.4,445.7,249,445.3,248.4z"/>
<path fill="#931F00" d="M442.4,255.5c-0.4-0.5-1.5-0.4-1.9-0.1c-0.4,0.2-0.7,0.4-1.1,0.6c-0.1-0.2-0.3-0.5-0.4-0.7
	c-0.4-0.8-3.2,0.1-2.9,0.8c0.2,0.4,0.4,0.8,0.7,1.3c-0.5,0.2-1,0.5-1.4,0.7c-0.5,0.2-1.1,0.8-0.7,1.4c0.4,0.5,1.4,0.4,1.9,0.1
	c0.4-0.2,0.7-0.4,1.1-0.5c0.3,0.5,0.6,1,1,1.5c0.4,0.6,3.3-0.3,2.7-1.1c-0.4-0.6-0.8-1.2-1.1-1.8c0.5-0.3,1-0.5,1.5-0.8
	C442.2,256.6,442.9,256.1,442.4,255.5z"/>
<path fill="#931F00" d="M453.1,252c-0.6-0.1-1.5,0.2-2,0.5c-0.6,0.4-1.2,0.7-1.8,1.1c-0.1-0.2-0.3-0.5-0.4-0.7
	c-0.4-0.8-3.2,0.2-2.9,0.8c0.3,0.5,0.5,0.9,0.8,1.4c-0.7,0.4-1.5,0.8-2.2,1.2c-0.5,0.3-0.3,0.5,0.2,0.6c0.6,0.1,1.5-0.2,2-0.5
	c0.2-0.1,0.4-0.2,0.6-0.3c0.4,0.5,0.8,1.1,1.2,1.6c0.5,0.6,3.3-0.4,2.7-1c-0.5-0.6-1-1.3-1.4-1.9c1.2-0.7,2.3-1.4,3.4-2.1
	C453.7,252.3,453.6,252.1,453.1,252z"/>
<path fill="#931F00" d="M463.9,290.3c0.1-0.2-0.1-0.4-0.8-0.4c0,0-0.1,0-0.1,0c-0.5,0-1.1,0.2-1.4,0.4c-0.2,0.1-0.4,0.2-0.6,0.3
	c-0.1-0.3-0.2-0.5-0.3-0.8c-0.4-0.8-3.2,0.1-2.9,0.8c0.2,0.5,0.4,1,0.6,1.4c-0.6,0.3-1.2,0.6-1.9,0.9c-0.4,0.2-1.2,0.6-0.8,1.1
	c0.4,0.5,1.5,0.2,1.9,0c0.4-0.2,0.9-0.4,1.3-0.6c0.2,0.4,0.3,0.8,0.5,1.2c0.4,0.8,3.2-0.1,2.9-0.8c-0.3-0.6-0.5-1.2-0.8-1.8
	c0.6-0.3,1.2-0.6,1.8-1C463.7,291,464,290.6,463.9,290.3z"/>
<path fill="#931F00" d="M478.8,288.4c-0.3-0.3-1.3,0-1.7,0.1c-0.1-0.2-0.1-0.3-0.2-0.5c-0.3-0.8-3.2,0.1-2.9,0.8
	c0.1,0.3,0.2,0.5,0.3,0.8c-0.3,0.1-0.6,0.2-0.8,0.3c-0.3,0.1-1.2,0.4-0.9,0.8c0.3,0.4,1.6-0.1,1.9-0.2c0.1,0,0.1,0,0.2-0.1
	c0.1,0.1,0.1,0.3,0.2,0.4c0.3,0.8,3.2-0.1,2.9-0.8c-0.1-0.2-0.2-0.4-0.3-0.7c0.2-0.1,0.3-0.1,0.5-0.2
	C478.2,289.1,479.1,288.8,478.8,288.4z"/>
<path fill="#931F00" d="M458.5,299.3c0.1-0.5,0.4-0.8,0.8-1.1c0.4-0.3,0.6-0.9,0.1-1.3c-0.5-0.4-1.3-0.2-1.7,0.1
	c-0.9,0.7-1.6,1.6-1.7,2.8c0,0.6,0,1.3,0.4,1.7c0.4,0.3,0.8,0.5,1.3,0.5c1,0.1,2.6,0,3-1.2C461.2,299.6,459.4,299.3,458.5,299.3z"/>
<path fill="#931F00" d="M463.1,296.9c0,0.2,0,0.4,0,0.6c0,0,0,0,0,0c0,0,0-0.1,0-0.1c0.1-1.3-2.4-1-2.4,0.2c0,0.8-0.3,2,0.8,2.2
	c0.5,0.1,0.9-0.1,1.4-0.2c0,0,0.1,0,0.1,0c0,0.8-0.1,1.6-0.1,2.4c0,0.3,2.3,0.1,2.4-0.6c0.1-1.7,0.2-3.3,0.3-5
	C465.5,295.9,463.2,296.2,463.1,296.9z"/>
<path fill="#931F00" d="M473.2,299.9c-0.4-1.2-0.8-2.4-1.2-3.6c-0.2-0.5-1.2-0.2-1.9,0.1c-0.1-0.2-0.2-0.4-0.3-0.7
	c-0.3-0.6-2.2,0-2.4,0.5c-0.4,1.5-0.8,3.1-1.2,4.6c-0.2,0.6,2.2,0.3,2.4-0.4l0.4-1.7c0.3,0,0.7-0.1,1.1-0.3c0.2,0.7,0.4,1.4,0.7,2
	C471.1,301.2,473.4,300.5,473.2,299.9z"/>
<path fill="#931F00" d="M477.7,298.5c1.1-0.7,2.2-1.7,1.3-2.7c-0.9-1-2.5-0.8-3.9-0.3c-0.5-0.5-2.4,0.1-2.2,0.9
	c0.1,0.9,0.2,1.8,0.3,2.6c0.1,0.6,0,1.5,0.2,2.1c0.3,0.8,1.6,0.7,2.2,0.6c1.1-0.1,2.7-0.7,3.1-1.9
	C478.9,299.1,478.4,298.7,477.7,298.5z M476.7,297.5c-0.2,0.3-0.7,0.6-1.2,0.8c-0.1-0.6-0.1-1.1-0.2-1.7
	C475.9,296.4,477.4,296.3,476.7,297.5z M476.1,300.3c0,0.1-0.2,0.1-0.3,0.2c0-0.3-0.1-0.6-0.1-0.9
	C476.1,299.7,476.4,299.9,476.1,300.3z"/>
</svg>
