<?xml version="1.0" encoding="utf-8"?>
<!-- Generator: Adobe Illustrator 19.0.1, SVG Export Plug-In . SVG Version: 6.00 Build 0)  -->
<!DOCTYPE svg PUBLIC "-//W3C//DTD SVG 1.1//EN" "http://www.w3.org/Graphics/SVG/1.1/DTD/svg11.dtd">
<svg version="1.1" id="Layer_1" xmlns="http://www.w3.org/2000/svg" xmlns:xlink="http://www.w3.org/1999/xlink" x="0px" y="0px"
	 viewBox="0 0 960 560" enable-background="new 0 0 960 560" xml:space="preserve">
<path fill="#1E2929" d="M585.7,339.2c-3.9,6.3-11,17.9-10.8,17.9c-0.2,0-167.6,0-167.6,0V357h-17.7c-17-17.1-42.3-45.8-25.1-77
	c22.8-41.3,30.2-38.6,25-59c-1.7-6.6-4.1-12.8-5-18c-2-11,2.7-17.9,35-15.7c16.6,1.2,31-4.9,44.6-13.8c11.2-7.3,24.7-19,39.1-16.9
	c5.8,0.9,5.8,2,7.7,6.7c9.6,23.5,32.5,18.8,54.1,25c24.9,7.1,4.5,26.3,2,40.7c-2.2,12.8,0.9,23.6,4.7,35.6c2.6,8.4,4.9,18,9.4,25.5
	c3.3,5.4,7.9,9.5,10.2,15.7c3.8,10,1.5,20.3-3.4,29.4C587.8,335.6,586.9,337.1,585.7,339.2z"/>
<path fill="#163535" d="M583.8,326.9c-3.5,6.1-8,10.7-9.7,18c-1.2,5.1-9.5,12.6-14,6.3c-3-4.2-2.2-10.9-1.9-16.8
	c0.1-1.9,0.2-3.6,0.1-5.2c-0.6-8.4-1.9-16.8-2.3-25.3c-0.6-11.6,0.7-23.2,0.7-34.9c0-1.3,0-2.7,0-4c0.1-12.8,0.7-25.5,1-38.3
	c0.1-5.1,1.2-10.4-0.3-15.3c-1-3.1-3.3-6.3-6-8.1c-3.2-2.1-6.4-1.4-10-2c-4.8-0.9-9.5-1.5-14.5-1.1c-7.7,0.7-15.9,1.9-23.6,1
	c-4-0.5-7.2-2.2-10.8-3.4c-4.1-1.4-8.5-1.1-12.8-1.1c-8.9,0-18.1,0.4-26.9,1.8c-6.4,1-12.4,3.1-18.8,3.5c-6.1,0.4-13-0.4-18.9,1.2
	c-3.9,1.1-7.1,3.8-9.8,6.8c-2.5,2.9-4.1,8.9-4.3,12.6c-0.4,7.5-0.5,15.6-1.3,22.9c-0.8,7-1.7,13.8-1.7,20.9c0,7,0,14,0,21
	c0,5.3,0,10.5,0,15.8c0,7.3-0.2,14.6-0.3,21.9c-0.1,7,0.5,14.1-1.8,20.8c-4.7,13.3-13.1-4.5-16.3-8.4c-4-4.9-8.4-9.5-12.4-14.6
	c-0.3-0.4-0.6-0.8-0.9-1.3c-2.7-4.4-3.2-10.1-3.4-15.2c-0.2-5.7,0.7-11.1,2.3-16.5c1.5-5,3.3-9.7,5.9-14.1
	c4.4-7.5,8.7-14.9,14.1-21.9c0.2-0.2,0.3-0.4,0.5-0.6c4.4-5.7,9.8-11.6,11.2-18.7c0.9-4.9,1.5-10.9,0-15.7
	c-1.5-5.1-5.5-7.5-5.5-13.3c0-5,2.7-10.2,7.9-11.4c1.5-0.3,2.9-0.3,4.2,0.1c1.6-0.7,3.4-0.8,5.1-0.3c7.2-1.3,14.3,1.1,21.7,1.1
	c1.5,0,3-0.1,4.6-0.2c6.7-0.6,13.2-2.6,19.2-5.5c5.6-2.7,11.2-6.2,16-10.1c4.3-3.5,7.5-7.6,12.3-10.7c2.4-1.6,6.9-3.9,9.9-4.4
	c5.7-1.1,9.8,4.2,12.2,8.3c4.1,6.8,9.4,9.8,17.1,11.4c9.1,1.9,18.5,2.7,27.2,5.7c4.7,1.6,9.6,1.7,13.8,4.7
	c5.8,4.2,12.1,9.2,7.6,16.7c-11.3,18.8-10.8,39.7-5,59.6c0.8,2.9,1.8,5.7,2.8,8.5c2.3,10.7,12.7,19.5,16.1,30.7
	c0.6,2.1,1,4.2,1.1,6.4C586.6,321.8,586.8,321.6,583.8,326.9z"/>
<path fill="#163535" d="M552,218.6v122.8c0,6.6-5.4,12-12,12H419.3c-0.9,0-1.8-0.1-2.7-0.3c-0.9-0.2-1.8-0.5-2.6-0.9
	c-0.3-0.1-0.6-0.3-0.8-0.5c-0.9-0.5-1.7-1.2-2.4-1.9c0,0,0,0-0.1-0.1c-0.1-0.1-0.2-0.2-0.3-0.4c-0.1-0.2-0.3-0.3-0.4-0.5
	c-0.1-0.1-0.2-0.3-0.3-0.4c-1.5-2-2.4-4.4-2.4-7.1V218.6c0-6.6,5.4-12,12-12H540c1.7,0,3.2,0.3,4.7,1c1.3,0.5,2.5,1.3,3.5,2.3
	c0.3,0.3,0.5,0.5,0.8,0.8c0.1,0.1,0.2,0.2,0.3,0.4c0,0,0,0.1,0.1,0.1c0,0,0,0,0,0c0.7,0.8,1.2,1.7,1.6,2.6c0.1,0.3,0.2,0.6,0.3,0.9
	C551.8,215.9,552,217.2,552,218.6z"/>
<path opacity="0.2" fill="#E74700" d="M549.4,211.1L410.8,349.7c-0.3-0.3-0.5-0.5-0.7-0.8c-1.7-2.1-2.7-4.7-2.7-7.5V218.6
	c0-6.6,5.4-12,12-12H540c1.7,0,3.2,0.3,4.7,1C546.6,208.4,548.2,209.6,549.4,211.1z"/>
<g>
	<path fill="#163535" d="M525.9,213.4c0.1,0.1,0.3,0.2,0.4,0.3c2,1.6,3.1,4,3.1,6.4c0,1.7-0.5,3.5-1.5,5c-2.1,2.9-5.7,4.1-8.9,3.2
		c-0.9-0.2-1.9-0.7-2.7-1.3c-0.8-0.6-1.5-1.3-2.1-2.1c-1.9-2.8-1.9-6.6,0.1-9.5C517,211.6,522.2,210.7,525.9,213.4z"/>
	<path fill="#1C2D32" d="M525.9,213.4c0.1,0.1,0.3,0.2,0.4,0.3c2,1.6,3.1,4,3.1,6.4c-0.6-0.6-1.2-1.3-1.8-1.9
		c-2.8-2.8-6.1-4.8-9.5-0.9c-2.6,2.9-2.7,6.2-1.1,8.8c0.5,0.8,1.1,1.6,1.9,2.2c-0.9-0.2-1.9-0.7-2.7-1.3c-0.8-0.6-1.5-1.3-2.1-2.1
		c-1.9-2.8-1.9-6.6,0.1-9.5C517,211.6,522.2,210.7,525.9,213.4z"/>
	<path fill="#245954" d="M527.7,218.1c0.1-1.8-0.8-3-1.3-4.5c2,1.6,3.1,4,3.1,6.4c0,1.7-0.5,3.5-1.5,5c-2.1,2.9-5.7,4.1-8.9,3.2
		c-0.9-0.2-1.9-0.7-2.7-1.3c-0.8-0.6-1.5-1.3-2.1-2.1c0.5,0.3,0.9,0.5,1.4,0.7s1,0.4,1.5,0.5c2.3,0.6,4.9,0.4,6.8-1
		c1.8-1.4,3.2-3.8,3.7-6C527.6,218.7,527.6,218.4,527.7,218.1z"/>
</g>
<g>
	<path fill="#163535" d="M426.9,311.6c0.1,0.1,0.3,0.2,0.4,0.3c2,1.6,3.1,4,3.1,6.4c0,1.7-0.5,3.5-1.5,5c-2.1,2.9-5.7,4.1-8.9,3.2
		c-0.9-0.2-1.9-0.7-2.7-1.3c-0.8-0.6-1.5-1.3-2.1-2.1c-1.9-2.8-1.9-6.6,0.1-9.5C418,309.8,423.2,308.9,426.9,311.6z"/>
	<path fill="#1C2D32" d="M426.9,311.6c0.1,0.1,0.3,0.2,0.4,0.3c2,1.6,3.1,4,3.1,6.4c-0.6-0.6-1.2-1.3-1.8-1.9
		c-2.8-2.8-6.1-4.8-9.5-0.9c-2.6,2.9-2.7,6.2-1.1,8.8c0.5,0.8,1.1,1.6,1.9,2.2c-0.9-0.2-1.9-0.7-2.7-1.3c-0.8-0.6-1.5-1.3-2.1-2.1
		c-1.9-2.8-1.9-6.6,0.1-9.5C418,309.8,423.2,308.9,426.9,311.6z"/>
	<path fill="#245954" d="M428.7,316.3c0.1-1.8-0.8-3-1.3-4.5c2,1.6,3.1,4,3.1,6.4c0,1.7-0.5,3.5-1.5,5c-2.1,2.9-5.7,4.1-8.9,3.2
		c-0.9-0.2-1.9-0.7-2.7-1.3c-0.8-0.6-1.5-1.3-2.1-2.1c0.5,0.3,0.9,0.5,1.4,0.7s1,0.4,1.5,0.5c2.3,0.6,4.9,0.4,6.8-1
		c1.8-1.4,3.2-3.8,3.7-6C428.6,316.9,428.6,316.6,428.7,316.3z"/>
</g>
<g>
	<path fill="#163535" d="M461.7,276.7c0.1,0.1,0.3,0.2,0.4,0.3c2,1.6,3.1,4,3.1,6.4c0,1.7-0.5,3.5-1.5,5c-2.1,2.9-5.7,4.1-8.9,3.2
		c-0.9-0.2-1.9-0.7-2.7-1.3c-0.8-0.6-1.5-1.3-2.1-2.1c-1.9-2.8-1.9-6.6,0.1-9.5C452.8,274.9,458,274,461.7,276.7z"/>
	<path fill="#1C2D32" d="M461.7,276.7c0.1,0.1,0.3,0.2,0.4,0.3c2,1.6,3.1,4,3.1,6.4c-0.6-0.6-1.2-1.3-1.8-1.9
		c-2.8-2.8-6.1-4.8-9.5-0.9c-2.6,2.9-2.7,6.2-1.1,8.8c0.5,0.8,1.1,1.6,1.9,2.2c-0.9-0.2-1.9-0.7-2.7-1.3c-0.8-0.6-1.5-1.3-2.1-2.1
		c-1.9-2.8-1.9-6.6,0.1-9.5C452.8,274.9,458,274,461.7,276.7z"/>
	<path fill="#245954" d="M463.5,281.4c0.1-1.8-0.8-3-1.3-4.5c2,1.6,3.1,4,3.1,6.4c0,1.7-0.5,3.5-1.5,5c-2.1,2.9-5.7,4.1-8.9,3.2
		c-0.9-0.2-1.9-0.7-2.7-1.3c-0.8-0.6-1.5-1.3-2.1-2.1c0.5,0.3,0.9,0.5,1.4,0.7s1,0.4,1.5,0.5c2.3,0.6,4.9,0.4,6.8-1
		c1.8-1.4,3.2-3.8,3.7-6C463.4,282,463.4,281.7,463.5,281.4z"/>
</g>
<g>
	<path fill="#163535" d="M492.9,245.9c0.1,0.1,0.3,0.2,0.4,0.3c2,1.6,3.1,4,3.1,6.4c0,1.7-0.5,3.5-1.5,5c-2.1,2.9-5.7,4.1-8.9,3.2
		c-0.9-0.2-1.9-0.7-2.7-1.3c-0.8-0.6-1.5-1.3-2.1-2.1c-1.9-2.8-1.9-6.6,0.1-9.5C484,244.1,489.2,243.2,492.9,245.9z"/>
	<path fill="#1C2D32" d="M492.9,245.9c0.1,0.1,0.3,0.2,0.4,0.3c2,1.6,3.1,4,3.1,6.4c-0.6-0.6-1.2-1.3-1.8-1.9
		c-2.8-2.8-6.1-4.8-9.5-0.9c-2.6,2.9-2.7,6.2-1.1,8.8c0.5,0.8,1.1,1.6,1.9,2.2c-0.9-0.2-1.9-0.7-2.7-1.3c-0.8-0.6-1.5-1.3-2.1-2.1
		c-1.9-2.8-1.9-6.6,0.1-9.5C484,244.1,489.2,243.2,492.9,245.9z"/>
	<path fill="#245954" d="M494.7,250.6c0.1-1.8-0.8-3-1.3-4.5c2,1.6,3.1,4,3.1,6.4c0,1.7-0.5,3.5-1.5,5c-2.1,2.9-5.7,4.1-8.9,3.2
		c-0.9-0.2-1.9-0.7-2.7-1.3c-0.8-0.6-1.5-1.3-2.1-2.1c0.5,0.3,0.9,0.5,1.4,0.7s1,0.4,1.5,0.5c2.3,0.6,4.9,0.4,6.8-1
		c1.8-1.4,3.2-3.8,3.7-6C494.6,251.2,494.6,250.9,494.7,250.6z"/>
</g>
<path opacity="0.3" fill="#211B00" d="M551.1,213.8L413.2,351.7c-0.9-0.5-1.7-1.2-2.4-2c-0.1-0.1-0.2-0.2-0.3-0.4l138.6-138.6
	c0.1,0.1,0.2,0.2,0.3,0.4C550.1,211.9,550.7,212.8,551.1,213.8z"/>
<path opacity="0.5" fill="#1E2929" d="M549.5,211.2c-18.6-0.7-37.1-0.8-55.7-0.6c-18.9,0.2-37.7,0.8-56.6,1.6
	c-4.6,0.2-9.3,0.4-13.9,0.6c-4.1,0.2-7.3-0.6-8.6,3.8c-2.2,7.3-2.2,15.2-2.2,22.7c0,6.8-0.9,13.5-0.6,20.4
	c0.7,15.7-0.6,31.5-0.9,47.2c-0.3,14.7-1.4,28.9,2.9,43.2c0.2,0.7,0.3,1.4,0.2,2.1c-0.3-0.1-0.6-0.3-0.8-0.5c-0.9-0.5-1.7-1.2-2.4-2
	c-0.1-0.1-0.2-0.2-0.3-0.4c-0.1-0.2-0.3-0.3-0.4-0.5c-1.7-2.1-2.7-4.7-2.7-7.5V218.6c0-6.6,5.4-12,12-12H540c1.7,0,3.2,0.3,4.7,1
	c1.7,0.7,3.2,1.8,4.3,3.1c0.1,0.1,0.2,0.2,0.3,0.4C549.4,211.1,549.5,211.2,549.5,211.2z"/>
<path opacity="0.2" fill="#FD1C00" d="M549.5,210.2L410.8,348.8c0,0,0,0-0.1-0.1c-0.1-0.1-0.2-0.2-0.3-0.4c-0.1-0.2-0.3-0.3-0.4-0.5
	c-0.1-0.1-0.2-0.3-0.3-0.4l138.6-138.6c0.3,0.3,0.5,0.5,0.8,0.8C549.2,209.8,549.3,210,549.5,210.2
	C549.4,210.1,549.5,210.2,549.5,210.2z"/>
<path opacity="0.2" fill="#FD1C00" d="M552,218.6v122.8c0,6.6-5.4,12-12,12H419.3c-0.9,0-1.8-0.1-2.7-0.3c0.7-0.5,1.7-0.8,2.9-0.8
	c15,0.4,30,0.8,45-0.3c9.6-0.8,19.5-3.4,29.1-2.5c6.4,0.6,12.9,0.2,19.3,0.2c5.7,0,11.6,0.4,17.3-0.3c13-1.6,17.9-11.3,17.5-23.7
	c-0.2-4.1-0.4-8.3-0.2-12.5c0.3-5.7,1.3-11.4,1.7-17.1c0.6-6.9,0.8-13.7,0.9-20.6c0.4-20.3,0.6-40.6,1.2-60.8
	C551.8,215.9,552,217.2,552,218.6z"/>
<path opacity="0.2" fill="#FD1C00" d="M459.2,225.3c2.4,2.3,7.8,6.7,7.5,10.2c-1.3-0.3-2.5-1.3-3.9-1.5c0.2,0.9,0.6,1.6,1,2.4
	c2.6,5.1,6,9.8,8.8,14.8c0.4,0.8,3.4,5.4,1.7,6.8c-1.2,1-3.8-1.3-4.6-1.9c-3-2.4-7-7.6-11.5-6.6c-0.2,1,0.2,1.6,0.6,2.6
	c1.1,3.1,2.7,5.9,3.4,9.2c0.4,1.9,1.4,7.8-1.4,8.6c-1.8,0.6-4.1-2-5-3.2c-4.1-5.3-6-12-10.6-17.1c-4.6-5.1-8.8-10.7-13.7-15.6
	c-2.4-2.3-5.3-5.2-8.3-6.8c-1.2-0.6-2.5-0.7-3.4-1.7c-1.3-1.4-2.4-5-0.7-6.3c1.9-1.6,4.9,0.3,6.4,1.5c2.5,2,4.2,4.9,6.5,7.2
	c2.3,2.3,4.5,4.6,6.7,7c2.6,2.8,4.9,5.7,7.4,8.5c0.8,0.9,2.9,3.8,4.3,3.6c3.5-0.4-1.4-5.7-1.2-7.3c3.5-0.7,6.8,4.2,9.9,5.1
	c3.7,1.1,3.5-1.6,2-3.8c-1.2-1.9-2.4-3.4-3.2-5.6c-0.7-1.8-4.2-9.2-2.9-11.2c1.5-2.1,3.1,2.2,4.6,2.3c-0.2-0.5-0.2-1.3-0.5-1.8
	c0.5,0.1,0.5,0.4,0.7,0.9L459.2,225.3z"/>
<path opacity="0.5" fill="#1E2929" d="M501,329.7c-2-2.6-6.6-7.9-5.7-11.3c1.3,0.5,2.2,1.7,3.6,2.1c-0.1-0.9-0.3-1.7-0.6-2.5
	c-1.7-5.5-4.4-10.7-6.3-16.1c-0.3-0.8-2.5-5.9-0.6-7c1.4-0.8,3.5,1.9,4.2,2.6c2.6,2.8,5.7,8.6,10.3,8.4c0.4-1,0-1.7-0.2-2.7
	c-0.6-3.2-1.7-6.3-1.9-9.6c-0.1-1.9-0.1-7.9,2.8-8.3c1.9-0.3,3.7,2.7,4.4,4c3.2,5.9,4,12.8,7.7,18.6c3.8,5.8,7,12,11,17.6
	c1.9,2.7,4.4,6,7.1,8c1,0.8,2.3,1.1,3.1,2.2c1.1,1.6,1.5,5.3-0.3,6.3c-2.2,1.2-4.8-1.1-6.1-2.5c-2.1-2.4-3.3-5.6-5.2-8.1
	c-1.9-2.6-3.7-5.2-5.5-8c-2.1-3.2-3.9-6.4-5.9-9.6c-0.7-1-2.3-4.2-3.7-4.3c-3.5-0.2,0.5,5.8,0,7.4c-3.5,0.1-6-5.2-8.9-6.7
	c-3.4-1.7-3.7,1.1-2.6,3.4c0.9,2.1,1.8,3.7,2.3,6c0.3,1.9,2.7,9.8,1,11.5c-1.8,1.9-2.7-2.7-4.1-3c0.1,0.6,0,1.3,0.2,1.9
	c-0.5-0.2-0.4-0.5-0.5-1L501,329.7z"/>
<g>
	<path fill="#163535" d="M545.6,231.6c0.1,0.1,0.3,0.2,0.4,0.3c2,1.6,3.1,4,3.1,6.4c0,1.7-0.5,3.5-1.5,5c-2.1,2.9-5.7,4.1-8.9,3.2
		c-0.9-0.2-1.9-0.7-2.7-1.3c-0.8-0.6-1.5-1.3-2.1-2.1c-1.9-2.8-1.9-6.6,0.1-9.5C536.7,229.8,541.9,228.9,545.6,231.6z"/>
	<path fill="#1C2D32" d="M545.6,231.6c0.1,0.1,0.3,0.2,0.4,0.3c2,1.6,3.1,4,3.1,6.4c-0.6-0.6-1.2-1.3-1.8-1.9
		c-2.8-2.8-6.1-4.8-9.5-0.9c-2.6,2.9-2.7,6.2-1.1,8.8c0.5,0.8,1.1,1.6,1.9,2.2c-0.9-0.2-1.9-0.7-2.7-1.3c-0.8-0.6-1.5-1.3-2.1-2.1
		c-1.9-2.8-1.9-6.6,0.1-9.5C536.7,229.8,541.9,228.9,545.6,231.6z"/>
	<path fill="#245954" d="M547.4,236.3c0.1-1.8-0.8-3-1.3-4.5c2,1.6,3.1,4,3.1,6.4c0,1.7-0.5,3.5-1.5,5c-2.1,2.9-5.7,4.1-8.9,3.2
		c-0.9-0.2-1.9-0.7-2.7-1.3c-0.8-0.6-1.5-1.3-2.1-2.1c0.5,0.3,0.9,0.5,1.4,0.7s1,0.4,1.5,0.5c2.3,0.6,4.9,0.4,6.8-1
		c1.8-1.4,3.2-3.8,3.7-6C547.3,236.9,547.3,236.6,547.4,236.3z"/>
</g>
<g>
	<path fill="#163535" d="M446.6,329.9c0.1,0.1,0.3,0.2,0.4,0.3c2,1.6,3.1,4,3.1,6.4c0,1.7-0.5,3.5-1.5,5c-2.1,2.9-5.7,4.1-8.9,3.2
		c-0.9-0.2-1.9-0.7-2.7-1.3c-0.8-0.6-1.5-1.3-2.1-2.1c-1.9-2.8-1.9-6.6,0.1-9.5C437.7,328.1,442.9,327.2,446.6,329.9z"/>
	<path fill="#1C2D32" d="M446.6,329.9c0.1,0.1,0.3,0.2,0.4,0.3c2,1.6,3.1,4,3.1,6.4c-0.6-0.6-1.2-1.3-1.8-1.9
		c-2.8-2.8-6.1-4.8-9.5-0.9c-2.6,2.9-2.7,6.2-1.1,8.8c0.5,0.8,1.1,1.6,1.9,2.2c-0.9-0.2-1.9-0.7-2.7-1.3c-0.8-0.6-1.5-1.3-2.1-2.1
		c-1.9-2.8-1.9-6.6,0.1-9.5C437.7,328.1,442.9,327.2,446.6,329.9z"/>
	<path fill="#245954" d="M448.4,334.6c0.1-1.8-0.8-3-1.3-4.5c2,1.6,3.1,4,3.1,6.4c0,1.7-0.5,3.5-1.5,5c-2.1,2.9-5.7,4.1-8.9,3.2
		c-0.9-0.2-1.9-0.7-2.7-1.3c-0.8-0.6-1.5-1.3-2.1-2.1c0.5,0.3,0.9,0.5,1.4,0.7s1,0.4,1.5,0.5c2.3,0.6,4.9,0.4,6.8-1
		c1.8-1.4,3.2-3.8,3.7-6C448.3,335.2,448.3,334.9,448.4,334.6z"/>
</g>
<g>
	<path fill="#163535" d="M481.4,294.9c0.1,0.1,0.3,0.2,0.4,0.3c2,1.6,3.1,4,3.1,6.4c0,1.7-0.5,3.5-1.5,5c-2.1,2.9-5.7,4.1-8.9,3.2
		c-0.9-0.2-1.9-0.7-2.7-1.3c-0.8-0.6-1.5-1.3-2.1-2.1c-1.9-2.8-1.9-6.6,0.1-9.5C472.5,293.1,477.7,292.2,481.4,294.9z"/>
	<path fill="#1C2D32" d="M481.4,294.9c0.1,0.1,0.3,0.2,0.4,0.3c2,1.6,3.1,4,3.1,6.4c-0.6-0.6-1.2-1.3-1.8-1.9
		c-2.8-2.8-6.1-4.8-9.5-0.9c-2.6,2.9-2.7,6.2-1.1,8.8c0.5,0.8,1.1,1.6,1.9,2.2c-0.9-0.2-1.9-0.7-2.7-1.3c-0.8-0.6-1.5-1.3-2.1-2.1
		c-1.9-2.8-1.9-6.6,0.1-9.5C472.5,293.1,477.7,292.2,481.4,294.9z"/>
	<path fill="#245954" d="M483.2,299.6c0.1-1.8-0.8-3-1.3-4.5c2,1.6,3.1,4,3.1,6.4c0,1.7-0.5,3.5-1.5,5c-2.1,2.9-5.7,4.1-8.9,3.2
		c-0.9-0.2-1.9-0.7-2.7-1.3c-0.8-0.6-1.5-1.3-2.1-2.1c0.5,0.3,0.9,0.5,1.4,0.7s1,0.4,1.5,0.5c2.3,0.6,4.9,0.4,6.8-1
		c1.8-1.4,3.2-3.8,3.7-6C483.1,300.2,483.1,299.9,483.2,299.6z"/>
</g>
<g>
	<path fill="#163535" d="M512.6,264.1c0.1,0.1,0.3,0.2,0.4,0.3c2,1.6,3.1,4,3.1,6.4c0,1.7-0.5,3.5-1.5,5c-2.1,2.9-5.7,4.1-8.9,3.2
		c-0.9-0.2-1.9-0.7-2.7-1.3c-0.8-0.6-1.5-1.3-2.1-2.1c-1.9-2.8-1.9-6.6,0.1-9.5C503.7,262.3,508.9,261.4,512.6,264.1z"/>
	<path fill="#1C2D32" d="M512.6,264.1c0.1,0.1,0.3,0.2,0.4,0.3c2,1.6,3.1,4,3.1,6.4c-0.6-0.6-1.2-1.3-1.8-1.9
		c-2.8-2.8-6.1-4.8-9.5-0.9c-2.6,2.9-2.7,6.2-1.1,8.8c0.5,0.8,1.1,1.6,1.9,2.2c-0.9-0.2-1.9-0.7-2.7-1.3c-0.8-0.6-1.5-1.3-2.1-2.1
		c-1.9-2.8-1.9-6.6,0.1-9.5C503.7,262.3,508.9,261.4,512.6,264.1z"/>
	<path fill="#245954" d="M514.4,268.8c0.1-1.8-0.8-3-1.3-4.5c2,1.6,3.1,4,3.1,6.4c0,1.7-0.5,3.5-1.5,5c-2.1,2.9-5.7,4.1-8.9,3.2
		c-0.9-0.2-1.9-0.7-2.7-1.3c-0.8-0.6-1.5-1.3-2.1-2.1c0.5,0.3,0.9,0.5,1.4,0.7s1,0.4,1.5,0.5c2.3,0.6,4.9,0.4,6.8-1
		c1.8-1.4,3.2-3.8,3.7-6C514.3,269.4,514.3,269.1,514.4,268.8z"/>
</g>
<path fill="#1C2D32" d="M583.8,326.9c-3.5,6.1-8,10.7-9.7,18c-1.2,5.1-9.5,12.6-14,6.3c-3-4.2-2.2-10.9-1.9-16.8
	c3.2,4.4,6.8,8.7,13.1,5c6-3.5,9.2-8.5,11.1-15.1c1.4-4.9,1.9-9.6,1.9-14.3c0.6,2.1,1,4.2,1.1,6.4
	C586.6,321.8,586.8,321.6,583.8,326.9z"/>
<path fill="#1C2D32" d="M360,307.3l1.3,5.2C360.5,310.6,360.1,308.8,360,307.3z"/>
<path fill="#1C2D32" d="M397.7,325.2c-0.1,7,0.5,14.1-1.8,20.8c-4.7,13.3-13.1-4.5-16.3-8.4c-4-4.9-8.4-9.5-12.4-14.6
	c-0.3-0.4-0.6-0.8-0.9-1.3c6.1,8.5,15.3,15,21.3,5.9c6.3-9.5,6.6-22.9,9-33.7c0.5-2.1,0.9-4.3,1.4-6.4c0,5.3,0,10.5,0,15.8
	C398,310.7,397.8,318,397.7,325.2z"/>
<path fill="#245954" d="M434.9,195c-2.2,0.8-4.2,1.3-5.6,1.6c-3.4,0.7-6.6,0.7-10.1,0.7c-6.9,0-19.3-3.2-24,4.1
	c-4.4,6.9,3.1,15.3,3.6,22.2c0.5,7.8-1.6,16.1-6.3,22.3c-1.5,1.9-4,4.9-6.9,7.5c4.4-5.7,9.8-11.6,11.2-18.7c0.9-4.9,1.5-10.9,0-15.7
	c-1.5-5.1-5.5-7.5-5.5-13.3c0-5,2.7-10.2,7.9-11.4c0.9-0.2,1.7-0.4,2.5-0.7c1-0.4,2-0.6,3.1-0.8c3.1-0.4,6.3-0.3,9.4,0.1
	c1.6,0.2,3.3,0.5,4.9,0.8c0.8,0.2,1.5,0.5,2.3,0.6c0.9,0.2,1.9,0.3,2.9,0.4c1.9,0.2,3.9,0.4,5.8,0.4
	C431.9,195.2,433.4,195.1,434.9,195z"/>
<path fill="#245954" d="M382,280.8c1.2-1.7,3.9-3.2,4.7-0.9c0.7,2.2-4,6.8-5,8.5c-4.5,7.4-9,14.9-8.6,23.8c4.1-2.3,5.2-7.6,9.4-9.6
	c1.6,3.4-8.1,16.3-11.9,16.5c-2.3-6.9,1.7-15.8,4.1-22.2c1.9-5.2,7.3-9.8,8.6-14.7c-1,0.4-2.3,0.4-3.3,1.2c0.9-1.1,2.1-2.1,2.9-3.4"
	/>
<path fill="#245954" d="M482.2,183.8c2.9-3.7,10.3-5,14.7-4.7c0.2,1-0.3,2-1,2.7c2.6,2.3,9.3-0.4,12.1,3.3c1.5,2,0,3.7-2.1,5
	c-1.1,0.7-4.5,2.3-5,0.5c-0.4-1.4,2.4-3,3.1-4c-1.9-2.4-6-0.4-8.4-1.5c-2.6-1.2,0.1-3.4-2.5-4.3c-4.2-1.6-7.5,4.9-11.4,4.5
	c0.1-0.2,0.3-0.4,0.5-0.7"/>
</svg>
