<?xml version="1.0" encoding="utf-8"?>
<!-- Generator: Adobe Illustrator 19.0.1, SVG Export Plug-In . SVG Version: 6.00 Build 0)  -->
<!DOCTYPE svg PUBLIC "-//W3C//DTD SVG 1.1//EN" "http://www.w3.org/Graphics/SVG/1.1/DTD/svg11.dtd">
<svg version="1.1" id="Layer_1" xmlns="http://www.w3.org/2000/svg" xmlns:xlink="http://www.w3.org/1999/xlink" x="0px" y="0px"
	 viewBox="0 0 960 560" enable-background="new 0 0 960 560" xml:space="preserve">
<path fill="#1E2929" d="M585.7,339.2c-3.9,6.3-11,17.9-10.8,17.9c-0.2,0-167.6,0-167.6,0V357h-17.7c-17-17.1-42.3-45.8-25.1-77
	c22.8-41.3,30.2-38.6,25-59c-1.7-6.6-4.1-12.8-5-18c-2-11,2.7-17.9,35-15.7c16.6,1.2,31-4.9,44.6-13.8c11.2-7.3,24.7-19,39.1-16.9
	c5.8,0.9,5.8,2,7.7,6.7c9.6,23.5,32.5,18.8,54.1,25c24.9,7.1,4.5,26.3,2,40.7c-2.2,12.8,0.9,23.6,4.7,35.6c2.6,8.4,4.9,18,9.4,25.5
	c3.3,5.4,7.9,9.5,10.2,15.7c3.8,10,1.5,20.3-3.4,29.4C587.8,335.6,586.9,337.1,585.7,339.2z"/>
<path fill="#163535" d="M583.8,326.9c-3.5,6.1-8,10.7-9.7,18c-1.2,5.1-9.5,12.6-14,6.3c-3-4.2-2.2-10.9-1.9-16.8
	c0.1-1.9,0.2-3.6,0.1-5.2c-0.6-8.4-1.9-16.8-2.3-25.3c-0.6-11.6,0.7-23.2,0.7-34.9c0-1.3,0-2.7,0-4c0.1-12.8,0.7-25.5,1-38.3
	c0.1-5.1,1.2-10.4-0.3-15.3c-1-3.1-3.3-6.3-6-8.1c-3.2-2.1-6.4-1.4-10-2c-4.8-0.9-9.5-1.5-14.5-1.1c-7.7,0.7-15.9,1.9-23.6,1
	c-4-0.5-7.2-2.2-10.8-3.4c-4.1-1.4-8.5-1.1-12.8-1.1c-8.9,0-18.1,0.4-26.9,1.8c-6.4,1-12.4,3.1-18.8,3.5c-6.1,0.4-13-0.4-18.9,1.2
	c-3.9,1.1-7.1,3.8-9.8,6.8c-2.5,2.9-4.1,8.9-4.3,12.6c-0.4,7.5-0.5,15.6-1.3,22.9c-0.8,7-1.7,13.8-1.7,20.9c0,7,0,14,0,21
	c0,5.3,0,10.5,0,15.8c0,7.3-0.2,14.6-0.3,21.9c-0.1,7,0.5,14.1-1.8,20.8c-4.7,13.3-13.1-4.5-16.3-8.4c-4-4.9-8.4-9.5-12.4-14.6
	c-0.3-0.4-0.6-0.8-0.9-1.3c-2.7-4.4-3.2-10.1-3.4-15.2c-0.2-5.7,0.7-11.1,2.3-16.5c1.5-5,3.3-9.7,5.9-14.1
	c4.4-7.5,8.7-14.9,14.1-21.9c0.2-0.2,0.3-0.4,0.5-0.6c4.4-5.7,9.8-11.6,11.2-18.7c0.9-4.9,1.5-10.9,0-15.7
	c-1.5-5.1-5.5-7.5-5.5-13.3c0-5,2.7-10.2,7.9-11.4c1.5-0.3,2.9-0.3,4.2,0.1c1.6-0.7,3.4-0.8,5.1-0.3c7.2-1.3,14.3,1.1,21.7,1.1
	c1.5,0,3-0.1,4.6-0.2c6.7-0.6,13.2-2.6,19.2-5.5c5.6-2.7,11.2-6.2,16-10.1c4.3-3.5,7.5-7.6,12.3-10.7c2.4-1.6,6.9-3.9,9.9-4.4
	c5.7-1.1,9.8,4.2,12.2,8.3c4.1,6.8,9.4,9.8,17.1,11.4c9.1,1.9,18.5,2.7,27.2,5.7c4.7,1.6,9.6,1.7,13.8,4.7
	c5.8,4.2,12.1,9.2,7.6,16.7c-11.3,18.8-10.8,39.7-5,59.6c0.8,2.9,1.8,5.7,2.8,8.5c2.3,10.7,12.7,19.5,16.1,30.7
	c0.6,2.1,1,4.2,1.1,6.4C586.6,321.8,586.8,321.6,583.8,326.9z"/>
<linearGradient id="SVGID_1_" gradientUnits="userSpaceOnUse" x1="479.7" y1="353.4" x2="479.7" y2="206.6">
	<stop  offset="0" style="stop-color:#1E2929"/>
	<stop  offset="1" style="stop-color:#16D835"/>
</linearGradient>
<path fill="url(#SVGID_1_)" d="M552,218.6v122.8c0,6.6-5.4,12-12,12H419.3c-0.9,0-1.8-0.1-2.7-0.3c-0.9-0.2-1.8-0.5-2.6-0.9
	c-0.3-0.1-0.6-0.3-0.8-0.5c-0.9-0.5-1.7-1.2-2.4-1.9c0,0,0,0-0.1-0.1c-0.1-0.1-0.2-0.2-0.3-0.4c-0.1-0.2-0.3-0.3-0.4-0.5
	c-0.1-0.1-0.2-0.3-0.3-0.4c-1.5-2-2.4-4.4-2.4-7.1V218.6c0-6.6,5.4-12,12-12H540c1.7,0,3.2,0.3,4.7,1c1.3,0.5,2.5,1.3,3.5,2.3
	c0.3,0.3,0.5,0.5,0.8,0.8c0.1,0.1,0.2,0.2,0.3,0.4c0,0,0,0.1,0.1,0.1c0,0,0,0,0,0c0.7,0.8,1.2,1.7,1.6,2.6c0.1,0.3,0.2,0.6,0.3,0.9
	C551.8,215.9,552,217.2,552,218.6z"/>
<path fill="#1C2D32" d="M583.8,326.9c-3.5,6.1-8,10.7-9.7,18c-1.2,5.1-9.5,12.6-14,6.3c-3-4.2-2.2-10.9-1.9-16.8
	c3.2,4.4,6.8,8.7,13.1,5c6-3.5,9.2-8.5,11.1-15.1c1.4-4.9,1.9-9.6,1.9-14.3c0.6,2.1,1,4.2,1.1,6.4
	C586.6,321.8,586.8,321.6,583.8,326.9z"/>
<path fill="#1C2D32" d="M360,307.3l1.3,5.2C360.5,310.6,360.1,308.8,360,307.3z"/>
<path fill="#1C2D32" d="M397.7,325.2c-0.1,7,0.5,14.1-1.8,20.8c-4.7,13.3-13.1-4.5-16.3-8.4c-4-4.9-8.4-9.5-12.4-14.6
	c-0.3-0.4-0.6-0.8-0.9-1.3c6.1,8.5,15.3,15,21.3,5.9c6.3-9.5,6.6-22.9,9-33.7c0.5-2.1,0.9-4.3,1.4-6.4c0,5.3,0,10.5,0,15.8
	C398,310.7,397.8,318,397.7,325.2z"/>
<path fill="#245954" d="M434.9,195c-2.2,0.8-4.2,1.3-5.6,1.6c-3.4,0.7-6.6,0.7-10.1,0.7c-6.9,0-19.3-3.2-24,4.1
	c-4.4,6.9,3.1,15.3,3.6,22.2c0.5,7.8-1.6,16.1-6.3,22.3c-1.5,1.9-4,4.9-6.9,7.5c4.4-5.7,9.8-11.6,11.2-18.7c0.9-4.9,1.5-10.9,0-15.7
	c-1.5-5.1-5.5-7.5-5.5-13.3c0-5,2.7-10.2,7.9-11.4c0.9-0.2,1.7-0.4,2.5-0.7c1-0.4,2-0.6,3.1-0.8c3.1-0.4,6.3-0.3,9.4,0.1
	c1.6,0.2,3.3,0.5,4.9,0.8c0.8,0.2,1.5,0.5,2.3,0.6c0.9,0.2,1.9,0.3,2.9,0.4c1.9,0.2,3.9,0.4,5.8,0.4
	C431.9,195.2,433.4,195.1,434.9,195z"/>
<path fill="#245954" d="M382,280.8c1.2-1.7,3.9-3.2,4.7-0.9c0.7,2.2-4,6.8-5,8.5c-4.5,7.4-9,14.9-8.6,23.8c4.1-2.3,5.2-7.6,9.4-9.6
	c1.6,3.4-8.1,16.3-11.9,16.5c-2.3-6.9,1.7-15.8,4.1-22.2c1.9-5.2,7.3-9.8,8.6-14.7c-1,0.4-2.3,0.4-3.3,1.2c0.9-1.1,2.1-2.1,2.9-3.4"
	/>
<path fill="#245954" d="M482.2,183.8c2.9-3.7,10.3-5,14.7-4.7c0.2,1-0.3,2-1,2.7c2.6,2.3,9.3-0.4,12.1,3.3c1.5,2,0,3.7-2.1,5
	c-1.1,0.7-4.5,2.3-5,0.5c-0.4-1.4,2.4-3,3.1-4c-1.9-2.4-6-0.4-8.4-1.5c-2.6-1.2,0.1-3.4-2.5-4.3c-4.2-1.6-7.5,4.9-11.4,4.5
	c0.1-0.2,0.3-0.4,0.5-0.7"/>
</svg>
