<?xml version="1.0" encoding="utf-8"?>
<!-- Generator: Adobe Illustrator 19.0.1, SVG Export Plug-In . SVG Version: 6.00 Build 0)  -->
<!DOCTYPE svg PUBLIC "-//W3C//DTD SVG 1.1//EN" "http://www.w3.org/Graphics/SVG/1.1/DTD/svg11.dtd">
<svg version="1.1" id="Layer_1" xmlns="http://www.w3.org/2000/svg" xmlns:xlink="http://www.w3.org/1999/xlink" x="0px" y="0px"
	 viewBox="0 0 960 560" enable-background="new 0 0 960 560" xml:space="preserve">
<path fill="#DAFF00" d="M527.2,279.9c4,3,4.6,9.3,3.2,14.4c-2,7.6-6.5,11.7-14.2,12.9c-16.3,2.6-33.8-0.8-48.5-8.3
	c-1.9,3.4-7.2,5.2-10.7,4c-4.6-1.7-5.8-7.1-4.4-11.3c0.5-1.6,1.5-2.7,2.2-4.2c0.9-2,0.6-1.9-1.4-3.1c-5.2-3.3-11.3-7.3-17.2-2.6
	c-2.6,2.1-5.1,4.7-7.9,6.6c0,1.2-0.1,2.4-0.3,3.5c0,0.1,0,0.3-0.1,0.4c-0.1,0.6-0.2,1.2-0.4,1.7c-0.2,0.7-0.4,1.3-0.6,1.9
	c-0.2,0.5-0.4,1.1-0.7,1.6c-0.1,0.2-1.7,2.5-1.7,3c0,0.5,0.1,0.8,0.2,1.2v0c0.2,0.4,0.4,0.7,0.7,1c1.4,1.4,4.1,1.8,6,2.7
	c3.5,1.6,5.5,4,6.5,6.6c2.3,6.1-1.2,14-6.9,18.7c-2.2,1.8-10,4.9-10.5,7c-0.3,1.2,0.6,2.2-0.1,3.6c-0.8,1.8-2.8,2.8-4.5,3.6
	c-0.9,0.4-1.7,0.8-2.6,1V214.2c0.7,0.1,1.3,0.2,1.9,0.4c4.4,1.1,5,3.6,5.5,7.5c0.2,2.2-1.3,0.8,1.4,1.8c1.9,0.7,3.6,1.3,5,2.8
	c3.5,3.5,2.8,7.6,0.2,10.4c-0.9,0.9-2,1.7-3.2,2.3c1.2,0.3,2.5,0.7,3.8,1.2c0.6,0.2,1.3,0.5,1.9,0.8c5.8,2.8,10.8,7.5,10.4,14.1
	c0,0.6-0.1,1.2-0.2,1.8c-0.1,0.2-0.1,0.5-0.2,0.7c-0.4,1.6-1.1,3-2,4.5c0.1,0.2,0.2,0.4,0.4,0.7c0.2,0.4,0.5,0.7,0.7,1
	c3,3.8,7,1.2,10.7-0.6c1.8-0.9,3.7-1.6,5.7-1.5c1.8,0.1,3.8,1.6,5.7,2.3c1.4-4.6,4.9-8.4,9.4-10.9c3.6-2,12-4.2,14.1,0.2
	c4-4.9,9-9.2,15.4-10.4c2.7-0.5,6-0.6,8.1,1.7c2.3,2.5,2,6.2,2.1,9.5c6.6-3,13-7,20.5-6.9c6.4,0,12.4,3.2,13.8,9.8
	C546.7,268.5,537.5,277.7,527.2,279.9z"/>
<path fill="#5A3C2F" d="M527.2,279.9c4,3,4.6,9.3,3.2,14.4c-2,7.6-6.5,11.7-14.2,12.9c-16.3,2.6-33.8-0.8-48.5-8.3
	c-1.9,3.4-7.2,5.2-10.7,4c-4.6-1.7-5.8-7.1-4.4-11.3c0.5-1.6,1.5-2.7,2.2-4.2c0.9-2,0.6-1.9-1.4-3.1c-5.2-3.3-11.3-7.3-17.2-2.6
	c-2.6,2.1-5.1,4.7-7.9,6.6c0,1.2-0.1,2.4-0.3,3.5c0,0.1,0,0.3-0.1,0.4c-0.1,0.6-0.2,1.2-0.4,1.7c-0.2,0.7-0.4,1.3-0.6,1.9
	c-0.2,0.5-0.4,1.1-0.7,1.6c-0.1,0.2-1.7,2.5-1.7,3c0,0.5,0.1,0.8,0.2,1.2v0c0.2,0.4,0.4,0.7,0.7,1c1.4,1.4,4.1,1.8,6,2.7
	c3.5,1.6,5.5,4,6.5,6.6c2.3,6.1-1.2,14-6.9,18.7c-2.2,1.8-10,4.9-10.5,7c-0.3,1.2,0.6,2.2-0.1,3.6c-0.8,1.8-2.8,2.8-4.5,3.6
	c-0.9,0.4-1.7,0.8-2.6,1V214.2c0.7,0.1,1.3,0.2,1.9,0.4c4.4,1.1,5,3.6,5.5,7.5c0.2,2.2-1.3,0.8,1.4,1.8c1.9,0.7,3.6,1.3,5,2.8
	c3.5,3.5,2.8,7.6,0.2,10.4c-0.9,0.9-2,1.7-3.2,2.3c1.2,0.3,2.5,0.7,3.8,1.2c0.6,0.2,1.3,0.5,1.9,0.8c5.8,2.8,10.8,7.5,10.4,14.1
	c0,0.6-0.1,1.2-0.2,1.8c-0.1,0.2-0.1,0.5-0.2,0.7c-0.4,1.6-1.1,3-2,4.5c0.1,0.2,0.2,0.4,0.4,0.7c0.2,0.4,0.5,0.7,0.7,1
	c3,3.8,7,1.2,10.7-0.6c1.8-0.9,3.7-1.6,5.7-1.5c1.8,0.1,3.8,1.6,5.7,2.3c1.4-4.6,4.9-8.4,9.4-10.9c3.6-2,12-4.2,14.1,0.2
	c4-4.9,9-9.2,15.4-10.4c2.7-0.5,6-0.6,8.1,1.7c2.3,2.5,2,6.2,2.1,9.5c6.6-3,13-7,20.5-6.9c6.4,0,12.4,3.2,13.8,9.8
	C546.7,268.5,537.5,277.7,527.2,279.9z"/>
<path fill="#B97C00" d="M440.3,255.5c-0.4,0.6-0.8,1.1-1.3,1.7c0.4,0,0.7,0,1.1,0.2c1,0.3,1.6,1.2,1.3,2.8c-0.2,1.4-1.4,2.8-2.4,4
	c-0.4,0.4-0.7,0.7-1,1c-0.3,0.3-4.4,3.7-5.5,4.2c0.8,0.1,3.3,1,3.7,1.4c1.1,1.4,0.8,2.9-0.5,4c-1.9,1.8-5.1,2.7-8.3,3.2
	c0.6,0.3,1.1,0.8,1.3,1.6c1,3-2.8,5.4-5.5,6.6c1.1,1.4,2,2.2,3.5,3.2c0.1,0.1,0.1,0.1,0.1,0.2c-0.9,1.2,0,1.8,1.3,2.4
	c1.3,0.5,2.9,0.9,3.6,1.4c1.2,0.9,0.8,1.3,1.2,2.2c0.1,0,0.2,0,0.3,0.1c1.8,0.5,2.9,0.8,4.1,2.4c0,0.1,0,0.2-0.1,0.3
	c-0.5,0.4-0.9,0.7-1.4,0.9c2.7,1.4,5.5,3.2,5.5,6.5c0.1,2.4-1.4,4.4-3.2,5.9c-0.3,0.2-0.6,0.5-0.9,0.7c-0.8,0.5-4,2-6.8,2.8
	c3.2,4.6-0.5,10.5-6.5,11c-5.3,0.4-8.2-2.5-9.7-6.5c-0.2-0.6-0.5-1.3-0.6-2v-45.5c-0.6-0.5-1.2-1-1.9-1.5c0.7-0.4,1.3-0.7,1.9-1.1
	v-35.9c0.9-0.4,1.8-0.8,2.8-1.1c2.8-0.9,10.2-0.4,7.6,3.7c1.3-0.2,2.8-0.2,3.6,0.6c0.1,0.1,0.2,0.3,0.4,0.5c0.5,0.9,0.5,1.9,0.2,3.1
	c-0.2,0.9-0.7,1.9-1.2,2.8c1-0.7,2-1.3,3.1-2c0.6-0.3,1.2-0.7,1.8-1c2.1-1,5.2-3,7.7-2.7c3.8,0.4,4.1,6.3,3.9,9.3
	C443.1,250.2,442,253,440.3,255.5z"/>
<path fill="#B97C00" d="M461.8,288.4L461.8,288.4C461.9,288.3,461.9,288.3,461.8,288.4C461.9,288.3,461.9,288.3,461.8,288.4z"/>
<path fill="#B97C00" d="M539.3,267.2c-5,3.6-13.5,2-19.9,0.2c1.6,3.4,2.1,7.3-0.6,10.5c-1.5,1.8-3.5,2.7-5.6,3
	c1.5,3.8,3.9,10.5-0.1,12.8c-2.8,1.6-5.4,0.4-7.3-1.6c-3.6,6.7-12,11.2-18.4,14.4c-3.9,2-12.7,7.3-17.8,5.3
	c-2.4,4.3-6.8,8.3-11.5,4.3c-3.3-2.8-3-7.1-2.1-10.9c1.3-5.8,3.4-11.6,5.9-16.9c0,0,0,0,0,0l0,0c0.2-0.3,1.3-2.6,1.3-2.7
	c0.4-2.2,0.9-1.7-1.4-2.1c-0.9-0.2-2-0.2-2.6-0.9c-1.2-1.3-0.3-3.1,0.2-4.6c0.4-1.3,3.2-5.3,3.1-6.4c-0.1-1.7-2.2-2.4-3-4
	c-0.7-1.3-1-2.8-0.9-4.2c0.2-3.2,2.4-5.6,4.8-7.5c-2-3.3,2.7-5.4,5.7-4.9c1.3,0.2,2.4,0.7,3.4,1.3c-0.1-0.4,0-0.8,0.1-1.4
	c0.9-2.9,4.9-3.1,7.8-3.6c-1.4-1.5,0.9-3.7,3.3-4c0,0,2.1,0.2,2.2,0c0.7-1-1.5-1.9-1.9-2.3c-1-0.8-2-1.1-2.7-2.3
	c-1-1.8-0.7-3.7,0.4-5.3c-2.8-1.1-2.2-4.9,0.7-6.3c1.9-0.9,4-0.8,6.1-0.5c4.8,0.6,9.6,1.8,14.2,3.1c4.5,1.2,9,2.7,13.4,4.5
	c2.9,1.2,7.5,2.5,9.4,5.3c1,1.5,1,3,0.4,4.1c2.4-0.3,4.9,0,6.4,1.8c1.6,2,1.4,4.2-0.1,5.8C536.9,254.2,546,262.5,539.3,267.2z"/>
<path fill="#B94A00" d="M414.5,269.1c-0.4,0.2-0.8,0.5-1.1,0.7V252c0.1,0,0.2,0,0.3,0.1c2.1,0.5,5.6,1.2,5.5,3.9
	c0,1.7-1.7,3.5-3.1,4.8c-0.1,0.1-0.2,0.2-0.2,0.2c0.2,0,0.4,0,0.6,0.1c1.9,0.2,3.7,0.4,5.6,0.6c0.6,0.1,1.3,0.5,0.6,1.2
	C420.1,265.2,417.4,267.3,414.5,269.1z"/>
<path fill="#B94A00" d="M427.3,299.3c-0.2,1.2-0.9,2.3-1.7,3.2c-1.3,1.3-3,2.2-4.9,2.6c3.6,3.5,1,9-3.7,10.6c0.6,1.3-1.1,3-3,4.1
	c-0.2,0.1-0.4,0.2-0.6,0.4v-47.8c2.6,2.5,3.7,6,1.1,8.5c3.6,0.5,7.3,2.1,8.2,5.7c0.1,0.4,0.2,0.9,0.2,1.4c0,0.7-0.1,1.4-0.3,2
	c-0.2,0.7-0.5,1.2-1,1.8c2.4,0.5,4.5,1.8,5.3,4.1c0.2,0.5,0.3,1.1,0.4,1.7C427.5,298.1,427.5,298.8,427.3,299.3z"/>
<path fill="#B94A00" d="M510,271.5c2.6,3.7,0.3,7.8-3.7,9.1c2.5,6-6.4,12-12.8,13.1c2.4,2.9,3.3,7.1,1.1,10.5
	c-0.6,1-1.9,1.9-3.1,2.2c-0.6,3.8-2.6,7.3-6.8,8.2c-2.6,0.5-5.3-0.5-6.4-2.6c-1.5,1.5-3.5,2.4-5.7,1.8c-2.2-0.5-3.2-2.3-2.9-4
	c-0.7,0-1.3-0.2-2-0.7c-2.8-1.9-1.6-6.3-1-9c1.8-8.2,6-15.5,11.8-21.5c-3.5-0.5-7.1-1.3-9.3-4.2c-2.1-2.8-1.8-7.8-0.9-11
	c1.4-5.4,6.3-8,11.3-7.7c0.1-0.5,0.4-1.1,0.9-1.7c2.9-3.6,7.9-4.5,12.2-3.3c1.3-1.7,4.4-2.6,7.1-3.1c-3.2-3,0.8-8.9,6.2-7.2
	c0.1,0,0.2,0.1,0.3,0.1c2.4-0.3,5.2,0.1,5.3,2.9c0,0.5-0.1,1-0.3,1.4c2.8,0.8,5.2,2.7,4.7,5.9c-0.3,1.9-1.6,3.3-3.2,4
	C519.1,259,517.5,268.5,510,271.5z"/>
<path fill="#FFB900" d="M507.1,261.3c-0.4,1.8-1.6,2.9-3.1,3.4c3.6,3.3,1.5,8.7-3.2,10c1.6,2.5,1.3,5.6-0.6,8.2
	c-1.2,1.7-3,2.8-4.8,3.8c-1.8,1-2.4,1.2-3.4,2.9c-0.5,0.9-0.8,1.9-1.3,2.8c-1.2,1.8-4.8,5.6-7.4,4.2c-2.7-1.5-1.5-6.3-0.2-9.5
	c-1,0-1.9-0.2-2.8-0.8c-3.2-2.3-1.8-6,0.3-8.5c-1.5-0.5-2.6-1.5-3.2-3.3c-0.9-3.1,1.1-5.8,3-8c-5.9-2.5-1.2-12,4.9-14
	c0.3-3,5.8-4.9,7.9-5.2c2.6-0.5,7.5-0.3,7.6,3.4c0,0.4-0.1,0.8-0.2,1.1c0.7,0.5,1.2,1.4,1.2,2.6c1.5,0.1,0.8,1.9-0.7,2
	c2.1-0.2,2.8-1.1,4.7,0.8C506.9,258.3,507.4,259.9,507.1,261.3z"/>
<path fill="#FFB900" d="M427.9,298.2c-0.2,0.4-0.3,0.8-0.6,1.2c-0.6,0.9-1.4,1.7-2.4,2.2v0c-1.6,0.9-3.5,1.4-5.3,1.6
	c0.8,1.9-0.8,3.6-2.8,4.4c-1,0.4-2.2,0.6-3.3,0.7v-35.9c-0.6-0.5-1.2-1-1.9-1.5c0.7-0.4,1.3-0.7,1.9-1.1v-9.6c1,0,2,0.2,2.7,0.7
	c0.1,0.1,0.2,0.2,0.4,0.3c0,0,0.1,0.1,0.1,0.1c2,2.1,0.1,5.3-2.1,7.8c-0.4,0.4-0.8,0.8-1.1,1.2c-0.3,0.3-0.5,0.5-0.8,0.7
	c0.2,0,0.5,0,0.8,0c3.6,0.2,8.5,1,9.7,4.1c1.2,3-1.4,5-4,6.2c2.3,0.8,4.3,2.5,3.5,5.2c0,0.2-0.1,0.4-0.2,0.5c-0.4,1-1,1.7-1.8,2.2
	c0.7,0.2,1.3,0.5,2,0.7c2.1,0.9,4,2.2,5,3.9C428.3,295,428.5,296.5,427.9,298.2z"/>
</svg>
