<?xml version="1.0" encoding="utf-8"?>
<!-- Generator: Adobe Illustrator 19.0.1, SVG Export Plug-In . SVG Version: 6.00 Build 0)  -->
<!DOCTYPE svg PUBLIC "-//W3C//DTD SVG 1.1//EN" "http://www.w3.org/Graphics/SVG/1.1/DTD/svg11.dtd">
<svg version="1.1" id="Layer_1" xmlns="http://www.w3.org/2000/svg" xmlns:xlink="http://www.w3.org/1999/xlink" x="0px" y="0px"
	 viewBox="0 0 960 560" enable-background="new 0 0 960 560" xml:space="preserve">
<path fill="#5A3C2F" d="M465.7,280.5c-4.4,8.2-11.5,14.2-19.8,17.8c-1.7,0.8-3.4,1.4-5.2,1.9c1.6,0.4,3,1.5,4.2,2.9
	c1.6,2,2.9,4.5,3.7,6.8c2.2,6.2,0.3,10.8-5.8,13c-5.5,1.9-12.4,2.1-17.6-0.8c-1.7-0.9-3.7-2.8-4.9-4.8c-0.6-0.9-1-1.8-1.2-2.6
	c0,1.2-0.1,2.4-0.5,3.7c-1.9,7.2-9.5,14.3-15.5,17c-0.2,0.1-0.4,0.2-0.6,0.3v-89.5c2.8-0.2,4.8,0.9,3.6,4.5c2.8-0.3,6.1,0.2,5.1,3.2
	c2.5,0.4,5.4,1.2,6.6,3.4c0.2,0.3,0.3,0.6,0.4,0.9c0,0,0,0,0,0.1c0.6-0.3,1.1-0.6,1.6-0.8c3.5-1.8,9.6-4,12.4-0.5
	c2-1.9,4.9-3.4,8-4.2c3.6-0.9,7.5-1,10.5,0.1c3.3,1.1,5.7,3.5,5.6,7.6c1.4-0.4,2.8-0.4,4.2-0.1c1.4,0.4,2.7,1.1,3.8,2.3
	c0.2,0.2,0.3,0.3,0.5,0.5c2,2.4,3,4.9,3.2,7.5C468.4,273.9,467.4,277.3,465.7,280.5z"/>
<path fill="#B97C00" d="M468.1,270.6c-1.2,1.4-2.6,2.5-3.4,3.2c-2.3,2-5,3.5-7.8,4.6c1.2,1.3,0.6,4.1-0.9,5.6c-3,3.2-8.6,4.6-13.5,5
	c2.3,2,3.5,5.8,3.5,9.2c0,1.8-0.3,3.5-1,4.8c0,0,0,0,0,0c-1.1,2-2.9,3.2-5,3.6c1.8,3.1-0.5,6.5-4.2,7.2c-4.7,0.9-7.2-2.1-8.1-5.9
	c-2.2,3.4-4.6,6.8-7.5,9.2c-0.2,0.2-0.5,0.4-0.7,0.6c-0.2,0.2-0.6,0.3-1,0.5c-0.6,0.2-1.4,0.3-1.8,0.1c-2.2-0.9-2.7-3.1-2.5-5.6
	c-2.4,2.2-5.2,3.7-8,2.9c-1.4-0.4-2.7-1.7-3.8-3.3v-44.7c1.4-1.4,3.1-2.4,5.1-3c2.8-0.8,4.7,0.2,6.1,1.9c0.9-3.1,2.5-6,4.6-8.5
	c1.3-1.6,2.7-3,4.2-4.1c2-1.6,7.2-3.3,8.2-0.3c2.3-1.5,5-2.9,7.3-2.5c1.1,0.2,1.9,0.8,2.3,1.5c1.1,1.8,0.7,4.6,0,7.1
	c3.2-2.4,6.5-4.7,10-6.7c0.2-0.1,0.3-0.2,0.5-0.3c2.2-1.3,5.4-3.5,8.1-3c5,0.8,4,6,1.7,10.5c-0.7,1.5-1.6,2.9-2.5,4
	c2-0.7,4.2-1.4,6.3-1.7c3.1-0.4,5.7,0.1,6.2,2.6C470.9,266.9,469.6,268.9,468.1,270.6z"/>
<path fill="#FFB900" d="M442.4,280.3c0.8,3-0.6,7-1.2,9.7c-1,4.4-2.3,8.8-3.9,13.1c-1.6,4.4-3.2,10.8-8.8,11.3
	c-7.3,0.7-9.3-14.2-2.9-17.6c-3.5-1.4-8.3-4.8-3.6-7.4c1.1-0.6,2.4-1,3.8-1.2c-0.9-0.7-1.7-1.5-2.2-2.4c-0.8-1.4-1-3.2,0-4.6
	c0.8-1.1,3.8-1.7,3.1-3.5c-0.1-0.2,0.3-0.5,0.7-0.7c-4.5-2.1-6.2-9.7-2.2-13c2-1.7,5.6-2.1,7.1-0.3c1.6-1.3,3.8-1.9,6-2.1
	c1.3-0.1,5.4-0.2,6.5,0.9c1.4,1.3,0.7,3,0,4.6c3.9-1.1,8.5,0.5,8.3,5.4C452.8,278.2,447.3,280.4,442.4,280.3z"/>
<path fill="#FFB900" d="M418,290.9c-1.1,3.4-3.4,6-6.4,7.8c0.3,0.4,0.5,0.9,0.4,1.6c-0.1,3.1-4.9,4-7.2,4.4
	c-0.8,0.1-1.6,0.2-2.4,0.2v-29.2c6.6-0.7,14,2.3,11.8,8.5C417.7,284.8,419.3,286.9,418,290.9z"/>
</svg>
