<?xml version="1.0" encoding="utf-8"?>
<!-- Generator: Adobe Illustrator 19.0.1, SVG Export Plug-In . SVG Version: 6.00 Build 0)  -->
<!DOCTYPE svg PUBLIC "-//W3C//DTD SVG 1.1//EN" "http://www.w3.org/Graphics/SVG/1.1/DTD/svg11.dtd">
<svg version="1.1" id="Layer_1" xmlns="http://www.w3.org/2000/svg" xmlns:xlink="http://www.w3.org/1999/xlink" x="0px" y="0px"
	 viewBox="0 0 960 560" enable-background="new 0 0 960 560" xml:space="preserve">
<radialGradient id="SVGID_1_" cx="477.4027" cy="274.7851" r="31.75" gradientUnits="userSpaceOnUse">
	<stop  offset="0" style="stop-color:#FFFFFF"/>
	<stop  offset="0.4847" style="stop-color:#21D5FF"/>
	<stop  offset="1" style="stop-color:#2128FF"/>
</radialGradient>
<circle fill="url(#SVGID_1_)" cx="477.4" cy="274.8" r="31.8"/>
<path fill="#21D5FF" d="M538.8,300.9c-7.3-2-14.4-0.8-21.8-1c-0.5-0.8-1.1-1.5-1.6-2.3c6.7-2.2,13.5-4.3,20.2-6.4
	c0.1,0,1.8-0.6,1.2-1c-8.8-5.8-17.4-11.9-25.6-18.4c7.6-3.8,15.2-7.6,22.5-11.9c0.3-0.1,0.5-0.5,0.1-0.6c-9.9-2-19.8-3.9-29.8-5.6
	c5.4-6.3,11.2-12.4,17.1-18.4c0.7-0.7-1.2-0.4-1.4-0.4l-39.8,9.4c-0.8-0.7-1.5-1.5-2.3-2.2c-4.1-6.2-8.2-12.4-12.3-18.7
	c-0.4-0.6-2.9,0-2.9,0.8c-0.4,7.7-0.9,15.4-1.4,23.1c-12.3-1.6-24.6-3-36.9-4.1c-0.6-0.1-3.3,1.1-1.9,1.2
	c12.9,1.2,25.8,2.6,38.7,4.3c0,0,0,0.1,0,0.1c-14.6,3.4-29.2,6.9-43.8,10.3c-0.3,0.1-1.9,0.7-1.1,1c7.6,2.9,15,6.5,22.3,10.2
	c-6.1,2.7-12.2,5.5-18.2,8.3c-0.5,0.2-0.9,0.7-0.1,0.8c10,1,19.4,6.1,29.1,8.7c2.6,0.7,5.2,1.3,7.9,1.9c-0.2,1.4-0.4,2.8-0.6,4.1
	c-6.3,7.2-12.8,14.3-19.6,21.1c-0.6,0.6,2.1,0.3,2.6-0.2c4.9-4.7,10.2-8.9,15.7-12.8c-1.3,7.9-2.9,15.8-4.8,23.6
	c-0.2,0.8,2.3,0,2.5-0.2c2.3-1.5,4.6-2.9,7-4.2c-0.8,1.4-1.6,2.8-2.5,4.2c-0.2,0.4,2.4,0.2,2.9-0.5c1.2-2,2.3-3.9,3.5-5.9
	c4.6-2.6,9.4-4.9,14.2-7.2c0.2,2.5,0.4,5.1,0.6,7.6c0,0.6,2.1-0.1,2.3-0.2c10.8-5,21.9-9.2,33.3-12.4c3,1.7,5.9,3.4,8.8,5.3
	c0.5,0.3,3.2-0.4,2.8-0.9c-1.5-2.1-3-4.2-4.5-6.2c5.4-1.3,10.9-2.5,16.4-3.4C537.6,301.9,539.8,301.1,538.8,300.9z M462.8,260.7
	c3.5-1.5,7.1-3,10.6-4.6c0.3,5.6,0.6,11.1,1,16.7c-1,1.2-2,2.4-3,3.6c-1.7,2-3.4,4-5,6c-1.8-0.9-3.7-1.8-5.5-2.7
	C461.7,273.4,462.3,267,462.8,260.7z M458.3,278.3c-5.5-2.8-10.9-5.7-16.4-8.5c4.2-1.9,8.5-3.8,12.7-5.6c1.8-0.8,3.5-1.5,5.3-2.3
	C459.4,267.4,458.9,272.9,458.3,278.3z M463.8,249.1c3.1,0.4,6.2,0.9,9.4,1.3c0.1,1.5,0.1,3,0.2,4.5c-3.5,1.5-7,3-10.5,4.5
	c0.3-3.4,0.5-6.9,0.8-10.3C463.7,249.2,463.8,249.2,463.8,249.1z M487.9,257.7c-1.2-1.8-2.5-3.7-3.7-5.5c1.6,1.5,3.2,3,4.9,4.5
	C488.7,257,488.3,257.3,487.9,257.7C487.9,257.7,487.9,257.7,487.9,257.7z M480.6,251.9c-1.4,0.6-2.9,1.2-4.3,1.8
	c0-1-0.1-1.9-0.1-2.9c1.4,0.2,2.8,0.4,4.2,0.6C480.4,251.6,480.5,251.8,480.6,251.9z M481.2,252.8c1.5,2.3,3.1,4.6,4.6,6.9
	c-3,3.1-5.9,6.4-8.6,9.8c-0.3-4.9-0.6-9.8-0.9-14.6C477.9,254.2,479.6,253.5,481.2,252.8z M478.6,286.9c-0.4-4.9-0.8-9.7-1.2-14.6
	c3.1-3.7,6.1-7.5,9.4-11c1.4,2.1,2.8,4.1,4.1,6.2c-2.1,3-4,6-5.9,9.2c-1.9,3.3-3.7,6.5-5.6,9.8C479.2,286.5,478.9,286.7,478.6,286.9
	z M475.6,286.5c-1.2-0.5-2.4-1.1-3.5-1.6c-1.3-0.6-2.5-1.2-3.8-1.8c2.2-2.6,4.3-5.1,6.5-7.7C474.9,279.2,475.2,282.9,475.6,286.5z
	 M479,292.1c0.3-0.5,0.5-1,0.8-1.4c2.8,1.2,5.5,2.5,8.3,3.7c-3-0.6-6-1.1-9-1.7C479,292.5,479,292.3,479,292.1z M480.8,288.9
	c0.5-0.9,1-1.8,1.5-2.7c5.3-2.7,10.6-5.4,16-8c4.5,6.6,9.1,13.1,13.7,19.6c-1.2,0.4-2.4,0.8-3.7,1.2c-3.6-0.7-7.1-1.6-10.7-2.5
	C492.1,293.9,486.4,291.4,480.8,288.9z M483.2,284.5c1.3-2.3,2.6-4.6,3.8-6.8c1.6-2.9,3.4-5.6,5.2-8.4c1.8,2.7,3.7,5.4,5.5,8
	C492.9,279.7,488,282,483.2,284.5z M494,266.8c0.8-1.2,1.7-2.4,2.6-3.6c3.7,3.1,7.5,6.2,11.3,9.2c-2.5,1.2-5,2.5-7.5,3.7
	C498.2,273,496.1,269.9,494,266.8z M492.7,264.9c-1.3-1.9-2.6-3.8-3.9-5.8c0.5-0.5,1-1,1.4-1.4c1.6,1.4,3.1,2.8,4.7,4.2
	C494.2,262.9,493.5,263.9,492.7,264.9z M492.2,256c0.8-0.8,1.7-1.5,2.6-2.2c2,0.3,4,0.7,5.9,1c-1.4,1.7-2.8,3.4-4.1,5.1
	C495.1,258.6,493.6,257.3,492.2,256z M491,255c-0.8-0.7-1.6-1.4-2.4-2.2c1.4,0.2,2.9,0.5,4.3,0.7C492.3,254,491.7,254.5,491,255z
	 M486.7,251c-0.1-0.1-0.3-0.2-0.4-0.4c6.1-2.5,12.1-5,18.2-7.5c-2.6,3.7-6.3,6.4-9.9,9.1C492,251.8,489.4,251.4,486.7,251z
	 M476.7,246.1c0.8,1.2,1.7,2.5,2.5,3.7c-1-0.2-2.1-0.3-3.1-0.4c0-1-0.1-2.1-0.1-3.1C476.2,246.2,476.5,246.2,476.7,246.1z
	 M473.2,249c-1.8-0.3-3.6-0.5-5.4-0.8c1.8-0.4,3.6-0.8,5.4-1.3C473.1,247.6,473.1,248.3,473.2,249z M465.1,284
	c-1.5,1.7-2.9,3.5-4.4,5.2c-0.3-0.1-0.6-0.1-0.8-0.2c0.3-2.4,0.6-4.7,0.9-7.1C462.2,282.6,463.6,283.3,465.1,284z M461.5,291
	c2.3,0.5,4.6,0.9,7,1.3c-3.4,1.9-6.8,4-10,6.1c0.2-1.6,0.5-3.2,0.7-4.7C460,292.8,460.8,291.9,461.5,291z M462.8,289.6
	c1.4-1.6,2.7-3.2,4.1-4.8c1.4,0.6,2.7,1.3,4.1,1.9c1.4,0.6,2.9,1.3,4.3,1.9c-1.5,0.8-3.1,1.7-4.6,2.5
	C468,290.7,465.4,290.1,462.8,289.6z M475.8,289.6c0.1,0.9,0.1,1.7,0.2,2.6c-1.2-0.2-2.4-0.4-3.6-0.7
	C473.5,290.8,474.7,290.2,475.8,289.6z M479.2,294.3c5.4,1,10.8,2.2,16.2,3.4c2.3,1.1,4.6,2.2,6.9,3.4c-7.4,2.7-14.7,5.5-21.8,8.7
	C480.1,304.6,479.6,299.5,479.2,294.3z M507.5,300.3c2.3,0.4,4.6,0.6,6.9,0.7c1,1.4,2.1,2.9,3.1,4.3c-0.6,0.1-1.1,0.3-1.7,0.4
	c-3.1-1.7-6.3-3.4-9.4-5C506.7,300.6,507.1,300.5,507.5,300.3z M513.4,299.7c-1-0.1-2-0.2-3-0.4c0.7-0.3,1.5-0.5,2.2-0.8
	C512.9,299,513.1,299.3,513.4,299.7z M533.5,290.9c-6.3,1.9-12.5,3.9-18.7,6c-4.7-6.6-9.3-13.2-13.9-19.9c2.6-1.3,5.2-2.5,7.9-3.8
	C516.8,279.3,525,285.3,533.5,290.9z M512.4,256.9c5,0.9,10.4,1.4,15.3,2.9c3.4,1.1,2.2,1.1-0.4,2.6c-2.1,1.1-4.1,2.3-6.2,3.4
	c-3.5,1.9-7.1,3.7-10.7,5.4c-4.1-3.3-8.2-6.6-12.2-10c1.6-2,3.2-4,4.8-6C506.1,255.7,509.2,256.3,512.4,256.9z M517.6,236.5
	c-5.4,5.5-10.7,11.1-15.7,16.9c-1.8-0.3-3.6-0.6-5.4-0.9c4.4-3.3,8.9-6.4,11.8-11.1c0.4-0.6-1.8-0.2-1.9-0.1
	c-6.9,2.8-13.9,5.7-20.8,8.5c-1.6-1.5-3.3-3.1-4.9-4.7C492.9,242.3,505.3,239.4,517.6,236.5z M465,228.3c2.8,4.2,5.5,8.4,8.3,12.6
	c-0.2,0.1-0.3,0.3-0.3,0.5c0,1.6,0.1,3.1,0.1,4.7c-2.7,0.6-5.3,1.2-8,1.9c-0.4-0.1-0.9-0.1-1.3-0.2
	C464.2,241.2,464.6,234.7,465,228.3z M419.6,259.5c13.7-3.2,27.5-6.4,41.2-9.7c-0.2,3.6-0.5,7.3-0.8,10.9
	c-6.4,2.8-12.9,5.6-19.3,8.5C433.8,265.7,426.8,262.4,419.6,259.5z M438.3,282.9c-3.9-1.4-7.8-3.1-11.8-4c-0.9-0.2-2.5,0-3-0.7
	c0.1,0.1,5.6-2.6,6.2-2.8c3.3-1.5,6.5-2.9,9.8-4.4c6.2,3.2,12.4,6.4,18.6,9.6c-0.3,2.6-0.6,5.2-1,7.8
	C450.8,286.9,444.5,285.1,438.3,282.9z M449.1,305c2.3-2.5,4.5-4.9,6.7-7.4c-0.2,1-0.3,2-0.5,3C453.2,301.9,451.1,303.4,449.1,305z
	 M453.5,323.9c1.9-7.8,3.4-15.7,4.7-23.7c3.9-2.6,8-5.1,12.1-7.5c1.7,0.3,3.5,0.6,5.2,0.9c-4.8,8.6-9.5,17.3-14.5,25.8
	C458.4,320.9,455.9,322.3,453.5,323.9z M464.7,317.4c4-6.9,7.9-13.8,11.7-20.7c0.4,4.8,0.8,9.6,1.2,14.4
	C473.3,313,469,315.2,464.7,317.4z M481.2,318.2c-0.2-2.4-0.4-4.9-0.6-7.3c7.5-3.4,15.2-6.4,23-9.2c3.1,1.6,6.2,3.2,9.2,4.9
	C502,309.7,491.4,313.6,481.2,318.2z M519.2,307.7c-0.7-0.4-1.5-0.9-2.2-1.3c0.4-0.1,0.7-0.2,1.1-0.3
	C518.4,306.7,518.8,307.2,519.2,307.7z M517.8,301c5.6-0.1,11.1-0.6,16.6,0.5c-4.7,0.9-9.4,1.9-14,3
	C519.5,303.4,518.6,302.2,517.8,301z"/>
</svg>
