<?xml version="1.0" encoding="utf-8"?>
<!-- Generator: Adobe Illustrator 19.0.1, SVG Export Plug-In . SVG Version: 6.00 Build 0)  -->
<!DOCTYPE svg PUBLIC "-//W3C//DTD SVG 1.1//EN" "http://www.w3.org/Graphics/SVG/1.1/DTD/svg11.dtd">
<svg version="1.1" id="Layer_1" xmlns="http://www.w3.org/2000/svg" xmlns:xlink="http://www.w3.org/1999/xlink" x="0px" y="0px"
	 viewBox="0 0 960 560" enable-background="new 0 0 960 560" xml:space="preserve">
<rect x="531" y="216.1" fill="#616568" width="15.5" height="128.2"/>
<path fill="#616568" d="M517.2,222.6L517.2,222.6c-3.4,0-6.2,2.8-6.2,6.2v102.8c0,3.4,2.8,6.2,6.2,6.2l0,0c3.4,0,6.2-2.8,6.2-6.2
	V228.8C523.5,225.4,520.7,222.6,517.2,222.6z"/>
<g>
	<polygon fill="#616568" points="546.5,218.8 546.5,226.6 531,235.5 523.5,239.8 511,247 465.1,273.4 456,278.6 453.3,280.2 
		453.1,280.3 448.3,283.1 447.8,283.4 447.7,283.2 446,280.2 445.3,278.9 444.6,277.8 444.5,277.5 444.6,277.5 446,276.6 
		450.3,274.2 511,239.3 523.5,232.1 531,227.8 	"/>
	<polygon fill="#616568" points="546.5,333.8 546.5,341.6 531,332.7 523.5,328.4 511,321.2 450.7,286.5 446,283.8 444.6,283 
		444.5,282.9 444.6,282.7 445.3,281.6 446,280.2 447.7,277.3 447.8,277.1 448.3,277.4 453.1,280.1 453.3,280.2 456,281.8 465.1,287 
		511,313.4 523.5,320.6 531,324.9 	"/>
	<polygon fill="#616568" points="546.5,293.8 546.5,300.6 531,298 523.5,296.8 511,294.7 465.1,287 452,284.8 446,283.8 
		444.5,283.6 444.6,283 444.6,282.7 445,280.2 445.3,278.9 445.6,276.9 447.7,277.3 448.3,277.4 452.7,278.1 456,278.6 465.4,280.2 
		511,287.8 523.5,289.9 531,291.2 	"/>
	<polygon fill="#616568" points="546.5,259.8 546.5,266.7 531,269.3 523.5,270.5 511,272.6 465.4,280.2 456,281.8 452.9,282.3 
		448.3,283.1 447.7,283.2 445.6,283.5 445.3,281.6 445,280.2 444.6,277.8 444.6,277.5 444.5,276.9 446,276.6 451.6,275.7 
		465.1,273.4 511,265.8 523.5,263.7 531,262.4 	"/>
	<circle fill="#616568" cx="444.5" cy="280.6" r="8.6"/>
</g>
</svg>
