<?xml version="1.0" encoding="utf-8"?>
<!-- Generator: Adobe Illustrator 19.0.1, SVG Export Plug-In . SVG Version: 6.00 Build 0)  -->
<!DOCTYPE svg PUBLIC "-//W3C//DTD SVG 1.1//EN" "http://www.w3.org/Graphics/SVG/1.1/DTD/svg11.dtd">
<svg version="1.1" id="Layer_1" xmlns="http://www.w3.org/2000/svg" xmlns:xlink="http://www.w3.org/1999/xlink" x="0px" y="0px"
	 viewBox="0 0 960 560" enable-background="new 0 0 960 560" xml:space="preserve">
<path fill="#C09649" d="M467.6,264.5c2.4,1.9,4.4,7.5,3.2,10.4c-0.5,1.3-1.6,2.3-1.5,3.8c0.2,3.5,5.4,5.1,8,6.1
	c4.4,1.6,11.4,3.9,15.9,1.3c0.8-0.5,2.4-1.6,2.4-2.7c-0.1-1.1-1.6-1.2-2.1-2.1c-1.7-2.6,0.7-2.5,2.6-2.7c2.5-0.2,5-0.3,7.5-0.8
	c3.3-0.7,5-2.8,7.2-5.1c1.8-1.9,4.5-3,6.7-4.4c4.6-3,10.9-7.7,11.9-13.4c0.5-2.6-0.6-5-0.1-7.7c0.6-2.8,2-5.2,2.7-7.8
	c0.5-1.7-0.3-3.8-1-5.4c-2.5-6.1-7.3-12.5-12.6-16.4c-3-2.2-7.4-3.9-11-4.6c-3.9-0.7-7.3,1.2-10.5,3.2c-4,2.5-5.9,5.7-7.8,10
	c-1.2,2.8-2.3,5.1-2.5,8.1c-0.1,1.2-0.2,2.3-0.3,3.5"/>
<path fill="#C09649" d="M440,297c-1.4,1.6-3,3.4-5.1,3.9c-2.1,0.5-4,0.3-6,1.1c-1.5,0.7-3.8,1.3-3.4,3.4c0.3,1.6,2.9,1.8,2.1,3.4
	c-0.7,1.5-2.4,1.8-1,3.8c1.6,2.3,3.3,0.7,5.4,0.9c2.3,0.2,1.3,4.1,4.3,3.4c3.4-0.8,5-5.4,8.4-6.5c1.5-0.5,2.9,0.6,4.5,0.5
	c1.4-0.1,4.9-0.6,5.8-2c0.8-1.3-0.5-3,0.2-4c0.2-0.2,1.2-0.3,1.5-0.4c0.8-0.4,1.5-0.9,2.1-1.4c0.8-0.6,1.9-1.3,2.2-2.2"/>
<path fill="#C09649" d="M509.1,306.4c1.2,1.1-1.4,4.6-2,5.9c-0.4,0.7-1.1,1.9-0.8,2.8c0.4,1.3,2.5,0.9,3.8,0.7
	c2-0.3,4.5-1.6,6.5-0.4c2.4,1.4,3.6,4.7,6.1,6.1c1.3,0.7,4.7,1.2,5.7-0.2c0.4-0.6,0-1.3,0.3-1.8c0.4-0.6,1.6-0.5,2.2-0.5
	c1.6-0.1,3.6-0.6,3.8-2.5c0.1-0.9-0.7-1.9-0.4-2.9c0.4-1.3,1.9-1.8,2-3.4c0.1-3.2-5.4-3.6-7.5-4.6c-2-0.9-4.1-1.6-5.9-3
	c-2.2-1.6-4.3-2.8-7-3.6c-1.2-0.3-2.5-1-3.7-1"/>
<path fill="#47B549" d="M447.2,244.8c-1.2,1.3-1,3.6-0.7,5.2c0.1,0.7,0.2,1.2,0.7,1.6c1.1,0.7,1.4-0.2,1.6,1.6c0.2,1.4,0,3.1,1,4.2
	c1,1.2,1.7,0.7,3,0.6c2.9-0.2,5.4,3.3,8.3,3.9c2.1,0.5,4.2,0.7,6.1,1.9c1.4,0.9,2.4,1.4,3.9,2c1.2,0.4,2,1.2,3.3,1.5
	c2,0.6,4.2,1.1,6.3,1.3c2.4,0.3,4.8,1,7.2,1.5c1.2,0.3,2.5,0.6,3.6,0.2c0.1-0.8-0.8-2.1-1.1-2.9c-0.5-1.3-1.3-2.5-1.6-3.8
	c-0.6-2.8-0.8-6-0.7-9c0.2-3.1,1.2-6,2.1-8.9c0.8-2.8,1.9-5.5,3.2-8.1c1.3-2.7,3.3-4.7,4.8-7.3c1.9-3.5,4.3-6.6,5.6-10.3
	c1.3-3.7,2.4-8.2,1.7-12.1c-0.4-2-1.3-4-3.5-4.3c-1.3-0.2-2.1-0.4-3.3-1.1c-1.1-0.7-2.3-1.2-3.6-1.3c-2.8-0.2-5.7-0.2-8.4,1
	c-2.3,1-4.7,1.2-7,2.1c-3,1.1-6.5,2.6-9.3,4.2c-2.1,1.2-3.9,3-5.9,4.3c-2.9,1.9-4.8,4.4-7.2,6.8c-1.3,1.3-3.1,3.9-3,5.8"/>
<path fill="#47B549" d="M505.3,213.8c0.9-0.1,1.6,0.7,2.3,1.2c0.9,0.7,2,1.1,3,1.6c1.3,0.7,3.6,2,5,0.7c1.8-1.7,1.1-5.7,0.1-7.5
	c-1.1-2.2-3.2-4.2-5.6-4.9c-1.1-0.3-2.2-0.4-3.4-0.9c-1.4-0.6-3.6-1.3-5.1-0.5"/>
<path fill="#47B549" d="M533.3,226.3c0-1.3-1.5-2.6-2-3.7c-1.5-2.9-3-5-5.2-7.4c-2.2-2.4-4.6-3.9-7.4-5.4c-3.4-1.8-4.7,0.6-5.3,3.9
	c-0.3,1.7-0.3,3.6,1,5c1,1.1,2.6,1.7,3.7,2.6c1.1,0.9,1.9,2.1,3,3c1.3,1,2.7,1.7,3.9,2.9c0.9,1.1,1.7,2.3,2.6,3.4
	c2,2.3-0.4,6.3-1.1,8.9c-0.6,2.2-0.7,3.7-0.6,6c0.1,1.8,1.1,2,1.7,3.6c0.3,0.8,0.7,1.8,0.6,2.7c-0.2,1.2-1.4,2.4-2.2,3.3
	c-0.9,1.1-1.8,2.3-2.7,3.5c-1.2,1.7-2.7,2.8-4,4.2c-1,1.1-1.8,2.2-2.9,3.2c-0.7,0.6-1.6,1-1.8,2c-0.4,1.8,1.6,2.5,2.9,3.2
	c0.9,0.4,2.3,1.4,3.3,1.1c0.8-0.2,1.7-1.8,2.3-2.3c1.9-1.9,3.5-3.6,5-5.8c1.2-1.8,2.2-3.7,3.1-5.7c0.8-1.7,2-3.7,2.1-5.6
	c0.2-4,1.3-7.3,2.1-11.1c0.9-4.3,1.3-7.8-0.4-11.9"/>
<path fill="#C6DA50" d="M488.4,310.3c0.3,9.2,15.2,12.5,14.9,22.3c-0.2,8.1-8.5,8.3-14.5,7.1c-3.2-0.6-5.2-4-8.1-5.6
	c-3.5-1.9-3.2-5.8-7.5-4.5c-4.5,1.4-3.3,8.5-4.1,12.2c-2.1,9.6-21.1,1.3-20-6.7c0.1-0.8,0.8-1.3,1-2.1c0.4-1.4,0.4-2.9,0.6-4.3
	c0.6-3.1,2.3-5.5,3.4-8.4c1.3-3.5,2-5.3,4.7-8.1c1.1-1.1,3.7-2.9,2.6-4.5c-1.8-2.8-7,0.3-8.7-2.9c-1.1-1.9,0.5-3.5,1.6-5.2
	c2-3,4.5-7.1,7.4-9.3c2.6-1.9,6.3-2.6,9.4-2"/>
<path fill="#C6DA50" d="M471.7,283.3c1.5,8.2-7.7,14.1-13.5,18.2c-2.4,1.7-5.2,3.9-7.6,1.5c-1.9-1.9-2.2-2.6-5-3.4
	c-2.3-0.6-4.9-1.6-7.3-1.6c1.2-1.2,3.4-2,5-2.7c-0.1,0-0.1-0.1-0.1-0.2c4.4-1.3,7.4-5.4,9.5-9.1c1.7-2.9,4.2-3.8,4.9-7.2
	c0.5-2.2,1-3.3,3.3-4.4c2.3-1,10.8-3.7,11.6-0.3c0.2,0.7-1,2.4-0.7,3.1c0.8,2,6.2,3.1,7.9,3.4c4.1,0.6,8.2,1.2,12.3,1.8
	c1.5,0.2,4.6-0.3,5.6,0.7c3.7,3.5,0.1,20.8-5.3,22.2"/>
<path fill="#C6DA50" d="M500.7,306.1c2.7,2,9.4,3.3,11.8,1.3c3.4-2.7,6.6-3.7,11.2-3.7c-5.1-2.6-10-6.4-13.7-10.7
	c-2.9-3.3-4.4-5.5-9.5-4.5c-4.3,0.8-9.8,6.2-14.2,4.5"/>
<path fill="#C09649" d="M475.1,230.6c0.6-0.4-1.7-1.5-2-1.7c-1.2-0.6-2.1-0.8-3.3-0.2c-0.8,0.4-1.1,0.9-1.4,1.8
	c-0.3,1-0.4,2-0.5,3.1c-0.1,1,0.3,2.1,0.4,3.1c0.1,0.7,0.2,1.3,0.4,1.9c0.3,0.9,1,1.9,1.5,2.7c0.3,0.4,0.7,0.6,0.9,1
	c0.9-0.7,0.7-2.3,1.5-3.2"/>
<path fill="#2A6249" d="M466.1,349c-0.2,4.1,3.3,7-2.8,8.3c-3.7,0.8-7.8,0.8-11.6,1.4c-3.9,0.6-6-0.3-9.2-2.7
	c-2.4-1.7-5.4-4.9-3.7-7.8c1.8-3.1,5.5-4.6,6.2-8.4c1.2-6.7,2.3-11,9.8-11.2c4.4-0.1,10.3,2.9,13.1,6.2
	C472.1,339.9,466.4,343.8,466.1,349z"/>
<path fill="#2A6249" d="M504.5,324.7c-2.2-1.6-5.1,1.6-6.5,3c-2.4,2.4-4.4,4.3-7,6.3c-2.1,1.6-4.5,3-4.8,5.8
	c-0.5,3.7,2.1,8.1,4,11.1c2.2,3.4,4,4.3,8,4.4c5.7,0.1,11.7,1.3,17.4,0.5c3-0.4,6.5-1.7,7.8-4.6c1-2.3,0.8-3.7-0.6-4.8
	c-1.5-1.2-5-2.2-6.9-2.8c-3.5-1.2-3.8-3.7-5.8-6.5c-1.9-2.7-3.1-6.4-4.2-9.5"/>
<path fill="#2A6249" d="M505,291.6c0.8-4.7-0.4-7.4-4.7-9.3c-1.9-0.9-3.6-2-5.3-3.1c-0.7-0.4-2.8-1.4-3.4-0.2
	c-0.4,0.7,0.8,2.2,0.7,3.1c-4.2-0.4-8.5-0.5-12.6-1.7c-2.2-0.6-4.7-1-6.6-2.3c-2-1.3-1.3-0.9-1.2-2.5c0.2-3.1-4.5-2.3-6.6-1.9
	c-3.5,0.6-8.3,1.3-7.8,5.9c1.1-0.3,2.2-0.6,3.2-1c1.2-0.5,2.5-1.5,3.7-1.8c2.5-0.7,4.5,2.9,5.3,5c1.3,3.7,1,7.6-0.9,11
	c-0.7,1.3-2.6,3.8-4,4.4c-0.6,0.3-1.4,0-2,0.3c-0.6,0.3-0.9,1.1-1.3,1.6c-1.4,1.7-4.3,2.6-5.4,4.3c-1.4,2.2,1.3,2.1,3.3,2.8
	c3.7,1.2,7,2.7,10.8,3.6c7.5,1.8,16.6,3.3,24.5,2.4c3.9-0.5,2.5-2.1,3.8-4.9c0.5-1.1,1.5-1.4,2.1-2.4c0.7-1.2,0.4-2.6,1-3.8
	c0.6-1.3,1.7-2.1,2.3-3.5C504.4,295.6,504.7,293.5,505,291.6z"/>
<path fill="#47B549" d="M491.2,289.3c1.6,0.9,1.5,4.4,1.4,6c-0.2,1.8-0.8,3.4-2.2,4.5c-1.6,1.3-3.2,1.4-4.1-0.7
	c-1.1-2.4-0.4-4.9,0.4-7.2c0.7-1.9,1.8-4.4,4.1-3.2"/>
<path fill="#47B549" d="M459,332.6c1.5,3.3,2.1,9.2-2.3,10.5c-4.5,1.3-3.9-4.9-3-7.6c0.7-2,1-3.4,3.2-3.7"/>
<path fill="#47B549" d="M505.9,325c-1.6,3,2.6,7.9,3.6,10.6c0.2,0.7,0.4,2.2,1.3,2c1.2-0.3,1.4-3.3,1.3-4.1c-0.2-2.5-1.8-6.9-4.4-8"
	/>
<path fill="#FAF4AC" d="M495.8,233.8c-1.7-0.9-5.5-0.6-7.2,0.4c-3.3,2-1.9,7.1-0.3,9.7c2.6,4.5,12.3,4.9,13.5-1
	c0.4-1.8,0.3-3.6-0.1-5.3c-0.5-2.1-3.3-4-5.5-3.3"/>
<path fill="#FAF4AC" d="M520.9,234c-1.5-0.6-4.9,1.4-6,2.5c-2.3,2.4-2.1,7.4,0.1,9.8c1.1,1.2,2.9,1.2,4.5,1.1
	c3.9-0.2,5.5-3.2,5.5-6.7c0-2.8-0.5-5.8-3.5-6.9"/>
<path fill="#FAF4AC" d="M508,260.4c-1.5,0.3-2.3,4.7-1.9,6.2c-3.1,0.5-15.4,0.4-15-4.8c6,0.7,11.7-1.7,17.7-1.7"/>
<path fill="#06723A" d="M499.1,235.3c-0.1,1.8,2.2,7.1-0.2,8.3c-1.7,0.8-1.4-1.9-1.4-3.1c-0.1-1.8-0.3-4.1,1.2-5.4"/>
<path fill="#06723A" d="M522.2,236.9c1.6,1.1,2.7,8.4-0.2,7.9c-2.2-0.4-1.8-7.7,0-8"/>
<path opacity="0.36" fill="#1E1D56" d="M495.8,273.4c0.2-0.2,0.3-0.3,0.5-0.5C496.1,273.1,495.9,273.3,495.8,273.4z"/>
<path opacity="0.36" fill="#1E1D56" d="M497.6,241.2c-0.5,1-1.1,1.9-1.6,2.9c-0.4,0.9-0.8,1.8-1.2,2.8c-0.5-0.4-0.8-1.1-0.6-2
	C494.5,243.4,496,242,497.6,241.2z"/>
<path opacity="0.36" fill="#1E1D56" d="M505.6,217.8c-0.2-0.2-0.4-0.3-0.6-0.5l-0.6-1.7c0.1-0.8,0.1-1.6,0-2.3c0-0.1,0-0.3-0.1-0.4
	c0-0.1,0-0.1,0-0.2c0-0.1,0-0.2-0.1-0.2c0-0.1,0-0.2-0.1-0.2c0,0,0,0,0,0C505.2,213.3,505.6,215.5,505.6,217.8z"/>
<path opacity="0.36" fill="#1E1D56" d="M531,257.7c-1.6,3.6-2.3,7.4-5.2,10.4c-0.8,0.9-3.2,4.5-4.6,4.6c-1,0-2.1-1.6-2.9-2.2
	c-1.5-1-2.9-0.6-4.5-0.9l-2.2,1.5l1.1-1.7c-0.8,0.3-1.2,1.2-1.6,2l-0.1,0c0.4-1.7,0.4-3-1.4-3.8c-1.1-0.6-3.5-0.9-4.8-1
	c1.1-1.4,0.9-2.1,1.5-3.6c0.6-1.3,2-2.1,2.2-3.5c0.3-1.8-0.9-2-2.1-2.8c-1.5-1.1-2.4-3.6-1.2-5.2c1,1.5,2.8,1.9,4.5,1.8
	c1.7-0.2,3.6-0.9,5-2c0,0,0,0,0,0c2-1.6,1-2.3-0.5-3.8c0,0-0.1-0.1-0.1-0.2c-3.2-3.3-3.5-8-4.1-12.4c-0.7-4.5-1.2-9-2-13.4
	c-0.1-0.5-0.2-1.4-0.3-2.3c-0.7-0.5-1.4-1-2.1-1.5c0-2.3-0.4-4.5-1.5-5.5c-0.2-0.7-0.5-1.5-0.7-2.1c2.1-0.1,4.1,0.5,5.9,1.5
	c2.2,1.3,4.7,1.9,7,3.3c3.6,2.3,6.4,5.8,10,8.2c-0.6-1.4-1.3-2.7-1.6-4.2c1.2,1.2,3,2,4.3,3.1c-0.3-1.4-0.5-3-0.4-4.4
	c1.5,0.7,2.4,3.6,3.2,4.9c1.9,3.5,2.7,7.4,3,11.4C535.2,242.1,534.4,250.2,531,257.7z"/>
<path opacity="0.36" fill="#1E1D56" d="M505.6,217.8c-0.2-0.2-0.4-0.3-0.6-0.5l-0.6-1.7l-0.2-0.6c0.2-0.5,0.3-1.1,0.2-1.7
	c0-0.1,0-0.3-0.1-0.4c0-0.1,0-0.1,0-0.2c0-0.1,0-0.2-0.1-0.2c0-0.1,0-0.1,0-0.2C505.2,213.3,505.6,215.5,505.6,217.8z"/>
<path opacity="0.36" fill="#1E1D56" d="M502,250.3c-0.7,1-2.3,2.4-3.5,1.6c-0.9-0.6-1.3-2.4-0.7-3.2l1-1c-1.2,0-3,0-3.9-0.8
	c-0.5-0.4-0.8-1.1-0.6-2c0.2-1.4,1.7-2.8,3.4-3.7c1.1-0.6,2.3-0.9,3.1-0.8C505.4,240.7,503.8,247.7,502,250.3z"/>
<path opacity="0.36" fill="none" d="M495.5,252C495.5,252.1,495.5,252.1,495.5,252"/>
<path opacity="0.36" fill="#1E1D56" d="M514.8,251.3c-0.1-0.1-0.1-0.2-0.2-0.4c-0.2-0.7,0.4-1.2-0.2-2l-0.3-1.7
	c0,0.1,0.1,0.1,0.1,0.2C515.8,249.1,516.8,249.8,514.8,251.3z"/>
<path opacity="0.36" fill="#1E1D56" d="M455.5,303.8l-0.2,1.1c-0.1-0.1-0.1-0.1-0.1-0.2C454.9,304.1,455.1,303.8,455.5,303.8z"/>
<path opacity="0.36" fill="#1E1D56" d="M501.1,297.9c-0.2-0.6-0.4-1.2-0.5-1.8c0.1,0.1,0.1,0.1,0.2,0.2
	C500.9,296.8,501.1,297.4,501.1,297.9z"/>
<path opacity="0.36" fill="none" d="M455.3,303.7c0.1,0.1,0.1,0.1,0.2,0.2"/>
<path opacity="0.36" fill="#1E1D56" d="M501.1,297.9c-0.2-0.6-0.4-1.2-0.5-1.8c0.1,0.1,0.1,0.1,0.2,0.2
	C500.9,296.8,501.1,297.4,501.1,297.9z"/>
<path opacity="0.36" fill="#1E1D56" d="M505.6,217.8c0,2.9-0.5,6.1-0.8,7.7c-1.2,6.1-4.3,10.6-7.2,15.7c-1.6,0.9-3.2,2.2-3.4,3.7
	c-0.2,1,0.1,1.6,0.6,2c-2.3,5.8-3.3,12.8-3,18.8c0,1.1,2.1,8.6,3.8,7.8c-1.3,1.2-2.9,1.9-4.7,2.3c-0.5,0.1-0.9,0.2-1.3,0.2
	c1.1,1.6,2.9,3.1,4.4,1.8l3.2,0.5c-0.5,0-0.9,0.1-1.3,0.4c0.1,1,0.6,1.6,1.2,2c-1-0.5-2-0.9-3.1-1.4l-1.2-0.8
	c0.2,1.3-1.6,2.4-2.4,3.2c0.9,0.6,1.9,1,2.9,1.5c-2.5,0.3-5.5,0.7-7.7-0.1c-1.5-0.5-2.9-2-3.6-3.3c-0.6-1-1.4-2.2-2-3.4
	c-2.7,0.1-5.8,0.2-7.2-0.8c-0.2-0.2-0.4-0.4-0.5-0.6c-1,0.8-1.3,1.9,0.3,3.4c-2-1.4-6-1.4-4.8,2.1c-1-3.2-4.2-3.2-6.6-1.6
	c-0.9,0.6-2.7,2.3-3.7,2.1c-1.1-0.2-1.2-1.6-0.5-2.6l1.2-2.2c0.2-1.6,3.5-2.4,4.8-2.8c1.9-0.6,5.5,0.7,7-0.2c0.6-0.3,0.8-1,1-1.7
	c-0.9-1.5-2.1-2.6-3-4l0.4-1.6c-1.6-1-3.7-1.8-4.9-2.3c-4.7-1.7-9.2-3-12.6-6.8c-0.7,0.6-1.3,1.5-1.4,2.4c-1.2-1.9-3.2-4.4-3-6.8
	c-0.6,0.1-1.1,0.5-1.5,1c-0.1-1.1,0.2-2.2,0.4-3.3c0.6-3.2,0.7-6,0.7-9.2v2.1c0-1.3,0.7-2.6,1.3-3.6c2-3.3,6-7,9.5-8.5
	c-0.2,2.6-0.9,5-0.7,7.7c0.3-0.4,0.4-1.1,0.5-1.6c0,2.2-0.3,7.3,1.6,8.8c1-1.4,1.4-3.1,2-4.8c0.6,1.2,0.6,2.7,1.2,4
	c1.7-0.9,2.4-4.1,3.2-5.9c0.6,2,0.3,4.1,1.1,6.1c0.6-1.3,1-2.8,1.4-4.2c0.1,0.5,0.2,1.1,0.4,1.6c0.2-0.9,0.5-1.8,0.9-2.7
	c0.8,1.1,1.1,2.6,1.8,3.7c1.4-6,4-11.8,7.8-16.7c-2.1,4.8-1.5,10.9-1.8,16c-0.1,3-1.1,7.7,1,10.2c0.5-1.9,0.7-3.9,1.3-5.8
	c-0.1,1.2,0,2.6,0.3,3.7c0.2-0.6,0.3-1.2,0.4-1.8c0,2.1-0.3,6.7,0.9,8.4c1.3-2.4,2-5.2,3.4-7.7c2.2-4,4.6-7.7,6.4-11.8
	c1.1-2.5,2.5-5.1,3.2-7.8c0.2-1,0.2-1.9,0.6-2.8c0.3,1.5,0.5,3.1,0.7,4.7c0.4-0.9,0.7-1.8,1-2.7c0,0.8,0,1.5,0.1,2.2
	c2.3-1.3,4-5.4,5.4-7.6c1-1.5,1.8-2.7,2.2-4.4c0.3-1.2,0.7-2.6,0.8-4l0.6,1.7C505.2,217.5,505.4,217.6,505.6,217.8z"/>
<path opacity="0.36" fill="#1E1D56" d="M499.6,282.2c-1,0.8-3.9,0.6-5.2,0.7c-0.3,0-0.6,0.1-0.9,0.1c-1-0.5-2-0.9-2.9-1.5
	c0.7-0.8,2.5-1.8,2.4-3.2l1.2,0.8c1,0.5,2,1,3.1,1.4C497.9,281.2,498.8,281.6,499.6,282.2z"/>
<path opacity="0.36" fill="#1E1D56" d="M512.6,269.5l-1.1,1.7l-1.6,2.5c-2.2,2.3-2.5,3.8-6,3.5c-4.8-0.4-6.8-3.2-8.6-7.3
	c0.2,0.5,3.1,1.3,3.6,1.5c1.8,0.7,3.6,1.4,5.5,1.9c1.6,0.3,3.5,0.7,5,0c0.8-0.4,1.3-1,1.6-1.7C511.5,270.7,511.8,269.8,512.6,269.5z
	"/>
<path opacity="0.36" fill="#1E1D56" d="M487.8,289.5c-0.4,1.4-1.1,6.8,1.6,6.3c1.7-0.3,2.7-3.6,2.5-5.1c0.3,3.5,1.8,8.3-2.7,9.7
	c-1.6,0.5-3,0-3.6-1.7c-0.4-1-0.4-2.2-0.4-3.2c0-2.5,1.4-3,2.2-5.1L487.8,289.5z"/>
<path opacity="0.36" fill="#1E1D56" d="M453.8,334.8c0,2.3,1,7.2,4,4.5c1.2-1.1,2-2.5,1.8-4.2c0.8,2.7,0,8.8-3.7,9.1
	c-4.2,0.3-3.2-5.9-2.8-8.2L453.8,334.8z"/>
<path opacity="0.36" fill="#1E1D56" d="M469.2,336.4c0,0.2-0.1,0.4-0.1,0.6c-0.1-0.2-0.3-0.5-0.5-0.7c0.1-0.3,0.2-0.6,0.2-0.9
	C469,335.7,469.1,336.1,469.2,336.4z"/>
<path opacity="0.36" fill="#1E1D56" d="M523.3,348.7c-0.8,5.4-4.5,5.9-9,7c-5.2,1.2-11.5,0.8-16.7,0.2c-5.1-0.5-7.2-4.4-8.9-8.8
	c-0.8-1.9-1.3-3.1-2.8-4.5c-2.8-2.7-1.2-3.6-0.6-7c-1.9-1.1-4.4-1.6-6.4-2.5c-1.5-0.7-2.3-3-3.9-3.1c-2.2-0.1-5.2,4.1-5.7,6.4
	c0,0.2-0.1,0.4-0.1,0.6c-0.1-0.2-0.3-0.5-0.5-0.7c-1.4-2-2.9-3.2-5.2-4.4c5-0.5,7.8-8.2,9.3-12c1,4.4,6.3,5.5,9.7,3.2
	c-2.5,2.8,0.3,7.2,2.9,8.5c2,1,4.6,2.1,6.9,2c-5.9,2.3,6.9,13,8.2,13.9c4.7,3,11.5,3.2,17,2.8C519.1,350,522.2,350.3,523.3,348.7z"
	/>
<path opacity="0.36" fill="#1E1D56" d="M511.1,328.3c2.2,3.8-3.3,5.4-4.7,2.7c2.3,2.1,2.7,5.5,4.2,8.2c1.5-1.4,3.6-4.4,2.8-6.7
	L511.1,328.3z"/>
<path opacity="0.36" fill="#1E1D56" d="M499.6,282.2c-1,0.8-3.9,0.6-5.2,0.7c-0.3,0-0.6,0.1-0.9,0.1c-1-0.5-2-0.9-2.9-1.5
	c0.7-0.8,2.5-1.8,2.4-3.2l1.2,0.8c1,0.5,2,1,3.1,1.4C497.9,281.2,498.8,281.6,499.6,282.2z"/>
<path opacity="0.36" fill="#1E1D56" d="M533.5,307.6c-6.9-2.6-15.1-4.5-20-10.5c-1.1-1.3-1.9-2.9-2.9-4.3c-1-1.4-2.1-2.5-3.4-3.5
	c-2.3-1.8-1.8-4.3-4.5-6c-1.8-1.1-3.6-1.9-5.5-2.8c0.7,0.6,1.7,1,2.4,1.6c-1,0.8-3.9,0.6-5.2,0.7c-0.3,0-0.6,0.1-0.9,0.1
	c0.8,0.4,1.5,0.8,2.1,1.4c1.5,1.5,2.8,4,3.7,5.9c0.6,1.4,0.8,2.9,1.1,4.3c-0.3-0.9-0.7-1.7-1.1-2.5c0.4,1.4,0.4,3.2,0.7,4.7
	c0.2,1.3,0.2,2.4-0.6,3.4c-1.2,1.5-3.2,1.7-5,1.8c-4.7,0.3-9.9,0.1-14.5-1.2c-3.2-0.9-6.9-2.8-7.1-6.5c-0.1-1.9,0.7-4.4,1.7-6.1
	c0.2-0.4,1.2-1.2,1.2-1.8c-0.2-1.3-2.5-1.3-3.4-1.8c-1-0.5-1.7-1-2.5-1.7c-0.6,1.1-0.9,2.3-1.5,3.5c-1.8,3.6-5.5,6.1-8.8,8.3
	c-4.2,2.8-9.5,5.2-14.5,5.4c-0.1,1.7,0.1,3.6-0.5,5.1c-1.2,2.6-5,5.5-7.4,7.2c-1.3,0.9-2.6,1.4-4.2,1.4c1.8,3.1,2.7,5.2,6.4,3.5
	c2.6-1.2,4.4-3.6,7.2-4.7c1-0.4,2-0.7,3.2-0.6c1.4,0.1,3.2,1.2,4.6,0.6c3.3-1.5-1.2-5.7,1.1-6.9l0.1-0.8c-0.1-0.1-0.1-0.1-0.1-0.2
	c-0.3-0.6,0-0.9,0.3-0.8l-0.2,1.1c0.6,0.9,2.4,1,3.3,1.3c1.8,0.5,4.2,0.8,3.1,3.1c-0.9,1.9-3.6,2.2-4.7,3.9c0.1,0.1,0.1,0.1,0.2,0.2
	c-0.9,0.9-1.8,1.8-2.6,3c-1.4,2-2.5,5-2.8,7.4c-0.2,1.7,0.3,2.9-0.6,4.1c-0.8,1-2.3,1.6-3.1,2.6c-0.9,1.1-1.8,2.8-2.1,4.2
	c-0.3,1.3,0.2,2.9-0.2,4.1c-1.2,3.6-5.6,5.6-7,9c-0.9,2.3,0.5,5.7,2.2,7.2c1.9,1.9,4.7,2.8,7.2,3.8c2.8,1.1,5.8,0.6,8.8-0.2
	c1.8-0.5,3.6-1.1,5.5-1.4c1.2-0.2,3-0.2,3.6-1.4c0.9-1.8-0.7-5.5-0.4-7.7c0.6-4.2,4.5-7.3,3.5-11.8c0,0.2-0.1,0.4-0.1,0.6
	c-0.1-0.2-0.3-0.5-0.5-0.7c-1.9,5.8-11.5,20.3-17,12.9c-4.1-5.4-0.5-19.1,6.4-20.4c-2.3-4.4,0.4-10.1,4.5-13.2c2.4,0.5,5,0.7,6.8,1
	c5.2,0.8,13.3,2.7,19,1c0.5,0.6,1,1.2,1.4,1.7c2,2.3,4.1,4.2,5.2,7c0.6,1.6,1.2,3,0.8,4.8c1.4-1.7,3.9-2.7,4.8-4.7
	c-3.9-1.9-6.1-7.4-9-10.5c-0.5-0.6-1.2-1.4-1.8-2.4c1.6-0.5,3.5,0,5.1-0.4c1.2-0.3,2.4-1.5,3.1-2.6c1-1.3,1.7-2.8,2.2-4.2
	c0.7,0.6,1.6,1.2,2.4,1.4c1.3,0.5,4.2-0.2,5,1c1.5,2.1-3,4.2-1.1,6.1c2.3,2.4,5.7-0.9,8,0c0.7,0.2,1.4,1.3,2,1.8
	c1,0.8,2.1,1.5,3.1,2.4c1.8,1.7,3.9,3.4,6.6,3.3c2.1-0.1,3.3-1.7,1.9-3.4c-1.5-1.7-4.2-2.5-6.3-3.2c-2.4-0.8-10.3-8.8-5.3-10.6
	c-2-0.3-4.1-0.2-5.9-1c-2.6-1.1-5.8-3.6-6.3-6.6c1.2-0.1,2.4,0.1,4.1,0.8c2,0.8,3.8,1.8,5.7,2.8c1.3,0.7,4.8,1.6,4.1,3.7
	c2.4,0.1,4.5,2.4,6.7,3.4c2,0.9,4.5,1.6,6.6,2c0.7,0.1,3.3,0.9,4,0.4C537.2,309.4,534.5,308,533.5,307.6z M500.6,296.1
	c0.1,0.1,0.1,0.1,0.2,0.2c0.1,0.5,0.2,1.1,0.3,1.6C500.9,297.3,500.7,296.7,500.6,296.1z"/>
<path opacity="0.36" fill="#1E1D56" d="M501.1,297.9c-0.2-0.6-0.4-1.2-0.5-1.8c0.1,0.1,0.1,0.1,0.2,0.2
	C500.9,296.8,501.1,297.4,501.1,297.9z"/>
<path opacity="0.36" fill="#1E1D56" d="M512.6,269.5l-1.1,1.7l-0.5,0.4C511.5,270.7,511.8,269.8,512.6,269.5z"/>
<path opacity="0.2" fill="#F6EB1F" d="M456.5,221.7c0.6-1.6,1.8-3,3-4.3c2.5-2.7,7.2-7.3,10.9-8.2c-0.5,1.4-1.9,2.7-2.6,4.1
	c0.7-0.5,1.4-1,2.1-1.6c-0.5,1-1.1,2.2-1,3.2c1.4-0.9,3-1.1,4.5-1.8c1.7-0.8,3.2-2.1,4.8-2.8c-0.9,2-2.6,3.6-3.2,5.7
	c0.9-0.8,1.8-1.6,2.9-2.2c-0.2,0.4,0,1-0.1,1.3c2.7-0.6,7.1-4.3,9-6.3c0.5-0.5,0.9-1,1.2-1.5c-0.5,2.5-1.5,4.9-1.8,7.5
	c0.2-0.2,0.4-0.5,0.6-0.8c-0.3,0.4-0.6,0.9-0.9,1.3c2.5-0.7,5.6-2.2,6.2-4.9c0,1.3-0.2,2.8,0.1,4.1c0.9,0,1.7-0.7,2.3-1.1
	c-0.4,2,1.1,1.5,2.2,0.5c1.8-1.5,2.4-4.1,1.8-6.3c-0.1,1.6,0.5,3.6,1.1,5c0.6-0.5,0.9-1.3,1.1-2.1c2.8,6.5-0.2,15.3-3.5,21
	c0-2.9-1.7-5.4-3.9-7.2c-1.2,6-7.1,10.1-8.2,16.4c-0.2,1,0,2.1-0.4,3c-0.5,1.3-1.5,1.6-1.4,3.3c0-5-2.2-9.9-1.9-14.9
	c-1.3,1.8-3.3,4.1-3.2,6.4c0.1-3.3-0.8-6.5-0.3-9.7c0.3-1.9,1.4-3.5,1.8-5.3c-4.1-0.6-8.2,2.2-11.3,4.5c-3.9,2.8-4.9,5.3-5.4,10.1
	c0.1-2.7-0.3-5.4-0.1-8.1c-0.6,1.3-1.6,2.3-2.4,3.5c0.1-3.3,0.4-6.7,1.9-9.7c0.5-1.1,1.4-2.1,2-3c-3.8,0.3-8.9,4.3-10.1,7.8
	c0.8-3.2,3.3-7.8,5.9-10c-1.7,1-2.9,2.4-4.4,3.6c0.3-1.7,1.6-3.8,2.9-5"/>
<path opacity="0.2" fill="#F6EB1F" d="M479.2,287.5c-2.4,1-3.9,4.7-2.3,6.9c1.7,2.3,4.8,1.6,6.4-0.4c0.8-1.1,1.9-2.8,1.5-4.2
	c-0.4-1.4-1.7-0.5-2.8-0.5c-0.6,0-1.2-0.1-1.8-0.5c-0.4-0.3-0.5-1-1-0.9"/>
<path opacity="0.2" fill="#F6EB1F" d="M489.3,290.5c-1.6,0.3-0.5,5.9,1,3c0.4-0.7,0-3.8-1.2-2.9"/>
<path opacity="0.2" fill="#F6EB1F" d="M493.2,290.1c0.9,1,2.2,0.5,3-0.1c0.2-0.1,0.1-0.4,0.4-0.5c0.3-0.1,0.7,0.6,0.8,0.8
	c1.2,1.9,1.1,5.3-0.6,6.8c-1.5,1.4-2.6-1.3-2.9-2.6c-0.3-1.1,0-2.6-0.5-3.4"/>
<path opacity="0.2" fill="#F6EB1F" d="M456.7,333.3c-2.3,0.3-1.8,6,0.5,4.4c1.2-0.8,1.4-3.6-0.3-3.9"/>
<path opacity="0.2" fill="#F6EB1F" d="M501.4,330.1c-0.6,0.7-1,1.4-1.9,1.9c-0.6,0.3-1.7,0.5-2.1,1.1c-0.7,0.9,0.4,2.2,0.9,3
	c1.2,2.1,2.6,4.2,4.5,5.7c0.7,0.6,2.5,3,3.8,2.4c1.1-0.5,0.9-3,0.9-4c-0.1-2.6-1.1-5.3-2.8-7.3c-0.9-1-1.9-1.9-2.9-2.7"/>
<path fill="#231F20" d="M525.5,344.6c-4.1-2.6-11.5,0.5-12.5-6.2c2-3.1,2.5-7,1-10.4c-1.5-3.4-4.2-4.7-7.6-5c-0.7-1.1-1.3-1.8-3-1.5
	c-1.3,0.3-2.6,1.2-3.7,2.3c-1.9-2.3-3.8-4.7-5.9-6.7c-1.8-1.7-2.7-4-4.7-5.5c-0.6-0.4-1.2,0.4-0.9,0.9c0.8,1.4,1,3,1.7,4.4
	c0.4,0.9,1.2,1.5,1.9,2.2c2.2,2.2,4.2,4.6,6.2,7.1c0,0.3,0.4,0.6,0.7,0.5c0.6,0.2,1.3-0.3,1.6-0.9c1.4-0.9,3.1-1.9,3.9-1.4
	c0.3,0.2,0.4,0.9,0.8,1.1c0.4,0.2,0.9,0.2,1.4,0.2c0.8,0.1,1.5,0.3,2.1,0.5c-0.1,0.2-0.1,0.5,0.1,0.7c0.9,1.4,1.9,2.8,2.8,4.2
	c0.2,0.3,0.5,0.4,0.8,0.2c0.2,1.9-0.4,3.7-1.4,5.4c0,0-0.1,0.1-0.1,0.1c0,0.1-0.1,0.1-0.1,0.2c-0.4,0.6-0.3,1.1,0.1,1.5
	c0.5,2.8,2,5.1,4.7,6.4c1.1,0.5,7.1,0.7,7.5,1.6c0.4,0.8-0.7,2.9-1,3.7c-0.5,1.2-1.1,2.8-2.4,3.3c-1,0.5-2.1,0-3.1,0
	c-1,0-2.1,0.1-3.1,0.1c-2.6,0-5.2,0.1-7.9,0.1c-2.6,0-7.9,1.2-10.3,0.2c-2.6-1-4.6-6.1-5.9-8.4c-0.8-1.4-2.4-3.4-2.9-4.9
	c-0.3-0.5-0.6-1-1-1.5c0.3-0.3,0.5-0.7,0.8-1c0.2-0.3,1.3-0.6,1.7-1c0.5-0.5,1-1.1,1.5-1.7c-1.3-1.2-2.4,0.8-3.7,0
	c0,0-0.1,0-0.1-0.1c-1.4-0.6-2.7-1.1-4.2-1.5c-1.7-1.3-3.2-3.2-4.2-4.3c-0.4-0.5-1.1-0.5-1.7-0.2c-1.4,0.7-2.5,0-3.7,1
	c-0.9,0.8-1.5,2.4-2,3.8c-0.4-0.1-1,0.2-0.8,0.8c0.1,0.3,0.1,0.6,0.2,0.8c0,0.1-0.1,0.2-0.1,0.3c-0.1,0.3,0,0.7,0.3,0.8
	c0,0.7,0,1.4-0.1,2.1c-0.1,0.1-0.2,0.2-0.3,0.3c-0.2,0.5-0.5,1.1-0.7,1.6c-0.1,0-0.2,0.1-0.3,0.2c-0.8,1.1-1.3,2.4-1.6,3.7
	c-0.1,0.1-0.1,0.2-0.2,0.3c-0.1,0.2-0.1,0.4,0,0.6c0,0.1,0,0.2,0.1,0.3c-0.5,0.9-1,1.9-1.5,2.7c-1,1.9,2.6,3.3,1.9,5.2
	c-0.7,1.9-6,2.4-7.6,2.8c-2.8,0.6-6.1,1.7-9,1.5c-2-0.2-4.3-1.2-5.7-2.6c-0.6-0.6-1-1.3-1.7-1.9c-0.8-0.6-1.6-0.9-2.3-1.7
	c-1.4-1.7,1.3-5.5,2.4-7c0.7-0.9,1.3-1.8,2-2.8c0.7,0.3,1.5,0.1,1.6-0.9c0.4-2.7,0.8-5.5,1.7-8.1c0.8-2.6,2.6-3.7,4.5-5.5
	c0.4-0.4,0-1.2-0.6-1c-2.4,0.7-4.7,1.5-5.9,3.9c-1.5,3-1.9,6.8-2.4,10c0,0.1,0,0.2,0,0.3c-3.1,2.3-7.6,6.1-6.6,10.1
	c1.1,4.1,7.1,8.5,11.1,9.4c5,1.2,12.8-0.6,17.3-2.7c4.7-2.2,3.9-5.4,2.3-9.3c2.1-4,4.8-8.8,2.9-13c0.8-1.2,1.8-2.7,2.9-3.2
	c0.5-0.3,1.3-0.3,2-0.4c2.1,2.3,5,5.3,8.1,6.1c-1.3,1.8-0.1,3.3,2.3,7.3c2.6,4.5,4.2,11.8,10.1,11.9c7.7,0.1,16,0.4,23.7-0.4
	c4.8-0.5,6.3-6.6,6.6-10.8C526.3,345.5,525.9,344.9,525.5,344.6z"/>
<g>
	<path fill="#231F20" d="M504.8,326c0.1,0.4,0.4,0.9,0.7,1c0.4,0.1,0.3-0.4,0.6-0.4c0.3,0,0.6,0.1,1,0.2c1.3,0.5,2.5,2.2,3.1,3.5
		c0.7,1.4,1.6,4.1,0.6,5.5c-0.5,0.6-1.3,0.6-0.9,1.7c0.6,1.5,1.9-0.6,2.3-1.3c1.4-2.9-0.1-6.8-2.1-9.1c-0.9-1-2.2-1.9-3.6-2
		c-0.5,0-1.4-0.1-1.6,0.4C504.7,325.6,504.8,325.8,504.8,326z"/>
</g>
<g>
	<path fill="#231F20" d="M471.9,235.5c0.4-0.5,0.9-1.1,1.6-1.1c0.3,0,0.8,0.1,0.7-0.4c-0.1-0.4-0.4-0.4-0.7-0.3
		c-0.8,0.2-1.3,1.1-1.7,1.7C471.6,235.4,471.8,235.6,471.9,235.5z"/>
</g>
<g>
	<path fill="#231F20" d="M475.4,230.6c0.1,0,0.1-0.1,0.2-0.2c0.6-1-0.4-1.8-1.2-2.3c-0.9-0.6-2-0.9-3.2-0.7
		c-4.1,0.6-4.4,5.5-3.8,8.7c0.4,2.3,1.4,4.3,2.5,6.4c0.6,1.1,0.8,2.6,0.8,3.8c0.5-0.1,0.7-1.3,0.9-1.7c0.2-0.4,0.3-0.8,0.4-1.3
		c0.1-0.8-0.5-1.5-0.8-2.2c-0.5-0.9-0.9-1.8-1.3-2.7c-0.8-2.2-2.2-7,0.3-8.6c1.4-0.9,2.9-0.7,4.2,0.3
		C474.6,230.3,475,230.9,475.4,230.6z"/>
</g>
<path fill="#231F20" d="M486.1,234.9C491,235,497,234,502,237c-2-5-8-6-13.4-3.6"/>
<path fill="#231F20" d="M524.7,237.6c-0.5-1,0.1-2-1.5-2.5c-1.3-0.4-3,0.2-4.3,0.4c-2.3,0.5-3.8,1.5-5.7,2.8
	c1.6-2.7,4.2-5.4,7.5-5.7c2.6-0.2,3.3,1.6,3.9,3.6"/>
<path fill="#231F20" d="M487.6,223.5c1.2-0.9,2.1-2.1,3.5-2.7c2-0.8,3.7,0.5,5.2,1.7c1.7,1.4,3.6,3.8,5.6,4.5
	c-3.2,0.2-6.1-1.8-8.7-3.3c-1.8-1-3.7-1.7-5.5-0.1"/>
<path fill="#231F20" d="M487.7,223.6c-0.1,0-0.2,0-0.4,0"/>
<path fill="#231F20" d="M524,227.9c1.6-1.9-1.2-4.3-3.2-3.5c-2.3,0.9-4.7,2.3-6.2,4.3c1.7-1.2,4.2-1.9,6.3-2.2
	c1.8-0.3,1.8,0.6,3.1,1.1"/>
<g>
	<path fill="#231F20" d="M511.2,239.8c0.1,2.5,0.5,5.1,1.4,7.5c0.2,0.5,0.3,0.8,0.6,1.3c0.5,0.9,0.8,1,0.4,1.9
		c-0.6,1.4-4.3,2.9-5.6,2c-0.7-0.5-1.3,0.6-0.6,1.1c1.3,0.9,2.7,0.6,4.1,0.1c1.4-0.5,3.6-1.1,4.4-2.5c0.7-1.4-0.6-2.6-1.3-3.7
		c-1.4-2.4-1.9-5-2.8-7.6C511.7,239.4,511.2,239.4,511.2,239.8L511.2,239.8z"/>
</g>
<g>
	<path fill="#231F20" d="M510.9,262c0.4-3-3.3-3.1-5.3-2.8c-1.9,0.3-3.7,1-5.6,1.3c-2.9,0.6-5.8,0.6-8.7,0.1c-0.6-0.1-1,0.3-0.9,0.9
		c0.5,2.9,3.9,4.6,6.4,5.5c3.4,1.3,7,1.4,10.4,0.4c0.9-0.3,0.5-1.7-0.4-1.5c-2.7,0.7-5.4,0.8-8.2,0c-2.3-0.6-6.3-2.3-6.8-5
		c-0.3,0.3-0.6,0.6-0.9,0.9c2.7,0.4,5.4,0.5,8.1,0c1.9-0.3,11.1-4,11.4-0.1C510.4,262.3,510.8,262.3,510.9,262L510.9,262z"/>
</g>
<g>
	<path fill="#231F20" d="M506.6,266.6c-0.5-2.2,0.3-4.5,2.1-5.8c0.8-0.6,0-1.9-0.8-1.3c-2.3,1.7-3.3,4.8-1.9,7.4
		C506.2,267.1,506.6,266.9,506.6,266.6L506.6,266.6z"/>
</g>
<g>
	<path fill="#231F20" d="M499.2,263.8c1.6,0.4,3.2,0.6,4.8,0.6c0.5,0,0.5-0.7,0-0.7c-1.6,0-3.2,0-4.7-0.2
		C499,263.4,499,263.7,499.2,263.8L499.2,263.8z"/>
</g>
<ellipse fill="none" stroke="#231F20" stroke-miterlimit="10" cx="498.7" cy="239.8" rx="1.5" ry="4.3"/>
<ellipse fill="none" stroke="#231F20" stroke-miterlimit="10" cx="521.9" cy="241" rx="1.5" ry="4.3"/>
<g>
	<path fill="#231F20" d="M524.6,246.6c0.7,0.6,1.6,1.1,2.2,1.9c1.5,2,0.6,3.5-0.6,5.2c-1.4,2.1-3.1,4-4.8,5.9
		c-1,1.1-2.1,2.2-3.2,3.3c-1.2,1.2-2.4,2.4-3.6,3.6c-0.6,0.6-1.2,1.2-1.7,1.8c-0.3,0.3-0.5,0.6-0.8,0.9c-0.2,0.2-0.5,0.5-0.6,0.9
		c0,0.1,0,0.2,0,0.3c0,0.2,0,0.5-0.1,0.7c-0.1,0.3-0.2,0.5-0.4,0.7c-0.2,0.2-0.4,0.5-0.6,0.6c-0.2,0.2-0.5,0.2-0.7,0.3
		c-0.2,0.1-0.6,0-0.8,0.2c-0.1,0.1-0.2,0.3-0.3,0.4c-0.1,0.1-0.2,0.3-0.3,0.4c-0.8,1.1-1.6,2.5-2.9,3c-1.2,0.4-2.8,0.3-4,0.4
		c-2.3,0.1-4.7,0.3-7,0.2c-2.2-0.1-3.4-0.7-4.5-2.7c-0.5-0.9-1.8-0.1-1.3,0.8c2.4,4.6,7.4,3.7,11.9,3.5c2.2-0.1,5.1,0.2,6.9-1.3
		c0.9-0.8,1.6-2,2.4-3c1.1-1.4,2.2-2.8,3.4-4.2c4.1-4.7,8.9-8.8,12.8-13.8c1.2-1.6,3.3-3.8,3.1-6.1c-0.2-2.1-2.3-3.4-4.1-4.1
		C524.6,246.2,524.4,246.4,524.6,246.6z"/>
</g>
<g>
	<path fill="#231F20" d="M510.6,273c-3.7,1.3-9.4,0.5-12.7-1.5c-0.2-0.1,0-0.4,0.1-0.3c0.1,0,0.1,0.1,0.2,0.1c2,0.8,4,1,6.2,1.1
		c1,0,1.9,0.1,2.9,0c0.8,0,1.6-0.1,2.4-0.3c0.5-0.1,0.9-0.2,1.2-0.6c0.3-0.3,0.4-0.7,0.4-1.2c0-0.2,0-0.3,0-0.5c0-0.2,0-0.4-0.1-0.6
		c-0.1-0.2-0.1-0.3-0.2-0.5c-0.1-0.2-0.1-0.3-0.2-0.5c0-0.1-0.6-1-0.7-0.9c0.1-0.1,0.3-0.1,0.4-0.1c0.2,0,0.5,0,0.7,0.1
		c0.5,0.2,0.8,0.5,1.1,0.9c0.3,0.4,0.5,0.9,0.5,1.4c0.1,1-0.3,2-1.1,2.7C511.4,272.6,511,272.9,510.6,273z"/>
</g>
<g>
	<path fill="#231F20" d="M488.8,210.9c-10.2,9.2-16.7,21.8-18.5,35.4c-0.5,3.9-0.7,7.7-0.6,11.6c0,2,0.1,4,0.3,6.1
		c0.1,1.2,0,2.7,0.9,3.8c0.6,0.7,1.4,0.9,2.3,1.2c2.1,0.6,4.4,0.9,6.6,1.4c4.1,0.8,8.2,1.6,12.3,2.3c0.9,0.2,1.4-0.8,0.9-1.5
		c-7.6-9.2-3.3-24.4,1.8-33.7c4-7.3,14.7-18.4,9.3-27.4c-0.6-0.9-2-0.1-1.4,0.8c3.4,5.6-1.1,12.6-4.1,17.4c-3.1,4.8-6.2,9.5-8.2,15
		c-3.4,9.1-5.2,21.1,1.5,29.1c0.3-0.5,0.6-1,0.9-1.5c-3.5-0.6-7-1.2-10.4-1.9c-1.7-0.3-3.5-0.7-5.2-1c-1.9-0.4-4.3-0.3-5-2.5
		c-0.5-1.5-0.3-3.5-0.4-5.1c-0.1-1.7-0.1-3.4-0.1-5.1c0-3.7,0.2-7.3,0.8-10.9c1.9-12.5,8-24,17.1-32.9
		C489.4,211.1,489,210.7,488.8,210.9L488.8,210.9z"/>
</g>
<g>
	<path fill="#231F20" d="M504.2,213.1c10.2,6.4,21.2,12.1,25.4,24.2c0.3,1,1.9,0.6,1.6-0.4c-3.5-12.2-15.8-19.4-26.8-24.1
		C504.2,212.7,504,213,504.2,213.1L504.2,213.1z"/>
</g>
<g>
	<path fill="#231F20" d="M527.3,247.8c-2.6-5.4,1-9.9,1.8-15.2c0.2-1-1.3-1.4-1.5-0.4c-0.8,5.4-4.6,10.8-0.9,16
		C527,248.4,527.5,248.1,527.3,247.8L527.3,247.8z"/>
</g>
<g>
	<path fill="#231F20" d="M501.3,203.3c6.8,2.3,13.4,5.3,19.4,9.3c6.1,4,10.1,9.2,11.7,16.5c1.7,7.4,2.3,15.1,0.3,22.5
		c-1.9,7.2-5.7,13.8-10.3,19.7c0.5,0,0.9,0,1.4,0c-2.8-2.2-5.9-3.4-9.4-3.5c-1.2,0-1.2,1.9,0,1.9c3,0.1,5.7,1.1,8.1,3
		c0.4,0.3,1,0.5,1.4,0c4.8-6.1,8.8-13,10.7-20.5c2-7.7,1.4-15.8-0.5-23.5c-1.7-7-5.5-12.3-11.4-16.4c-3.1-2.1-6.5-3.8-9.9-5.4
		c-3.6-1.7-7.5-3.4-11.4-4C501.1,202.8,501,203.2,501.3,203.3L501.3,203.3z"/>
</g>
<g>
	<path fill="#231F20" d="M531,240.7c1.1,9.6-1,18.6-5.8,27c-0.3,0.5,0.4,0.9,0.7,0.4c5.4-7.9,7.2-18.2,5.3-27.5
		C531.2,240.4,530.9,240.5,531,240.7L531,240.7z"/>
</g>
<g>
	<path fill="#231F20" d="M519.9,266.6c1.9-2.8,3.4-5.8,4.5-9.1c0.1-0.4-0.5-0.6-0.6-0.2c-1,3.2-2.4,6.2-4.2,9.1
		C519.5,266.7,519.7,266.8,519.9,266.6L519.9,266.6z"/>
</g>
<g>
	<path fill="#231F20" d="M491.3,202c-28-2.8-47.6,26.1-45.9,51.6c0.1,0.8,1.3,1.4,1.7,0.5c0.3-0.8,0.7-1.4,1.3-1.9
		c-0.4-0.2-0.9-0.4-1.3-0.5c0.6,1.5,1.1,3,1.5,4.6c0.2,0.7,1,0.9,1.5,0.4c0.4-0.4,0.9-0.9,1.3-1.3c-0.5-0.1-0.9-0.1-1.4-0.2
		c2.1,2.7,4.7,4.9,7.7,6.4c1.6,0.8,3.3,1.5,5.1,2c1,0.3,2,0.5,3.1,0.8c0.5,0.1,3.3,0.2,3.5,0.6c0-0.4,0.1-0.7,0.1-1.1
		c0,0.1-0.1,0.1-0.1,0.2c-0.7,0.9,0.5,2.2,1.3,1.3c0-0.1,0.1-0.1,0.1-0.2c0.2-0.3,0.4-0.7,0.1-1.1c-0.7-1-1.7-1-2.9-1.1
		c-2.1-0.4-4.2-0.8-6.2-1.5c-4.1-1.4-7.8-3.7-10.5-7.1c-0.3-0.5-1-0.6-1.4-0.2c-0.4,0.4-0.9,0.9-1.3,1.3c0.5,0.1,1,0.3,1.5,0.4
		c-0.4-1.6-0.9-3.1-1.5-4.6c-0.2-0.5-0.8-0.9-1.3-0.5c-1,0.7-1.5,1.4-2,2.6c0.6,0.2,1.1,0.3,1.7,0.5c-0.9-12.7,3.1-25.9,11.2-35.7
		c8-9.7,20.2-15.5,32.9-15.3C491.7,202.6,491.7,202,491.3,202L491.3,202z"/>
</g>
<g>
	<path fill="#231F20" d="M450.8,245.1c-2.7,8.2,3,14.7,10.4,17.4c1,0.4,1.4-1.3,0.4-1.6c-6.8-2.4-12-8.1-10.4-15.7
		C451.3,244.9,450.9,244.8,450.8,245.1L450.8,245.1z"/>
</g>
<g>
	<path fill="#231F20" d="M449.4,242.8c-1.3,4.4-1.6,8.7-0.4,13.1c0.2,0.9,1.7,0.5,1.4-0.4c-1.2-4.1-1.5-8.4-0.6-12.6
		C449.9,242.6,449.5,242.5,449.4,242.8L449.4,242.8z"/>
</g>
<g>
	<path fill="#231F20" d="M460.1,256.8c0.2,2.4,1.4,4.8,3.1,6.4c0.6,0.6,1.5-0.4,0.9-0.9c-1.8-1.6-2.8-3.3-3.6-5.6
		C460.5,256.5,460.1,256.6,460.1,256.8L460.1,256.8z"/>
</g>
<g>
	<path fill="#231F20" d="M502.1,205.3c-2.2-6.5-12.4-4.2-16.7-1.8c-0.8,0.5-0.1,1.7,0.7,1.3c4.3-2.4,12.2-4.1,15.7,0.7
		C501.9,205.6,502.2,205.5,502.1,205.3L502.1,205.3z"/>
</g>
<g>
	<path fill="#231F20" d="M501.3,203.6c0-0.3,0.1-0.8,0.4-0.8c-0.1-0.1-0.3-0.3-0.4-0.4c0,0.9,0.5,1.5,1,2.2c0.7,0.9,2-0.9,0.7-1.2
		c-0.5-0.1-0.8-0.6-0.9-1.1c-0.1-0.3-0.3-0.4-0.6-0.2c-0.6,0.3-0.9,1.1-0.5,1.6C501.1,203.8,501.3,203.8,501.3,203.6L501.3,203.6z"
		/>
</g>
<g>
	<path fill="#231F20" d="M480.7,206.6c-18.1,9.7-28.5,30.6-23.6,50.8c0.2,0.9,1.6,0.5,1.4-0.4c-3.6-19.8,4.7-39.9,22.4-50.2
		C481,206.8,480.8,206.5,480.7,206.6L480.7,206.6z"/>
</g>
<g>
	<path fill="#231F20" d="M461.9,236.7c-0.3,9.4-1.2,18.8,4.6,26.8c0.5,0.7,1.7,0,1.2-0.7c-5.7-7.8-5.5-16.9-5.5-26.1
		C462.2,236.6,461.9,236.6,461.9,236.7L461.9,236.7z"/>
</g>
<path fill="#231F20" d="M493.4,233.2c-1.3-0.1-4.8-2.9-3.3-4.4c-0.7,0.7-1.3,1.6-1.2,2.7c0.4,3,4.1,2.6,6.2,2.3"/>
<path fill="#231F20" d="M499.5,234.7c1.1,0.1,3-0.8,3.3-2c0,0.7,0.1,1.6-0.6,2.3c-0.8,0.7-1.4,0.5-2.4,0.3"/>
<path fill="#231F20" d="M491.1,233.5c-0.3-0.8-0.8-0.9-1.5-0.9c-1.4-0.1-3.4,0.3-4.4-1.1c-0.2,2.3,4.4,2.9,5.8,2.3"/>
<path fill="#231F20" d="M494.6,233c-0.8-0.3-2.6-1.9-1.1-2.5c-2.4-0.2-3.4,2.9-0.1,2.9"/>
<path fill="#231F20" d="M521.5,233.7c1.5-0.5,2-2.7,1-3.8c1.8,0.6,2.7,4.3-0.1,4"/>
<path fill="#231F20" d="M522.6,234c0.9-0.4,3-0.7,3.1-2c0.3,0.8,0.3,2.2-0.4,2.9c-0.4,0.4-1.4,0.7-1.7,0"/>
<path fill="#231F20" d="M520,233.8c1.4,0,1.5-2.1,0.7-2.8c1.4-0.6,3.2,2.5,0.6,2.9"/>
<path fill="#231F20" d="M517,235c-1.1,0.6-2-0.2-2.1-1.3c-0.3,0.4-0.9,0.9-0.8,1.5c0.3,1.1,1.9,0.6,2.4-0.1"/>
<path fill="#231F20" d="M518.1,234.6c-1.4-0.4-1.1-2.9-0.1-3.5c-0.7,0.4-1.2,0.7-1.4,1.5c-0.4,1.9,1.3,1.9,2.7,1.3"/>
<path fill="#231F20" d="M497.8,233.9c1.2,0.1,3.1-1.6,3-2.9c0.6,2.3-1.2,3.3-3.2,3"/>
<g>
	<path fill="#231F20" d="M510.6,294.7c-0.4-1.6-1.2-3-2.1-4.4c-0.5-0.7-1-1.3-1.5-1.9c-0.1-0.2-1.3-1.2-1.3-1.4
		c-0.1,0.5-0.3,1.2-0.1,1.7c0.2,0.6,0.9,1,1.3,1.5c1.2,1.4,2.3,3,3.3,4.5C510.4,295.1,510.7,295,510.6,294.7z"/>
</g>
<g>
	<path fill="#231F20" d="M511.2,307.8c-2.3-0.5-4.6-0.7-6.9-1.3c-1.8-0.5-3-1.9-4.3-3c-1.2,1.6,0.7,3,1.9,3.7
		c2.5,1.5,6.4,1.3,9.2,1.4C511.5,308.6,511.6,307.9,511.2,307.8z"/>
</g>
<g>
	<path fill="#231F20" d="M438.5,299.4c-3.1,0.8-6.1,1.9-9.2,2.6c-1.5,0.3-3.7,0.2-4.2,2c-0.9,2.6,2.2,3.3,4.1,3.5c0.5,0,1,0.1,1.5,0
		c0.5,0,0.7-0.4,1.1-0.7c0.2-0.2,0.6-0.3,0.7-0.6c-0.3,0.3-0.6,0.2-1,0.2c-0.4,0-0.8,0.1-1.3,0.1c-0.4,0-0.8,0-1.2-0.1
		c-0.4-0.1-0.7-0.3-1.1-0.3c-1.1-0.1-1.4-1-0.8-2.7c0.2,0,0.4-0.1,0.5-0.1c0.5-0.4,1.7-0.4,2.3-0.5c2.9-0.8,5.8-1.9,8.5-3.1
		C438.7,299.7,438.7,299.4,438.5,299.4z"/>
</g>
<g>
	<path fill="#231F20" d="M448.7,301.7c0.6,1.1,1.6,1.8,2.3,2.8c0.4,0.4,3.1,3.3,3,3.9c-0.2,1.2-3.5,0.7-4.4,0.7
		c-0.8-0.1-1.6-0.2-2.4-0.5c-0.4-0.1-0.8-0.3-1.1-0.4c-0.1,0-0.9-0.3-0.9-0.3c-0.3,0.3-0.1,0.8,0,1.1c0.2,0.5,0.7,0.6,1.1,0.7
		c1.2,0.4,2.4,0.6,3.6,0.7c1.3,0.1,4.4,0.6,5.4-0.7C457.3,307.1,450.3,302.8,448.7,301.7z"/>
</g>
<g>
	<path fill="#231F20" d="M439.2,305.2c-1.1,1.8-2.5,3.5-3.9,5c-0.8,0.9-2.2,1.6-2.8,2.8c-0.8,1.7,0.6,3.1,2.2,3.5
		c2.9,0.7,4.3-1.6,6.3-3.3c1.8-1.5,4.9-3.4,4.8-6c0-0.5-0.8-0.6-0.9-0.1c-0.5,2.5-3,3.9-5,5.2c-0.9,0.7-3.4,3.4-4.4,3.1
		c-1.7-1.3-2.1-2.3-1.1-3c0.3-0.3,0.6-0.6,0.9-0.9c0.4-0.5,0.8-1,1.2-1.4c1.2-1.5,2.2-3,3-4.7C439.7,305.2,439.4,305,439.2,305.2
		L439.2,305.2z"/>
</g>
<g>
	<path fill="#231F20" d="M436.3,303.1c-1,1.1-2.6,1.9-3.9,2.7c-1.2,0.8-2.3,1.5-3.5,2.2c-1.3,0.7-3.3,1.4-2.6,3.3
		c0.5,1.4,2.2,2.3,3.6,2.2c1.1-0.1,1.7-0.7,2.6-1.1c0.5-0.2,1-0.3,1.4-0.5c0.4-0.1,0.9-0.2,1.3-0.5c0.6-0.5,0.9-1.3,1.2-2
		c-0.3,0.3-0.7,0.4-1.1,0.5c-0.4,0.2-0.8,0.4-1.2,0.5c-0.8,0.3-1.7,0.5-2.5,1c-1.1,0.6-2,1.4-3.3,0.6c-0.8-0.5-0.9-1.6-0.4-2.4
		c0.2-0.3,1-0.5,1.3-0.7c1.5-0.9,3-1.8,4.4-2.9c1-0.8,2.4-1.6,3.1-2.8C436.7,303.2,436.4,303,436.3,303.1z"/>
</g>
<g>
	<path fill="#231F20" d="M461.6,277.5c5.4-1.2,8.6,4.8,8.2,9.5c-0.3,3.4-3.1,8.4-6.3,9.7c-0.7,0.3-0.7,1.4,0.2,1.4
		c2.5-0.2,4-2.1,5.2-4.1c1.7-2.7,3-5.5,2.6-8.8c-0.7-4.6-4.7-10.6-10-8.1C461.2,277.2,461.4,277.5,461.6,277.5L461.6,277.5z"/>
</g>
<g>
	<path fill="#231F20" d="M450.4,303.4c2.8-0.1,6.7,0,9.2-1.4c2-1.2,3.7-3.6,4.1-5.9c0.2-1-1.3-1.4-1.5-0.4c-0.5,2.5-2.5,4.9-5,5.6
		c-2.2,0.6-4.6,0.8-6.9,1.3C449.8,302.7,449.9,303.4,450.4,303.4L450.4,303.4z"/>
</g>
<g>
	<path fill="#231F20" d="M453.1,288.3c-6,2.7-10.6,7.7-16.3,10.8c-0.7,0.4-0.1,1.4,0.6,1.1c5.7-3.1,10.7-7.7,15.9-11.5
		C453.5,288.5,453.4,288.2,453.1,288.3L453.1,288.3z"/>
</g>
<g>
	<path fill="#231F20" d="M451.3,289.7c1.7-2.4,3.2-4.7,5.4-6.7c2-1.9,5.2-5,8.1-5c0.9,0,0.9-1.5,0-1.5c-3.1-0.1-6,2.6-8.2,4.6
		c-2.4,2.2-4.8,5.2-5.7,8.4C450.8,289.8,451.1,289.9,451.3,289.7L451.3,289.7z"/>
</g>
<g>
	<path fill="#231F20" d="M444,299.2c1.1,0.1,2.1,0.5,3,1.1c0.3,0.2,0.7-0.3,0.3-0.5c-1-0.7-2.2-0.9-3.3-0.9
		C443.8,298.9,443.8,299.2,444,299.2L444,299.2z"/>
</g>
<g>
	<path fill="#231F20" d="M464.7,263.3c2.2,3.9,9,7.4,6.1,12.6c-0.5,0.9,0.9,1.7,1.4,0.8c3.2-6.1-3.8-9.9-7-13.8
		C465,262.7,464.6,263,464.7,263.3L464.7,263.3z"/>
</g>
<g>
	<path fill="#231F20" d="M492.6,280.9c-0.1-0.4-0.3-0.8-0.4-1.2c0-0.5,0.1-0.8,0.4-1.2c0.5-0.9-1-1.7-1.4-0.8
		c-0.5,1.1-0.3,3.1,1.1,3.5C492.5,281.2,492.7,281,492.6,280.9L492.6,280.9z"/>
</g>
<g>
	<path fill="#231F20" d="M471.7,280.7c3.3,4.7,0.1,11.6-2.6,15.8c-0.2,0.3,0.3,0.7,0.5,0.4c3.4-4.2,6.4-11.7,2.3-16.4
		C471.9,280.3,471.6,280.5,471.7,280.7L471.7,280.7z"/>
</g>
<g>
	<path fill="#231F20" d="M472.2,274.9c-1-0.7-2.4-1.9-3.6-2c-0.8-0.1-2.3,0.7-3.1,0.9c-1,0.3-2.1,0.6-3.1,0.8
		c-1.1,0.3-3.3,0.3-4.1,1.3c-0.9,1-1,3-1.3,4.1c-0.2,0.8,1,1.1,1.2,0.3c0.4-1.6,0.7-3.3,2.3-4c1.1-0.5,2.8-0.6,4-1
		c1.1-0.3,2.4-0.9,3.5-1.1c1.3-0.2,2.7,0.6,4,1C472.3,275.5,472.4,275.1,472.2,274.9L472.2,274.9z"/>
</g>
<g>
	<path fill="#231F20" d="M456.5,304.6c11.6,6.8,27.2,10.5,40.4,7c1.1-0.3,0.6-1.9-0.5-1.7c-13.8,3-26.9-1-39.8-5.6
		C456.4,304.2,456.3,304.5,456.5,304.6L456.5,304.6z"/>
</g>
<g>
	<path fill="#231F20" d="M456.8,304.7c0.2-0.3,0.3-0.6,0.4-0.9c0.1-0.4,0.3-0.6,0.3-1c0.1-0.8-1.3-0.9-1.3,0c0,0.3,0.1,0.6,0.1,1
		c0,0.3,0,0.6,0.2,0.9C456.6,304.8,456.8,304.8,456.8,304.7L456.8,304.7z"/>
</g>
<g>
	<path fill="#231F20" d="M502.9,298.8c-2.2,3.9-5,7.6-6.2,11.9c0,0-0.1-2-0.1-2c0,0,0-0.1,0.1-0.2c0-0.1,0-0.1,0.1-0.2
		c0-0.1,0.1-0.2,0.1-0.4c0.1-0.2,0.2-0.5,0.3-0.7c0.2-0.5,0.4-0.9,0.7-1.4c0.1-0.1,0.1-0.2,0.2-0.2c0.1-0.1,0.2-0.1,0.3-0.2
		c0.2-0.2,0.4-0.3,0.6-0.5c0.2-0.2,0.3-0.5,0.4-0.7c0-0.1,0.1-0.2,0.1-0.3c0-0.1,0-0.2,0.1-0.3c0.1-0.2,0.1-0.3,0.1-0.5
		c0-0.1,0-0.3,0-0.4c0,0,0-0.1,0-0.1c0-0.1,0.1-0.2,0.1-0.3c0.1-0.1,0.1-0.2,0.2-0.3c0.1-0.2,0.3-0.4,0.4-0.6
		c0.3-0.4,0.5-0.9,0.8-1.3c0.5-0.9,1-1.7,1.5-2.6c0.5-0.9,0.9-1.8,1.3-2.8c0-0.1,0.1-0.2,0.1-0.3c0.6-1.6,1-3.4,1-5.1
		c0-2.3-0.5-3.7-2.5-5c-2.7-1.9-5.5-3.5-8.1-5.5l0-0.3c3.1,1.9,6.2,3.8,9.3,5.6c0.4,0.2,0.8,0.5,1,0.8c0.2,0.3,0.4,0.7,0.5,1.1
		C506.8,290.3,505.1,294.9,502.9,298.8z"/>
	<g>
		<path fill="#231F20" d="M506.6,291.1c-1,7.4-6.9,12.8-9.1,19.8c-0.3,0.9-1.7,0.5-1.5-0.4c0.2-0.6,0.4-1.2,0.6-1.8
			c0.6-1.7,2.1-2.8,2.8-4.4c0.3-0.7,0.4-1.5,0.6-2.2c0.1-0.5,0.6-0.8,0.8-1.2c0.4-0.7,0.7-1.4,1.1-2c0.8-1.5,1.6-2.9,2.2-4.5
			c0.6-1.6,1-3.4,1-5.1c0-2.3-0.5-3.7-2.5-5c-2.7-1.9-5.5-3.5-8.1-5.5c0,0-0.1-0.1-0.2-0.1c-0.2-0.2,0.1-0.4,0.2-0.3
			c2.1,0.9,4.1,2.1,6.2,3.2c1.3,0.7,3,1.4,4.2,2.4C506.9,285.6,506.9,288.8,506.6,291.1z"/>
	</g>
</g>
<g>
	<path fill="#231F20" d="M522.9,304.9c2.8,1.1,5.6,2.3,8.5,3.1c0.6,0.2,1.2,0.3,1.8,0.5c0.3,0.1,0.7,0.1,1,0.2
		c-0.1,0.9-0.2,1.7-0.3,2.6c-0.8,0.9-4.4,0.9-5.2,0c1.3,1.5,2.9,1.6,4.7,1.3c1.7-0.3,3.5-1.3,2.8-3.3c-0.5-1.6-2.4-1.6-3.7-1.9
		c-3.3-0.7-6.4-1.8-9.6-2.7C522.8,304.6,522.7,304.9,522.9,304.9z"/>
</g>
<g>
	<path fill="#231F20" d="M512.7,306.9c-1.6,1.1-8.6,5.4-6.7,7.9c1,1.2,3.7,0.8,5,0.7c1.1-0.1,2.1-0.2,3.1-0.4c0.2,0,2.5-0.8,2.5-0.9
		c0-0.5-0.3-1-0.4-1.6c0,1-3.7,1.5-4.4,1.5c-0.9,0.1-4.1,0.6-4.4-0.7c-0.1-0.4,2.7-3.5,3-3.9C511.2,308.7,512.1,307.9,512.7,306.9z"
		/>
</g>
<g>
	<path fill="#231F20" d="M521.9,310.6c0.7,1.6,1.7,3,2.8,4.4c0.7,0.9,5.1,4.9,1.2,5.7c-1.2,0.3-3.1-2.2-4-2.9
		c-2-1.5-4.8-2.8-5.3-5.5c-0.1-0.5-0.8-0.4-0.9,0.1c-0.1,2.6,3,4.5,4.8,6c2,1.7,3.4,4,6.3,3.3c1.6-0.4,3-1.8,2.2-3.5
		c-0.5-1.1-1.9-1.9-2.8-2.8c-1.5-1.5-2.8-3.2-3.9-5C522.1,310.2,521.8,310.4,521.9,310.6L521.9,310.6z"/>
</g>
<g>
	<path fill="#231F20" d="M524.9,308.5c0.7,1.1,2,2,3,2.8c1.4,1.1,2.9,2,4.4,2.9c0.3,0.2,0.9,0.3,1.1,0.6c0.5,0.5,0.6,1.7,0.1,2.2
		c-1.1,1.2-2.4,0.4-3.5-0.2c-1.5-0.9-3.6-1-5.1-2c1,0.7,1.5,1.9,2.7,2.4c1.1,0.5,2.6,1.4,3.8,1.5c1.4,0.1,3.2-0.8,3.7-2.2
		c0.5-1.7-1.1-2.4-2.3-3.1c-1.3-0.7-2.6-1.5-3.8-2.3c-1.3-0.8-2.9-1.6-3.9-2.7C525,308.2,524.8,308.4,524.9,308.5z"/>
</g>
<g>
	<path fill="#231F20" d="M508.1,293.9c5.3,3.8,10.2,8.4,15.9,11.5c0.7,0.4,1.3-0.7,0.6-1.1c-5.7-3.1-10.4-8.2-16.3-10.8
		C508.1,293.4,507.9,293.7,508.1,293.9L508.1,293.9z"/>
</g>
<g>
	<path fill="#231F20" d="M469.4,276.2c4,3,8.9,5.1,13.9,5.9c3.5,0.6,8.9,1.6,11.8-1c0.9-0.7-0.4-2-1.2-1.2c-1.6,1.4-4.3,1.1-6.3,1
		c-2.2-0.1-4.3-0.3-6.4-0.8c-4.1-0.9-7.9-2.4-11.6-4.4C469.3,275.7,469.1,276,469.4,276.2L469.4,276.2z"/>
</g>
<g>
	<path fill="#231F20" d="M448.6,331.2c5.3-4.5,12-1.3,16.6,2.4c1.1,0.9,2.8,1.9,2.7,3.5c-0.1,1.4-1.3,3.3-1.9,4.6
		c-1.2,3.1-2.5,6.2-3.7,9.3c-0.5,1.2,1.4,1.7,1.9,0.5c1-2.5,2-4.9,2.9-7.4c0.8-2.1,2-4.3,2.6-6.5c0.8-2.9-2.1-4.2-4.2-5.8
		c-4.8-3.6-12.6-6.6-17.3-1C448,331.1,448.3,331.4,448.6,331.2L448.6,331.2z"/>
</g>
<g>
	<path fill="#231F20" d="M445.5,345c1.3-4.9,1.7-9.8,3.9-14.4c0.4-0.9-0.9-1.7-1.3-0.8c-2.2,4.6-3.1,10-2.9,15.1
		C445.2,345.1,445.5,345.2,445.5,345L445.5,345z"/>
</g>
<g>
	<path fill="#231F20" d="M446.1,340.2c-1.9,2.2-3.8,4.4-5.6,6.6c-0.9,1.1-2.3,2.3-2,3.9c0.4,1.9,2.5,3.6,3.8,4.9
		c1.6,1.5,3.4,3.1,5.7,3.6c2.1,0.4,4.3-0.1,6.4-0.5c2.8-0.5,5.6-1,8.3-1.7c1.3-0.4,3.6-0.6,4.2-2.1c0.7-1.6-0.7-4.3-1.1-5.8
		c-0.3-1-1.9-0.6-1.6,0.4c0.4,1.5,1.8,4,0.3,5.3c-0.9,0.8-3.4,0.9-4.5,1.2c-3.4,0.8-7.8,2.3-11.3,1.8c-2.2-0.3-3.8-1.7-5.4-3.2
		c-1.2-1.2-3.3-2.9-3.1-4.6c0.2-1.6,2-3.4,3-4.8c1.1-1.6,2.3-3.1,3.4-4.7C446.6,340.2,446.3,340,446.1,340.2L446.1,340.2z"/>
</g>
<g>
	<path fill="#231F20" d="M445.4,348.4c3.8,2.6,8.3,4.4,12.9,4c0.6-0.1,0.6-0.9,0-0.9c-4.6-0.4-8.7-1.1-12.8-3.3
		C445.4,348.1,445.2,348.3,445.4,348.4L445.4,348.4z"/>
</g>
<g>
	<path fill="#231F20" d="M474.3,321.2c-0.2,3.3-0.9,6-2.8,8.8c-1.3,2-3.3,3.5-4,5.9c-0.3,1,1.3,1.5,1.6,0.4c0.8-2.8,3.6-4.9,4.7-7.6
		c1-2.4,1.6-5,0.8-7.5C474.6,321,474.3,321,474.3,321.2L474.3,321.2z"/>
</g>
<g>
	<path fill="#231F20" d="M459.6,312.9c-3.2,0.7-4.8,3.3-6,6.1c-1.3,3-2.6,6.2-2.2,9.6c0.5-0.1,1-0.3,1.6-0.4c0-0.1-0.1-0.3-0.1-0.4
		c-0.2-1-1.8-0.6-1.6,0.4c0,0.1,0.1,0.3,0.1,0.4c0.2,1,1.7,0.6,1.6-0.4c-0.4-2.8,0.8-5.8,1.7-8.4c1-3,2.3-4.8,5-6.6
		C459.9,313.1,459.8,312.9,459.6,312.9L459.6,312.9z"/>
</g>
<g>
	<path fill="#231F20" d="M478.9,326.4c-1.7,1.1-3.2,2.8-5.4,2.3c-0.9-0.2-1.2,1.1-0.4,1.3c2.5,0.6,4.7-1.3,6.1-3.3
		C479.4,326.6,479.1,326.3,478.9,326.4L478.9,326.4z"/>
</g>
<g>
	<path fill="#231F20" d="M490.2,317.7c1.7,1.9,2.9,4.2,4.4,6.2c0.9,1.2,2.3,3.3,3.7,4c0.5,0.3,1.2,0,1.4-0.5
		c0.3-0.7-0.2-0.9-0.6-1.3c-1.3-1.3-2.7-2.6-4-4c-1.5-1.6-2.7-3.6-4.7-4.7C490.2,317.2,490,317.5,490.2,317.7z"/>
</g>
<g>
	<path fill="#231F20" d="M488.7,334.9c-2.2-0.4-4.1-0.6-6.1-1.7c-2-1.1-3.8-2.7-5.2-4.6c-0.8-1-2.2,0.1-1.4,1.1
		c2.6,3.1,8.5,7.5,12.8,5.5C488.9,335.1,488.8,334.9,488.7,334.9L488.7,334.9z"/>
</g>
<g>
	<path fill="#231F20" d="M489.1,319c1.1-0.5,1.8-1.4,1.5-2.7c-0.4-1.4-2.4-2.7-1.9-4.2c0.3-0.9-1.2-1.3-1.5-0.4
		c-0.4,1.2,0,2.1,0.7,3.1c0.9,1.2,2.2,2.3,0.8,3.7C488.4,318.8,488.8,319.2,489.1,319L489.1,319z"/>
</g>
<g>
	<path fill="#231F20" d="M462.8,307.5c0.4,2.2-1.9,2.9-3.3,3.9c-1.1,0.7-2.1,1.7-2.9,2.7c-0.6,0.7,0.5,1.5,1,0.8
		c0.7-1,1.6-1.9,2.5-2.6c0.7-0.6,1.6-1,2.3-1.7c0.9-0.9,1.4-2.1,0.9-3.2C463.1,307.1,462.7,307.3,462.8,307.5L462.8,307.5z"/>
</g>
<g>
	<path fill="#FFFFFF" d="M523.5,347.7c-0.1-0.2-0.3-0.2-0.5-0.3c-3.3-1.1-6.7-2.2-10.1-3.3c-0.2-0.1-0.4-0.1-0.6-0.3
		c-0.2-0.2-0.3-0.5-0.4-0.7c-1.8-6.5-4.5-12.1-7.6-17.9c-0.2-0.3-0.3-0.6-0.7-0.7c-0.3-0.1-0.6,0.1-0.9,0.3c-3.3,2.4-6.6,5-9.8,7.5
		c-2.5,2-5.2,3.8-7,6.5c-0.2,0.4-0.5,0.8-0.7,1.2l0.4-0.5c0.1,0.1,0.1,0.2,0.2,0.3c2.2,4.2,4.3,8.4,6.5,12.5c0.2,0.5,0.5,1,1,1.2
		c0.4,0.2,0.8,0.3,1.3,0.4c8.4,1,16.7,0,25.1,0.4c0.1,0,0.3,0,0.4,0c0.2-0.1,0.3-0.2,0.4-0.4c1.2-1.7,2.2-3.6,3-5.5
		C523.6,348.3,523.7,348,523.5,347.7z M521,351.3c-0.5,0.9-0.9,1.9-1.8,2.2c-0.9,0.3-2.4-0.1-3.4-0.1c-1.1,0-2.2,0-3.4,0
		c-2.3,0-4.5,0.1-6.8,0.1c-2.2,0-4.5,0-6.8-0.1c-2.2-0.1-4.9,0.3-6-1.9c-2.2-4.1-4.2-8.3-6.5-12.4c0,0,0,0,0,0
		c2.2-3.1,5.4-5.2,8.4-7.4c1.8-1.3,3.6-2.6,5.3-4c0.5-0.4,2.5-2.4,3-2.3c0.8,0.1,1,1,1.3,1.6c2,3.8,4,7.7,5.3,11.8
		c0.5,1.6,0.6,4,1.7,5.3c0.9,1.1,3.1,1.4,4.4,1.8c1.3,0.4,5.6,1.1,6.2,2.4C522.4,349.3,521.4,350.5,521,351.3z"/>
	<g>
		<path fill="#231F20" d="M524.1,346.9c-1-1.1-3.7-1.4-4.9-1.8c-2.4-0.8-5.4-1.1-6.7-3.6c-1.8-3.6-2.9-7.6-4.6-11.2
			c-0.8-1.7-1.7-3.5-2.6-5.1c-0.5-0.9-1-1.6-2.1-1.4c-1.5,0.2-3.5,2.3-4.7,3.2c-1.7,1.3-3.3,2.7-4.9,4c-2.9,2.4-6.2,4.6-8.1,7.8
			c-0.4,0.1-0.8,0.6-0.6,1.1c-0.1,0.2,0.1,0.5,0.2,0.5h0c1.9,3.9,3.9,7.7,5.9,11.6c0.5,1,0.9,2,1.9,2.5c1.5,0.8,3.8,0.6,5.4,0.7
			c4.7,0.3,9.3,0.1,14,0c2.1,0,4.2,0,6.3,0c1.5,0,1.9,0,2.8-1.2C522.5,352.8,525.7,348.7,524.1,346.9z M515.8,353.5
			c-1.1,0-2.2,0-3.4,0c-2.3,0-4.5,0.1-6.8,0.1c-2.2,0-4.5,0-6.8-0.1c-2.2-0.1-4.9,0.3-6-1.9c-2.2-4.1-4.2-8.3-6.5-12.4c0,0,0,0,0,0
			c2.2-3.1,5.4-5.2,8.4-7.4c1.8-1.3,3.6-2.6,5.3-4c0.5-0.4,2.5-2.4,3-2.3c0.8,0.1,1,1,1.3,1.6c2,3.8,4,7.7,5.3,11.8
			c0.5,1.6,0.6,4,1.7,5.3c0.9,1.1,3.1,1.4,4.4,1.8c1.3,0.4,5.6,1.1,6.2,2.4c0.4,0.9-0.6,2-1,2.8c-0.5,0.9-0.9,1.9-1.8,2.2
			C518.3,353.8,516.8,353.5,515.8,353.5z"/>
	</g>
</g>
<g>
	<path fill="#231F20" d="M438.7,298.9c4.7,0.2,9,0.7,11.9,4.9c0.5,0.7,1.6,0,1.1-0.6c-3.1-4.5-7.9-5.1-13-4.5
		C438.5,298.6,438.5,298.9,438.7,298.9L438.7,298.9z"/>
</g>
<g>
	<path fill="#231F20" d="M510.8,308.5c3.5-2.7,7.4-4.7,11.9-4c0.7,0.1,1-0.9,0.3-1c-4.7-0.6-9.2,1.3-12.3,4.8
		C510.5,308.4,510.6,308.6,510.8,308.5L510.8,308.5z"/>
</g>
<g>
	<path fill="#FFFFFF" d="M500.9,300.2c0,0.8,0,1.6-0.2,2.4c-0.6,2.4-2.6,4.2-4.5,5.9l0.1-1.1c2.4-2.3,3.9-4.5,3.8-8.1
		c-0.1-3.6-0.9-7.3-2.4-10.6l0-0.5C499.8,291.8,500.9,296,500.9,300.2z"/>
	<g>
		<path fill="#231F20" d="M501.7,300.2c0,3.9-2.1,6.4-5,8.8c-0.7,0.6-1.8-0.4-1.1-1c0.2-0.2,0.4-0.4,0.6-0.6
			c2.4-2.3,3.9-4.5,3.8-8.1c-0.1-3.6-0.9-7.3-2.4-10.6c-0.1-0.1-0.1-0.3-0.2-0.4c-0.1-0.3,0.3-0.5,0.4-0.3
			C500.2,291.8,501.7,295.8,501.7,300.2z"/>
	</g>
</g>
<g>
	<path fill="#231F20" d="M473.5,306.2c-3.1-6.5-1.2-13.3,3.1-18.8c0.5-0.6-0.6-1.5-1.1-0.9c-4.4,5.5-7.5,13.9-2.5,20.1
		C473.2,307,473.7,306.5,473.5,306.2L473.5,306.2z"/>
</g>
<g>
	<path fill="#231F20" d="M465.8,314.9c2,0.4,3.7,1.4,5,2.8c0.2,0.3,0.6-0.1,0.4-0.4c-1.4-1.5-3.3-2.4-5.3-2.8
		C465.7,314.6,465.6,314.8,465.8,314.9L465.8,314.9z"/>
</g>
<g>
	<path fill="#231F20" d="M492.8,291.5c-0.2-1.4-0.8-3.1-2-3.9c-1.1-0.7-2-0.6-2.8,0c-2.3,1.8-3.4,7.8-3.2,9.6
		c0.3,2.4,2.1,4.5,4.7,3.4C492.7,299.2,493.4,294.6,492.8,291.5z M489.1,299.7c-0.2,0.1-0.5,0.1-0.7,0c-1.9-0.3-1.7-2.5-1.7-4
		c0-1.3,0-2.7,0.5-3.9c0.3-1,1.4-3,2.6-2.9c1.3,0.1,1.6,2.1,1.7,3.1c0.2,1.5,0.3,3.3-0.1,4.7C491.1,297.8,490.2,299.3,489.1,299.7z"
		/>
</g>
<g>
	<path fill="#231F20" d="M488.2,282.1c0.3,1.9,0.5,3.7,0.5,5.7c0,0.8,1.3,0.8,1.3,0c-0.1-2-0.6-4-1.5-5.8
		C488.4,281.8,488.2,281.9,488.2,282.1L488.2,282.1z"/>
</g>
<g>
	<path fill="#231F20" d="M487.7,300.4c-0.3,2.2-1,4.3-2.1,6.2c-0.8,1.5-1.4,2.8-1.5,4.5c-0.1,0.9,1.3,0.9,1.4,0
		c0.1-2.1,1.3-3.7,2-5.6c0.6-1.6,0.9-3.3,0.9-5C488.4,300.1,487.8,300,487.7,300.4L487.7,300.4z"/>
</g>
<g>
	<path fill="#231F20" d="M455.8,331.2c-2.3,2.5-3.7,6.1-3.3,9.5c0.3,2.4,2.1,4.6,4.7,3.4c5.7-2.5,4-16.6-2.1-12.8
		c-0.9,0.6-0.1,2,0.8,1.4c2.5-1.6,3.2,2.6,3.3,3.7c0.1,0.9,0,1.8-0.3,2.7c-0.2,0.8-0.5,1.7-1,2.4c-0.6,1.3-1.4,1.6-2.5,0.8
		c-1.1,0-1.6-0.4-1.7-1.4c-0.9-3.2,0.5-6.9,2.4-9.4C456.3,331.3,456,331.1,455.8,331.2L455.8,331.2z"/>
</g>
<path fill="#231F20" d="M539.4,309.2c-0.6-3.2-4.6-3.5-7.2-4.2c-5.9-1.8-10.9-4.2-15.8-8.1c-3.5-2.8-5.9-7.8-9.9-9.7
	c-0.6-0.3-1.2,0.4-0.7,0.9c2.1,2.1,3.1,5,5.1,7.2c2.3,2.7,5.3,4.9,8.2,7.1c2,1.6,4,2.9,6.4,3.9c1.3,0.6,2.8,0.9,4.1,1.4l2.6,0.8
	c1.9,0,2.7,1.1,2.2,3.2c-0.3,0.1-0.6,0.3-0.8,0.5c-0.1,0-0.1-0.1-0.2-0.1c-0.4-0.2-0.8-0.1-1.1,0.1c-0.2-0.1-0.3-0.1-0.5-0.1
	c-0.7-0.1-1.2,0.6-0.7,1.2c0.4,0.4,0.8,0.7,1.3,1c0.1,0.1,0.2,0.1,0.3,0.1c0.9,0.6,2.1,1.4,1.9,2.1c-0.2,0.7-1.4,1.4-2.2,1.8
	c-1.3-0.3-2.4-0.7-3.6-1.2c-0.5-0.2-1.1,0.3-0.8,0.8c-0.4,0.5-0.4,1.2,0.1,1.7c-0.6,1.1-1.4,1.6-2.4,1.4c-0.5-0.1-1.1-0.2-1.6-0.3
	c-0.8-0.4-1.6-1.1-2.4-1.6c-0.7-0.5-1.5-1-2.2-1.5c-0.6-0.7-1.3-1.4-1.9-2.1c-0.2-0.2-0.4-0.3-0.7-0.2c-0.1-0.7-0.7-1.2-1.5-0.9
	c-1.6,0.6-3.3,0.7-5,0.8c-0.8,0-3,0.2-4.1-0.2c0.3-0.8,0.8-1.6,1.1-2.3c0.2-0.5,0.7-1.8,1.1-2.4c0.4,0,0.9-0.1,1.3-0.2
	c1.5-0.3,0.9-2.6-0.6-2.3c-2.3,0.5-4.8,0.4-7-0.4c-0.1-0.3-0.2-0.5-0.3-0.8c-0.1-0.3-0.3-0.4-0.5-0.4c-0.4-0.7-1.6-1-2.2-0.1
	c-0.6,0.8-1.1,1.6-1.5,2.5c-0.4,0.9-0.7,2.1-1.4,2.8c-1.3,1.4-5,1.1-7,1.3c-0.6,0.1-0.9,1-0.2,1.2c2.3,0.4,5.9,1,8.1,0.1
	c1-0.4,1.2-1.1,1.6-2.1c0.5-1.3,1.1-2.5,1.8-3.6c1.9,1.3,3.9,1.9,6,2c-0.4,0.5-0.7,1-1,1.4c-0.8,1-2.3,2.8-1.8,4.2
	c0.5,1.5,2.9,1.4,4.1,1.5c2.6,0.2,5-0.2,7.6-0.5c0.1,0,0.1,0,0.1,0c2.6,3.5,6.2,7.9,11,7.5c2.2-0.2,4.3-1.9,4.5-3.7
	c0.3,0.1,0.6,0.3,0.9,0.3c1.3,0.2,2.7-1.2,3.6-2c1-0.9,1.7-2.3,1.3-3.7c-0.1-0.3-0.3-0.6-0.5-0.8
	C538.5,313.2,539.9,311.4,539.4,309.2z"/>
<path fill="#231F20" d="M536.6,230.8c-1.7-6.8-4.7-13.8-10.5-18c-3.2-2.5-6.6-4.6-10.3-6.3c-3-1.4-6.1-2.5-9.3-3.5
	c-2.8-0.9-4-1.3-4.2-4.4c-1.2,0.8-2.3,2.1-2.5,3.6c-1.1-2.1-2.4-2.9-4.8-2.9c-1.2,0-2.4,0.1-3.5,0.5c-0.9,0.3-2.5,1.5-3.3,1.5
	c-11.5,0.2-22.8,6.5-30.4,15c-4.6,5.2-7.4,11.3-9.7,17.8c-3,8.4-5.6,17-3,25.7c0.8-1.2,0.6-3,1.5-4.3c-0.2,3.7,3.2,8.5,6.6,10
	c-0.3-1.8-1.5-3.2-1.3-5.1c3.6,2.3,7.8,2.9,11.7,4.7c2.9,1.4,4.5,3.7,5.7,6.5c-0.9-0.3-1.8-0.4-2.9-0.2c-2.8,0.4-7,1.6-9.4,3.3
	c-0.6,0.4-1,0.9-1.4,1.6c-1.2,2.3-0.7,4.1-2.8,6.2c-2.1,2.2-4.1,3.6-4,6.7c-3.7,2.7-7.2,5.5-11.1,8c-2.6,1.6-5.2,2.7-8.2,3.5
	c-1.5,0.4-3.4,0.6-4.7,1.3c-3.7,2.1-2.2,5.3,0.7,6.6c-0.4,0.2-0.7,0.5-1,0.8c-0.8,1-0.4,2.4,0,3.5c0.5,1.2,1.4,2.2,2.7,2.6
	c1.3,0.4,2.6,0.1,3.9-0.2c0.4,1.7,1.7,3.4,3.3,3.9c4,1.3,7.3-3.4,10.1-5.3c3.2-2.2,9.2,1.1,12.1-2.6c0.9-1.1,0.9-2.3,0.5-3.4
	c0.9,0.3,1.8,0.6,2.7,0.8c-6.1,4.7-10,11.7-9.5,19.6c0,0.5,0.9,0.7,1,0.1c1.4-7.6,5.1-14.5,11.7-18.8c1.4-0.9,0.1-3.1-1.3-2.2
	c-0.1,0-0.1,0.1-0.2,0.1c-0.9-0.5-1.9-1-2.9-1.5c0-0.1-0.1-0.2-0.2-0.3c-0.5-0.2-1-0.5-1.4-0.8c0.1-0.4,0.4-1.1,0.4-1.2
	c0.4-1.5-1.9-2.1-2.3-0.7c0,0-0.1,0-0.2,0c-0.7-0.1-1.5-0.1-2.2-0.2c-1.2-0.2-2.3,1.2-1.3,2.2c1.5,1.4,3.7,2.8-0.1,4.9
	c-1.4,0.8-4.3-0.3-5.7-0.6c-0.5-0.1-1.2,0-1.5,0.4c-1.6,1.9-3.7,4.4-5.9,5.5c-1.4,0.7-3.7,1.5-4.8-0.2c-0.8-1.3,0.2-2.8,0.7-4
	c-2,0.5-6.2,4.2-7.4,0.6c-0.3-0.8-0.3-1.1,0.4-1.6c0.4-0.3,0.9-0.6,1.3-0.9c0.5,0,0.7-0.1,1-0.3c0.3-0.3,0.6-0.6,0.9-0.9
	c0.2-0.2,0.5-0.4,0.5-0.6c-0.7,0-1.3,0-2-0.3c-0.3-0.1-0.7-0.2-1-0.3c-0.4-0.2-0.7-0.5-0.9-0.9c-0.2-0.5-0.3-1.1-0.3-1.6
	c0.1-0.6,0.6-0.6,1.1-0.7c0.4-0.1,0.9-0.2,1.3-0.3c1.2-0.3,2.5-0.6,3.7-1c2.3-0.7,4.3-1.7,6.3-3c3.8-2.4,7.6-5.2,10.7-8.6
	c0.7,0.2,1.5-0.1,1.6-1.1c0.1-3.8,5.6-5.7,6.5-9.5c0.7-2.9,2.2-3.5,5-4.5c2.7-1,5.7-2.4,8.5-0.9c0.5,0.2,1-0.2,0.8-0.7
	c0.6-0.3,1-0.8,0.7-1.7c-0.6-1.6-1.3-3.1-2.1-4.6c0.1-0.1,0.2-0.3,0.1-0.5c-0.3-1.1-0.7-2.1-1.3-3.1c-0.4-0.8-1.4-0.4-1.5,0.3
	c-0.7-0.6-1.5-1.2-2.4-1.6c-5-2.5-10.5-2.3-14.5-6.9c-0.5-0.5-1.1-0.6-1.6-0.3c-0.4-0.7-0.7-1.5-1.1-2.3c-0.2-0.6-0.9-1.1-1.5-1.1
	c0-5.3,1.5-10.3,3.2-15.4c2.3-7,4.9-13.6,9.9-19.1c7.2-8,16.6-12.2,26.8-14.3c0.2,0.2,0.6,0.4,0.9,0.2c0.4-0.2,0.7-0.4,1.1-0.6
	c0.3-0.1,0.6-0.1,0.9-0.2c0.2,0,0.4-0.2,0.4-0.3c3-0.9,6.4-0.4,9.1,1.3c0.8,0.5,1.5,0.2,1.9-0.4c0.4,0.6,0.9,1.1,1.5,1.5
	c0.6,0.4,1.3,0.1,1.7-0.4c3.1,1.7,6.3,3.3,9.4,5c3.1,1.7,6.2,3.6,9,5.8c16,14,14,42-1.7,55.5c-0.5-0.4-5.9-3-5.3-1.2
	c-0.9-0.3-1.9-0.6-2.9-0.7c-2-0.2-2,3,0,3.1c2.5,0.1,8.6,1.5,5.3,5.1c2.8-1.3,5.5-3.7,7-6.3c7.6-9.5,11.6-20.5,12.2-32.1
	C537.5,235.9,537.2,233.3,536.6,230.8z"/>
</svg>
