<?xml version="1.0" encoding="utf-8"?>
<!-- Generator: Adobe Illustrator 19.0.1, SVG Export Plug-In . SVG Version: 6.00 Build 0)  -->
<!DOCTYPE svg PUBLIC "-//W3C//DTD SVG 1.1//EN" "http://www.w3.org/Graphics/SVG/1.1/DTD/svg11.dtd">
<svg version="1.1" id="Layer_1" xmlns="http://www.w3.org/2000/svg" xmlns:xlink="http://www.w3.org/1999/xlink" x="0px" y="0px"
	 viewBox="0 0 960 560" enable-background="new 0 0 960 560" xml:space="preserve">
<path fill="#827152" d="M466.4,263.4c0,2.9,0.3,5.6,2.2,7.9c1.1,1.3,2.7,1.5,2.3,3.7c-1.4,0.2-2.4-0.3-3.8,0.3
	c-2.9,1.2-3.2,4.5-2.5,7.2c1.3,5.3,4.3,9.7,9.1,12.2c4.7,2.4,9.1,1.7,14.1,0.7c3.7-0.8,9-2.4,9.3-7c0.1-2.4-2.9-5.8,0.3-7
	c1.3-0.5,2.9,0.5,4.2,0.5c1.3-0.1,2.7-0.8,3.9-1.1c4.5-1.1,6.5-4.7,9.2-8.6c3.4-4.8,7.1-9.4,11-13.8c1-1.1,2.9-2.7,3-4.4
	c0.1-1.4-1-2-1.4-3.2c-0.6-1.7-0.2-2.4,0-4c0.5-3.6,2.5-5.1,3.6-8.5c3.6-11.7-2-17.4-11.7-23.3c-4.7-2.9-9.2-5.6-14.8-6.2
	c-8.5-0.9-15.7,0.8-23.7,3.2c-5.8,1.7-10.4,2.7-13.4,8.4c-1.4,2.6-2,5.1-2.6,8"/>
<path fill="#827152" d="M453.5,301.7c-4,3.3,7.6,10.9,0.7,12.2c-2.6,0.5-5.6-1.1-7.9,0.1c-2.5,1.2-3.3,3.9-6.1,5
	c-1.7,0.6-4.2,1.5-5.8,0.3c-1-0.8-0.5-1.9-1.2-2.5c-0.6-0.6-1.4-0.1-2.3,0c-1.7,0.2-5.2,0.1-5-2.5c0.1-2.1,4.9-3.2,1.5-4.6
	c-1.3-0.5-2.7-0.5-2.3-2.6c0.3-1.5,1.9-2.2,3.2-2.7c2.8-0.9,5.4-1.3,8.1-2.5c3.4-1.5,8.3-3.1,11-5.8"/>
<path fill="#827152" d="M511.5,308.2c0.3,3.3-3.1,5.4-4,8c-1.9,5.2,6.6,0.9,8.2,0.9c1.9,0,2.1,1.3,3.2,2.6c1.1,1.4,2.6,3.3,4,4.5
	c2.9,2.3,6.3,0.6,6.3-2.8c2.5-0.8,5.2,0.6,7.2-2.2c1.3-1.9-0.3-1.5-0.8-3.1c-0.7-1.8,1.6-1.3,2.2-2.8c1-2.6-4.6-4-6.3-4.6
	c-4.3-1.4-9.5-2.6-12.5-6.2"/>
<path fill="#513412" d="M496,202.5c-0.8,1.1-2.8,0.2-3.3-0.8c-0.8-1.5-0.6-2.3-2.5-1.7c-1.8,0.6-3.1,1.8-5,2.1
	c-1.8,0.3-1.2-0.6-2.3-1c-1.2-0.4-2.5,1.1-3.8,0.6c-1.2-0.5-1.7-2.3-2.9-2.8c-1.3-0.5-0.9,0.8-1.5,2.4c-0.8,2-1.1,1.9-2.8,0.8
	c0.1,1.2-0.8,2.2-0.7,3.4c-2.8-2.4-6.4-5.3-10.2-3.7c1,1.7,1.1,3.4,0.6,5.4c-0.5,2.1-1.9,1.7-1,0.1c-1.4-0.2-3.6,2.8-4.3,3.6
	c-1.6,2.2-1.4,4.6-1.5,7.1c-0.8,0-1.4-0.4-2.2-0.5c-1.1-0.2-2.2,0.1-3.3,0.2c1.1,0.9,1.9,2.6,2.4,3.8c1.4,3.1,2.6,6.3,2.7,9.8
	c0,3.3-0.7,6.3-1.7,9.4c-0.8,2.6-2.8,4.9-3.2,7.7c1,0.3,1.9-0.2,2.9-0.2c1.3-0.1,1.1,0.5,1.1,1.9c0,2.6,1.3,6.1,2.9,8
	c1.3,1.6,2.5,2.4,3.2,4.4c0.3,0.8,0.4,1.6,1.1,2.2c0.5,0.4,1.2,0.5,1.7,0.9c0.9,0.7,1.1,2,1.3,3.1c0.2,0.8,0.3,3.3,1.2,3.7
	c1.3,0.5,4.2-2.9,4.6-3.7c0.9-1.6,1.8-3.2,2.4-4.9c0.2-0.5,0.6-2.2,1.3-2.4c1.2-0.2,1.3,1.7,1.3,2.4c1.9-0.5,1.1-6.2,0.5-7.6
	c-0.5-1.1-0.7-0.8-1.6-1.3c-1.1-0.7-1.8-1.9-2.1-3.1c-0.4-1.5,0.2-3.1-0.3-4.6c-0.5-1.4-1.1-2.9-1.7-4.2c-1.1-2.6-2-3.7-1.7-6.7
	c0.2-2.3,0.7-4.9,3.6-4.6c1.9,0.2,4.1,1.6,5.2,3.2c1.1,1.7,1.2,3.9,1.5,5.8c0.3,2.2,1.9,3.9,1.3,6.3c2.5-2.1,4.8-5.5,5.5-8.8
	c0.3-1.4-1.1-7.1,0.9-6.8c1.2,0.1,2.2,2,2.9,2.8c1.6,1.6,1.7,0.1,2.2-1.7c0.5-2,0-5,1.3-6.5c1.1-1.2,2.8-0.6,4.3-1.1
	c2-0.6,4.1-3,6.4-2.5c1,0.3,2.1,1,2.9,1.6c1.9,1.3,3.1,2.3,4.2,4.3c0.2-0.2,0.6-0.3,0.8-0.6c0.6,1.2,1.1,3.3,2.5,2.2
	c1.5-1.1,0.9-3.3,1.6-4.7c2.2,2.5,3.8,4.1,4,7.6c2.2-1.5,4.5-4.1,4.6-7c0.7,1.1,1.4,1.7,2,2.9c0.6,1.3,1,1,1.9,1.7
	c0.1,0.1,0.6,0.9,0.6,1c0.3,0.6,0.6,1.1,0.7,1.9c0.2,1.1,0.5,2.4,0.3,3.6c-0.3,1.8-1.4,3.1-1.5,5c0,1.1-0.1,2.5,1,2.9
	c1.1,0.4,2.8-0.7,3.5-1.4c1.6-1.7,1.2-3.9,1.3-5.9c0.1-1.1-0.2-0.3,0.3-1.4c0.4-0.7,1.5-1.1,1.6-2.1c0.1-1.2-1.2-3.1-1.6-4.1
	c-1-2.3-2.6-4.8-3-7.3c-0.2-1.2,0-2,0.9-2.8c0.7-0.5,1-0.3,1.4-1.1c1.3-2.9-2.1-8.4-4.2-10.4c-1.3-1.2-4.1-0.4-4.5-2.4
	c-0.2-0.8,0.6-1.9,0.2-2.7c-0.4-0.9-2.4-0.9-3.2-0.7c-2,0.5-4.4,2.7-6.3,0.4c-0.9-1.1,0.1-1.3-1.8-1.5c-1.5-0.1-3,0.3-4.5,0.4
	c-0.7,0-2.6,0.3-3.2-0.2c-0.8-0.6,0-1.1-0.4-1.7c-0.6-0.8-3.4-0.5-4.2-0.1"/>
<path fill="#C6DA50" d="M483.1,288.2c2.6,1.4,6.5,0.9,9.3,0.6c2.8-0.3,6.5-2.2,9.3-1.5c2.8,0.6,6.4,3.3,8.1,5.6
	c2.4,3.4,3.7,6,7.4,8.3c2.8,1.8,5.7,3.5,7.8,6c-3.1,0.2-6.4-0.3-9.3,1.3c-1.7,0.9-2.9,2.3-4.3,3.3c-1.7,1.2-2.9,0.8-5,0.4
	c-1.2-0.3-2.6-0.5-3.7-1.1c-1-0.5-1.6-1.6-2.7-1.7c-1.3,2-0.9,5-3.2,6c-1.6,0.7-4.3-0.9-5.5,0.3c-4.7,4.8,13,13.1,5.7,20.3
	c-2.8,2.8-9.5,1.8-13.2,1.4c-2.6-0.2-3-0.8-4.6-2.5c-1.6-1.8-3.1-2.5-5.6-1.1c-2.8,1.6-3.1,3.8-3.5,6.7c-0.5,3.5-2.3,5.7-3.5,8.8
	c-1.8,4.4,3.2,7.5-1.8,9.9c-4.5,2.1-9.4,4-14.4,3.5c-5.5-0.6-10.9-3.6-10.7-10.2c0.1-1.9,1.1-4,2.6-5.4c0.9-0.9,2.6-0.9,3.4-1.6
	c1.6-1.6,1.4-6.9,1.8-9c0.7-3.6,1.9-3.6,4.6-5.2c-1.1-4.3,1.5-7.9,3.1-11.6c0.5-1.2,0.8-2.2,1.6-3.3c0.7-0.9,2.3-1.9,2.6-3
	c0.9-2.6-1.9-4.6-3.8-5.4c-2.4-1.1-4.2-2.2-6.4-3.6c-2.6-1.7-5.5-2.8-8.6-3.3c-0.5,0.3-0.8-0.1-1.4-0.4c1.1-1.5,3.9-2.3,5.5-3.4
	c1.6-1.2,3.3-2.6,4.7-4c2.9-2.7,4.7-5.9,7.2-8.8c2.5-3.1,5.7-7,10.3-5.1c2.1,0.9,3.3,3.3,5.1,4.6c2.5,1.8,5.5,1.8,8.3,2.1"/>
<path fill="#2A6249" d="M497.3,281.8c-1.2-0.5-6.5-1.7-4.8,1.3c0.5,0.8,2.6,1.1,0.5,2c-2.5,1.1-6.5-0.1-9-0.6
	c-2.8-0.6-6.1-0.9-8.7-2.1c-1.2-0.6-3.4-1.4-3.4-2.8c0-1.1,1.3-2.1,0.4-3.2c-1.2-1.4-4.7,0.2-6,0.5c-2.4,0.6-5.9,0.7-7.6,2.7
	c-1,1.1-0.8,2.4-0.7,3.9c1.1-0.3,2.2-1.1,3.2-1.6c1-0.5,2.7-1.6,3.8-1.7c2.2-0.2,3.7,2.1,4.5,3.8c1.7,3.4,1.7,6,0.7,9.7
	c-0.5,1.9-1.7,3.3-3,4.7c-1.4,1.6-2,1.9-4,2.4c-1,0.2-1.4,0.4-2.1,1.3c-0.4,0.6-0.6,1.4-1.2,1.9c-0.6,0.7-1.5,0.7-2.3,1.2
	c-0.7,0.4-1.4,0.9-1,1.9c0.5,1.6,4.7,2.4,6.1,3.1c3.7,1.8,8.2,2.8,12.2,3.6c3.9,0.7,7.6,0.8,11.6,0.9c2.3,0,5.1,0.3,7.3,0
	c2.1-0.3,4.2-1.8,4.9-3.8c0.7-1.9,0.8-3.7,1.7-5.6c2.1-4.2,4.8-8.3,5.8-12.9c0.4-2,0.7-4.5-1.1-5.9c-0.9-0.7-2.2-0.7-3.2-1.3
	C500.4,284.2,499.1,282.7,497.3,281.8z"/>
<path fill="#2A6249" d="M448.3,333.3c3-2.2,6.9-2.3,10.6-1.5c4,0.9,10.1,4.2,10.5,8.8c0.3,3.8-3.6,6.8-3.6,10.7
	c0,3.2,2.5,5.1-1.2,7.1c-1.9,1-4.4,1.4-6.4,2.1c-2.3,0.8-5.1,2.3-7.6,2.5c-3.4,0.2-6.7-2.6-8.7-5.2c-1-1.3-2.5-2.9-2.8-4.5
	c-0.5-2.4,1.2-4.1,2.5-5.8c1.1-1.4,2.4-2.8,3.3-4.3c1.3-2.1,0.9-4,1-6.3"/>
<path fill="#2A6249" d="M492,336.2c-2.1,0.9-4.5,3.4-5.4,5.5c-0.5,1.3-0.3,2.2,0.4,3.5c1.3,2.3,2.3,4.4,3.3,6.9
	c1.1,2.8,2.6,5.9,5.8,6.6c3.5,0.7,7.8-0.3,11.4-0.5c2.4-0.1,4.7,0,7,0.1c3,0.1,6.1,0.5,8.2-2c1.6-1.9,3-5.3,0.1-6.7
	c-1.4-0.7-2.9-0.4-4.3-0.9c-1.3-0.5-2.5-1.4-3.7-2.1c-3.2-1.9-3.9-5.4-4.5-8.7c-0.3-1.9-2.2-11-5.7-11.2c-2.1-0.1-5,3.4-6.5,4.6"/>
<path fill="#FAF4AC" d="M495.5,236.5c-2.6-0.9-5-0.2-7.5,0.4c-3.3,0.8-3.8,3.6-2.9,7.1c1.9,7.2,13.8,10.2,16.1,1.6
	c0.4-1.6,0.8-4,0.1-5.5c-0.9-1.8-2.7-2-4.1-2.9"/>
<path fill="#FAF4AC" d="M507.6,263.2c-2.3,0.8-3.2,4.9-2.1,6.9c-3.2-0.3-6.2,0-9.3-0.8c-1.6-0.4-5.9-2.6-4.9-4.8
	c3.1,1.2,7.7-0.4,10.8-1.1c2.1-0.5,4.4-1.2,6.2-0.3"/>
<path fill="#FAF4AC" d="M520.3,236.9c-1.6-1-5.1,1.5-6.3,2.8c-2.4,2.5-2.9,8.8,0.6,10.5c1.8,0.9,4.3,1.2,6.2,0.6
	c2.8-0.9,3.3-3.8,3.6-6.4c0.2-1.5,0.2-3.1-0.3-4.6c-0.6-2.2-1.9-2.5-4-2.9"/>
<path fill="#06723A" d="M499,238.8c1.3,1.2,2.2,8.9-0.9,8.7c-2.6-0.2-2.2-8.7,0.1-9.2"/>
<path fill="#06723A" d="M521.7,239.6c1.2,1.6,2.1,8-0.5,8.9c-1-1.5-2.7-8.5,0.3-8.7"/>
<path opacity="0.36" fill="#1E1D56" d="M535.6,235.1c-0.2,1.3-0.5,1.2-1.1,1.8c-0.2,0.2-0.7-0.2-0.9,0.1c-0.6,0.6-0.4,1.8-0.5,2.5
	c-0.3,2.8-1.4,4.2-3,6.3c-0.9-0.6-1.8-1.5-2.5-0.8c-1.3,3.1-0.5,6.4,0,9.6c0.6,4-2.8,6.7-5.6,9c-2.6,2.2-4.2,4.1-5.7,7
	c-1,1.9-2.4,3.7-4.3,4.7l0.5-1.9c-0.3,0.9-0.9,1.5-1.7,2c0.3-1.2,0.3-2.4-0.4-3.5c-1.2-2-3.3-1.5-5.3-1.5c0.2,0,0.4-0.1,0.6-0.2
	c-1.7-1.9,1.6-4.5-0.1-6.8c0.2,0,0.4,0,0.6,0c-0.7-0.2-1.5-0.2-2.2-0.2c2.3-0.6,1.2-1.1,0.6-2.3c-0.7-1.6-0.6-5.4,0.3-6.8
	c1.3,2.2,3.6,3.1,6,1.9c1.9-1,2.5-2.5,1.8-4.3c-1.1-2.6-2-4.4-1.6-7.3c0.3-2.8,0.4-5.2-0.2-8c-0.1-0.6-0.3-1.3-0.6-2.1
	c-0.1,0.2-0.1,0.5-0.2,0.7c-2.5-3.6-7.6-8.7-12.6-8.4c0.7,2.2-0.1,4.9,0,7.1c-1.3-1.3-2.5-2.7-3.8-4c-0.4,3.7-0.2,6.1-2.5,9.3
	c-0.9,1.3-1.8,2.7-2.9,3.8c0.5-2.7,0.6-5.6-1-8c0,1.9,0.3,4.1-0.2,6c-0.7,2.6-3.1,4.5-4.9,6.4c-2.3,2.5-5,4.9-8.2,6.3
	c1.4-2.2,3.5-4.2,4-7c0.3-1.8-0.1-4.1-0.6-5.9c-1-3.4-3.8-5.1-5.3-8l1.3-0.7c2.8-0.1,4.5,3.4,6.5,4.7c0.2-0.8,0.1-1.6,0.2-2.3
	c0.6,0.6,0.7,1.4,1.4,1.9c3.3-3.2,0.5-6.3-0.3-9.7c2,0.7,3.8,1.5,6.1,1.7c-0.5-1.1-1.3-2.3-2-3.3c1.8,0.2,5.2,1,4.9-1.3
	c-0.2-1.5-3.4-3.1-4.5-3.9c2.2,0.2,4.3,0.5,6.5,0.7c1.1,0.1,2.5-0.1,3.5,0.5c-1.4-2-2.5-4.1-3.8-6c2.3-0.9,7.5-0.1,9.8,0.1
	c1.9,0.1,4.2,0,5.8,1.2c1.6,1.1,2.5,2.5,4.4,3.2c-0.2-0.4-0.2-1-0.3-1.3c1.3,1.9,2.7,3.9,4.5,5.2c0.9-0.4,1.4-1.2,2.1-1.9
	c0.7,1.1,2.1,3.4,3.6,3.2c2.4-0.3,2.6-5.8,3.8-7.5c1.1,1.4-0.6,8,2.4,7.3c0.6-0.1,1.8-1.6,2.2-2c0.8,1.9,0.8,4.2,2.2,5.8
	c0.9,1,2,1.4,2.7,2.7C535.7,232.1,535.8,233.6,535.6,235.1z"/>
<path opacity="0.36" fill="#1E1D56" d="M502.5,246.7c-3.1-2.5-10.2,6.2-2.1,3.3c0.2,1.2-0.3,4.3,1.8,3.7c2.4-0.7,0.9-4.6,1-6
	L502.5,246.7z"/>
<path opacity="0.36" fill="#1E1D56" d="M512.5,273.5l-0.5,1.9c-0.4,0.2-0.8,0.4-1.3,0.6c0.1-0.2,0.1-0.3,0.2-0.5
	C511.6,275,512.2,274.4,512.5,273.5z"/>
<path opacity="0.36" fill="#1E1D56" d="M474.5,203.2c3.9,4.9-6,13.6-8.3,16.4c0.8-0.6,1.5-1.6,1.3-2.6c-0.4,0.4-0.9,0.6-1.3,0.8
	c0-1.2,0.2-3.3-1.3-3.7c-0.2,0.6-0.2,1.2,0,1.8c0.1-1.2-0.1-3.3-1-4c-0.5,0.6-0.5,1.5-0.6,2.2c-0.6-1.2-3.1-3.4-3.2-4.5
	c-0.1-1.1,0.3-0.8,1-1.7c1.5-1.9,0.5-3.8-0.4-5.8c4.4-0.2,7.5,2,11.1,3.9c-0.8-1.5-0.8-3.1-0.8-4.8c1.4-0.2,2.6,0.4,3.8,1
	L474.5,203.2z"/>
<path opacity="0.36" fill="#1E1D56" d="M456.5,312.3c-0.2,0.5-0.5,0.9-0.9,1.2L456.5,312.3z"/>
<path opacity="0.36" fill="#1E1D56" d="M461.1,310.1c-0.2,0.9-0.6,1.6-1.1,2.1c0-0.2-0.1-0.4-0.2-0.6c-0.1-0.2-0.4-0.3-0.7-0.5
	c0.7-0.6,1.5-1.3,2-2.1C461.1,309.4,461.2,309.8,461.1,310.1z"/>
<path opacity="0.36" fill="#1E1D56" d="M461.1,310.1c-0.2,0.9-0.6,1.6-1.1,2.1c-0.8,0.7-1.8,1.1-3,1.2c0.4-0.6,0.9-1.1,1.4-1.7
	c0.2-0.2,0.4-0.4,0.7-0.7c0.7-0.6,1.5-1.3,2-2.1C461.1,309.4,461.2,309.8,461.1,310.1z"/>
<path opacity="0.36" fill="#1E1D56" d="M456.6,362.3c5.3-0.6,0.6-6.8-1.8-8c4.6-0.7,9.4-6.6,10.4-10.8c0.6-2.5,1.9-6.7-0.1-8.8
	c2.1-0.2,3.7-2,4.9-3.7c2.3-3,2.2-6.1,3.4-9.4c1.4,0.3,1.9,2.3,3.2,3c1.6,1,3.5,0.2,5.3,0.2c-3,3.8,1.5,7.1,4.8,7.3
	c2.9,0.2,6.1,1.3,9,0.5c-0.3,0.9-1.1,1.6-1.4,2.5c-0.6,1.8,0.2,3.8,0.7,5.4c1.9,6,5.1,9.9,11.6,11.3c4.2,0.9,8.1,1.8,12.2,0.8
	c1.8-0.4,3.8-0.3,5.1-1.7c0.2,2.3-1.2,5.2-2.8,6.9c-2.8,2.9-8.9,0.9-12.2,0.6c-5-0.5-10.6,1.4-15.4-0.5c-3.8-1.5-4.6-5.2-5.9-8.6
	c-0.5-1.2-2.1-3-2-4.3c0.1-1.6,2.7-3.4,2.2-5.2c-0.5-1.9-5.5-1.8-7.1-2.6c-2-1-2.6-3.8-5.2-3.4c-1.4,0.2-3,1.5-3.9,2.5
	c-1.3,1.4-1.1,2.7-1.4,4.5c-0.6,3.3-3.6,5.3-4.5,8.4c-0.5,1.7,0,3.7,0.6,5.3c0.7,1.9,1.1,3,0,5c-1,1.9-3.4,2.1-4.9,2.7L456.6,362.3z
	"/>
<path opacity="0.36" fill="#1E1D56" d="M525.5,325.7c-2.7-0.2-4.5-2.6-6.2-4.4c-1.2-1.2-2.3-3-4.1-3.1c-2.7-0.2-4.2,1.4-7-0.3
	c-3.1-1.9-0.2-2.3-0.3-4.7c-0.1-1.5-4.2-1.9-5.6-2.6c-2.5-1.2-2.9-1.3-3.5,1.7c-0.2,1.3,0,2.6-0.9,3.3c-0.7,0.5-2.1,0.3-2.9,0.1
	l-0.7-0.8c2.8-0.9,4.5-4.9,5.6-8.6c0.6-2.1,1-4.1,1.3-5.4c0.4-2,1-5.2,0-7.1c1.1,0.8,3.2,2.5,4.5,1.4c-0.7,1-1,2.2-0.9,3.4
	c0.3,4.8,5.9,10.2,10,10.1c-1.2,1.6-2.6,6.4,1,5c1.1,2.9,3.8,5.8,6.4,7c1.7,0.8,5.2,2.4,7,1.3C529.7,324.5,527.9,325.9,525.5,325.7z
	"/>
<path opacity="0.36" fill="#1E1D56" d="M456.5,312.3c-0.2,0.5-0.5,0.9-0.9,1.2L456.5,312.3z"/>
<path opacity="0.36" fill="#1E1D56" d="M461.1,310.1c-0.2,0.9-0.6,1.6-1.1,2.1c-0.8,0.7-1.8,1.1-3,1.2c0.4-0.6,0.9-1.1,1.4-1.7
	c0.2-0.2,0.4-0.4,0.7-0.7c0.7-0.6,1.5-1.3,2-2.1C461.1,309.4,461.2,309.8,461.1,310.1z"/>
<path opacity="0.36" fill="#1E1D56" d="M512.5,273.5l-0.5,1.9l-0.3,1.1c-2.1,8.3-19.9,4.8-16.6-4.5c2.2,2.8,5.5,4.7,9.2,4.5
	c1.8-0.1,4.7,0,6.6-1C511.6,275,512.2,274.4,512.5,273.5z"/>
<path opacity="0.36" fill="#1E1D56" d="M505.1,287.7c-0.8-1-1.7-1.8-2.8-2.3c0.1-0.1,0.1-0.2,0.1-0.3c-1.5-0.8-3-1.4-3.9-2.8
	c-0.4-0.7,0.4-0.7-0.6-1.5c-0.6-0.4-0.8-0.2-1.3-0.2c-1.1-0.1-2.2-0.1-3.4-0.1c0-0.2,0-0.4,0.1-0.7c-4.5,1.6-4.3-4.3-5.1-7.3
	c-0.5-1.7-1.2-3.5-1.9-5.2c-1.1-2.9-1.7-5.8-2.7-8.7c-1-2.8-2.2-5.2-2.1-8.2c-1.6,2.4-4.2,5-7.2,3.3c-3.3-1.9-2.6-4.5-3.6-7.6
	c-0.9-2.6-2.5-4.6-3.1-7.2c-0.3-1.4-0.7-3.1-1.2-4.7c-0.2,0.3-0.9,0.5-1.1,0.8c0.1-0.6,0.2-1.2,0-1.8c-0.7,0.6-1.1,1.5-1.7,2.2
	c0-1.1-0.1-2.3-0.2-3.4c-1.8,1.7-1.3,4.8-2.7,6.7c-0.9-4.1-0.3-8.6-0.8-12.8c0,0.2,0,0.4,0,0.6c-0.3-5.6-7.4-6-10.8-8.7
	c1,1.1,1.7,2.6,2.2,4c1,2.6,2.2,5.9,2,8.7l-0.2,2.3c0.3,2.4,0.5,4.7-0.3,7.1c-0.8,2.7-3.8,5-3.9,7.7c2-1.2,3.3,0,3.7,1.7
	c0.5,1.9,0.2,4,0.8,6c0.4,1.5,1.2,2.9,2,4.2c0.6,1,2.5,4.8,3.7,5.2c0.7,0.2,1.4-0.5,2.1-0.3c3.5,1,1.8,7.3,2.8,9.4
	c1.1-0.6,1.8-1.9,2.9-2.2c1-0.2,3.6,0.2,4,1.4c0.8,2.2-3.1,2.7-4.6,3.1c-2,0.6-13.4,3.1-7.7,6.4c1.3-0.9,3.2-1.5,4.6-2.2
	c1.3-0.6,2-0.7,3.4,0.2c1.9,1.2,3.2,3.4,3.7,5.8c-1.2,1.7-2.6,3.2-3.7,4.5c-1.4,1.5-3.3,3.2-4.4,4.9c-0.4-0.8-0.8-1.7-1.1-2.5
	c-0.3,6.3-7.9,9.4-12.8,11.1c0.5,1.4,2.4,1.1,0.4,2.6c-1.4,1-4,1.4-5.7,1.4c-0.5,3.2-3.9,11.1-7.9,11.5l2,0.3
	c3.9,0.3,5.4-3.2,7.7-5.5c1.4-1.4,2.8-1.6,4.7-1.5c1.8,0.1,4.9,0.6,7.3,0.2c0.4-0.6,0.9-1.1,1.4-1.7c0.2-0.2,0.4-0.4,0.7-0.7
	c0.7-0.6,1.5-1.3,2-2.1c0.1,0.3,0.1,0.7,0.1,1c-0.2,0.9-0.6,1.6-1.1,2.1c-0.8,0.7-1.8,1.1-3,1.2c-1.4,1.8-2.7,3.6-3.6,5.8
	c-1.1,2.7-1.7,5.1-1.3,8c0.1,0.8,0.7,2.7,0.1,3.5c-0.4,0.6-1.8,0.7-2.5,1.1c-0.9,0.6-1.5,1.4-2.1,2.4c-1.2,2.1-2.7,4-2.7,6.5
	c0,2.2-0.3,3.8-1.7,5.7c-1.5,2-3.9,3.1-4.7,5.6c-0.7,2.4,0.1,4.2,1.7,6c2.3,2.7,5.2,2.4,8.5,3.5c-4.7-1.5-2-7.3,1.9-7.8
	c-1.6-2.1-0.8-6.1-0.5-8.5c0.6-3.8,1.9-9.1,4.7-12.1c2-2.1,6.1-0.5,7.9,1.2c-1.6-2-1.6-4.8-1.3-7.2c0.2-1.7,0.7-4.6,1.8-6.9
	c3.8,0.9,8.1,1.2,11.6,0.9c3.8-0.3,7.7,0,11.4-0.6c1.5-0.2,3-0.9,4.5-0.9c-0.1-1-0.5-2.1-0.3-3.1c0.9-0.1,1.7-0.8,2.2-1.5
	c-5.8,1.9-13.9,0.6-19.3-1.8c-2.9-1.3-2.9-4.2-2.8-7c0-0.6,0.1-1.3,0.2-1.9c0.1,0.1,0.1,0.2,0.2,0.3c1.5,2.1,3.9,3.1,5.5,5.1
	c0.1-0.9-0.3-1.8-0.3-2.7c-0.3-4.1,0.4-9.2,1.4-13.1c1.1-3.9,2.8-7.1,6.1-8.5c3.1,1.2,6.2,2.2,9.7,2.1c0.6,0,1.6,0,2.7-0.1
	c0.7,0.8,1.5,1.6,1.9,2.3c1.2,1.9,2.2,3.9,2.6,6.1c0.5,2.5,0.3,5.1-0.1,7.6c-0.2,1-0.5,2-0.7,3c0.6-2.1,1-4.1,1.3-5.4
	c0.4-2,1-5.2,0-7.1c1.1,0.8,3.2,2.5,4.5,1.4c-0.7,1-1,2.2-0.9,3.4c0-0.1,0.1-0.2,0.1-0.3c0.5-1.6,1.6-3,1.9-4.6
	C506.9,291.4,506.5,289.5,505.1,287.7z M455.6,313.5l0.9-1.2C456.3,312.8,456,313.2,455.6,313.5z"/>
<path opacity="0.36" fill="#1E1D56" d="M505.5,295.2c-0.7,1-1,2.2-0.9,3.4c-0.3,1-0.4,2.1-0.8,3c-0.9,2.3-2.8,4.1-4.2,6.2
	c0-0.5,0-1,0.1-1.5c0.6-2.1,1-4.1,1.3-5.4c0.4-2,1-5.2,0-7.1C502.1,294.6,504.2,296.3,505.5,295.2z"/>
<path opacity="0.2" fill="#F6EB1F" d="M461.7,218.8c0.8,2,2.2,4,2.9,6.1c0.9-0.9,1.4-2.4,2.1-3.4c0.1,1.1,0.2,2.3,0.7,3.2
	c2.2-1.5,3.3-5.7,2.5-8.2c1.6,2,2.9,4.8,5,2.9c2.8-2.5,3.3-6.6,0.5-9.2c1,0.9,2.1,0.1,3.1-0.5c1.8-1,3.7-1.9,5.6-2.9
	c-1.8,1.3-3,3.1-4.7,4.5c1.8-0.7,3.2-1.6,5.1-2.1c3.3-0.9,5.6,0.3,8.7,0.6c-3.8-0.4-7.2,1.7-10.5,3.2c2.7-0.1,5,1.1,7.3,2.3
	c-3.7-1.3-9-0.2-11.9,2.6c4.5-3.3,5.1,5.1,8,6.2c-1.6-0.6-6.3-1.1-7.2-2.9c0.6,1.3,1.4,2.5,1.8,3.9c-1.2-0.3-2.2-1.1-3.2-1.7
	c1.9,2.8,3.8,5.9,3.6,9.3c-1.8-3.4-5.2-6-8.9-7.2c0,1.3,0.5,2.7-0.2,3.8c-0.9-0.7-1.3-1.9-1.7-2.9c-0.9,1.6-1.6,3.5-2.9,4.8
	c-0.5-1-0.7-2-1.3-2.9c-1,0.6-1.5,1.8-2.3,2.7c-0.8-0.7-0.8-1.9-1.1-2.9c-0.2,0.6-0.3,1.3-0.5,1.9c0.6-2,1-9.4-1.1-10.4"/>
<path opacity="0.2" fill="#F6EB1F" d="M501,207.8c4.6,1.8,10.1,5,12.5,9.6c0-1.5-0.3-2.7-0.8-4.1c3.9,1.7,5.3,3.7,7.2,7.3
	c0-1.9,0-3.4-0.9-5.2c-1.4-2.8-3.9-3.8-5.9-5.9c2.3,0.1,5.1-0.6,6.9,0.9c0.7,0.6,1.3,1.7,1.8,2.4c-0.8-2.5-3.5-4.3-6-4.9
	c-3.7-0.9-7.8-0.5-11.6-1c1.6,1,3.4,2.9,5.3,3.3c-2.3,0.4-7.2-2-9-3.7c0.5,0.6,0.9,1.1,1.5,1.5"/>
<path opacity="0.2" fill="#F6EB1F" d="M457.6,335.6c-4.1,0.8-7.9,9.3-3.2,11.6c3.3,1.6,5.4-1.9,6.6-4.2c0.8-1.5,1.3-3.7,0.4-5.4
	c-0.6-1.1-2.1-2.4-3.3-1.8"/>
<path opacity="0.2" fill="#F6EB1F" d="M501,335.3c3.2-0.2,3.6-2.7,5.2,1.5c0.6,1.5,2.2,8.8,0.1,9.6c-1.9,0.7-4.4-4-4.8-5.4
	c-0.4-1.4-1.1-4.1,0-5.3"/>
<path opacity="0.2" fill="#F6EB1F" d="M492.9,294.2c2.3,0.3,8.5,0.1,6.4,3.9c-2.6,4.8-13.5,4.5-17.1,1.2c-1-0.9-2.9-2.3-3-3.8
	C479.1,291.2,491,293.9,492.9,294.2z"/>
<g>
	<path fill="#231F20" d="M511.1,297.6c-0.7-2.6-2.2-4.7-3.9-6.7c-1.8-2.1-1.5,0.4-0.4,1.6c1.5,1.6,2.7,3.5,4,5.3
		C510.8,298,511.2,297.9,511.1,297.6z"/>
</g>
<g>
	<path fill="#231F20" d="M511.7,310.7c-2.3-0.5-4.6-0.7-6.9-1.3c-1.1-0.3-2.1-1-3-1.8c-0.5-0.5-1.6-1.7-1.8-0.3
		c-0.2,1,1.6,2.3,2.3,2.8c2.5,1.5,6.4,1.3,9.2,1.4C512,311.5,512.1,310.8,511.7,310.7z"/>
</g>
<path fill="#231F20" d="M485.6,237.9c4.9,0.1,10.9-0.9,15.9,2.1c-2-5-8-6-13.4-3.6"/>
<path fill="#231F20" d="M524.2,240.7c-0.5-1,0.1-2-1.5-2.5c-1.3-0.4-3,0.2-4.3,0.4c-2.3,0.5-3.8,1.5-5.7,2.8
	c1.6-2.7,4.2-5.4,7.5-5.7c2.6-0.2,3.3,1.6,3.9,3.6"/>
<path fill="#231F20" d="M487.1,226.5c1.2-0.9,2.1-2.1,3.5-2.7c2-0.8,3.7,0.5,5.2,1.7c1.7,1.4,3.6,3.8,5.6,4.5
	c-3.2,0.2-6.1-1.8-8.7-3.3c-1.8-1-3.7-1.7-5.5-0.1"/>
<path fill="#231F20" d="M487.2,226.7c-0.1,0-0.2,0-0.4,0"/>
<path fill="#231F20" d="M523.4,230.9c1.6-1.9-1.2-4.3-3.2-3.5c-2.3,0.9-4.7,2.3-6.2,4.3c1.7-1.2,4.2-1.9,6.3-2.2
	c1.8-0.3,1.8,0.6,3.1,1.1"/>
<g>
	<path fill="#231F20" d="M510.7,242.8c0.1,2.5,0.5,5.1,1.4,7.5c0.2,0.5,0.3,0.8,0.6,1.3c0.5,0.9,0.8,1,0.4,1.9
		c-0.6,1.4-4.3,2.9-5.6,2c-0.7-0.5-1.3,0.6-0.6,1.1c1.3,0.9,2.7,0.6,4.1,0.1c1.4-0.5,3.6-1.1,4.4-2.5c0.7-1.4-0.6-2.6-1.3-3.7
		c-1.4-2.4-1.9-5-2.8-7.6C511.2,242.4,510.7,242.5,510.7,242.8L510.7,242.8z"/>
</g>
<g>
	<path fill="#231F20" d="M510.3,265c0.4-3-3.3-3.1-5.3-2.8c-1.9,0.3-3.7,1-5.6,1.3c-2.9,0.6-5.8,0.6-8.7,0.1c-0.6-0.1-1,0.3-0.9,0.9
		c0.5,2.9,3.9,4.6,6.4,5.5c3.4,1.3,7,1.4,10.4,0.4c0.9-0.3,0.5-1.7-0.4-1.5c-2.7,0.7-5.4,0.8-8.2,0c-2.3-0.6-6.3-2.3-6.8-5
		c-0.3,0.3-0.6,0.6-0.9,0.9c2.7,0.4,5.4,0.5,8.1,0c1.9-0.3,11.1-4,11.4-0.1C509.8,265.4,510.3,265.4,510.3,265L510.3,265z"/>
</g>
<g>
	<path fill="#231F20" d="M506,269.6c-0.5-2.2,0.3-4.5,2.1-5.8c0.8-0.6,0-1.9-0.8-1.3c-2.3,1.7-3.3,4.8-1.9,7.4
		C505.6,270.2,506.1,269.9,506,269.6L506,269.6z"/>
</g>
<g>
	<path fill="#231F20" d="M498.6,266.8c1.6,0.4,3.2,0.6,4.8,0.6c0.5,0,0.5-0.7,0-0.7c-1.6,0-3.2,0-4.7-0.2
		C498.5,266.4,498.4,266.8,498.6,266.8L498.6,266.8z"/>
</g>
<g>
	<path fill="#231F20" d="M497.3,274.6c3.3,2,9,2.8,12.7,1.5c2.7-1,3-4.1,0.7-5.8c-0.6-0.4-1.2,0.6-0.6,1c1,2.2,0.7,3.5-1,3.8
		c-0.8,0.2-1.6,0.3-2.4,0.3c-1,0.1-1.9,0-2.9,0c-2.2-0.1-4.3-0.3-6.4-1.2C497.3,274.2,497.2,274.5,497.3,274.6L497.3,274.6z"/>
</g>
<g>
	<path fill="#231F20" d="M477.8,237.8c-0.8-3.1-3.1-7.9-7.1-7.3c-4.1,0.6-4.4,5.5-3.8,8.7c0.4,2.3,1.4,4.3,2.5,6.4
		c1.2,2.5,0.4,5.2,1.4,7.7c1.2,2.9,4.7,4.3,7.1,1.9c0.8-0.8-0.4-2-1.2-1.2c-1.9,1.9-4.1-0.4-4.5-2.4c-0.2-1.2,0-2.3-0.2-3.5
		c-0.2-2.4-1.8-4.3-2.6-6.5c-0.8-2.2-2.2-7,0.3-8.6c3.5-2.3,6.6,2.5,7.9,5.1C477.5,238.1,477.8,238,477.8,237.8L477.8,237.8z"/>
</g>
<g>
	<path fill="#231F20" d="M471.4,238.5c0.5-0.6,1.1-1.4,2.2-1c0.5,0.2,1,1.3,1.3,1.7c1,1.5,1.5,3.3,1.6,5.1c0,0.6,0,1.3,0,1.9
		c-0.1,1.1-0.7,2.3-1.4,0.8c-0.5-1,0.4-3,0.8-3.9c0.2-0.7-0.9-1.1-1.1-0.5c-0.8,1.8-1.8,4.7-0.3,6.5c1.7,2,3.1-0.4,3.3-2.1
		c0.4-3.1-0.5-6.5-2.4-9c-1.8-2.2-2.6-1.8-4,0.3C471.1,238.5,471.3,238.6,471.4,238.5L471.4,238.5z"/>
</g>
<ellipse fill="none" stroke="#231F20" stroke-miterlimit="10" cx="498.2" cy="242.9" rx="1.5" ry="4.3"/>
<ellipse fill="none" stroke="#231F20" stroke-miterlimit="10" cx="521.4" cy="244" rx="1.5" ry="4.3"/>
<g>
	<path fill="#231F20" d="M479.1,223.4c3,3.7,5.7,8.5,5.1,13.4c-0.5,4.4-3.5,7.7-7.1,10.1c0.4,0.5,0.7,0.9,1.1,1.4
		c1.6-2,1.7-4.2,1.2-6.6c-0.8-4.1-2.3-7.7-1.7-12c0.1-1-1.3-1.5-1.6-0.4c-0.7,2.6-0.3,5.3,0.3,7.9c0.7,2.9,2.7,7.2,0.5,9.9
		c-0.6,0.7,0.2,2,1.1,1.4c3.8-2.6,7.2-6.3,7.8-11.1c0.6-5.8-2.7-10.3-6.5-14.3C479.2,222.9,478.9,223.2,479.1,223.4L479.1,223.4z"/>
</g>
<g>
	<path fill="#231F20" d="M480.2,218.3c3.8-3.5,8.9-1.4,13,0.3c3.4,1.4,6.9,2.5,10.5,1.3c-0.2-0.3-0.5-0.7-0.7-1
		c-2.6,4.2-7.4,5.5-11.9,6.6c-0.3,0.1-0.5,0.4-0.5,0.7c0.3,3.1-0.4,5.9-2,8.5c0.4,0.1,0.8,0.1,1.2,0.2c-0.5-2.7-2.7-4.4-5.4-4.3
		c-0.8,0-0.9,1.3,0,1.3c2.1,0,3.7,1.3,4.1,3.3c0.1,0.6,0.9,0.6,1.2,0.2c1.1-1.7,1.8-3.6,2.1-5.6c0.1-0.7-0.2-2.2,0.1-2.7
		c0.5-0.8,2.5-1,3.4-1.3c3.5-1.1,6.7-2.9,8.7-6.1c0.3-0.5-0.2-1.2-0.7-1c-7.6,2.5-16.7-7.4-23.4-0.6
		C479.9,218.2,480.1,218.4,480.2,218.3L480.2,218.3z"/>
</g>
<g>
	<path fill="#231F20" d="M503.9,213.7c6,2.6,8.2,9.7,4.7,15.1c0.5,0.1,1,0.3,1.4,0.4c0-4.2-4.7-6.6-7.9-8.2c-1-0.5-1.9,1-0.9,1.5
		c2.7,1.2,7.2,3.3,7.2,6.7c0,0.8,1,1,1.4,0.4c3.8-6.3,1.1-13.9-5.8-16.4C503.9,213.1,503.7,213.6,503.9,213.7L503.9,213.7z"/>
</g>
<g>
	<path fill="#231F20" d="M472.5,211.1c3.6-2.8,4.7-7.6,3.4-11.9c-0.3,0.2-0.7,0.4-1,0.6c1.5,1.3,2.8,2.7,4,4.2
		c0.2,0.3,0.7,0.2,0.9,0c1-0.9,2.1-1.5,3.4-1.9c-0.3-0.3-0.5-0.5-0.8-0.8c-0.2,0.7-0.4,1.3-0.6,2c-0.1,0.4,0.2,0.9,0.6,0.8
		c2.8-0.3,8.7-1.3,9.1-4.8c-0.4,0.1-0.9,0.1-1.3,0.2c0.4,2.4,0.4,4.7-0.1,7.2c-0.1,0.5,0.3,0.9,0.8,0.8c2.3-0.3,4.6-0.6,6.3,1.2
		c0.6,0.6,1.5-0.3,1-1c-2.1-2.2-4.8-2-7.6-1.6c0.3,0.3,0.6,0.6,0.8,0.8c0.5-2.7,0.5-5.2,0.1-7.9c-0.1-0.8-1.3-0.5-1.3,0.2
		c-0.2,2.4-5.9,3.2-7.7,3.4c0.2,0.3,0.4,0.6,0.6,0.8c0.2-0.7,0.4-1.3,0.6-2c0.1-0.5-0.3-1-0.8-0.8c-1.5,0.5-2.8,1.2-3.9,2.3
		c0.3,0,0.6,0,0.9,0c-1.2-1.5-2.6-2.9-4.1-4.1c-0.4-0.3-1.2,0-1,0.6c1.4,4.1,0.3,8.1-2.6,11.3C472.1,211,472.3,211.2,472.5,211.1
		L472.5,211.1z"/>
</g>
<g>
	<path fill="#231F20" d="M456.5,234.7c1-6.6-1.8-12.9-7.1-17c-0.1,0.5-0.3,1-0.4,1.4c2.8-0.3,5.4,0.4,7.7,2c0.5,0.4,1.4-0.3,1.2-0.9
		c-1.6-4.1-1.1-8.4,1.3-12c-0.5-0.1-1-0.1-1.5-0.2c0.4,1.2,1,3.1,2.2,3.7c1.4,0.6,2.5-1,3-2.1c1.7-3.3,0.4-6.9-2.6-8.8
		c-0.2,0.5-0.4,1-0.7,1.5c3.7,1,7.6,2,9.8,5.5c0.3,0.5,0.9,0.5,1.4,0.2c2-1.5,2.7-3.8,2.2-6.2c-0.5,0.3-1,0.6-1.5,0.9
		c1.1,0.9,2.2,1.8,3.3,2.7c0.9,0.7,2.1-0.5,1.3-1.3c-1.1-0.9-2.2-1.8-3.4-2.7c-0.7-0.5-1.7-0.1-1.5,0.9c0.4,1.8-0.2,3.4-1.7,4.5
		c0.5,0.1,0.9,0.1,1.4,0.2c-2.4-3.9-6.6-5.2-10.8-6.3c-0.9-0.2-1.4,1-0.7,1.5c1.5,1,2.5,2.5,2.5,4.4c0,0.6-0.2,2.1-0.7,2.5
		c-1.4,1.3-1.7-0.6-2-1.5c-0.2-0.7-1.1-0.8-1.5-0.2c-2.7,4-3.2,8.8-1.5,13.3c0.4-0.3,0.8-0.6,1.2-0.9c-2.5-1.8-5.4-2.6-8.5-2.2
		c-0.8,0.1-1,1-0.4,1.4c4.9,3.6,7.5,9.5,7.3,15.6C456,234.9,456.5,235,456.5,234.7L456.5,234.7z"/>
</g>
<g>
	<path fill="#231F20" d="M491.6,204.2c4.7-0.2,9.2-1.8,13.1-4.4c-0.3-0.3-0.7-0.5-1-0.8c-0.5,1.4-1.1,2.6-1.9,3.8
		c-0.4,0.5,0.2,1.2,0.8,1c3.7-1.2,7.4-1.3,11.2-0.3c-0.1-0.4-0.1-0.9-0.2-1.3c-0.7,0.5-1.3,0.9-2,1.4c-0.7,0.4-0.4,1.3,0.4,1.4
		c4.3,0.5,8.5,0,12.6-1.5c-0.3-0.3-0.7-0.7-1-1c-0.5,1.2-1.4,1.9-2.6,2.4c-0.8,0.3-0.7,1.3,0,1.6c5.4,2.2,9.1,7,10.1,12.7
		c0.3-0.3,0.7-0.7,1-1c-1.5-0.5-3-0.9-4.4-1.4c-0.7-0.2-1.4,0.6-1,1.3c2.5,3.8,2.6,8.9-0.4,12.5c0.5,0.1,1,0.3,1.5,0.4
		c-1-2.6-2.6-4.5-4.9-6.1c-0.7-0.5-1.6,0.3-1.3,1c0.9,2.8-1.8,4.3-3.8,5.3c0.4,0.3,0.9,0.7,1.3,1c1.3-3.7-1.5-6.4-4.2-8.5
		c-0.5-0.4-1.4,0.1-1.3,0.7c0.2,2.2-0.5,4-2.3,5.3c0.5,0.2,1,0.4,1.5,0.6c0-1.6-0.5-2.7-1.8-3.7c-0.8-0.7-2,0.5-1.2,1.2
		c0.9,0.6,1.3,1.4,1.2,2.5c0,0.8,0.9,1.1,1.5,0.6c2-1.6,3-4,2.8-6.5c-0.4,0.2-0.9,0.5-1.3,0.7c2.1,1.6,4.5,3.6,3.4,6.5
		c-0.3,0.8,0.7,1.3,1.3,1c2.9-1.4,5.8-3.7,4.7-7.3c-0.4,0.3-0.9,0.7-1.3,1c1.8,1.3,3.2,2.9,4,5c0.3,0.7,1.2,0.9,1.7,0.2
		c3.1-4.3,3.4-10,0.4-14.4c-0.3,0.4-0.6,0.8-1,1.3c1.5,0.5,3,0.9,4.4,1.4c0.7,0.2,1.2-0.4,1-1c-1.1-6.3-5.4-11.4-11.3-13.8
		c0,0.5,0,1.1,0,1.6c1.8-0.6,3-1.7,3.7-3.5c0.2-0.6-0.5-1.2-1-1c-4,1.4-8,1.9-12.1,1.5c0.1,0.5,0.3,1,0.4,1.4c0.7-0.5,1.3-1,2-1.4
		c0.5-0.3,0.5-1.2-0.2-1.3c-4-1.1-8-0.9-12,0.4c0.3,0.3,0.5,0.7,0.8,1c0.9-1.3,1.6-2.6,2-4.1c0.2-0.7-0.6-1-1.1-0.6
		c-3.5,3-7.7,4.5-12.3,4.9C491.2,203.7,491.2,204.2,491.6,204.2L491.6,204.2z"/>
</g>
<g>
	<path fill="#231F20" d="M524.8,249.8c2.2,1.7,3.8,3.3,2,6c-1.2,1.8-2.9,3.4-4.5,4.8c-2.8,2.6-5.8,4.9-8.2,8c-2.4,3-3.5,7.2-6.3,9.9
		c-2.5,2.3-5.7,1.7-8.8,1.7c-2.2,0-8.3,0.9-9-2.2c-0.2-0.8-1.4-0.4-1.2,0.3c0.5,2.1,2.1,2.8,4.1,3c3.5,0.3,7.1,0.1,10.6,0.1
		c3,0,4.3-0.9,6.2-3.3c1.7-2.1,2.7-4.7,4.2-6.9c3.2-4.8,8.6-7.8,12.4-12c1.3-1.5,3.4-3.6,3.1-5.8c-0.2-2.2-2.5-3.3-4.2-4.2
		C524.9,249.1,524.5,249.5,524.8,249.8L524.8,249.8z"/>
</g>
<g>
	<path fill="#231F20" d="M528.1,251.7c-3.8-3.2,0.3-8.9,1-12.6c0.6-3.2,0.5-6.3-0.8-9.2c-0.4-0.9-1.7-0.1-1.3,0.7
		c2.3,5,0.3,9.4-1,14.2c-0.7,2.7-0.5,5.5,1.9,7.1C528.1,252,528.3,251.8,528.1,251.7L528.1,251.7z"/>
</g>
<g>
	<path fill="#231F20" d="M485.6,245.8c-3.1,1.4-6.1,2.7-5.5,6.5c0.7,4,2.2,8,4.4,11.5c0.6,1,2.1,0.1,1.5-0.9c-1.7-2.7-3.1-5.5-4-8.5
		c-0.4-1.6-1.2-3.7,0-5.1c1-1.2,2.7-2,3.8-3.1C486.1,246,485.8,245.7,485.6,245.8L485.6,245.8z"/>
</g>
<g>
	<path fill="#231F20" d="M529.7,223.7c3.5,3.1,1.6,9.2,6.1,11.6c0.1-0.5,0.1-1,0.2-1.4c-1.4,0.2-2.5,0-3.7-0.8
		c-0.6-0.3-1.4,0.2-1.2,0.9c1.1,2.9,0.9,5.8-0.5,8.5c0.5,0.1,1,0.1,1.5,0.2c-0.2-1-0.5-1.6-1.2-2.3c-0.4-0.4-1.2-0.2-1.3,0.4
		c0,0.9-0.5,1.7-1.3,2.3c0.4,0.2,0.8,0.4,1.2,0.7c-0.1-0.8-0.2-1.4-0.6-2.2c-0.4-0.9-1.7-0.1-1.3,0.8c0.1,0.5,0.2,0.9,0.3,1.4
		c0,0.5,0.7,1,1.2,0.7c1.2-0.8,1.8-1.8,2.1-3.2c-0.4,0.1-0.9,0.2-1.3,0.4c0.2,0.5,0.5,1.1,0.7,1.6c0.1,0.7,1.2,0.8,1.5,0.2
		c1.7-3.1,1.9-6.4,0.7-9.7c-0.4,0.3-0.8,0.6-1.2,0.9c1.6,0.9,3.1,1.2,4.9,0.9c0.6-0.1,0.8-1.2,0.2-1.4c-4.2-1.9-2.7-8.2-6.7-10.5
		C529.7,223.3,529.5,223.6,529.7,223.7L529.7,223.7z"/>
</g>
<g>
	<path fill="#231F20" d="M455.3,227.7c-0.3,6.9-2,13.5-5.4,19.5c-0.2,0.4,0.1,1,0.6,1c1.6,0,2.8-0.4,4-1.4c-0.3-0.2-0.7-0.4-1-0.6
		c-0.9,7.7,2.5,14.6,8.2,19.6c0.5,0.5,1.4,0,1.2-0.7c-0.2-0.7-0.4-1.3-0.6-2c-0.5,0.3-0.9,0.5-1.4,0.8c2.4,2.3,3.4,5.3,2.9,8.6
		c-0.1,0.6,0.6,1.5,1.3,1c4.4-3.4,7.5-8,8.7-13.5c-0.5,0.1-1.1,0.1-1.6,0.2c1,1.8,1.4,3.6,1.2,5.6c-0.1,0.8,1.3,1.2,1.6,0.4
		c1.5-3.6,1.7-7.4,0.2-11c-0.4-1-2.1-0.6-1.7,0.5c1.3,3.2,1.3,6.5-0.1,9.7c0.5,0.1,1.1,0.3,1.6,0.4c0.2-2.3-0.3-4.4-1.4-6.5
		c-0.4-0.6-1.4-0.5-1.6,0.2c-1.1,5.1-3.9,9.4-8,12.6c0.5,0.3,1,0.6,1.4,0.8c0.6-3.8-0.5-7.5-3.3-10.2c-0.6-0.5-1.7,0-1.4,0.8
		c0.2,0.6,0.5,1.3,0.7,1.9c0.4-0.3,0.7-0.6,1.1-0.8c-5.8-4.1-8.4-11.6-7.7-18.5c0.1-0.7-0.8-0.8-1.2-0.5c-0.9,0.8-2,1.2-3.2,1.1
		c0.2,0.3,0.4,0.7,0.6,1c3.3-6.2,5.1-13.1,4.8-20.2C455.8,227.4,455.3,227.4,455.3,227.7L455.3,227.7z"/>
</g>
<g>
	<path fill="#231F20" d="M462.5,240c-0.7,1.8-1.5,3.5-2.6,5c-0.2,0.3,0.1,0.8,0.4,0.7c0.9-0.1,1.4-0.3,2.2-0.8
		c-0.3-0.2-0.5-0.4-0.8-0.6c-0.8,3.7-0.7,8.7,2.4,11.3c0.4,0.3,0.9,0.1,0.9-0.4c0-0.5,0.1-1,0.1-1.5c-0.3,0.1-0.6,0.3-1,0.4
		c1.7,1.8,2.3,4,1.6,6.5c-0.3,0.9,1.1,1.2,1.3,0.4c0.8-2.8,0.1-5.7-2.2-7.6c-0.4-0.3-0.9-0.1-1,0.4c0,0.5-0.1,1-0.1,1.5
		c0.3-0.1,0.6-0.3,0.9-0.4c-2.9-2.3-2.8-6.9-2.2-10.2c0.1-0.4-0.4-0.9-0.8-0.6c-0.5,0.4-1.1,0.7-1.8,0.7c0.2,0.2,0.4,0.5,0.5,0.7
		c0.9-1.7,1.7-3.5,2.3-5.4C463.2,239.8,462.7,239.7,462.5,240L462.5,240z"/>
</g>
<g>
	<path fill="#231F20" d="M438.9,302.3c-3.1,0.8-6.1,1.9-9.2,2.6c-1.5,0.3-3.7,0.2-4.2,2c-0.6,1.7,0.7,2.7,2.2,3.2
		c0.9,0.2,1.8,0.3,2.7,0.4c0.5,0,0.9,0.1,1.3-0.1c0.6-0.3,1.1-0.8,1.6-1.1c-0.5,0.4-1.8,0.3-2.4,0.3c-0.8,0-1.7,0-2.5-0.4
		c-0.5-0.1-0.9-0.3-1-0.8c-0.1-0.5,0-1.7,0.5-1.9c0.4-0.1,1-0.2,1.5-0.3c3.3-1,6.5-2.1,9.7-3.4C439.2,302.6,439.1,302.3,438.9,302.3
		z"/>
</g>
<g>
	<path fill="#231F20" d="M449.2,304.6c0.6,1.1,1.6,1.8,2.3,2.8c0.4,0.4,3.1,3.3,3,3.9c-0.2,1.2-3.5,0.7-4.4,0.7
		c-1.6-0.1-3.1-0.6-4.5-1.4c-0.1,0.4-0.4,0.7-0.6,1c1.3,1.3,3.7,1.6,5.5,1.7c1.3,0.1,4.4,0.6,5.4-0.7
		C457.8,310,450.8,305.7,449.2,304.6z"/>
</g>
<g>
	<path fill="#231F20" d="M439.7,308.2c-1.1,1.8-2.5,3.5-3.9,5c-0.8,0.9-2.2,1.6-2.8,2.8c-0.8,1.7,0.6,3.1,2.2,3.5
		c2.9,0.7,4.3-1.6,6.3-3.3c1.8-1.5,4.9-3.4,4.8-6c0-0.5-0.8-0.6-0.9-0.1c-0.5,2.5-3,3.9-5,5.2c-0.8,0.5-1.4,1.3-2.1,1.9
		c-0.6,0.5-1.5,1.4-2.3,1.5c-1.8,0.3-2.1-2.4-1.1-3.3c0.3-0.3,0.6-0.6,0.9-0.9c0.4-0.5,0.8-1,1.2-1.4c1.2-1.5,2.2-3,3-4.7
		C440.1,308.1,439.8,307.9,439.7,308.2z"/>
</g>
<g>
	<path fill="#231F20" d="M436.8,306.1c-1,1.1-2.6,1.9-3.9,2.7c-1.2,0.8-2.3,1.5-3.5,2.2c-1.3,0.7-3.3,1.4-2.6,3.3
		c0.5,1.4,2.2,2.3,3.6,2.2c1.1-0.1,1.7-0.7,2.6-1.1c1.1-0.4,2.1-0.6,2.9-1.4c0.5-0.6,0.8-1.4,1.3-2c-0.7,0.6-1.5,1.1-2.4,1.5
		c-0.9,0.4-1.9,0.6-2.7,1c-1.1,0.6-2,1.4-3.3,0.6c-0.8-0.5-0.9-1.6-0.4-2.4c0.2-0.3,1-0.5,1.3-0.7c1.5-0.9,3-1.8,4.4-2.9
		c1-0.8,2.4-1.6,3.1-2.8C437.1,306.1,436.9,305.9,436.8,306.1z"/>
</g>
<g>
	<path fill="#231F20" d="M462.1,280.4c5.4-1.2,8.6,4.8,8.2,9.5c-0.3,3.4-3.1,8.4-6.3,9.7c-0.7,0.3-0.7,1.4,0.2,1.4
		c2.5-0.2,4-2.1,5.2-4.1c1.7-2.7,3-5.5,2.6-8.8c-0.7-4.6-4.7-10.6-10-8.1C461.7,280.1,461.9,280.5,462.1,280.4L462.1,280.4z"/>
</g>
<g>
	<path fill="#231F20" d="M450.9,306.3c2.8-0.1,6.7,0,9.2-1.4c2-1.2,3.7-3.6,4.1-5.9c0.2-1-1.3-1.4-1.5-0.4c-0.5,2.5-2.5,4.9-5,5.6
		c-2.2,0.6-4.6,0.8-6.9,1.3C450.3,305.6,450.4,306.3,450.9,306.3L450.9,306.3z"/>
</g>
<g>
	<path fill="#231F20" d="M453.6,291.3c-6,2.7-10.6,7.7-16.3,10.8c-0.7,0.4-0.1,1.4,0.6,1.1c5.7-3.1,10.7-7.7,15.9-11.5
		C454,291.5,453.8,291.1,453.6,291.3L453.6,291.3z"/>
</g>
<g>
	<path fill="#231F20" d="M451.7,292.6c1.7-2.4,3.2-4.7,5.4-6.7c2-1.9,5.2-5,8.1-5c0.9,0,0.9-1.5,0-1.5c-3.1-0.1-6,2.6-8.2,4.6
		c-2.4,2.2-4.8,5.2-5.7,8.4C451.3,292.7,451.6,292.8,451.7,292.6L451.7,292.6z"/>
</g>
<g>
	<path fill="#231F20" d="M468.8,270.1c2.1,2.3,4.3,5.6,2.5,8.8c-0.5,0.9,0.9,1.7,1.4,0.8c2-3.7-0.4-7.9-3.5-10
		C468.9,269.4,468.6,269.9,468.8,270.1L468.8,270.1z"/>
</g>
<g>
	<path fill="#231F20" d="M493.1,283.8c-0.1-0.4-0.3-0.8-0.4-1.2c0-0.5,0.1-0.8,0.4-1.2c0.5-0.9-1-1.7-1.4-0.8
		c-0.5,1.1-0.3,3.1,1.1,3.5C493,284.1,493.2,283.9,493.1,283.8L493.1,283.8z"/>
</g>
<g>
	<path fill="#231F20" d="M472.2,283.6c3.3,4.7,0.1,11.6-2.6,15.8c-0.2,0.3,0.3,0.7,0.5,0.4c3.4-4.2,6.4-11.7,2.3-16.4
		C472.3,283.2,472.1,283.4,472.2,283.6L472.2,283.6z"/>
</g>
<g>
	<path fill="#231F20" d="M472.7,277.8c-1-0.7-2.4-1.9-3.6-2c-0.8-0.1-2.3,0.7-3.1,0.9c-1,0.3-2.1,0.6-3.1,0.8
		c-1.1,0.3-3.3,0.3-4.1,1.3c-0.9,1-1,3-1.3,4.1c-0.2,0.8,1,1.1,1.2,0.3c0.4-1.6,0.7-3.3,2.3-4c1.1-0.5,2.8-0.6,4-1
		c1.1-0.3,2.4-0.9,3.5-1.1c1.3-0.2,2.7,0.6,4,1C472.8,278.4,472.9,278,472.7,277.8L472.7,277.8z"/>
</g>
<g>
	<path fill="#231F20" d="M456.9,307.6c11.6,6.8,27.2,10.5,40.4,7c1.1-0.3,0.6-1.9-0.5-1.7c-13.8,3-26.9-1-39.8-5.6
		C456.9,307.1,456.8,307.4,456.9,307.6L456.9,307.6z"/>
</g>
<g>
	<path fill="#231F20" d="M457.3,307.6c0.2-0.3,0.3-0.6,0.4-0.9c0.1-0.4,0.3-0.6,0.3-1c0.1-0.8-1.3-0.9-1.3,0c0,0.3,0.1,0.6,0.1,1
		c0,0.3,0,0.6,0.2,0.9C457.1,307.7,457.2,307.7,457.3,307.6L457.3,307.6z"/>
</g>
<g>
	<path fill="#231F20" d="M507.1,294c-1,7.4-6.9,12.9-9.1,19.8c-0.3,0.9-1.7,0.5-1.4-0.4c0.2-0.6,0.4-1.2,0.6-1.8
		c1.9-5.1,5.6-9.3,7.5-14.4c0.6-1.6,1-3.4,1-5.1c0-2.3-0.5-3.7-2.5-5c-2.7-1.9-5.5-3.5-8.1-5.5c-0.1,0-0.1-0.1-0.2-0.1
		c-0.2-0.2,0-0.4,0.2-0.3c2.1,0.9,4.1,2.1,6.2,3.2c1.3,0.7,3,1.4,4.2,2.4C507.4,288.5,507.4,291.7,507.1,294z"/>
</g>
<g>
	<path fill="#231F20" d="M523.4,307.9c2.8,1.1,5.6,2.3,8.5,3.1c0.6,0.2,1.2,0.3,1.8,0.5c2.3,0.5,2.9,2.7,0.2,3.2
		c-1.7,0.3-3.2-0.1-4.9-0.2c1.7,1.5,3.5,1.4,5.6,0.8c1.5-0.4,2.7-1.4,2.2-3.2c-0.5-1.6-2.4-1.6-3.7-1.9c-3.3-0.7-6.4-1.8-9.6-2.7
		C523.3,307.5,523.2,307.8,523.4,307.9z"/>
</g>
<g>
	<path fill="#231F20" d="M513.2,309.8c-1.6,1.1-8.6,5.4-6.7,7.9c1,1.2,3.7,0.8,5,0.7c1-0.1,2.1-0.2,3.1-0.4c0.2,0,2.2-0.7,2.2-0.9
		c0-0.5-0.2-1-0.2-1.5c-0.7,1.1-3.2,1.3-4.4,1.4c-0.9,0.1-4.1,0.6-4.4-0.7c-0.1-0.4,2.7-3.5,3-3.9
		C511.6,311.6,512.6,310.9,513.2,309.8z"/>
</g>
<g>
	<path fill="#231F20" d="M522.4,313.5c0.7,1.6,1.7,3,2.8,4.4c0.7,0.9,5.1,4.9,1.2,5.7c-1.2,0.3-3.1-2.2-4-2.9
		c-2-1.5-4.8-2.8-5.3-5.5c-0.1-0.5-0.8-0.4-0.9,0.1c-0.1,2.6,3,4.5,4.8,6c2,1.7,3.4,4,6.3,3.3c1.6-0.4,3-1.8,2.2-3.5
		c-0.5-1.1-1.9-1.9-2.8-2.8c-1.5-1.5-2.8-3.2-3.9-5C522.6,313.1,522.3,313.3,522.4,313.5L522.4,313.5z"/>
</g>
<g>
	<path fill="#231F20" d="M525.4,311.5c0.7,1.1,2,2,3,2.8c1.4,1.1,2.9,2,4.4,2.9c0.3,0.2,0.9,0.3,1.1,0.6c0.5,0.5,0.6,1.7,0.1,2.2
		c-1.1,1.2-2.4,0.4-3.5-0.2c-0.8-0.5-1.7-0.7-2.5-1c-0.8-0.3-1.7-1-2.6-1.1c0.2,0,1.1,1.7,1.3,1.9c0.7,0.6,1.8,0.6,2.7,1
		c0.9,0.3,1.5,1,2.5,1.1c1.4,0.1,3.2-0.8,3.7-2.2c0.5-1.7-1.1-2.4-2.3-3.1c-1.3-0.7-2.6-1.5-3.8-2.3c-1.3-0.8-2.9-1.6-3.9-2.7
		C525.5,311.1,525.3,311.3,525.4,311.5z"/>
</g>
<g>
	<path fill="#231F20" d="M508.6,296.8c5.3,3.8,10.2,8.4,15.9,11.5c0.7,0.4,1.3-0.7,0.6-1.1c-5.7-3.1-10.4-8.2-16.3-10.8
		C508.6,296.3,508.4,296.7,508.6,296.8L508.6,296.8z"/>
</g>
<g>
	<path fill="#231F20" d="M518,307c-1.2,0-2.4,0.2-3.3,0.9c-0.3,0.2,0,0.8,0.3,0.5c0.9-0.6,1.9-1,3-1.1
		C518.2,307.3,518.2,307,518,307L518,307z"/>
</g>
<g>
	<path fill="#231F20" d="M469.8,279.1c4,3,8.9,5.1,13.9,5.9c3.5,0.6,8.9,1.6,11.8-1c0.9-0.7-0.4-2-1.2-1.2c-1.6,1.4-4.3,1.1-6.3,1
		c-2.2-0.1-4.3-0.3-6.4-0.8c-4.1-0.9-7.9-2.4-11.6-4.4C469.8,278.6,469.6,278.9,469.8,279.1L469.8,279.1z"/>
</g>
<g>
	<path fill="#231F20" d="M449,334.1c5.3-4.5,12-1.3,16.6,2.4c1.1,0.9,2.8,1.9,2.7,3.5c-0.1,1.4-1.3,3.3-1.9,4.6
		c-1.2,3.1-2.5,6.2-3.7,9.3c-0.5,1.2,1.4,1.7,1.9,0.5c1-2.5,2-4.9,2.9-7.4c0.8-2.1,2-4.3,2.6-6.5c0.8-2.9-2.1-4.2-4.2-5.8
		c-4.8-3.6-12.6-6.6-17.3-1C448.5,334,448.8,334.3,449,334.1L449,334.1z"/>
</g>
<g>
	<path fill="#231F20" d="M446,347.9c1.3-4.9,1.7-9.8,3.9-14.4c0.4-0.9-0.9-1.7-1.3-0.8c-2.2,4.6-3.1,10-2.9,15.1
		C445.7,348,446,348.1,446,347.9L446,347.9z"/>
</g>
<g>
	<path fill="#231F20" d="M446.6,343.1c-1.9,2.2-3.8,4.4-5.6,6.6c-0.9,1.1-2.3,2.3-2,3.9c0.4,1.9,2.5,3.6,3.8,4.9
		c1.6,1.5,3.4,3.1,5.7,3.6c2.1,0.4,4.3-0.1,6.4-0.5c2.8-0.5,5.6-1,8.3-1.7c1.3-0.4,3.6-0.6,4.2-2.1c0.7-1.6-0.7-4.3-1.1-5.8
		c-0.3-1-1.9-0.6-1.6,0.4c0.4,1.5,1.8,4,0.3,5.3c-0.9,0.8-3.4,0.9-4.5,1.2c-3.4,0.8-7.8,2.3-11.3,1.8c-2.2-0.3-3.8-1.7-5.4-3.2
		c-1.2-1.2-3.3-2.9-3.1-4.6c0.2-1.6,2-3.4,3-4.8c1.1-1.6,2.3-3.1,3.4-4.7C447.1,343.1,446.8,342.9,446.6,343.1L446.6,343.1z"/>
</g>
<g>
	<path fill="#231F20" d="M445.9,351.3c3.8,2.6,8.3,4.4,12.9,4c0.6-0.1,0.6-0.9,0-0.9c-4.6-0.4-8.7-1.1-12.8-3.3
		C445.8,351,445.7,351.2,445.9,351.3L445.9,351.3z"/>
</g>
<g>
	<path fill="#231F20" d="M474.8,324.2c-0.2,3.3-0.9,6-2.8,8.8c-0.9,1.3-2.1,2.5-3,3.8c-0.4,0.6-0.6,0.9-0.5,1.6
		c0.1,0.5,0.6,1.3,0.2,1.8c0.7-0.6,1-1.1,1.2-1.9c0.3-0.8,0.9-1.6,1.4-2.2c1.1-1.4,2.3-2.8,3-4.4c1-2.4,1.6-5,0.8-7.5
		C475.1,323.9,474.8,323.9,474.8,324.2z"/>
</g>
<g>
	<path fill="#231F20" d="M460.1,315.8c-3,0.6-4.6,3.1-5.8,5.8c-1.4,3.2-2.8,6.7-2.4,10.3c0.5-0.1,1-0.3,1.6-0.4
		c0-0.2-0.1-0.3-0.1-0.5c-0.1-0.7-1.4-0.8-1.5-0.1c-0.1,0.6,0.8,0.7,1.2,0.6c0.8-0.3,0.4-1.6,0.4-2.3c0.2-2.2,1-4.2,1.7-6.3
		c1-3.1,2.2-5,5-6.7C460.3,316,460.2,315.8,460.1,315.8z"/>
</g>
<g>
	<path fill="#231F20" d="M479,331.1c-1.7,0.8-3.2,1.1-5,0.6c-0.9-0.2-1.2,1.1-0.4,1.3c1.9,0.5,4.3,0,5.7-1.5
		C479.5,331.2,479.2,330.9,479,331.1L479,331.1z"/>
</g>
<g>
	<path fill="#231F20" d="M490.7,320.6c1.7,1.9,2.9,4.2,4.4,6.2c0.9,1.2,2,2.3,3.1,3.4c0.5,0.5,0.9,0.8,1.6,0.5
		c1.1-0.5,0.4-1.2-0.2-1.7c-1.4-1.3-2.7-2.6-3.9-4c-1.5-1.6-2.7-3.6-4.7-4.7C490.7,320.2,490.5,320.4,490.7,320.6z"/>
</g>
<g>
	<path fill="#231F20" d="M489.2,337.8c-2.1-0.4-3.9-0.6-5.8-1.7c-1.8-1-3.4-2.4-5-3.7c-1-0.8-2.1,0.6-1.1,1.4
		c2.9,2.2,8,6.1,11.9,4.3C489.3,338.1,489.3,337.8,489.2,337.8L489.2,337.8z"/>
</g>
<g>
	<path fill="#231F20" d="M487.7,338.3c0,0.3,0,1.3,0.2,1.5c0.3,0.2,0.5-0.1,0.6-0.4c0-0.3-0.3-0.9-0.4-1.2
		C488,338.1,487.7,338.1,487.7,338.3z"/>
</g>
<g>
	<path fill="#231F20" d="M489.6,321.9c2.6-1.1,0.9-4.3,2-6.2c0.5-0.8-0.8-1.6-1.3-0.8c-1.2,2,0.3,4.7-1.1,6.5
		C488.9,321.7,489.2,322.1,489.6,321.9L489.6,321.9z"/>
</g>
<g>
	<path fill="#231F20" d="M457.6,317.4c2.4-1.7,4-4.6,4.8-7.4c0.2-0.8-1-1.1-1.2-0.3c-0.6,2.9-2,5.1-3.8,7.4
		C457.2,317.2,457.4,317.5,457.6,317.4L457.6,317.4z"/>
</g>
<g>
	<path fill="#231F20" d="M524,350.6c-0.1-0.2-0.3-0.2-0.5-0.3c-3.3-1.1-6.7-2.2-10.1-3.3c-0.2-0.1-0.5-0.2-0.6-0.3
		c-0.2-0.2-0.3-0.5-0.3-0.7c-1.9-6.5-4.5-12.1-7.6-17.9c-0.2-0.3-0.3-0.6-0.7-0.7c-0.3-0.1-0.7,0.1-0.9,0.3c-3.3,2.4-6.6,5-9.8,7.5
		c-2.5,2-5.2,3.8-7,6.5c-0.2,0.4-0.5,0.8-0.7,1.2l0.4-0.5c0.1,0.1,0.1,0.2,0.2,0.4c2.2,4.2,4.3,8.3,6.5,12.5c0.2,0.5,0.5,1,1,1.2
		c0.4,0.2,0.8,0.3,1.3,0.4c8.4,1,16.7,0,25.1,0.4c0.1,0,0.3,0,0.4,0c0.1-0.1,0.3-0.2,0.4-0.4c1.2-1.7,2.2-3.6,3-5.5
		C524,351.2,524.1,350.9,524,350.6z M521.5,354.2c-0.5,0.9-0.9,1.9-1.8,2.2c-0.9,0.3-2.4-0.1-3.4-0.1c-1.1,0-2.2,0-3.4,0
		c-2.3,0-4.5,0.1-6.8,0.1c-2.3,0-4.5,0-6.8-0.1c-2.2-0.1-4.9,0.3-6-1.9c-2.2-4.1-4.2-8.3-6.5-12.4c0,0,0,0,0,0
		c2.2-3.1,5.4-5.2,8.4-7.4c1.8-1.3,3.5-2.6,5.3-4c0.5-0.4,2.5-2.3,3-2.3c0.8,0.1,1,1,1.3,1.6c2,3.8,4,7.7,5.3,11.8
		c0.5,1.6,0.6,4,1.7,5.3c0.9,1.1,3.1,1.4,4.4,1.8c1.3,0.4,5.6,1.1,6.1,2.4C522.9,352.3,521.9,353.5,521.5,354.2z"/>
	<g>
		<path fill="#231F20" d="M524.6,349.8c-1-1.1-3.6-1.4-4.9-1.8c-2.4-0.8-5.4-1.1-6.7-3.6c-1.8-3.6-2.9-7.6-4.6-11.2
			c-0.8-1.7-1.7-3.5-2.6-5.1c-0.5-0.9-0.9-1.6-2.1-1.4c-1.5,0.2-3.5,2.3-4.7,3.2c-1.7,1.3-3.3,2.7-4.9,4c-2.9,2.4-6.2,4.6-8.1,7.9
			c-0.4,0.1-0.8,0.6-0.6,1.1c-0.1,0.2,0.1,0.5,0.2,0.5c0,0,0,0,0,0c1.9,3.9,3.9,7.8,5.9,11.6c0.5,1,0.9,2,1.9,2.5
			c1.5,0.8,3.7,0.6,5.4,0.7c4.7,0.3,9.3,0.1,14,0c2.1,0,4.2,0,6.3,0c1.5,0,1.9,0,2.8-1.2C523,355.7,526.1,351.6,524.6,349.8z
			 M516.3,356.4c-1.1,0-2.2,0-3.4,0c-2.3,0-4.5,0.1-6.8,0.1c-2.3,0-4.5,0-6.8-0.1c-2.2-0.1-4.9,0.3-6-1.9c-2.2-4.1-4.2-8.3-6.5-12.4
			c0,0,0,0,0,0c2.2-3.1,5.4-5.2,8.4-7.4c1.8-1.3,3.5-2.6,5.3-4c0.5-0.4,2.5-2.3,3-2.3c0.8,0.1,1,1,1.3,1.6c2,3.8,4,7.7,5.3,11.8
			c0.5,1.6,0.6,4,1.7,5.3c0.9,1.1,3.1,1.4,4.4,1.8c1.3,0.4,5.6,1.1,6.1,2.4c0.4,0.9-0.6,2-1,2.8c-0.5,0.9-0.9,1.9-1.8,2.2
			C518.8,356.7,517.2,356.4,516.3,356.4z"/>
	</g>
</g>
<g>
	<path fill="#231F20" d="M439.9,301.7c2.3-0.1,4.3,0.5,6.3,1.6c1.2,0.7,2.4,1.4,3.5,2.3c1,0.8,1.8,2.1,3.1,2.5
		c-0.3-0.1-0.5-1.7-0.7-2c-0.4-0.6-1-1.1-1.5-1.5c-1.2-1-2.6-1.8-4.1-2.5c-2.1-1-4.3-1.5-6.6-0.9
		C439.6,301.3,439.6,301.7,439.9,301.7z"/>
</g>
<g>
	<path fill="#231F20" d="M511.1,311.8c3.6-3.3,8.2-4.9,13-3.7c0.9,0.2,1.3-1.2,0.4-1.4c-5.1-1.2-10.7,0.3-13.8,4.7
		C510.4,311.7,510.9,312,511.1,311.8L511.1,311.8z"/>
</g>
<g>
	<path fill="#231F20" d="M488.5,285.4c3.6,10.1-0.9,20-4.7,29.2c-0.2,0.5,0.7,0.9,0.9,0.4c4-9.1,8.7-19.9,4.2-29.7
		C488.8,285,488.5,285.2,488.5,285.4L488.5,285.4z"/>
</g>
<g>
	<path fill="#231F20" d="M475.3,289.1c-2.9,4.6-4.6,9.9-4.7,15.3c0,0.7,1.1,0.7,1.1,0c0.5-5.3,1.7-10.2,4-15.1
		C475.8,289,475.4,288.8,475.3,289.1L475.3,289.1z"/>
</g>
<g>
	<path fill="#231F20" d="M499.8,306.4c2.6-4,5.3-10.8,3-15.5c-0.4-0.8-1.5-0.1-1.1,0.7c2,4.1-0.4,10.8-2.3,14.6
		C499.2,306.4,499.6,306.6,499.8,306.4L499.8,306.4z"/>
</g>
<path fill="#231F20" d="M540.7,233.7c-0.2,1-3.3-1.4-3.5-1.7c-0.9-1.2-1.8-2.5-2.6-3.9c-1.1-1.9-2.8-4.5-2.7-6.8
	c0.8,1.4,3,3.3,4.7,3.2c-0.9-2.5,0.2-5-0.5-7.6c-0.7-2.6-2.2-4.9-3.8-7.1c-1.5-2-3.2-4-5.6-4.7c1.8-2.2,2.2-4.9,2.3-7.7
	c-0.8,1.8-3.4,2.2-5.1,2.6c-2.5,0.7-4.8,1.6-7.5,1.5c1-0.4,1.5-2.6,1.4-3.8c-0.8,1.2-3,1.2-4.3,1.5c-2.2,0.5-4.4,0.4-6.6,1
	c-0.3-1.7,0.2-3.5-0.4-5.4c-0.4,0.9-1.2,1.1-2.1,1.4c-1.7,0.7-3.7,1.2-5.1,2.1c-1.5,1-3.1,2.2-4.8,2.9c0-2.9-2.2-5.1-3.2-7.7
	c-0.3,1.7-2.4,3.2-3.5,4.3c-0.5,0.5-1.5,1-1.9,1.6c0.7-1.3,0.4-3.7-0.5-4.8c0.3,3.2-3.8,3.9-5.9,5.1c-0.7-0.6-1.8-1.5-2.2-2.3
	c-0.1-0.3-0.5-3.1,0.1-3.1c-1.4-0.2-2.7,0.3-3.4,1.6c-0.2,0.3-1.3,3.1-0.9,3.3c-1.5-0.8-2.6-1.8-4.4-1.7c0.5,1.5,0.3,2.6,0.6,4.1
	c-0.7-1.2-2.7-1.8-3.9-2.1c-1.5-0.5-3.1-0.6-4.7-0.5c-3,0.3-4.5,1.1-6.1,3.6c1.6-1.2,2.9,0.2,4.1,1.2c-0.2,0-0.5,0.1-0.7,0.2
	c-4.2,2.3-5.4,6.7-4.7,11c-2.2-0.2-4.8,0.5-6.6,1.6c-0.7,0.4-1.4,0.9-2,1.3c-0.5,0.4-1.3,2-1.6,2.2c3.6-1.6,6.5,2.2,8,5.1
	c1.6,3.1,1.9,6.9,1,10.3c-0.8,2.9-1.7,5.8-3,8.6c-1.1,2.3-3.2,4.9-2.9,7.6c-0.1-0.9,5.3-2.3,5.8-2.6c-0.6,3.3,0.5,6.7,1.4,9.8
	c0.5,1.5,0.9,3,1.7,4.3c1.3,2.1,3.7,3.2,4.3,5.7c0.2,0.8,0.1,2-0.3,2.7c1.3-0.9,2.2-1.7,2.7-3.2c-0.3,0.8,0.8,2.2,0.6,3.2
	c-0.2,1.2-1,2.9-1.5,4.1c-1.5,0.4-3.1,0.8-4,2.1c-0.8,1.2-0.6,2.6-0.6,3.9c-0.3,0.1-0.5,0.2-0.7,0.4c-2.5,2.3-3.9,5.4-5.3,8.4
	c-0.2,0.1-0.4,0.1-0.5,0.3c-3.6,3.4-7.2,7-11.7,9.2c-2.5,1.2-5.2,2-8,2.7c-1.6,0.4-4.1,0.4-5.5,1.4c-3.1,2-0.9,5.5,1.8,6.7
	c-1.7,0.9-2.8,2.5-1.9,4.5c1.1,2.4,4.3,3.3,6.7,2.7c0.4,1.5,1.7,3,3.1,3.5c4.5,1.9,10.1-3.1,12.7-6.3c0.1-0.1,0.2-0.2,0.2-0.4
	c0.9,0.2,1.8,0.3,2.4,0.3c1.8,0.2,3.9,0.6,5.7,0c-1.2,1.6-2.4,3.2-3.3,5c-1.5,3.1-2.2,6.6-1.9,10c-2,0.4-3.8,1.3-4.7,3.3
	c-1.4,3.1-1.6,7-1.5,10.4c-3.6,1.9-7.9,5.9-7.7,9.8c0.2,4.1,6.1,9.3,9.7,10.5c7.2,2.2,28.9-1.6,21.4-12.4c0.3-0.5,0.5-1,0.7-1.6
	c0.7-1.9,1.7-3.6,2.7-5.4c1.1-2.1,2.8-4.8,1-6.8c0.2-0.2,0.5-0.5,0.7-0.7c0.8-0.8,1.6-1.7,2.4-2.6c0.1-0.2,0.2-0.3,0.3-0.5
	c1.6,2.2,3.2,3.9,5.9,4.7c1.2,0.4,2.7,0.7,4.1,0.6c-1.5,1.1-2.6,2.2-1.8,4.6c1.5,4.4,4.6,9.1,6.7,13.3c1.2,2.4,2.2,3.7,4.9,3.9
	c5.1,0.5,10.7-0.1,15.8-0.3c7-0.2,12.7-0.2,15.4-7.7c0.7-1.9,0.7-3.2-1-4.5c-2.6-1.9-6.5-1.5-9.3-3.2c-2.6-1.7-4.1-4.5-4.9-7.4
	c-1.1-4-1.3-9.5-4.2-12.7c-2.1-2.3-4.6-0.7-6.5,1.3c-1.7-1.7-3.4-3.4-5.1-5.2c-1-1-1.9-2.2-3.3-2.7c0,0,0,0,0,0
	c0-0.7-0.1-1.5-0.1-2.2c0.1,0,0.2,0,0.4,0.1c0.5,0.1,1.1,0,1.7,0c2.2,0,4.6-0.7,6.9-1.1c-1.8,0.3-0.4-4.4-0.3-4.8
	c0.6,0.7,1.4,1.2,2.2,1.6c0.8,0.4,1.7,0.7,2.6,1c0.4,0.1,0.7,0.1,1,0.1c-1.7,1.7-2.8,3.9-1.2,5.7c2.4,2.9,8,1.1,11.2,0.6
	c1.3,1.8,2.9,3.6,4.4,5.2c1.4,1.5,3.5,2.4,5.5,2.3c2.4-0.1,5.2-1.9,5.4-4.2c2,0.5,4.2-0.1,5.6-1.8c1-1.2,1-2.9,0.1-4.2
	c-0.1-0.2-0.2-0.3-0.4-0.5c2.4-1.5,4-4.5,1.2-6.6c-1.9-1.4-4.5-1.4-6.6-1.9c-2.3-0.5-4.4-1.4-6.4-2.6c-2.4-1.5-4.5-3.5-6.7-5.2
	c-3.5-2.8-6.3-5.6-8.7-9.5c-2.2-3.8-4.7-6.4-8.1-8.1c2.8,0.5,5.6,0.6,8-1.4c2-1.6,2.9-4.1,4.2-6.3c1.7-2.9,4-5.2,6.4-7.5
	c3.2-3.2,8.5-6.3,10.4-10.6c1.8-4.1-1.5-6.6-1.9-10c0.1-0.5,0.3-0.9,0.5-1.2c0.4,1.9,0.2,3.4,1.8,4.6c0.1-5.1,6.9-8.7,4-14.3
	C537.1,235.9,540.2,236,540.7,233.7z M532.2,235.4c0.3,1.3,0.6,6.8-1.6,7.4c-0.2,0-0.3,0.1-0.5,0c-0.7-0.1-0.6-0.8-1.2-1
	c-1.1-0.4-2.2,0.8-2.2,1.8c0,0.2,0,0.3,0,0.5c0,0,0,0.1,0,0.1c-0.7,2.6-0.7,4.1,0.4,6.5c0.6,1.2,2,2.7,1.7,4.2
	c-0.2,1.3-2,2.9-2.9,3.8c-1.7,1.7-3.7,3.3-5.5,5c-2.8,2.6-5.6,5.4-7.8,8.5c-1.5,2.2-2.3,4.8-4.3,6.5c-2.6,2.3-6.5,2-9.9,2.2
	c-0.2,0-0.4,0.1-0.4,0.3c-0.5-0.1-1-0.2-1.5-0.3c-0.6-0.1-1,0.7-0.4,1c3.8,2.2,7.7,3.8,10.1,7.7c2,3.2,3.3,6.3,6,9
	c2.8,2.8,6,5.2,9.1,7.6c1.4,1.1,3,1.7,4.7,2.2c1.5,0.4,2.6,1.3,4,1.9c1.4,0.6,5.4,1,6,2.4c0.9,1.9-3.5,2.3-4.6,2.9
	c0.8,0.7,5.4,2.6,3.5,4.3c-0.9,0.9-2.4,1.3-3.7,1.1c-0.1-0.2-0.3-0.3-0.4-0.5c-1.2-1.2-3.5,0.4-2.5,1.9c1.2,1.8-3.1,1.5-3.6,1.4
	c-1.2-0.4-1.9-1.2-2.8-2c-0.7-0.6-1.4-1.2-2.2-1.7c0-0.1,0-0.3-0.1-0.4c-0.5-0.5-1.1-1.1-1.6-1.6c-0.2-0.2-0.3-0.2-0.5-0.2
	c-0.3-0.5-0.8-0.9-1.5-0.7c-1.1,0.3-2.2,0.5-3.3,0.7c-1,0.2-3,0.6-4,0.2c-0.6,0.1-0.8-0.2-0.8-0.9c-0.3-0.4-0.3-0.7,0-1.1
	c0.2-0.5,0.7-1,1-1.5c0.7-1,1.4-1.9,2-2.8c0.3-0.5-0.3-1-0.8-0.8c0,0-0.1,0.1-0.1,0.1c-0.2-0.4-0.6-0.6-1.2-0.6
	c-0.7,0-1.5,0.4-2.2,0.3c-0.7,0-1.6-0.4-2.3-0.6c-1.1-0.3-2-0.8-2.9-1.4c-0.3-0.8-1.6-1-2,0.1c-0.2,0.5-0.3,0.9-0.5,1.4
	c-0.2,0-0.4,0.1-0.6,0.3c-0.6,0.7-0.6,1.4-0.6,2.2c0,0.9-0.5,1.5-1.4,1.5c-0.3,0-0.5,0.2-0.5,0.4c-0.4,0-0.7,0.1-1.1,0.1
	c-1,0-2.4-0.3-3.3,0.1c-1.2,0.5-0.9,1.9-0.5,3c-0.1,0.4-0.3,0.9-0.5,1.3c-0.2,0.4-0.2,0.9,0.2,1.2c2.7,2.9,5.3,5.9,8.2,8.7
	c0,0,0,0.1-0.1,0.1c-0.5,0.7,0.5,1.2,1.1,0.8c0.1-0.1,0.1-0.1,0.2-0.2c0.7,0.1,1.5-0.5,1.6-1.2c1-0.6,2-1.1,3.1-0.7
	c1.8,0.6,2.1,2.8,2.7,4.5c0.9,2.9,1.5,5.9,2.2,8.8c0.6,2.3,1.3,4.1,2.5,5.5c0,0.1,0.1,0.2,0.2,0.2c1.1,1.1,2.6,1.8,4.8,2
	c0.7,0.1,1.1-0.2,1.4-0.6c3.7,1.3,6.6,3.5,2.7,7.5c-3.3,3.3-11.5,1.8-15.8,1.9c-2.5,0-5.2,0.5-7.6,0.2c-3.4-0.4-4.3-1.6-6-4.5
	c-1.3-2.2-2.7-4.5-3.7-6.8c-1.5-3.3-1.9-4.5,0.4-7.4c0,0,0-0.1,0.1-0.1c0.1-0.1,0.2-0.1,0.3-0.2c0.4-0.2,0.3-0.7-0.1-0.9
	c-1.7-0.6-3.6-0.6-5.4-1.1c-2.4-0.6-4-1.9-5.4-4c-0.6-0.9-1.7-0.7-2.3-0.1c-0.1-0.2-0.3-0.5-0.5-0.6c-0.8-0.6-2-0.4-2.5,0.5
	c-0.7,1.2-1.3,2.4-1.9,3.6c-0.1,0.2-0.4,0.6-0.5,1.1c-1,0.4-1.6,1.6-0.6,2.5c1,0.8-2.3,6-2.7,7c-0.6,1.4-0.6,2.9-0.9,4.3
	c-0.3,0.2-0.4,0.5-0.3,0.9c0,0,0,0,0,0c-0.2,0.5,0.1,1,0.5,1.2c2.4,7.4-17.6,9.1-21,6.7c-2.4-1.7-5.2-5.5-4.4-8.3
	c0.4-1.5,1.4-2.7,2.4-3.8c0.5-0.6,1.1-1.2,1.7-1.7c0.7-0.6,1-0.3,1.2,0.6c0.6-1.4,0.6-3.1,1-4.5c0.5-1.8,0.3-3.7,0.7-5.5
	c0.7-2.9,2.1-3.9,4.5-5.5c0.4-0.2,0.3-0.8-0.1-1c1-3.7,2.1-7.3,4.4-10.6c2-2.8,4.5-5.1,5.9-8.3c0.7-1.6-1.1-2.9-2.2-2.2
	c-0.6-0.6-1.3-1.1-2.2-1.4c-0.1,0-0.1,0-0.2-0.1c0,0,0-0.1-0.1-0.2c0-0.3-0.2-0.6-0.3-0.8c-0.3-0.6-0.7-1.1-1.3-1.5
	c-0.7-0.5-1.4,0.2-1.5,0.8c-0.4-0.2-0.9-0.5-1.3-0.6c-1.8-0.4-2.5,2.3-0.8,2.8c1.3,0.4,2,1.4,2.6,2.5c0.3,0.5,0.5,0.8,0.3,1.3
	c-0.3,0.5-1.5,0.6-2,0.6c-1,0.1-2,0.1-3,0.1c-0.8,0-1.7-0.1-2.4-0.4c-0.5-0.2-1.2-0.5-1.7-0.4c-0.2,0-0.5,0.2-0.7,0.3
	c-0.2,0.1-0.4,0.2-0.5,0.4c-0.1,0.1-0.1,0.5-0.1,0.5c-1.2,0.9-2.3,1.9-3.3,3c-0.2,0-0.4,0-0.6,0.2c-0.4,0.3-0.7,0.7-1,1.1
	c-0.1,0.2-0.3,0.4-0.4,0.6c-0.7,0.4-1.3,0.8-2.1,1c-1.4,0.3-5.3-0.7-3.6-3.4c0.3-0.4-0.2-1-0.6-0.8c-0.3,0.1-0.5,0.2-0.7,0.3
	c-0.3-0.1-0.7-0.1-1.1,0.1c-1.2,0.7-3.9,0.5-4.5-1c-0.7-1.6,2.5-2.6,3.4-3.4c0.3-0.3,0.1-0.9-0.4-0.9c-0.4,0-0.9,0.1-1.3,0.2
	c-7.5-3.5,3.6-5.1,4.9-5.5c2.3-0.7,4.6-1.5,6.7-2.7c4.3-2.4,8-5.9,11.5-9.3c0.4-0.4,0.4-0.8,0.3-1.2c0.9-0.9,1.8-1.9,2.6-3
	c1.1-1.4,2-3,3.3-4.1c0.7-0.6,0.6-1.5,0.1-2.1c0-0.1,0.1-0.2,0.1-0.3c0.7-1.8,1.2-2.7,3.3-3.3c2-0.5,7.4-3.1,9.2-1.5
	c1.4,1.2,3.4-0.8,2-2c-0.2-0.2-0.5-0.4-0.7-0.5c-0.4-1.8-1.3-3.4-2.8-4.5c-0.4-0.6-1.2-0.9-1.8-0.2c-0.1,0.1-0.2,0.2-0.3,0.4
	c-0.7,0.9-1.5,1.7-2.2,2.4c0.1-0.9,0.1-1.9,0-2.9c-0.1-0.9-0.4-1.7-0.7-2.5c-0.1-0.3-0.3-0.6-0.6-0.9c0,0,0,0,0,0
	c0.6-1.6-1.1-2.6-2.4-2.2c-1.1-1-2.4-1.9-3.4-3.2c-2.7-3.8-3.6-8.8-4.3-13.2c-0.1-0.3-0.4-0.4-0.6-0.3c-0.6-0.1-1.2-0.2-1.8-0.2
	c3.1-5.3,5.8-12.7,4.9-18.5c-0.5-3.9-3.5-8-7.1-10.1c0.9-0.4,1.8-0.7,2.7-0.9c0.2,0.3,0.7,0.4,1.1,0.2c0.1,0,0.5,0.1,0.6,0.2
	c0.3,0.1,0.5,0.2,0.7,0.4c0.1,0.1,0.3,0.1,0.4,0.1c0.9,1.2,3-0.2,2.2-1.7c-0.3-0.6-0.7-1-1.2-1.3c0.2-2.9,0.6-5.9,2.7-7.9
	c1,2.2,2.7,4.1,4.6,0.8c1.4-2.5,0.6-5-1.2-6.6c3.1-0.2,6,1.2,7.8,4c1,1.6,3.6,0.1,2.6-1.5c-0.1-0.1-0.2-0.2-0.2-0.3
	c0.4-0.7,0.6-1.4,0.7-2.2c0.4,0.4,0.7,0.9,0.9,1.5c0.7,1.3,3,0.7,2.9-0.8c0-0.7,0-1.3,0-1.9c0.8,0.9,1.7,1.7,2.8,2.4
	c0.6,0.4,1.4,0.2,1.9-0.2c0.5-0.5,1-0.8,1.5-1.1c0,0.9,1,1.8,2,1.5c2.7-0.6,4.8-1.9,6.5-3.8c0.2,0.7,0.4,1.4,0.4,2.2
	c-0.9,1.7,1.5,3.2,2.6,1.9c0.1,0.1,0.3,0.2,0.4,0.1c2.3-0.3,4.6-1.1,6.8-1.7c1.2-0.3,2.2-0.7,3.1-1.4c0,0.2,0,0.3-0.1,0.3
	c-1.2,1.3,0.6,3.1,1.9,1.9c0.3-0.3,0.5-0.7,0.7-1.2c2.3-0.2,4.5,0.3,6.7,0.3c-0.8,1.1-0.3,2.5,1.1,2.6c3.5,0.2,6.8-0.3,10-1.5
	c-0.4,0.5-0.9,0.9-1.4,1.2c-1.1,0.7-0.7,2.1,0.1,2.6c0,0.4,0.2,0.7,0.6,1c1.9,1.5,3.4,3.5,4.9,5.4c1.5,1.8,2.7,3.5,3.7,5.6
	c-0.8-0.2-1.6-0.5-2.5-0.8c-1.3-0.5-2.3,0.6-2.2,1.8c0.1,0.8,0.6,0.9,0.9,1.5c0.1,0.2,0.7,2.5,0.5,2.3c1.8,0.8,1.8,2.7,2.3,4.3
	c0.6,1.8,1.4,3.5,2.6,5C533,232.9,531.9,234.2,532.2,235.4z M467.6,273.9c0.3-0.3,0.7-0.7,1-1.1c0.4,0.3,0.8,0.6,1.2,1
	C469,273.7,468.3,273.8,467.6,273.9z"/>
<path fill="#231F20" d="M528,320c0.1-0.1,0.1-0.1,0.2-0.2"/>
</svg>
