<?xml version="1.0" encoding="utf-8"?>
<!-- Generator: Adobe Illustrator 19.0.1, SVG Export Plug-In . SVG Version: 6.00 Build 0)  -->
<!DOCTYPE svg PUBLIC "-//W3C//DTD SVG 1.1//EN" "http://www.w3.org/Graphics/SVG/1.1/DTD/svg11.dtd">
<svg version="1.1" id="Layer_2" xmlns="http://www.w3.org/2000/svg" xmlns:xlink="http://www.w3.org/1999/xlink" x="0px" y="0px"
	 viewBox="-219 -116.5 519.4 792.5" enable-background="new -219 -116.5 519.4 792.5" xml:space="preserve">
<rect x="-55.3" y="229.6" fill="#1E2929" width="154" height="154"/>
<path fill="#163535" d="M94.1,245.3v122.8c0,6.6-5.4,12-12,12H-38.6c-3.8,0-7.1-1.8-9.3-4.5c-1.7-2.1-2.7-4.7-2.7-7.5V245.3
	c0-6.6,5.4-12,12-12H82.1c1.7,0,3.2,0.3,4.7,1C91.1,236.1,94.1,240.3,94.1,245.3z"/>
<path fill="#1C2D32" d="M94.1,245.3v122.8c0,6.6-5.4,12-12,12H-38.6c-3.8,0-7.1-1.8-9.3-4.5c10.7,1.9,21.8,2.3,32.6,2
	c10.6-0.3,21.4-3,31.9-1.8c5.2,0.6,10.5,0.7,15.8,0.9c9.6,0.3,20,0.4,29.6-0.4c4.3-0.3,8.5-1.1,12.7-1.4c3.2-0.3,6.6-0.7,9.3-2.5
	c4.4-3,4.8-8.3,5.1-13.1c0.6-8.8,0.7-17.6,1-26.3c0.2-5.2,1.4-10.3,2.1-15.4c1.2-8.9,0.5-17.8,0.2-26.7c-0.5-15.5-0.3-30.2-3.1-45.6
	c-0.7-3.7-1.6-7.3-2.4-10.9C91.1,236.1,94.1,240.3,94.1,245.3z"/>
<path fill="#245954" d="M94.1,245.3v4.3c-2-2.1-4.2-3.9-6.5-5.3c-2.4-1.5-5-2.6-7.8-3.6c-3.1-0.7-6.2-1.3-9.3-1.9
	c-27.6-5-57.6-6-85.6-1.2c-3.2,0.6-6.3,1.3-9.3,2.3c-14.7,4.8-25,15.2-24.5,37c-0.3,3.8-0.5,7.6-0.6,11.2c-0.1,3.7-0.2,7.2-0.3,10.6
	c0,3.2,0.1,6.4,0.3,9.6c0.8,16,3.2,32.2,5.9,47.7c1,3.3,2.2,6.6,3.5,9.8c2.1,4.8,4.6,9.6,7.7,14.3h-6.2c-6.6,0-12-5.4-12-12V245.3
	c0-6.6,5.4-12,12-12H82.1C88.7,233.3,94.1,238.7,94.1,245.3z"/>
<path fill="none" d="M101.4,325c-0.1,0-0.1,0-0.2,0"/>
<polygon fill="#283E3D" points="77.6,276.7 63.9,289.6 80.5,304.1 86.4,288 "/>
<path fill="#283E3D" d="M5.4,239.5l-18.6,7.8c0,0,19.5,22.7,19.9,22C7,268.6,29.8,247,29.8,247L5.4,239.5z"/>
<polygon fill="#283E3D" points="9.4,362.8 -0.5,346.7 -18,360.1 -3.4,369.1 "/>
<polygon fill="#012E2F" points="44,348.6 15.2,354.4 52.3,373.6 86.4,363.7 49.8,361.1 "/>
<path fill="#012E2F" d="M-21.5,318.1c1.3-0.3,24.1-3.2,24.1-3.2l25.7,8.2l-24.9,8.7L-21.5,318.1z"/>
<path fill="#FFD017" d="M81.6,258.7v99.3c0,5.3-4.4,9.7-9.7,9.7h-97.6c-0.8,0-1.5-0.1-2.2-0.2c-0.6-0.1-1.1-0.3-1.7-0.6
	c-1.5-0.6-2.7-1.6-3.7-2.8c-1.4-1.7-2.2-3.8-2.2-6.1v-99.3c0-5.3,4.4-9.7,9.7-9.7h97.6c1.2,0,2.3,0.2,3.4,0.6
	c0.1,0.1,0.3,0.1,0.4,0.2c2.9,1.2,5.1,3.8,5.7,7C81.5,257.4,81.6,258,81.6,258.7z"/>
<polygon fill="#551C17" points="81.6,312.2 81.6,347.9 56.8,367.6 11.9,367.6 "/>
<path fill="#551C17" d="M81.6,258.7v21.6l-109.4,87.1c-2.2-0.5-4-1.7-5.4-3.4c-1.4-1.7-2.2-3.8-2.2-6.1v-20.3l110.7-88.1
	c0.1,0.1,0.3,0.1,0.4,0.2C79.2,251.2,81.6,254.6,81.6,258.7z"/>
<polygon fill="#551C17" points="36,249 -35.4,305.8 -35.4,270 -8.9,249 "/>
<path opacity="0.5" fill="#E0E7AC" d="M81.6,258.7v99.3c0,5.3-4.4,9.7-9.7,9.7h-97.6c-0.8,0-1.5-0.1-2.2-0.2
	c-0.6-0.1-1.1-0.3-1.7-0.6c-1.5-0.6-2.7-1.6-3.7-2.8c-1.4-1.7-2.2-3.8-2.2-6.1v-6.5c0.1,0.2,0.1,0.5,0.2,0.8
	c1.9,11.9,18.6,12.5,28,13.3c11.9,1.1,23.7,0,35.5,0.3c12.3,0.2,24.9,2.6,37-0.1c0.8-0.2,1.5-0.4,2.3-0.6c0.2-0.2,0.8-0.6,1.3-1.1
	c0.9-0.9,1.6-1.9,2.3-3c1.1-1.7,2-3.5,2.8-5.4c1.6-3.9,2.5-8.2,3.2-12.3c1.8-10.8,1.8-21.9,1.5-32.8c-0.4-11-0.9-22.1-2.1-33.1
	c-0.6-5.4-1.4-10.8-2.9-16c-1.1-3.8-2.7-8.9-6.8-10.6c-1-0.4-1.8-1.1-2.3-1.9h7.3c1.2,0,2.3,0.2,3.4,0.6c0.1,0.1,0.3,0.1,0.4,0.2
	c2.9,1.2,5.1,3.8,5.7,7C81.5,257.4,81.6,258,81.6,258.7z"/>
<path opacity="0.5" fill="#2E2200" d="M81.4,256.8c-5.2-0.5-11.2,0.6-15.4,0.6c-10.5,0.1-21.1-0.2-31.6-0.6
	c-9.9-0.4-19.8-1-29.6-1.3c-5.3-0.2-10.5-0.4-15.8-0.5c-3.5-0.1-10.3-1.4-13.5,0.6c-2.9,1.9-4,9.8-4.3,13.1c-0.3,4.6,0.7,9.3,1,13.9
	c0.6,9-0.1,18.1-1,27.1c-2,19-5.4,38.3-0.7,57.1c-1.5-0.6-2.7-1.6-3.7-2.8c-1.4-1.7-2.2-3.8-2.2-6.1v-99.3c0-5.3,4.4-9.7,9.7-9.7
	h97.6c1.2,0,2.3,0.2,3.4,0.6c0.1,0.1,0.3,0.1,0.4,0.2C78.6,251,80.8,253.6,81.4,256.8z"/>
<path opacity="0.5" fill="#2E2200" d="M4.8,305.4c2,1.3,5.9,5,4,7.3c-2.5,3-11.3-0.2-14.4-0.1c-4.8,0.1-27.4,5.1-22.1,13.5
	c2.3,3.6,8.1,2,11.4,2c12-0.1,20.4,5.7,30,11.7c3.2,2,9,6.4,13.1,4.1c2.5-1.4,3.1-5.4,5.7-6.8c3.6-1.9,9.7,0.5,13.4,1
	c3.1,0.4,14.4,0.3,8.2-5.6c-3.4-3.2-42.1-2.3-38.5-9.3c2.4-4.8,18,0.4,21,0.2c5.3-0.3,3.2-4.9,4.5-9.8c2.7-10.5,14.3-4,21.3-2.6
	c8.4,1.6,20.1-6.7,11.5-14.8c-2.6-2.4-7.4-3.3-10.8-3.1c-2.9,0.2-4.8,1.6-7.6,0c-2-1.1-5.2-5.3-4.8-7.9c0.3-1.7,2.9-2.8,3.1-4.4
	c0.6-5.7-13.8-11.3-17.7-12.2c-4.2-0.9-13.1-1.4-16.4,2c1.1,2.1,6.1,4.7,3.2,6.6c-2.2,1.5-10.3-0.7-13.3-0.3
	c-7.5,1.1-15.5,3-8.1,10.3c4.4,4.3,17.8,11.9,24.5,7.2c5.1-3.6-3.2-9.4-0.5-13.4c2.4-3.6,6.8-0.8,8.6,1.6c2.5,3.6,3.7,9.1,3.3,13.4
	C35.6,314.7,13.8,296,4.8,305.4z"/>
<g>
	<path fill="#163535" d="M73.3,254.1c0.1,0.1,0.3,0.2,0.4,0.3c2,1.6,3.1,4,3.1,6.4c0,1.7-0.5,3.5-1.5,5c-2.1,2.9-5.7,4.1-8.9,3.2
		c-0.9-0.2-1.9-0.7-2.7-1.3c-0.8-0.6-1.5-1.3-2.1-2.1c-1.9-2.8-1.9-6.6,0.1-9.5C64.4,252.3,69.6,251.4,73.3,254.1z"/>
	<path fill="#1C2D32" d="M73.3,254.1c0.1,0.1,0.3,0.2,0.4,0.3c2,1.6,3.1,4,3.1,6.4c-0.6-0.6-1.2-1.3-1.8-1.9
		c-2.8-2.8-6.1-4.8-9.5-0.9c-2.6,2.9-2.7,6.2-1.1,8.8c0.5,0.8,1.1,1.6,1.9,2.2c-0.9-0.2-1.9-0.7-2.7-1.3c-0.8-0.6-1.5-1.3-2.1-2.1
		c-1.9-2.8-1.9-6.6,0.1-9.5C64.4,252.3,69.6,251.4,73.3,254.1z"/>
	<path fill="#245954" d="M75.1,258.8c0.1-1.8-0.8-3-1.3-4.5c2,1.6,3.1,4,3.1,6.4c0,1.7-0.5,3.5-1.5,5c-2.1,2.9-5.7,4.1-8.9,3.2
		c-0.9-0.2-1.9-0.7-2.7-1.3c-0.8-0.6-1.5-1.3-2.1-2.1c0.5,0.3,0.9,0.5,1.4,0.7s1,0.4,1.5,0.5c2.3,0.6,4.9,0.4,6.8-1
		c1.8-1.4,3.2-3.8,3.7-6C75,259.4,75,259.1,75.1,258.8z"/>
</g>
<g>
	<path fill="#163535" d="M74.1,348.2c0.1,0.1,0.3,0.2,0.4,0.3c2,1.6,3.1,4,3.1,6.4c0,1.7-0.5,3.5-1.5,5c-2.1,2.9-5.7,4.1-8.9,3.2
		c-0.9-0.2-1.9-0.7-2.7-1.3c-0.8-0.6-1.5-1.3-2.1-2.1c-1.9-2.8-1.9-6.6,0.1-9.5C65.2,346.4,70.4,345.6,74.1,348.2z"/>
	<path fill="#1C2D32" d="M74.1,348.2c0.1,0.1,0.3,0.2,0.4,0.3c2,1.6,3.1,4,3.1,6.4c-0.6-0.6-1.2-1.3-1.8-1.9
		c-2.8-2.8-6.1-4.8-9.5-0.9c-2.6,2.9-2.7,6.2-1.1,8.8c0.5,0.8,1.1,1.6,1.9,2.2c-0.9-0.2-1.9-0.7-2.7-1.3c-0.8-0.6-1.5-1.3-2.1-2.1
		c-1.9-2.8-1.9-6.6,0.1-9.5C65.2,346.4,70.4,345.6,74.1,348.2z"/>
	<path fill="#245954" d="M75.9,353c0.1-1.8-0.8-3-1.3-4.5c2,1.6,3.1,4,3.1,6.4c0,1.7-0.5,3.5-1.5,5c-2.1,2.9-5.7,4.1-8.9,3.2
		c-0.9-0.2-1.9-0.7-2.7-1.3c-0.8-0.6-1.5-1.3-2.1-2.1c0.5,0.3,0.9,0.5,1.4,0.7s1,0.4,1.5,0.5c2.3,0.6,4.9,0.4,6.8-1
		c1.8-1.4,3.2-3.8,3.7-6C75.8,353.5,75.8,353.3,75.9,353z"/>
</g>
<g>
	<path fill="#163535" d="M-18.7,254c0.1,0.1,0.3,0.2,0.4,0.3c2,1.6,3.1,4,3.1,6.4c0,1.7-0.5,3.5-1.5,5c-2.1,2.9-5.7,4.1-8.9,3.2
		c-0.9-0.2-1.9-0.7-2.7-1.3c-0.8-0.6-1.5-1.3-2.1-2.1c-1.9-2.8-1.9-6.6,0.1-9.5C-27.6,252.2-22.4,251.3-18.7,254z"/>
	<path fill="#1C2D32" d="M-18.7,254c0.1,0.1,0.3,0.2,0.4,0.3c2,1.6,3.1,4,3.1,6.4c-0.6-0.6-1.2-1.3-1.8-1.9
		c-2.8-2.8-6.1-4.8-9.5-0.9c-2.6,2.9-2.7,6.2-1.1,8.8c0.5,0.8,1.1,1.6,1.9,2.2c-0.9-0.2-1.9-0.7-2.7-1.3c-0.8-0.6-1.5-1.3-2.1-2.1
		c-1.9-2.8-1.9-6.6,0.1-9.5C-27.6,252.2-22.4,251.3-18.7,254z"/>
	<path fill="#245954" d="M-16.9,258.8c0.1-1.8-0.8-3-1.3-4.5c2,1.6,3.1,4,3.1,6.4c0,1.7-0.5,3.5-1.5,5c-2.1,2.9-5.7,4.1-8.9,3.2
		c-0.9-0.2-1.9-0.7-2.7-1.3c-0.8-0.6-1.5-1.3-2.1-2.1c0.5,0.3,0.9,0.5,1.4,0.7s1,0.4,1.5,0.5c2.3,0.6,4.9,0.4,6.8-1
		c1.8-1.4,3.2-3.8,3.7-6C-17,259.3-16.9,259-16.9,258.8z"/>
</g>
<g>
	<path fill="#163535" d="M-18.7,349.1c0.1,0.1,0.3,0.2,0.4,0.3c2,1.6,3.1,4,3.1,6.4c0,1.7-0.5,3.5-1.5,5c-2.1,2.9-5.7,4.1-8.9,3.2
		c-0.9-0.2-1.9-0.7-2.7-1.3c-0.8-0.6-1.5-1.3-2.1-2.1c-1.9-2.8-1.9-6.6,0.1-9.5C-27.6,347.3-22.4,346.4-18.7,349.1z"/>
	<path fill="#1C2D32" d="M-18.7,349.1c0.1,0.1,0.3,0.2,0.4,0.3c2,1.6,3.1,4,3.1,6.4c-0.6-0.6-1.2-1.3-1.8-1.9
		c-2.8-2.8-6.1-4.8-9.5-0.9c-2.6,2.9-2.7,6.2-1.1,8.8c0.5,0.8,1.1,1.6,1.9,2.2c-0.9-0.2-1.9-0.7-2.7-1.3c-0.8-0.6-1.5-1.3-2.1-2.1
		c-1.9-2.8-1.9-6.6,0.1-9.5C-27.6,347.3-22.4,346.4-18.7,349.1z"/>
	<path fill="#245954" d="M-16.9,353.9c0.1-1.8-0.8-3-1.3-4.5c2,1.6,3.1,4,3.1,6.4c0,1.7-0.5,3.5-1.5,5c-2.1,2.9-5.7,4.1-8.9,3.2
		c-0.9-0.2-1.9-0.7-2.7-1.3c-0.8-0.6-1.5-1.3-2.1-2.1c0.5,0.3,0.9,0.5,1.4,0.7s1,0.4,1.5,0.5c2.3,0.6,4.9,0.4,6.8-1
		c1.8-1.4,3.2-3.8,3.7-6C-17,354.4-16.9,354.1-16.9,353.9z"/>
</g>
</svg>
