<?xml version="1.0" encoding="utf-8"?>
<!-- Generator: Adobe Illustrator 19.0.1, SVG Export Plug-In . SVG Version: 6.00 Build 0)  -->
<!DOCTYPE svg PUBLIC "-//W3C//DTD SVG 1.1//EN" "http://www.w3.org/Graphics/SVG/1.1/DTD/svg11.dtd">
<svg version="1.1" id="Layer_1" xmlns="http://www.w3.org/2000/svg" xmlns:xlink="http://www.w3.org/1999/xlink" x="0px" y="0px"
	 viewBox="0 0 960 560" enable-background="new 0 0 960 560" xml:space="preserve">
<path fill="#551C17" d="M524,302.9c0,0.1,0,0.3-0.1,0.4c-0.7,2.4-3.7,4.5-6.2,3.5c-2.4-1-4.3-2.8-5.7-4.8c-1.2-1.7-2.1-3.7-2.7-5.7
	c-2.6-0.3-5.2-1.3-7.7-1.9c-0.4-0.1-0.8-0.2-1.2-0.3c-3-0.5-5.7,1-8.7,1c0.1,0.6,0.1,1.2-0.1,1.9c-0.5,2.8-0.3,5.6,0.6,8.3
	c0.1,0.4,0.2,0.7,0.4,1.1c0.6,1.6,0,3.3-1.1,4.6c-0.6,0.8-1.5,1.3-2.4,1.6c-2.7,0.8-5.2-0.9-6.1-3.5c-0.6-1.7-1-3.5-1.3-5.2
	c-0.4-3.1-0.3-6.3,0.3-9.5c0.3-1.4,1.3-2.5,2.5-3.1c-0.7-1.1-1-2.2-1.1-3.3c-0.1-1.2-0.1-2.5-0.1-3.8c0-1.9-0.3-3.8-0.8-5.7
	c-0.2,0.1-0.3,0.2-0.4,0.2c-1.2,0.8-2.4,1.5-3.6,2.2c-1.5,0.8-2.9,1.6-4.4,2.4c-0.5,0.3-1,0.5-1.5,0.7c-0.2,0.1-0.5,0.2-0.7,0.3
	c-1.7,0.8-3.5,1.5-5.4,1.6c-0.7,0-1.4,0-2.1-0.1c0,0.2,0.1,0.4,0.1,0.8c0.2,1.9-0.6,3.2-1.8,4c0,0.5,0,1-0.2,1.6
	c-0.6,2.1-0.5,4.1,0.1,6c0.2,0.8,0.6,1.5,1,2.3c0.9,1.5,0.9,3,0.4,4.2c-0.4,1-1.2,1.8-2,2.4c0,0,0,0-0.1,0c-0.9,0.6-2,0.9-3.1,0.8
	c-1.4-0.1-2.8-0.8-3.8-2.4c-1.9-3.3-2.9-7-2.9-10.7c0-1.8,0.2-3.6,0.7-5.4c0.3-1.2,0.9-2,1.6-2.6c0-0.1,0-0.2-0.1-0.4
	c0-0.1,0-0.3,0-0.4c-0.2-2.3,0.1-4.7,1.2-6.6c-1.5-0.7-2.6-2.1-2.5-4.3c0.1-2.8,0.4-5.7,0.8-8.5c0.1-0.5,0.2-1,0.3-1.6
	c0.4-2.6,1-5.1,1.7-7.6c0.1-0.2,0.1-0.4,0.2-0.6v0c2.2-5.3,11.1-2.7,9.4,3.3c-0.1,0.5-0.2,0.9-0.4,1.4c0,0,0,0.1,0,0.1
	c-1.2,4.4-1.9,8.9-2.1,13.5c0,0.2,0,0.3,0,0.5c0.5,0,0.9,0.1,1.5,0.1c2.5,0,4.5-1.2,6.7-2.4c0.2-0.1,0.4-0.2,0.6-0.4
	c3.3-1.9,6.8-5.2,10.5-6c-0.5-1.9-0.8-3.8-0.9-5.7c-0.1-1.4-0.1-2.8,0-4.3c0.2-2.7,0.8-5.4,1.7-7.9c0.1-0.4,0.3-0.8,0.5-1.1
	c2.9-4.6,11.2-1.9,9.1,3.7c-0.5,1.3-0.8,2.5-1.1,3.8c-0.2,1-0.3,2.1-0.3,3.1c-0.1,1.9,0.1,3.8,0.6,5.8c0,0.2,0.1,0.4,0.1,0.6
	c0.7,2.5-0.5,4.5-2.3,5.5c0.6,0.9,1,1.9,1.4,2.9c0.9,2.2,1.4,4.5,1.7,6.8c0.2,1.2,0.5,2.7,0.3,3.8c-0.1,0.5-0.1,0.8-0.1,1l0.2,0
	c1.8-0.3,3.6-1.1,5.5-1.1c1.1,0,2.2,0.2,3.3,0.4c0.3,0.1,0.7,0.1,1,0.2c0.1,0,0.2,0,0.3,0.1c0.6,0.2,1.1,0.3,1.7,0.5
	c0.3,0.1,0.7,0.2,1.1,0.3c-0.3-1.3-0.5-2.7-0.7-3.5c-0.6-3.2-0.1-6.6,1.8-9.1c-0.2-0.5-0.3-1.1-0.3-1.7c0.2-2.9,0.8-5.7,1.9-8.2
	c0.6-1.5,1.4-2.9,2.4-4.3c0.8-1.2,1.8-2.3,2.8-3.4c1.2-1.2,2.7-1.6,4-1.4h0c3.1,0.5,5.7,4.1,4,7.2v0c-0.2,0.4-0.5,0.8-0.9,1.1
	c0,0,0,0.1,0,0.1c-0.2,0.2-0.4,0.4-0.6,0.6c-0.2,0.2-0.4,0.5-0.6,0.7c-1.1,1.4-2,2.9-2.5,4.6c-0.3,0.9-0.5,1.9-0.5,2.9
	c0,0.5-0.1,0.9-0.3,1.4c1.2,1.7,1.4,4.1-0.8,5.8c-1.6,1.2,0.3,5.3,1.2,7.8c0.2,0.4,0.3,0.8,0.4,1.1c0.2,0.9,0.3,1.8,0.2,2.7
	c0.1,0.3,0.2,0.5,0.3,0.8c0.2,0.9,0.5,1.8,0.8,2.7c0.2,0.5,0.4,1,0.6,1.4c0.3,0.6,0.6,1.2,1,1.9c0.1,0.1,0.1,0.2,0.2,0.3
	c0.5,0.6,0.9,0.9,0.1,0.5C522.9,298.3,524.5,300.3,524,302.9z"/>
<path fill="#2E2200" d="M534.9,280.3c-1.5-2.1-3.5-4.6-5.8-7.5l3.2-0.2C532.3,272.6,549.2,260.7,534.9,280.3z"/>
<path fill="#FFD017" d="M534.9,280.3c-0.5,0.7-1,1.4-1.6,2.2c-0.2,0.2-0.3,0.4-0.5,0.6c-0.9,1.2-2,2.5-3.1,4v0
	c-0.2,0.3-0.4,0.5-0.6,0.8c-0.5,0.7-1.1,1.4-1.7,2.2c-1.8,2.3-3.7,4.2-5.7,5.9c-0.3,0.3-0.6,0.5-1,0.8c-2.2,1.8-4.5,3.2-6.8,4.4
	c-0.6,0.3-1.2,0.6-1.8,0.8c-5,2.2-10.2,3.1-15.4,3.2c-1.5,0-3,0-4.5-0.1c-2.7-0.2-5.3-0.5-8-1c-0.9-0.1-1.7-0.3-2.6-0.5
	c-5-1-9.9-2.5-14.5-4c-1.5-0.5-3.1-1-4.5-1.5c-1.7-0.6-3.4-1.1-5-1.6c-1.9-0.6-3.8-1.2-5.5-1.7c-2.8-0.8-5.3-1.3-7.4-1.5
	c-0.8-0.1-1.6-0.1-2.4,0c-10,0.9-17.6-4.4-22.1-8.5c-2.6-2.3-4.2-4.2-4.7-4.3l4.4-0.3l-4.4-0.3c0.9-0.2,5.6-6.5,13.4-10.3
	c3.8-1.8,8.3-3,13.5-2.6c0.7,0.1,1.5,0.1,2.3,0c2.7-0.2,5.9-1,9.6-2.1c1.5-0.5,3-0.9,4.6-1.5c2-0.7,4.2-1.4,6.4-2.1
	c1.1-0.4,2.2-0.7,3.3-1.1c4.1-1.3,8.5-2.6,12.9-3.5c1.9-0.4,3.8-0.7,5.7-1c1.5-0.2,3.1-0.4,4.6-0.5c2.4-0.2,4.7-0.2,7.1,0
	c4.3,0.3,8.5,1.2,12.6,2.9c0.5,0.2,1,0.4,1.5,0.7c2.2,1,4.4,2.3,6.6,3.9c0.2,0.1,0.4,0.3,0.6,0.4c0.5,0.4,1,0.8,1.5,1.3
	c2,1.7,3.9,3.6,5.7,5.9c0.6,0.8,1.2,1.5,1.8,2.2c0.2,0.2,0.3,0.4,0.5,0.6v0c0.3,0.4,0.6,0.7,0.9,1.1c0.5,0.6,0.9,1.2,1.4,1.8
	c0.3,0.4,0.6,0.8,0.9,1.2C533.5,278.5,534.2,279.5,534.9,280.3z"/>
<path fill="#2E2200" d="M532.3,288.1l-3.3-0.2c2.4-2.9,4.3-5.4,5.8-7.6C549.2,300,532.3,288.1,532.3,288.1z"/>
<path fill="#831C17" d="M445.9,280.7c0,0.3-0.1,0.6-0.1,0.9c-0.3,3.2-0.7,6.9-1,10.2c-0.1,0.6-0.1,1.1-0.2,1.7c-0.4,3.2-0.7,5.8-1,7
	c-1,4.5-4.6,2.3-4.6,2.3s-16.8-10.5-28.1-16.5c-3.6-1.9-4.9-3.8-5-5.4c0-0.2,0-0.3,0-0.5c0-0.3,0-0.5,0.1-0.8
	c0.2-0.9,0.8-1.7,1.9-2.7c0.7-0.6,1.7-1.3,2.9-1.9c11.3-6,28.1-16.5,28.1-16.5s3.6-2.2,4.6,2.3c0.3,1.1,0.6,3.5,0.9,6.4
	c0.1,0.7,0.2,1.5,0.2,2.3c0.1,0.9,0.2,1.9,0.3,2.8C445.4,275.2,445.7,278.1,445.9,280.7z"/>
<path fill="#831C17" d="M472,281.3c0,1-0.1,2-0.3,3c-0.7,5.5-2.2,10.8-4.7,15.5c-0.9,1.8-2,3.5-3.1,5c-0.4,0.6-0.8,1.1-1.3,1.6
	c-0.2,0.3-0.5,0.5-0.8,0.7c0,0,0,0-0.1,0c-1,0.8-2.1,1-3.1,0.8c-3.4-0.5-6.1-5.2-3.2-8.7c0.7-0.8,1.4-1.8,2-2.7
	c2.3-3.8,3.8-8.4,4.3-13.2c0.6-5.5,0.1-11.2-1.6-16.2c-0.4-1.2-0.9-2.4-1.5-3.5c-0.6-1.1-1.2-2.2-1.9-3.2c-0.9-1.2-1.1-2.5-0.8-3.6
	v0c0.9-3.5,6.6-5.4,9.4-1.5c1.1,1.6,2.1,3.3,2.9,5.1c0.6,1.4,1.2,2.8,1.6,4.2c0,0.1,0.1,0.2,0.1,0.2c0,0.1,0.1,0.2,0.1,0.3
	c0,0,0,0,0,0c0,0.1,0.1,0.2,0.1,0.3c0.7,2.4,1.2,4.9,1.5,7.4C472.2,275.8,472.2,278.6,472,281.3z"/>
<path fill="#831C17" d="M503.8,278.6c-0.1,1.9-0.2,3.9-0.4,5.9c0,0,0,0.1,0,0.1c-0.3,3.2-0.9,6.5-1.8,9.6c-1.1,3.9-2.7,7.6-4.9,10.9
	c-1.4,2.1-3.1,4-5.2,5.6c-0.3,0.2-0.6,0.5-0.9,0.7c-4.7,3.4-9.2-3.2-6.4-7.3c0.3-0.5,0.8-0.9,1.3-1.3c4.4-3.1,6.5-9.5,7.5-15.5
	c0.1-0.8,0.2-1.6,0.3-2.3c0.3-2.3,0.4-4.5,0.5-6.3c0.1-4.4-0.3-9.6-1.9-14.2c-0.5-1.4-1.1-2.8-1.8-4.1c-0.9-1.6-1.9-3-3.1-4.3
	c-0.5-0.5-1.1-1.1-1.8-1.5c-2.3-1.7-2.6-4.4-1.7-6.5c1.1-2.6,3.9-4.2,6.7-2.1c3.6,2.6,6.3,6,8.4,9.7c0.7,1.2,1.2,2.4,1.8,3.7
	c0,0,0,0,0,0.1c0.1,0.2,0.1,0.4,0.2,0.5c0.1,0.2,0.2,0.5,0.3,0.7c0,0,0,0,0,0.1C503.2,266.3,504,272.6,503.8,278.6z"/>
<path fill="#551C17" d="M548.5,245c0,0.5-0.5,3-1.3,6.5c-1.8,7.9-5.1,20.9-6.8,27.4v0c-0.6,2.4-1,3.9-1,3.9l-2.7,0.1l-2.8,0.1
	l-1.1,0.1l-2.7,0.1l-4.7,0.2l-1.4,0.1l-0.6-4.7v0l-1.8-14.1l-0.3-2l-0.1-0.6c0,0,0,0,0-0.1c0.1-0.1,0.4-0.5,0.9-1.1v0
	c0.5-0.6,1.1-1.4,1.9-2.3c5.2-6.4,16-18.9,20.5-17.3C550.6,243.5,548.3,243,548.5,245z"/>
<path fill="#551C17" d="M544.6,316.4c-4.2,1.5-13.9-9.2-19.3-15.9c-1.8-2.2-3.1-3.9-3.7-4.6c-0.2-0.2-0.3-0.4-0.3-0.4l1.5-11.7
	l0.6-5l0.6-4.7l5.7,0.3l0.7,0l8.1,0.4l0.9,0c0,0,0.4,1.5,1,3.9c0.9,3.4,2.2,8.5,3.5,13.8c2.3,9.3,4.7,19.1,4.6,20.1
	C548.3,314.8,550.6,314.3,544.6,316.4z"/>
<path fill="#831C17" d="M530.1,283.3c-0.1,1.3-0.2,2.6-0.4,3.8v0c0,0.3-0.1,0.5-0.1,0.8c-0.8,4.3-2.2,8.6-4.3,12.6
	c-0.4,0.8-0.8,1.6-1.3,2.3c-0.3,0.5-0.6,1-0.9,1.5c-1.3,2-3.6,2.8-5.8,2c-1-0.3-1.9-0.9-2.6-1.7c-0.5-0.6-1.4-2.4-1.1-3.2
	c0-0.1,0.1-0.2,0.2-0.3c0.3-0.3,0.8-0.5,0.9-0.7c0.6-0.7,1.2-1.4,1.7-2.2c0.9-1.6,1.7-3.2,2.4-5c0.3-0.9,0.6-1.9,0.9-2.8
	c0.6-2.5,0.5-5.1,0.4-7.6c0-0.2,0-0.4,0-0.7c-0.1-2.3,0-4.6-0.4-6.9c-0.4-2.5-1.1-4.9-2.1-7.2c-0.4-0.9-0.8-1.8-1.3-2.7
	c-0.8-1.5-1.7-3-2.6-4.4c-0.4-0.6-0.7-1.2-0.8-1.8c-0.6-3,2.3-5.4,5.3-5.4h0c1.5,0,3,0.7,4.1,2.2c0.6,0.9,1.2,1.8,1.7,2.7
	c1.2,2,2.2,4.1,3.1,6.2c1,2.6,1.8,5.2,2.3,7.9c0,0.2,0.1,0.4,0.1,0.6v0c0.1,0.3,0.1,0.7,0.2,1.1c0.2,1.7,0.4,3.4,0.4,5.1
	C530.2,280.8,530.2,282,530.1,283.3z"/>
<path opacity="0.5" fill="#2E2200" d="M544.6,316.4c-4.2,1.5-13.9-9.2-19.3-15.9c-0.4,0.8-0.8,1.6-1.3,2.3c0,0.1,0,0.3-0.1,0.4
	c-0.7,2.4-3.7,4.5-6.2,3.5c-2.4-1-4.3-2.8-5.7-4.8c-5,2.2-10.2,3.1-15.4,3.2c-1.4,2.1-3.1,4-5.2,5.6c-0.6,0.8-1.5,1.3-2.4,1.6
	c-2.7,0.8-5.2-0.9-6.1-3.5c-0.6-1.7-1-3.5-1.3-5.2c-5-1-9.9-2.5-14.5-4c-0.9,1.8-2,3.5-3.1,5c-0.4,1-1.2,1.8-2,2.4c0,0,0,0-0.1,0
	c-1,0.8-2.1,1-3.1,0.8c-1.4-0.1-2.8-0.8-3.8-2.4c-1.9-3.3-2.9-7-2.9-10.7c-2.8-0.8-5.3-1.3-7.4-1.5c-0.4,3.2-0.7,5.8-1,7
	c-1,4.5-4.6,2.3-4.6,2.3s-16.8-10.5-28.1-16.5c-3.6-1.9-4.9-3.8-5-5.4c0-0.2,0-0.3,0-0.5c0-0.3,0-0.5,0.1-0.8h0.1
	c4.8,2,9.3,4.2,14,5.4c3.9,1,7.8,1.3,12.3,0.3c4.1-0.9,9.5-2,12.7-4.6c0.2,0.3,0.5,0.6,0.7,0.9c1.9,2.2,5.3,4.1,8.5,4.6
	c3.1,0.5,6-0.3,7.3-3.3c0.1,0.2,0.2,0.4,0.3,0.6c1.1,1.6,4.4,2.1,6.1,1.7c2.2-0.5,3-2,4-3.8c0.1-0.2,0.2-0.4,0.3-0.6
	c0.3,0.9,0.9,1.7,1.7,2.5c2.1,2.2,5.7,3.9,9.4,4.6c3.6,0.7,7.3,0.4,9.5-1.4c0,0.3,0.1,0.7,0.2,0.9c1.3,4.9,7.3-0.6,9.1-3
	c0.1-0.2,0.2-0.3,0.3-0.5c0.2,0.2,0.4,0.5,0.6,0.7c0.1,0.1,0.2,0.2,0.3,0.2c2.4,2,7.3,3.8,10.1,3.4c1.6-0.2,2.7-1,3.7-2.1
	c1-1.2,1.9-2.6,2.9-3.8c0.2-0.2,0.4-0.5,0.6-0.7c0.4,1.5,1.2,2.2,2.1,2.5c0.8,0.2,1.7,0,2.6-0.4c1.9-0.9,3.8-2.7,4.5-4.1l0.2,0.2
	c1,1,2,1.9,3.1,2.9c0.2,0.2,0.4,0.4,0.6,0.6c2,1.8,4.2,3.6,6.2,5.6c1.4,1.3,2.7,2.6,3.8,4c2.3,9.3,4.7,19.1,4.6,20.1
	C548.3,314.8,550.6,314.3,544.6,316.4z"/>
<path opacity="0.5" fill="#2E2200" d="M548.5,245c0,0.5-0.5,3-1.3,6.5c-2.1,0-4.1,0.7-6,1.7c-3.1,1.5-6,3.8-8.5,6.1
	c-1.5,1.4-2.9,2.9-4.3,4.4c-0.5,0.5-0.8,0.9-0.9,1.6c-0.1-0.1-0.2-0.2-0.3-0.3c-1-1.1-2.5-1.8-4-2c-0.5-0.1-1.2-0.1-1.8-0.1
	c-0.2,0-0.5,0-0.7,0.1c-0.4,0.1-0.8,0.1-1.2,0.3c-1.4,0.4-2.7,1.2-3.1,2.3c0,0.1-0.1,0.2-0.1,0.3c-0.2-1-3.2-1.8-4-2
	c-1.1-0.3-2.1-0.6-3.2-0.9c-0.7-0.1-1.4-0.2-2.1-0.3c-0.9,0-1.8,0.2-2.7,0.2c-0.9,0-1.7-0.3-2.6-0.3c0,0-0.3-0.9-0.6-1.7
	c0,0,0,0,0-0.1c-0.1-0.3-0.2-0.5-0.3-0.7c-0.1-0.2-0.2-0.4-0.2-0.5c0,0,0-0.1,0-0.1c-1.3-2.2-2.9-2.8-5.3-2.3
	c-1.4,0.2-2.8,0.8-3.8,1.8c-0.5,0.5-0.9,1-1.1,1.7c0,0,0,0,0,0c-1.2-1.1-3.8-0.1-5.1,0.2c-1.2,0.3-2.5,0.5-3.7,0.8
	c-0.7,0.2-1.5,0.3-2.2,0.5c-1.6,0.4-3.2,0.9-4.7,1.5c-1.3,0.6-3,1.4-4.1,2.3c0,0,0,0-0.1,0.1c0-0.1,0-0.2,0-0.3c0,0,0,0,0,0
	c0-0.1,0-0.2-0.1-0.3c0-0.1,0-0.2-0.1-0.2c-0.2-0.4-0.4-0.9-0.5-1.2c-0.8-2-2.7-2.4-4.5-1.9c-0.6,0.1-1.1,0.4-1.7,0.7
	c-1.8,1-2.9,2.9-3.2,4.9c-0.1,0.3-0.1,0.6-0.1,1c-1.2-1.6-3.7-1.9-6.3-1.4c-3.7,0.7-7.7,3.1-8.8,5.6c-0.1,0.3-0.2,0.6-0.3,0.9
	c-2-1.9-1.3-2.5-4-3.6c-3.4-1.4-7.2-0.4-10.6,0c-0.5,0-0.9,0.1-1.4,0.2c-7.8,1.1-13.9,4.2-20.8,7.2c0.7-0.6,1.7-1.3,2.9-1.9
	c11.3-6,28.1-16.5,28.1-16.5s3.6-2.2,4.6,2.3c0.3,1.1,0.6,3.5,0.9,6.4c2.7-0.2,5.9-1,9.6-2.1c0.4-2.6,1-5.1,1.7-7.6
	c0.1-0.2,0.1-0.4,0.2-0.6v0c0.9-3.5,6.6-5.4,9.4-1.5c1.1,1.6,2.1,3.3,2.9,5.1c4.1-1.3,8.5-2.6,12.9-3.5c0.2-2.7,0.8-5.4,1.7-7.9
	c0.1-0.4,0.3-0.8,0.5-1.1c1.1-2.6,3.9-4.2,6.7-2.1c3.6,2.6,6.3,6,8.4,9.7c4.3,0.3,8.5,1.2,12.6,2.9c0.8-1.2,1.8-2.3,2.8-3.4
	c1.2-1.2,2.7-1.6,4-1.4h0c1.5,0,3,0.7,4.1,2.2c0.6,0.9,1.2,1.8,1.7,2.7c5.2-6.4,16-18.9,20.5-17.3C550.6,243.5,548.3,243,548.5,245z
	"/>
</svg>
