<?xml version="1.0" encoding="utf-8"?>
<!-- Generator: Adobe Illustrator 19.0.1, SVG Export Plug-In . SVG Version: 6.00 Build 0)  -->
<!DOCTYPE svg PUBLIC "-//W3C//DTD SVG 1.1//EN" "http://www.w3.org/Graphics/SVG/1.1/DTD/svg11.dtd">
<svg version="1.1" id="Layer_1" xmlns="http://www.w3.org/2000/svg" xmlns:xlink="http://www.w3.org/1999/xlink" x="0px" y="0px"
	 viewBox="0 0 960 560" enable-background="new 0 0 960 560" xml:space="preserve">
<g>
	<path opacity="0.5" fill="#4D6A99" d="M511.3,239.5c5.6,5.4,10,13.2,11.9,20.7c0.6,2.2,0.9,4.7,0.9,7.4c0,1.8-0.1,3.6-0.5,5.3
		c0.9,0.7,1.8,1.5,2.5,2.3c0.6,0.6,1.1,1.2,1.5,1.8c3.9,5.4,8.1,15.3,4.9,21.8c0,0.1-0.1,0.2-0.1,0.2c-1,1.8-2.3,2.9-3.8,3.5
		c-0.2,1.6-0.4,3.1-0.8,4.6l0,0c-0.3,1.2-0.6,2.4-1,3.6c-2,5.9-6.5,11.6-13.3,11.5c-2.4,0-4.2-0.7-5.7-1.8c-1.1-0.8-2-1.8-2.8-3
		c-1.2,2.2-2.7,4.2-4.6,5.8c-2.5,2.2-5.7,3.7-9.3,4c-4.9,0.4-9.8-2.4-11.2-7.2c-0.1-0.2-0.1-0.4-0.2-0.7c-4.4,0.2-8.8-1.1-11.9-4.5
		c-1.4-1.4-2.3-3.2-2.9-5c-0.6-1.7-0.8-3.5-0.7-5.1c-0.8-0.1-1.6-0.2-2.4-0.3c-6.1-0.9-12.2-2.3-18.1-4.2c-6.3-2-20.6-5.6-18.6-14.8
		c1.9-8.9,17.3-10.8,24.5-11.3c2.8-0.2,5.8-0.4,8.7-0.2c0.8-3.9,3.6-7.2,9.1-8c3-0.5,5.9-0.3,8.8,0.3l0,0c0.9,0.2,1.7,0.4,2.6,0.7
		c-0.1-0.8-0.2-1.7-0.3-2.5c-0.1-0.9-0.1-1.8-0.1-2.7c0-5.1,0.4-11.4,5.7-14c2.2-1.1,4.3-1.3,6.2-1c0.8,0.1,1.5,0.3,2.3,0.7
		c0.8-2.5,1.8-4.9,3.1-7.2c0.1-0.1,0.1-0.2,0.2-0.3c0,0,0,0,0-0.1C500,233.4,506.3,234.7,511.3,239.5z"/>
	<path fill="#4D6A99" d="M478,290.1c4-2,6.3,3.1,9.2,4.9c-2.7-1.2-6.4-2.5-8,1c-1.9,4.1,3.3,5.8,5.8,7.7c-4.9-2.5-13.1-0.9-17.3,2.5
		c-0.9,0.8-1.9,2.2-2.7,3.7c-0.6-1.7-0.8-3.5-0.7-5.1c-0.8-0.1-1.6-0.2-2.4-0.3c3.4-5.5,10.6-9.3,16.3-5.6
		C476.1,297.5,475.4,291.4,478,290.1z"/>
	<path fill="#4D6A99" d="M490.5,314.5c-0.2,0.5-0.3,1-0.6,1.4C489.8,315.3,490.1,314.8,490.5,314.5z"/>
	<path fill="#4D6A99" d="M503.4,308.6c2.3,2.3,3.8,5.6,4.3,8.7c0.2,1.2,0.2,2.3,0.1,3.1c-1.1-0.8-2-1.8-2.8-3
		c-1.2,2.2-2.7,4.2-4.6,5.8c0.6-1.8,0.5-3.8-0.6-5.9c-1.5-2.9-4.1-4.8-7.3-3.9c-0.7,0.2-1.5,0.5-2.1,0.9c1-2.8,1.4-5.9,4.4-7.7
		C497.9,305,501.2,306.2,503.4,308.6z"/>
	<path fill="#4D6A99" d="M525.8,293.9c2.7,0.8,5.6,2.3,6.8,4.9c0,0.1-0.1,0.2-0.1,0.2c-1,1.8-2.3,2.9-3.8,3.5
		c-0.2,1.6-0.4,3.1-0.8,4.6c-0.9-1.9-2.2-3.6-3.1-4.5c-3.3-3.7-6.9-6.3-11.1-2.5c1.6-2.2,2.2-3.7,4.7-5.1
		C520.9,293.6,522.8,293,525.8,293.9z"/>
	<path fill="#4D6A99" d="M524.2,267.6c0,1.8-0.1,3.6-0.5,5.3c0.9,0.7,1.8,1.5,2.5,2.3c-1.5-0.3-3.1-0.2-4.1,0.1
		c-3.6,1-4.1,4.2-4.7,7.4c-1.9-4-1.8-12.1,2.2-14.8C520.7,267,522.5,267,524.2,267.6z"/>
	<path fill="#4D6A99" d="M505.7,269.4c-0.5-0.4-0.9-0.8-1.4-1.3C504.9,268.4,505.3,268.8,505.7,269.4z"/>
	<path fill="#4D6A99" d="M495.8,240.3c0.1-0.1,0.1-0.2,0.2-0.3c-0.4,1-0.8,2-1.2,2.9c-0.4,1-1,2.1-1.1,3.2c-0.3,3.7,2,8.4,3.7,11.5
		c1.9,3.4,4,7.6,6.9,10.5c-2.5-1.3-5.9,1-6.9,3.4c-1.5,3.7-0.4,8.8,1.9,11.8c-3.2-4.2-4.7-3.1-6.2,1.6c-2.2-2.2-3-7,1.1-7.2
		c-3.1-2-3.5-7.2-0.5-9.3c2.2-1.5,4.5-0.8,6.8-1.4c-4.9-0.8-8.6-12.1-9.7-15.9c-0.3-1.3-0.6-2.8-0.5-4.3c0.8,0.1,1.5,0.3,2.3,0.7
		C493.5,245,494.5,242.6,495.8,240.3z"/>
	<path fill="#4D6A99" d="M478.7,264.5c6.3,3.6,8.9,17,0.4,18.2c-4,0.5-11.6-3.9-11.8-8.6c-0.1-3.9,5.1-5.3,6.8-1.7
		c-2.5-2.7-3.3,4.2,1.7,2.1c3.1-1.3,2.5-5.6,0.6-8.2c0.9,0.2,1.7,0.4,2.6,0.7C478.8,266.2,478.7,265.4,478.7,264.5z"/>
	<path fill="#4D6A99" d="M450.1,292c-2.6,2.9-12.8-0.4-14.4-3.6c-2.5-5,5.8-7.6,9.1-7.8c2.8-0.2,12.2,0.3,12.2,4.6
		c0,2.8-3.6,1.9-5.3,0.9c1.4,0.9,3,0.2,3.9-1c-2.5-3.3-8.2-1.9-5.4,2.6c2.5,4,11.6,3.6,10.7-2.3c-0.9-6.5-14.2-6.6-18.8-5.3
		c-4.2,1.1-11.2,3.6-8.1,8.9c3.1,5.3,10.6,7.7,15.6,3.8L450.1,292z"/>
</g>
</svg>
