<?xml version="1.0" encoding="utf-8"?>
<!-- Generator: Adobe Illustrator 19.0.1, SVG Export Plug-In . SVG Version: 6.00 Build 0)  -->
<!DOCTYPE svg PUBLIC "-//W3C//DTD SVG 1.1//EN" "http://www.w3.org/Graphics/SVG/1.1/DTD/svg11.dtd">
<svg version="1.1" id="Layer_1" xmlns="http://www.w3.org/2000/svg" xmlns:xlink="http://www.w3.org/1999/xlink" x="0px" y="0px"
	 viewBox="0 0 960 560" enable-background="new 0 0 960 560" xml:space="preserve">
<rect x="407.4" y="203.4" fill="#1E2929" width="154" height="154"/>
<path fill="none" d="M400.1,298c-0.1,0-0.1,0-0.2,0"/>
<path fill="#153535" d="M557.9,212.1v60.5c0,3.3-2.7,5.9-5.9,5.9h-59.5c-1.9,0-3.5-0.9-4.6-2.2c-0.8-1-1.3-2.3-1.3-3.7v-60.5
	c0-3.3,2.7-5.9,5.9-5.9H552c0.8,0,1.6,0.2,2.3,0.5C556.4,207.6,557.9,209.7,557.9,212.1z"/>
<path fill="#1B2D32" d="M557.9,212.1v60.5c0,3.3-2.7,5.9-5.9,5.9h-59.5c-1.9,0-3.5-0.9-4.6-2.2c5.3,0.9,10.7,1.1,16,1
	c5.2-0.1,10.5-1.5,15.7-0.9c2.6,0.3,5.2,0.4,7.8,0.5c4.7,0.2,9.8,0.2,14.6-0.2c2.1-0.2,4.2-0.5,6.2-0.7c1.6-0.1,3.2-0.3,4.6-1.2
	c2.2-1.5,2.3-4.1,2.5-6.5c0.3-4.3,0.3-8.7,0.5-13c0.1-2.6,0.7-5.1,1-7.6c0.6-4.4,0.2-8.7,0.1-13.2c-0.2-7.7-0.2-14.9-1.5-22.5
	c-0.3-1.8-0.8-3.6-1.2-5.4C556.4,207.6,557.9,209.7,557.9,212.1z"/>
<path fill="#235953" d="M557.9,212.1v2.1c-1-1-2-1.9-3.2-2.6c-1.2-0.7-2.5-1.3-3.8-1.8c-1.5-0.3-3.1-0.7-4.6-0.9
	c-13.6-2.5-28.4-3-42.2-0.6c-1.6,0.3-3.1,0.7-4.6,1.1c-7.2,2.4-12.3,7.5-12.1,18.2c-0.1,1.9-0.2,3.7-0.3,5.5
	c-0.1,1.8-0.1,3.6-0.1,5.2c0,1.6,0,3.2,0.1,4.7c0.4,7.9,1.6,15.9,2.9,23.5c0.5,1.6,1.1,3.2,1.7,4.8c1,2.4,2.3,4.7,3.8,7.1h-3.1
	c-3.3,0-5.9-2.7-5.9-5.9v-60.5c0-3.3,2.7-5.9,5.9-5.9H552C555.2,206.2,557.9,208.9,557.9,212.1z"/>
<g>
	<path fill="#153535" d="M550.5,212.2c0.1,0.1,0.3,0.2,0.4,0.3c2,1.6,3.1,4,3.1,6.4c0,1.7-0.5,3.5-1.5,5c-2.1,2.9-5.7,4.1-8.9,3.2
		c-0.9-0.2-1.9-0.7-2.7-1.3s-1.5-1.3-2.1-2.1c-1.9-2.8-1.9-6.6,0.1-9.5C541.5,210.4,546.7,209.6,550.5,212.2z"/>
	<path fill="#1B2D32" d="M550.5,212.2c0.1,0.1,0.3,0.2,0.4,0.3c2,1.6,3.1,4,3.1,6.4c-0.6-0.6-1.2-1.3-1.8-1.9
		c-2.8-2.8-6.1-4.8-9.5-0.9c-2.6,2.9-2.7,6.2-1.1,8.8c0.5,0.8,1.1,1.6,1.9,2.2c-0.9-0.2-1.9-0.7-2.7-1.3s-1.5-1.3-2.1-2.1
		c-1.9-2.8-1.9-6.6,0.1-9.5C541.5,210.4,546.7,209.6,550.5,212.2z"/>
	<path fill="#235953" d="M552.2,217c0.1-1.8-0.8-3-1.3-4.5c2,1.6,3.1,4,3.1,6.4c0,1.7-0.5,3.5-1.5,5c-2.1,2.9-5.7,4.1-8.9,3.2
		c-0.9-0.2-1.9-0.7-2.7-1.3s-1.5-1.3-2.1-2.1c0.5,0.3,0.9,0.5,1.4,0.7c0.5,0.2,1,0.4,1.5,0.5c2.3,0.6,4.9,0.4,6.8-1
		c1.8-1.4,3.2-3.8,3.7-6C552.1,217.5,552.2,217.3,552.2,217z"/>
</g>
<g>
	<path fill="#153535" d="M549.8,260.1c0.1,0.1,0.3,0.2,0.4,0.3c2,1.6,3.1,4,3.1,6.4c0,1.7-0.5,3.5-1.5,5c-2.1,2.9-5.7,4.1-8.9,3.2
		c-0.9-0.2-1.9-0.7-2.7-1.3c-0.8-0.6-1.5-1.3-2.1-2.1c-1.9-2.8-1.9-6.6,0.1-9.5C540.8,258.3,546,257.4,549.8,260.1z"/>
	<path fill="#1B2D32" d="M549.8,260.1c0.1,0.1,0.3,0.2,0.4,0.3c2,1.6,3.1,4,3.1,6.4c-0.6-0.6-1.2-1.3-1.8-1.9
		c-2.8-2.8-6.1-4.8-9.5-0.9c-2.6,2.9-2.7,6.2-1.1,8.8c0.5,0.8,1.1,1.6,1.9,2.2c-0.9-0.2-1.9-0.7-2.7-1.3c-0.8-0.6-1.5-1.3-2.1-2.1
		c-1.9-2.8-1.9-6.6,0.1-9.5C540.8,258.3,546,257.4,549.8,260.1z"/>
	<path fill="#235953" d="M551.5,264.8c0.1-1.8-0.8-3-1.3-4.5c2,1.6,3.1,4,3.1,6.4c0,1.7-0.5,3.5-1.5,5c-2.1,2.9-5.7,4.1-8.9,3.2
		c-0.9-0.2-1.9-0.7-2.7-1.3c-0.8-0.6-1.5-1.3-2.1-2.1c0.5,0.3,0.9,0.5,1.4,0.7c0.5,0.2,1,0.4,1.5,0.5c2.3,0.6,4.9,0.4,6.8-1
		c1.8-1.4,3.2-3.8,3.7-6C551.4,265.4,551.5,265.1,551.5,264.8z"/>
</g>
<g>
	<path fill="#153535" d="M502.9,211.9c0.1,0.1,0.3,0.2,0.4,0.3c2,1.6,3.1,4,3.1,6.4c0,1.7-0.5,3.5-1.5,5c-2.1,2.9-5.7,4.1-8.9,3.2
		c-0.9-0.2-1.9-0.7-2.7-1.3c-0.8-0.6-1.5-1.3-2.1-2.1c-1.9-2.8-1.9-6.6,0.1-9.5C494,210.1,499.2,209.2,502.9,211.9z"/>
	<path fill="#1B2D32" d="M502.9,211.9c0.1,0.1,0.3,0.2,0.4,0.3c2,1.6,3.1,4,3.1,6.4c-0.6-0.6-1.2-1.3-1.8-1.9
		c-2.8-2.8-6.1-4.8-9.5-0.9c-2.6,2.9-2.7,6.2-1.1,8.8c0.5,0.8,1.1,1.6,1.9,2.2c-0.9-0.2-1.9-0.7-2.7-1.3c-0.8-0.6-1.5-1.3-2.1-2.1
		c-1.9-2.8-1.9-6.6,0.1-9.5C494,210.1,499.2,209.2,502.9,211.9z"/>
	<path fill="#235953" d="M504.6,216.7c0.1-1.8-0.8-3-1.3-4.5c2,1.6,3.1,4,3.1,6.4c0,1.7-0.5,3.5-1.5,5c-2.1,2.9-5.7,4.1-8.9,3.2
		c-0.9-0.2-1.9-0.7-2.7-1.3c-0.8-0.6-1.5-1.3-2.1-2.1c0.5,0.3,0.9,0.5,1.4,0.7c0.5,0.2,1,0.4,1.5,0.5c2.3,0.6,4.9,0.4,6.8-1
		c1.8-1.4,3.2-3.8,3.7-6C504.6,217.2,504.6,216.9,504.6,216.7z"/>
</g>
<g>
	<path fill="#153535" d="M502.2,259.7c0.1,0.1,0.3,0.2,0.4,0.3c2,1.6,3.1,4,3.1,6.4c0,1.7-0.5,3.5-1.5,5c-2.1,2.9-5.7,4.1-8.9,3.2
		c-0.9-0.2-1.9-0.7-2.7-1.3s-1.5-1.3-2.1-2.1c-1.9-2.8-1.9-6.6,0.1-9.5C493.3,258,498.5,257.1,502.2,259.7z"/>
	<path fill="#1B2D32" d="M502.2,259.7c0.1,0.1,0.3,0.2,0.4,0.3c2,1.6,3.1,4,3.1,6.4c-0.6-0.6-1.2-1.3-1.8-1.9
		c-2.8-2.8-6.1-4.8-9.5-0.9c-2.6,2.9-2.7,6.2-1.1,8.8c0.5,0.8,1.1,1.6,1.9,2.2c-0.9-0.2-1.9-0.7-2.7-1.3s-1.5-1.3-2.1-2.1
		c-1.9-2.8-1.9-6.6,0.1-9.5C493.3,258,498.5,257.1,502.2,259.7z"/>
	<path fill="#235953" d="M503.9,264.5c0.1-1.8-0.8-3-1.3-4.5c2,1.6,3.1,4,3.1,6.4c0,1.7-0.5,3.5-1.5,5c-2.1,2.9-5.7,4.1-8.9,3.2
		c-0.9-0.2-1.9-0.7-2.7-1.3s-1.5-1.3-2.1-2.1c0.5,0.3,0.9,0.5,1.4,0.7c0.5,0.2,1,0.4,1.5,0.5c2.3,0.6,4.9,0.4,6.8-1
		c1.8-1.4,3.2-3.8,3.7-6C503.9,265.1,503.9,264.8,503.9,264.5z"/>
</g>
<path fill="#153535" d="M558,288.4v60.5c0,3.3-2.7,5.9-5.9,5.9h-59.5c-1.9,0-3.5-0.9-4.6-2.2c-0.8-1-1.3-2.3-1.3-3.7v-60.5
	c0-3.3,2.7-5.9,5.9-5.9h59.5c0.8,0,1.6,0.2,2.3,0.5C556.5,283.9,558,286,558,288.4z"/>
<path fill="#1B2D32" d="M558,288.4v60.5c0,3.3-2.7,5.9-5.9,5.9h-59.5c-1.9,0-3.5-0.9-4.6-2.2c5.3,0.9,10.7,1.1,16,1
	c5.2-0.1,10.5-1.5,15.7-0.9c2.6,0.3,5.2,0.4,7.8,0.5c4.7,0.2,9.8,0.2,14.6-0.2c2.1-0.2,4.2-0.5,6.2-0.7c1.6-0.1,3.2-0.3,4.6-1.2
	c2.2-1.5,2.3-4.1,2.5-6.5c0.3-4.3,0.3-8.7,0.5-13c0.1-2.6,0.7-5.1,1-7.6c0.6-4.4,0.2-8.7,0.1-13.2c-0.2-7.7-0.2-14.9-1.5-22.5
	c-0.3-1.8-0.8-3.6-1.2-5.4C556.5,283.9,558,286,558,288.4z"/>
<path fill="#235953" d="M558,288.4v2.1c-1-1-2-1.9-3.2-2.6c-1.2-0.7-2.5-1.3-3.8-1.8c-1.5-0.3-3.1-0.7-4.6-0.9
	c-13.6-2.5-28.4-3-42.2-0.6c-1.6,0.3-3.1,0.7-4.6,1.1c-7.2,2.4-12.3,7.5-12.1,18.2c-0.1,1.9-0.2,3.7-0.3,5.5
	c-0.1,1.8-0.1,3.6-0.1,5.2c0,1.6,0,3.2,0.1,4.7c0.4,7.9,1.6,15.9,2.9,23.5c0.5,1.6,1.1,3.2,1.7,4.8c1,2.4,2.3,4.7,3.8,7.1h-3.1
	c-3.3,0-5.9-2.7-5.9-5.9v-60.5c0-3.3,2.7-5.9,5.9-5.9h59.5C555.3,282.5,558,285.1,558,288.4z"/>
<g>
	<path fill="#153535" d="M550.5,288.5c0.1,0.1,0.3,0.2,0.4,0.3c2,1.6,3.1,4,3.1,6.4c0,1.7-0.5,3.5-1.5,5c-2.1,2.9-5.7,4.1-8.9,3.2
		c-0.9-0.2-1.9-0.7-2.7-1.3c-0.8-0.6-1.5-1.3-2.1-2.1c-1.9-2.8-1.9-6.6,0.1-9.5C541.6,286.7,546.8,285.8,550.5,288.5z"/>
	<path fill="#1B2D32" d="M550.5,288.5c0.1,0.1,0.3,0.2,0.4,0.3c2,1.6,3.1,4,3.1,6.4c-0.6-0.6-1.2-1.3-1.8-1.9
		c-2.8-2.8-6.1-4.8-9.5-0.9c-2.6,2.9-2.7,6.2-1.1,8.8c0.5,0.8,1.1,1.6,1.9,2.2c-0.9-0.2-1.9-0.7-2.7-1.3c-0.8-0.6-1.5-1.3-2.1-2.1
		c-1.9-2.8-1.9-6.6,0.1-9.5C541.6,286.7,546.8,285.8,550.5,288.5z"/>
	<path fill="#235953" d="M552.2,293.2c0.1-1.8-0.8-3-1.3-4.5c2,1.6,3.1,4,3.1,6.4c0,1.7-0.5,3.5-1.5,5c-2.1,2.9-5.7,4.1-8.9,3.2
		c-0.9-0.2-1.9-0.7-2.7-1.3c-0.8-0.6-1.5-1.3-2.1-2.1c0.5,0.3,0.9,0.5,1.4,0.7c0.5,0.2,1,0.4,1.5,0.5c2.3,0.6,4.9,0.4,6.8-1
		c1.8-1.4,3.2-3.8,3.7-6C552.2,293.8,552.2,293.5,552.2,293.2z"/>
</g>
<g>
	<path fill="#153535" d="M549.8,336.3c0.1,0.1,0.3,0.2,0.4,0.3c2,1.6,3.1,4,3.1,6.4c0,1.7-0.5,3.5-1.5,5c-2.1,2.9-5.7,4.1-8.9,3.2
		c-0.9-0.2-1.9-0.7-2.7-1.3c-0.8-0.6-1.5-1.3-2.1-2.1c-1.9-2.8-1.9-6.6,0.1-9.5C540.9,334.5,546.1,333.6,549.8,336.3z"/>
	<path fill="#1B2D32" d="M549.8,336.3c0.1,0.1,0.3,0.2,0.4,0.3c2,1.6,3.1,4,3.1,6.4c-0.6-0.6-1.2-1.3-1.8-1.9
		c-2.8-2.8-6.1-4.8-9.5-0.9c-2.6,2.9-2.7,6.2-1.1,8.8c0.5,0.8,1.1,1.6,1.9,2.2c-0.9-0.2-1.9-0.7-2.7-1.3c-0.8-0.6-1.5-1.3-2.1-2.1
		c-1.9-2.8-1.9-6.6,0.1-9.5C540.9,334.5,546.1,333.6,549.8,336.3z"/>
	<path fill="#235953" d="M551.5,341.1c0.1-1.8-0.8-3-1.3-4.5c2,1.6,3.1,4,3.1,6.4c0,1.7-0.5,3.5-1.5,5c-2.1,2.9-5.7,4.1-8.9,3.2
		c-0.9-0.2-1.9-0.7-2.7-1.3c-0.8-0.6-1.5-1.3-2.1-2.1c0.5,0.3,0.9,0.5,1.4,0.7c0.5,0.2,1,0.4,1.5,0.5c2.3,0.6,4.9,0.4,6.8-1
		c1.8-1.4,3.2-3.8,3.7-6C551.5,341.6,551.5,341.3,551.5,341.1z"/>
</g>
<g>
	<path fill="#153535" d="M503,288.2c0.1,0.1,0.3,0.2,0.4,0.3c2,1.6,3.1,4,3.1,6.4c0,1.7-0.5,3.5-1.5,5c-2.1,2.9-5.7,4.1-8.9,3.2
		c-0.9-0.2-1.9-0.7-2.7-1.3c-0.8-0.6-1.5-1.3-2.1-2.1c-1.9-2.8-1.9-6.6,0.1-9.5C494,286.4,499.2,285.5,503,288.2z"/>
	<path fill="#1B2D32" d="M503,288.2c0.1,0.1,0.3,0.2,0.4,0.3c2,1.6,3.1,4,3.1,6.4c-0.6-0.6-1.2-1.3-1.8-1.9
		c-2.8-2.8-6.1-4.8-9.5-0.9c-2.6,2.9-2.7,6.2-1.1,8.8c0.5,0.8,1.1,1.6,1.9,2.2c-0.9-0.2-1.9-0.7-2.7-1.3c-0.8-0.6-1.5-1.3-2.1-2.1
		c-1.9-2.8-1.9-6.6,0.1-9.5C494,286.4,499.2,285.5,503,288.2z"/>
	<path fill="#235953" d="M504.7,292.9c0.1-1.8-0.8-3-1.3-4.5c2,1.6,3.1,4,3.1,6.4c0,1.7-0.5,3.5-1.5,5c-2.1,2.9-5.7,4.1-8.9,3.2
		c-0.9-0.2-1.9-0.7-2.7-1.3c-0.8-0.6-1.5-1.3-2.1-2.1c0.5,0.3,0.9,0.5,1.4,0.7c0.5,0.2,1,0.4,1.5,0.5c2.3,0.6,4.9,0.4,6.8-1
		c1.8-1.4,3.2-3.8,3.7-6C504.7,293.5,504.7,293.2,504.7,292.9z"/>
</g>
<g>
	<path fill="#153535" d="M502.3,336c0.1,0.1,0.3,0.2,0.4,0.3c2,1.6,3.1,4,3.1,6.4c0,1.7-0.5,3.5-1.5,5c-2.1,2.9-5.7,4.1-8.9,3.2
		c-0.9-0.2-1.9-0.7-2.7-1.3c-0.8-0.6-1.5-1.3-2.1-2.1c-1.9-2.8-1.9-6.6,0.1-9.5C493.3,334.2,498.5,333.3,502.3,336z"/>
	<path fill="#1B2D32" d="M502.3,336c0.1,0.1,0.3,0.2,0.4,0.3c2,1.6,3.1,4,3.1,6.4c-0.6-0.6-1.2-1.3-1.8-1.9
		c-2.8-2.8-6.1-4.8-9.5-0.9c-2.6,2.9-2.7,6.2-1.1,8.8c0.5,0.8,1.1,1.6,1.9,2.2c-0.9-0.2-1.9-0.7-2.7-1.3c-0.8-0.6-1.5-1.3-2.1-2.1
		c-1.9-2.8-1.9-6.6,0.1-9.5C493.3,334.2,498.5,333.3,502.3,336z"/>
	<path fill="#235953" d="M504,340.8c0.1-1.8-0.8-3-1.3-4.5c2,1.6,3.1,4,3.1,6.4c0,1.7-0.5,3.5-1.5,5c-2.1,2.9-5.7,4.1-8.9,3.2
		c-0.9-0.2-1.9-0.7-2.7-1.3c-0.8-0.6-1.5-1.3-2.1-2.1c0.5,0.3,0.9,0.5,1.4,0.7c0.5,0.2,1,0.4,1.5,0.5c2.3,0.6,4.9,0.4,6.8-1
		c1.8-1.4,3.2-3.8,3.7-6C504,341.3,504,341,504,340.8z"/>
</g>
<path fill="#153535" d="M482.2,212.2v60.5c0,3.3-2.7,5.9-5.9,5.9h-59.5c-1.9,0-3.5-0.9-4.6-2.2c-0.8-1-1.3-2.3-1.3-3.7v-60.5
	c0-3.3,2.7-5.9,5.9-5.9h59.5c0.8,0,1.6,0.2,2.3,0.5C480.7,207.6,482.2,209.7,482.2,212.2z"/>
<path fill="#1B2D32" d="M482.2,212.2v60.5c0,3.3-2.7,5.9-5.9,5.9h-59.5c-1.9,0-3.5-0.9-4.6-2.2c5.3,0.9,10.7,1.1,16,1
	c5.2-0.1,10.5-1.5,15.7-0.9c2.6,0.3,5.2,0.4,7.8,0.5c4.7,0.2,9.8,0.2,14.6-0.2c2.1-0.2,4.2-0.5,6.2-0.7c1.6-0.1,3.2-0.3,4.6-1.2
	c2.2-1.5,2.3-4.1,2.5-6.5c0.3-4.3,0.3-8.7,0.5-13c0.1-2.6,0.7-5.1,1-7.6c0.6-4.4,0.2-8.7,0.1-13.2c-0.2-7.7-0.2-14.9-1.5-22.5
	c-0.3-1.8-0.8-3.6-1.2-5.4C480.7,207.6,482.2,209.7,482.2,212.2z"/>
<path fill="#235953" d="M482.2,212.2v2.1c-1-1-2-1.9-3.2-2.6c-1.2-0.7-2.5-1.3-3.8-1.8c-1.5-0.3-3.1-0.7-4.6-0.9
	c-13.6-2.5-28.4-3-42.2-0.6c-1.6,0.3-3.1,0.7-4.6,1.1c-7.2,2.4-12.3,7.5-12.1,18.2c-0.1,1.9-0.2,3.7-0.3,5.5
	c-0.1,1.8-0.1,3.6-0.1,5.2c0,1.6,0,3.2,0.1,4.7c0.4,7.9,1.6,15.9,2.9,23.5c0.5,1.6,1.1,3.2,1.7,4.8c1,2.4,2.3,4.7,3.8,7.1h-3.1
	c-3.3,0-5.9-2.7-5.9-5.9v-60.5c0-3.3,2.7-5.9,5.9-5.9h59.5C479.5,206.3,482.2,208.9,482.2,212.2z"/>
<g>
	<path fill="#153535" d="M474.8,212.2c0.1,0.1,0.3,0.2,0.4,0.3c2,1.6,3.1,4,3.1,6.4c0,1.7-0.5,3.5-1.5,5c-2.1,2.9-5.7,4.1-8.9,3.2
		c-0.9-0.2-1.9-0.7-2.7-1.3c-0.8-0.6-1.5-1.3-2.1-2.1c-1.9-2.8-1.9-6.6,0.1-9.5C465.8,210.5,471,209.6,474.8,212.2z"/>
	<path fill="#1B2D32" d="M474.8,212.2c0.1,0.1,0.3,0.2,0.4,0.3c2,1.6,3.1,4,3.1,6.4c-0.6-0.6-1.2-1.3-1.8-1.9
		c-2.8-2.8-6.1-4.8-9.5-0.9c-2.6,2.9-2.7,6.2-1.1,8.8c0.5,0.8,1.1,1.6,1.9,2.2c-0.9-0.2-1.9-0.7-2.7-1.3c-0.8-0.6-1.5-1.3-2.1-2.1
		c-1.9-2.8-1.9-6.6,0.1-9.5C465.8,210.5,471,209.6,474.8,212.2z"/>
	<path fill="#235953" d="M476.5,217c0.1-1.8-0.8-3-1.3-4.5c2,1.6,3.1,4,3.1,6.4c0,1.7-0.5,3.5-1.5,5c-2.1,2.9-5.7,4.1-8.9,3.2
		c-0.9-0.2-1.9-0.7-2.7-1.3c-0.8-0.6-1.5-1.3-2.1-2.1c0.5,0.3,0.9,0.5,1.4,0.7c0.5,0.2,1,0.4,1.5,0.5c2.3,0.6,4.9,0.4,6.8-1
		c1.8-1.4,3.2-3.8,3.7-6C476.4,217.6,476.5,217.3,476.5,217z"/>
</g>
<g>
	<path fill="#153535" d="M474.1,260.1c0.1,0.1,0.3,0.2,0.4,0.3c2,1.6,3.1,4,3.1,6.4c0,1.7-0.5,3.5-1.5,5c-2.1,2.9-5.7,4.1-8.9,3.2
		c-0.9-0.2-1.9-0.7-2.7-1.3s-1.5-1.3-2.1-2.1c-1.9-2.8-1.9-6.6,0.1-9.5C465.1,258.3,470.3,257.4,474.1,260.1z"/>
	<path fill="#1B2D32" d="M474.1,260.1c0.1,0.1,0.3,0.2,0.4,0.3c2,1.6,3.1,4,3.1,6.4c-0.6-0.6-1.2-1.3-1.8-1.9
		c-2.8-2.8-6.1-4.8-9.5-0.9c-2.6,2.9-2.7,6.2-1.1,8.8c0.5,0.8,1.1,1.6,1.9,2.2c-0.9-0.2-1.9-0.7-2.7-1.3s-1.5-1.3-2.1-2.1
		c-1.9-2.8-1.9-6.6,0.1-9.5C465.1,258.3,470.3,257.4,474.1,260.1z"/>
	<path fill="#235953" d="M475.8,264.8c0.1-1.8-0.8-3-1.3-4.5c2,1.6,3.1,4,3.1,6.4c0,1.7-0.5,3.5-1.5,5c-2.1,2.9-5.7,4.1-8.9,3.2
		c-0.9-0.2-1.9-0.7-2.7-1.3s-1.5-1.3-2.1-2.1c0.5,0.3,0.9,0.5,1.4,0.7c0.5,0.2,1,0.4,1.5,0.5c2.3,0.6,4.9,0.4,6.8-1
		c1.8-1.4,3.2-3.8,3.7-6C475.7,265.4,475.8,265.1,475.8,264.8z"/>
</g>
<g>
	<path fill="#153535" d="M427.2,211.9c0.1,0.1,0.3,0.2,0.4,0.3c2,1.6,3.1,4,3.1,6.4c0,1.7-0.5,3.5-1.5,5c-2.1,2.9-5.7,4.1-8.9,3.2
		c-0.9-0.2-1.9-0.7-2.7-1.3c-0.8-0.6-1.5-1.3-2.1-2.1c-1.9-2.8-1.9-6.6,0.1-9.5C418.3,210.1,423.5,209.3,427.2,211.9z"/>
	<path fill="#1B2D32" d="M427.2,211.9c0.1,0.1,0.3,0.2,0.4,0.3c2,1.6,3.1,4,3.1,6.4c-0.6-0.6-1.2-1.3-1.8-1.9
		c-2.8-2.8-6.1-4.8-9.5-0.9c-2.6,2.9-2.7,6.2-1.1,8.8c0.5,0.8,1.1,1.6,1.9,2.2c-0.9-0.2-1.9-0.7-2.7-1.3c-0.8-0.6-1.5-1.3-2.1-2.1
		c-1.9-2.8-1.9-6.6,0.1-9.5C418.3,210.1,423.5,209.3,427.2,211.9z"/>
	<path fill="#235953" d="M428.9,216.7c0.1-1.8-0.8-3-1.3-4.5c2,1.6,3.1,4,3.1,6.4c0,1.7-0.5,3.5-1.5,5c-2.1,2.9-5.7,4.1-8.9,3.2
		c-0.9-0.2-1.9-0.7-2.7-1.3c-0.8-0.6-1.5-1.3-2.1-2.1c0.5,0.3,0.9,0.5,1.4,0.7c0.5,0.2,1,0.4,1.5,0.5c2.3,0.6,4.9,0.4,6.8-1
		c1.8-1.4,3.2-3.8,3.7-6C428.9,217.2,428.9,217,428.9,216.7z"/>
</g>
<g>
	<path fill="#153535" d="M426.5,259.8c0.1,0.1,0.3,0.2,0.4,0.3c2,1.6,3.1,4,3.1,6.4c0,1.7-0.5,3.5-1.5,5c-2.1,2.9-5.7,4.1-8.9,3.2
		c-0.9-0.2-1.9-0.7-2.7-1.3s-1.5-1.3-2.1-2.1c-1.9-2.8-1.9-6.6,0.1-9.5C417.6,258,422.8,257.1,426.5,259.8z"/>
	<path fill="#1B2D32" d="M426.5,259.8c0.1,0.1,0.3,0.2,0.4,0.3c2,1.6,3.1,4,3.1,6.4c-0.6-0.6-1.2-1.3-1.8-1.9
		c-2.8-2.8-6.1-4.8-9.5-0.9c-2.6,2.9-2.7,6.2-1.1,8.8c0.5,0.8,1.1,1.6,1.9,2.2c-0.9-0.2-1.9-0.7-2.7-1.3s-1.5-1.3-2.1-2.1
		c-1.9-2.8-1.9-6.6,0.1-9.5C417.6,258,422.8,257.1,426.5,259.8z"/>
	<path fill="#235953" d="M428.2,264.5c0.1-1.8-0.8-3-1.3-4.5c2,1.6,3.1,4,3.1,6.4c0,1.7-0.5,3.5-1.5,5c-2.1,2.9-5.7,4.1-8.9,3.2
		c-0.9-0.2-1.9-0.7-2.7-1.3s-1.5-1.3-2.1-2.1c0.5,0.3,0.9,0.5,1.4,0.7c0.5,0.2,1,0.4,1.5,0.5c2.3,0.6,4.9,0.4,6.8-1
		c1.8-1.4,3.2-3.8,3.7-6C428.2,265.1,428.2,264.8,428.2,264.5z"/>
</g>
<path fill="#153535" d="M482.3,288.4v60.5c0,3.3-2.7,5.9-5.9,5.9h-59.5c-1.9,0-3.5-0.9-4.6-2.2c-0.8-1-1.3-2.3-1.3-3.7v-60.5
	c0-3.3,2.7-5.9,5.9-5.9h59.5c0.8,0,1.6,0.2,2.3,0.5C480.8,283.9,482.3,286,482.3,288.4z"/>
<path fill="#1B2D32" d="M482.3,288.4v60.5c0,3.3-2.7,5.9-5.9,5.9h-59.5c-1.9,0-3.5-0.9-4.6-2.2c5.3,0.9,10.7,1.1,16,1
	c5.2-0.1,10.5-1.5,15.7-0.9c2.6,0.3,5.2,0.4,7.8,0.5c4.7,0.2,9.8,0.2,14.6-0.2c2.1-0.2,4.2-0.5,6.2-0.7c1.6-0.1,3.2-0.3,4.6-1.2
	c2.2-1.5,2.3-4.1,2.5-6.5c0.3-4.3,0.3-8.7,0.5-13c0.1-2.6,0.7-5.1,1-7.6c0.6-4.4,0.2-8.7,0.1-13.2c-0.2-7.7-0.2-14.9-1.5-22.5
	c-0.3-1.8-0.8-3.6-1.2-5.4C480.8,283.9,482.3,286,482.3,288.4z"/>
<path fill="#235953" d="M482.3,288.4v2.1c-1-1-2-1.9-3.2-2.6c-1.2-0.7-2.5-1.3-3.8-1.8c-1.5-0.3-3.1-0.7-4.6-0.9
	c-13.6-2.5-28.4-3-42.2-0.6c-1.6,0.3-3.1,0.7-4.6,1.1c-7.2,2.4-12.3,7.5-12.1,18.2c-0.1,1.9-0.2,3.7-0.3,5.5
	c-0.1,1.8-0.1,3.6-0.1,5.2c0,1.6,0,3.2,0.1,4.7c0.4,7.9,1.6,15.9,2.9,23.5c0.5,1.6,1.1,3.2,1.7,4.8c1,2.4,2.3,4.7,3.8,7.1h-3.1
	c-3.3,0-5.9-2.7-5.9-5.9v-60.5c0-3.3,2.7-5.9,5.9-5.9h59.5C479.6,282.5,482.3,285.2,482.3,288.4z"/>
<g>
	<path fill="#153535" d="M474.8,288.5c0.1,0.1,0.3,0.2,0.4,0.3c2,1.6,3.1,4,3.1,6.4c0,1.7-0.5,3.5-1.5,5c-2.1,2.9-5.7,4.1-8.9,3.2
		c-0.9-0.2-1.9-0.7-2.7-1.3c-0.8-0.6-1.5-1.3-2.1-2.1c-1.9-2.8-1.9-6.6,0.1-9.5C465.9,286.7,471.1,285.8,474.8,288.5z"/>
	<path fill="#1B2D32" d="M474.8,288.5c0.1,0.1,0.3,0.2,0.4,0.3c2,1.6,3.1,4,3.1,6.4c-0.6-0.6-1.2-1.3-1.8-1.9
		c-2.8-2.8-6.1-4.8-9.5-0.9c-2.6,2.9-2.7,6.2-1.1,8.8c0.5,0.8,1.1,1.6,1.9,2.2c-0.9-0.2-1.9-0.7-2.7-1.3c-0.8-0.6-1.5-1.3-2.1-2.1
		c-1.9-2.8-1.9-6.6,0.1-9.5C465.9,286.7,471.1,285.8,474.8,288.5z"/>
	<path fill="#235953" d="M476.6,293.3c0.1-1.8-0.8-3-1.3-4.5c2,1.6,3.1,4,3.1,6.4c0,1.7-0.5,3.5-1.5,5c-2.1,2.9-5.7,4.1-8.9,3.2
		c-0.9-0.2-1.9-0.7-2.7-1.3c-0.8-0.6-1.5-1.3-2.1-2.1c0.5,0.3,0.9,0.5,1.4,0.7c0.5,0.2,1,0.4,1.5,0.5c2.3,0.6,4.9,0.4,6.8-1
		c1.8-1.4,3.2-3.8,3.7-6C476.5,293.8,476.5,293.5,476.6,293.3z"/>
</g>
<g>
	<path fill="#153535" d="M474.1,336.3c0.1,0.1,0.3,0.2,0.4,0.3c2,1.6,3.1,4,3.1,6.4c0,1.7-0.5,3.5-1.5,5c-2.1,2.9-5.7,4.1-8.9,3.2
		c-0.9-0.2-1.9-0.7-2.7-1.3s-1.5-1.3-2.1-2.1c-1.9-2.8-1.9-6.6,0.1-9.5C465.2,334.5,470.4,333.7,474.1,336.3z"/>
	<path fill="#1B2D32" d="M474.1,336.3c0.1,0.1,0.3,0.2,0.4,0.3c2,1.6,3.1,4,3.1,6.4c-0.6-0.6-1.2-1.3-1.8-1.9
		c-2.8-2.8-6.1-4.8-9.5-0.9c-2.6,2.9-2.7,6.2-1.1,8.8c0.5,0.8,1.1,1.6,1.9,2.2c-0.9-0.2-1.9-0.7-2.7-1.3s-1.5-1.3-2.1-2.1
		c-1.9-2.8-1.9-6.6,0.1-9.5C465.2,334.5,470.4,333.7,474.1,336.3z"/>
	<path fill="#235953" d="M475.9,341.1c0.1-1.8-0.8-3-1.3-4.5c2,1.6,3.1,4,3.1,6.4c0,1.7-0.5,3.5-1.5,5c-2.1,2.9-5.7,4.1-8.9,3.2
		c-0.9-0.2-1.9-0.7-2.7-1.3s-1.5-1.3-2.1-2.1c0.5,0.3,0.9,0.5,1.4,0.7c0.5,0.2,1,0.4,1.5,0.5c2.3,0.6,4.9,0.4,6.8-1
		c1.8-1.4,3.2-3.8,3.7-6C475.8,341.6,475.8,341.4,475.9,341.1z"/>
</g>
<g>
	<path fill="#153535" d="M427.3,288.2c0.1,0.1,0.3,0.2,0.4,0.3c2,1.6,3.1,4,3.1,6.4c0,1.7-0.5,3.5-1.5,5c-2.1,2.9-5.7,4.1-8.9,3.2
		c-0.9-0.2-1.9-0.7-2.7-1.3c-0.8-0.6-1.5-1.3-2.1-2.1c-1.9-2.8-1.9-6.6,0.1-9.5C418.4,286.4,423.6,285.5,427.3,288.2z"/>
	<path fill="#1B2D32" d="M427.3,288.2c0.1,0.1,0.3,0.2,0.4,0.3c2,1.6,3.1,4,3.1,6.4c-0.6-0.6-1.2-1.3-1.8-1.9
		c-2.8-2.8-6.1-4.8-9.5-0.9c-2.6,2.9-2.7,6.2-1.1,8.8c0.5,0.8,1.1,1.6,1.9,2.2c-0.9-0.2-1.9-0.7-2.7-1.3c-0.8-0.6-1.5-1.3-2.1-2.1
		c-1.9-2.8-1.9-6.6,0.1-9.5C418.4,286.4,423.6,285.5,427.3,288.2z"/>
	<path fill="#235953" d="M429,292.9c0.1-1.8-0.8-3-1.3-4.5c2,1.6,3.1,4,3.1,6.4c0,1.7-0.5,3.5-1.5,5c-2.1,2.9-5.7,4.1-8.9,3.2
		c-0.9-0.2-1.9-0.7-2.7-1.3c-0.8-0.6-1.5-1.3-2.1-2.1c0.5,0.3,0.9,0.5,1.4,0.7c0.5,0.2,1,0.4,1.5,0.5c2.3,0.6,4.9,0.4,6.8-1
		c1.8-1.4,3.2-3.8,3.7-6C429,293.5,429,293.2,429,292.9z"/>
</g>
<g>
	<path fill="#153535" d="M426.6,336c0.1,0.1,0.3,0.2,0.4,0.3c2,1.6,3.1,4,3.1,6.4c0,1.7-0.5,3.5-1.5,5c-2.1,2.9-5.7,4.1-8.9,3.2
		c-0.9-0.2-1.9-0.7-2.7-1.3s-1.5-1.3-2.1-2.1c-1.9-2.8-1.9-6.6,0.1-9.5C417.7,334.2,422.9,333.3,426.6,336z"/>
	<path fill="#1B2D32" d="M426.6,336c0.1,0.1,0.3,0.2,0.4,0.3c2,1.6,3.1,4,3.1,6.4c-0.6-0.6-1.2-1.3-1.8-1.9
		c-2.8-2.8-6.1-4.8-9.5-0.9c-2.6,2.9-2.7,6.2-1.1,8.8c0.5,0.8,1.1,1.6,1.9,2.2c-0.9-0.2-1.9-0.7-2.7-1.3s-1.5-1.3-2.1-2.1
		c-1.9-2.8-1.9-6.6,0.1-9.5C417.7,334.2,422.9,333.3,426.6,336z"/>
	<path fill="#235953" d="M428.3,340.8c0.1-1.8-0.8-3-1.3-4.5c2,1.6,3.1,4,3.1,6.4c0,1.7-0.5,3.5-1.5,5c-2.1,2.9-5.7,4.1-8.9,3.2
		c-0.9-0.2-1.9-0.7-2.7-1.3s-1.5-1.3-2.1-2.1c0.5,0.3,0.9,0.5,1.4,0.7c0.5,0.2,1,0.4,1.5,0.5c2.3,0.6,4.9,0.4,6.8-1
		c1.8-1.4,3.2-3.8,3.7-6C428.3,341.3,428.3,341,428.3,340.8z"/>
</g>
<polygon fill="#283E3D" points="447.3,224.1 434.4,234.2 465.4,242.4 "/>
<polygon fill="#283E3D" points="533,235 546.4,242.4 530.6,263.6 517.6,251.5 532,246.4 "/>
<polygon fill="#283E3D" points="449.9,295.9 446.6,311.1 467.8,332.6 475.7,318.6 472,309.2 "/>
<polygon fill="#283E3D" points="520.8,296.2 514.7,303 544.9,317.2 532,303.6 "/>
<polygon fill="#012E2E" points="454.2,242.4 470.7,247.2 454.2,272.3 439.4,269.4 "/>
<polygon fill="#012E2E" points="508,247 524.3,260.4 510.6,266.4 "/>
<polygon fill="#012E2E" points="532,313.1 519.9,346.3 502.1,325.7 518.5,306.7 "/>
<path fill="#012E2E" d="M436.1,303.6c0.7,0.5,16.9,18.1,16.9,18.1l-20.9,4.8L436.1,303.6z"/>
</svg>
