<?xml version="1.0" encoding="utf-8"?>
<!-- Generator: Adobe Illustrator 19.0.1, SVG Export Plug-In . SVG Version: 6.00 Build 0)  -->
<!DOCTYPE svg PUBLIC "-//W3C//DTD SVG 1.1//EN" "http://www.w3.org/Graphics/SVG/1.1/DTD/svg11.dtd">
<svg version="1.1" id="Layer_1" xmlns="http://www.w3.org/2000/svg" xmlns:xlink="http://www.w3.org/1999/xlink" x="0px" y="0px"
	 viewBox="0 0 960 560" enable-background="new 0 0 960 560" xml:space="preserve">
<rect x="404.8" y="202.9" fill="#1E2929" width="154" height="154"/>
<path fill="#153535" d="M554.2,267.3v77.4c0,4.2-5.4,7.6-12,7.6H421.5c-3.8,0-7.1-1.1-9.3-2.8c-1.7-1.3-2.7-3-2.7-4.7v-77.4
	c0-4.2,5.4-7.6,12-7.6h120.7c1.7,0,3.2,0.2,4.7,0.6C551.1,261.5,554.2,264.2,554.2,267.3z"/>
<path fill="#1B2D32" d="M554.2,267.3v77.4c0,4.2-5.4,7.6-12,7.6H421.5c-3.8,0-7.1-1.1-9.3-2.8c10.7,1.2,21.8,1.5,32.6,1.3
	c10.6-0.2,21.4-1.9,31.9-1.1c5.2,0.4,10.5,0.5,15.8,0.6c9.6,0.2,20,0.2,29.6-0.3c4.3-0.2,8.5-0.7,12.7-0.9c3.2-0.2,6.6-0.4,9.3-1.6
	c4.4-1.9,4.8-5.2,5.1-8.3c0.6-5.5,0.7-11.1,1-16.6c0.2-3.3,1.4-6.5,2.1-9.7c1.2-5.6,0.5-11.2,0.2-16.8c-0.5-9.8-0.3-19.1-3.1-28.8
	c-0.7-2.3-1.6-4.6-2.4-6.9C551.1,261.5,554.2,264.2,554.2,267.3z"/>
<path fill="#235953" d="M554.2,267.3v2.7c-2-1.3-4.2-2.4-6.5-3.4c-2.4-0.9-5-1.7-7.8-2.3c-3.1-0.4-6.2-0.8-9.3-1.2
	c-27.6-3.2-57.6-3.8-85.6-0.8c-3.2,0.4-6.3,0.8-9.3,1.4c-14.7,3.1-25,9.6-24.5,23.3c-0.3,2.4-0.5,4.8-0.6,7.1
	c-0.1,2.3-0.2,4.6-0.3,6.7c0,2,0.1,4,0.3,6.1c0.8,10.1,3.2,20.3,5.9,30.1c1,2.1,2.2,4.1,3.5,6.2c2.1,3.1,4.6,6.1,7.7,9h-6.2
	c-6.6,0-12-3.4-12-7.6v-77.4c0-4.2,5.4-7.6,12-7.6h120.7C548.8,259.8,554.2,263.2,554.2,267.3z"/>
<path fill="none" d="M403.2,298.3c-0.1,0-0.1,0-0.2,0"/>
<g>
	<path fill="#153535" d="M546.3,265.1c0.1,0.1,0.3,0.2,0.4,0.3c2,1.6,3.1,4,3.1,6.4c0,1.7-0.5,3.5-1.5,5c-2.1,2.9-5.7,4.1-8.9,3.2
		c-0.9-0.2-1.9-0.7-2.7-1.3c-0.8-0.6-1.5-1.3-2.1-2.1c-1.9-2.8-1.9-6.6,0.1-9.5C537.3,263.3,542.5,262.4,546.3,265.1z"/>
	<path fill="#1B2D32" d="M546.3,265.1c0.1,0.1,0.3,0.2,0.4,0.3c2,1.6,3.1,4,3.1,6.4c-0.6-0.6-1.2-1.3-1.8-1.9
		c-2.8-2.8-6.1-4.8-9.5-0.9c-2.6,2.9-2.7,6.2-1.1,8.8c0.5,0.8,1.1,1.6,1.9,2.2c-0.9-0.2-1.9-0.7-2.7-1.3c-0.8-0.6-1.5-1.3-2.1-2.1
		c-1.9-2.8-1.9-6.6,0.1-9.5C537.3,263.3,542.5,262.4,546.3,265.1z"/>
	<path fill="#235953" d="M548,269.9c0.1-1.8-0.8-3-1.3-4.5c2,1.6,3.1,4,3.1,6.4c0,1.7-0.5,3.5-1.5,5c-2.1,2.9-5.7,4.1-8.9,3.2
		c-0.9-0.2-1.9-0.7-2.7-1.3c-0.8-0.6-1.5-1.3-2.1-2.1c0.5,0.3,0.9,0.5,1.4,0.7c0.5,0.2,1,0.4,1.5,0.5c2.3,0.6,4.9,0.4,6.8-1
		c1.8-1.4,3.2-3.8,3.7-6C547.9,270.4,548,270.1,548,269.9z"/>
</g>
<g>
	<path fill="#153535" d="M425.3,333.8c0.1,0.1,0.3,0.2,0.4,0.3c2,1.6,3.1,4,3.1,6.4c0,1.7-0.5,3.5-1.5,5c-2.1,2.9-5.7,4.1-8.9,3.2
		c-0.9-0.2-1.9-0.7-2.7-1.3c-0.8-0.6-1.5-1.3-2.1-2.1c-1.9-2.8-1.9-6.6,0.1-9.5C416.3,332,421.5,331.1,425.3,333.8z"/>
	<path fill="#1B2D32" d="M425.3,333.8c0.1,0.1,0.3,0.2,0.4,0.3c2,1.6,3.1,4,3.1,6.4c-0.6-0.6-1.2-1.3-1.8-1.9
		c-2.8-2.8-6.1-4.8-9.5-0.9c-2.6,2.9-2.7,6.2-1.1,8.8c0.5,0.8,1.1,1.6,1.9,2.2c-0.9-0.2-1.9-0.7-2.7-1.3c-0.8-0.6-1.5-1.3-2.1-2.1
		c-1.9-2.8-1.9-6.6,0.1-9.5C416.3,332,421.5,331.1,425.3,333.8z"/>
	<path fill="#235953" d="M427,338.6c0.1-1.8-0.8-3-1.3-4.5c2,1.6,3.1,4,3.1,6.4c0,1.7-0.5,3.5-1.5,5c-2.1,2.9-5.7,4.1-8.9,3.2
		c-0.9-0.2-1.9-0.7-2.7-1.3c-0.8-0.6-1.5-1.3-2.1-2.1c0.5,0.3,0.9,0.5,1.4,0.7c0.5,0.2,1,0.4,1.5,0.5c2.3,0.6,4.9,0.4,6.8-1
		c1.8-1.4,3.2-3.8,3.7-6C426.9,339.1,427,338.8,427,338.6z"/>
</g>
<g>
	<path fill="#153535" d="M545.9,331.9c0.1,0.1,0.3,0.2,0.4,0.3c2,1.6,3.1,4,3.1,6.4c0,1.7-0.5,3.5-1.5,5c-2.1,2.9-5.7,4.1-8.9,3.2
		c-0.9-0.2-1.9-0.7-2.7-1.3s-1.5-1.3-2.1-2.1c-1.9-2.8-1.9-6.6,0.1-9.5C536.9,330.1,542.1,329.2,545.9,331.9z"/>
	<path fill="#1B2D32" d="M545.9,331.9c0.1,0.1,0.3,0.2,0.4,0.3c2,1.6,3.1,4,3.1,6.4c-0.6-0.6-1.2-1.3-1.8-1.9
		c-2.8-2.8-6.1-4.8-9.5-0.9c-2.6,2.9-2.7,6.2-1.1,8.8c0.5,0.8,1.1,1.6,1.9,2.2c-0.9-0.2-1.9-0.7-2.7-1.3s-1.5-1.3-2.1-2.1
		c-1.9-2.8-1.9-6.6,0.1-9.5C536.9,330.1,542.1,329.2,545.9,331.9z"/>
	<path fill="#235953" d="M547.6,336.6c0.1-1.8-0.8-3-1.3-4.5c2,1.6,3.1,4,3.1,6.4c0,1.7-0.5,3.5-1.5,5c-2.1,2.9-5.7,4.1-8.9,3.2
		c-0.9-0.2-1.9-0.7-2.7-1.3s-1.5-1.3-2.1-2.1c0.5,0.3,0.9,0.5,1.4,0.7c0.5,0.2,1,0.4,1.5,0.5c2.3,0.6,4.9,0.4,6.8-1
		c1.8-1.4,3.2-3.8,3.7-6C547.5,337.2,547.6,336.9,547.6,336.6z"/>
</g>
<g>
	<path fill="#153535" d="M427.7,265.9c0.1,0.1,0.3,0.2,0.4,0.3c2,1.6,3.1,4,3.1,6.4c0,1.7-0.5,3.5-1.5,5c-2.1,2.9-5.7,4.1-8.9,3.2
		c-0.9-0.2-1.9-0.7-2.7-1.3c-0.8-0.6-1.5-1.3-2.1-2.1c-1.9-2.8-1.9-6.6,0.1-9.5C418.7,264.1,423.9,263.3,427.7,265.9z"/>
	<path fill="#1B2D32" d="M427.7,265.9c0.1,0.1,0.3,0.2,0.4,0.3c2,1.6,3.1,4,3.1,6.4c-0.6-0.6-1.2-1.3-1.8-1.9
		c-2.8-2.8-6.1-4.8-9.5-0.9c-2.6,2.9-2.7,6.2-1.1,8.8c0.5,0.8,1.1,1.6,1.9,2.2c-0.9-0.2-1.9-0.7-2.7-1.3c-0.8-0.6-1.5-1.3-2.1-2.1
		c-1.9-2.8-1.9-6.6,0.1-9.5C418.7,264.1,423.9,263.3,427.7,265.9z"/>
	<path fill="#235953" d="M429.4,270.7c0.1-1.8-0.8-3-1.3-4.5c2,1.6,3.1,4,3.1,6.4c0,1.7-0.5,3.5-1.5,5c-2.1,2.9-5.7,4.1-8.9,3.2
		c-0.9-0.2-1.9-0.7-2.7-1.3c-0.8-0.6-1.5-1.3-2.1-2.1c0.5,0.3,0.9,0.5,1.4,0.7c0.5,0.2,1,0.4,1.5,0.5c2.3,0.6,4.9,0.4,6.8-1
		c1.8-1.4,3.2-3.8,3.7-6C429.3,271.2,429.4,270.9,429.4,270.7z"/>
</g>
<path fill="#012E2E" d="M442.5,294.7c1.4,0,24.3,4.4,24.3,4.4l18.2,22.8l-28.7,3.9L442.5,294.7z"/>
<path fill="#153535" d="M553.8,211.9v38.7c0,2.1-5.4,3.8-12,3.8H421.1c-3.8,0-7.1-0.6-9.3-1.4c-1.7-0.7-2.7-1.5-2.7-2.4v-38.7
	c0-2.1,5.4-3.8,12-3.8h120.7c1.7,0,3.2,0.1,4.7,0.3C550.8,209,553.8,210.4,553.8,211.9z"/>
<path fill="#1B2D32" d="M553.8,211.9v38.7c0,2.1-5.4,3.8-12,3.8H421.1c-3.8,0-7.1-0.6-9.3-1.4c10.7,0.6,21.8,0.7,32.6,0.6
	c10.6-0.1,21.4-1,31.9-0.6c5.2,0.2,10.5,0.2,15.8,0.3c9.6,0.1,20,0.1,29.6-0.1c4.3-0.1,8.5-0.4,12.7-0.5c3.2-0.1,6.6-0.2,9.3-0.8
	c4.4-0.9,4.8-2.6,5.1-4.1c0.6-2.8,0.7-5.5,1-8.3c0.2-1.6,1.4-3.2,2.1-4.9c1.2-2.8,0.5-5.6,0.2-8.4c-0.5-4.9-0.3-9.5-3.1-14.4
	c-0.7-1.2-1.6-2.3-2.4-3.4C550.8,209,553.8,210.4,553.8,211.9z"/>
<path fill="#235953" d="M553.8,211.9v1.3c-2-0.7-4.2-1.2-6.5-1.7c-2.4-0.5-5-0.8-7.8-1.1c-3.1-0.2-6.2-0.4-9.3-0.6
	c-27.6-1.6-57.6-1.9-85.6-0.4c-3.2,0.2-6.3,0.4-9.3,0.7c-14.7,1.5-25,4.8-24.5,11.6c-0.3,1.2-0.5,2.4-0.6,3.5
	c-0.1,1.2-0.2,2.3-0.3,3.3c0,1,0.1,2,0.3,3c0.8,5.1,3.2,10.1,5.9,15c1,1,2.2,2.1,3.5,3.1c2.1,1.5,4.6,3,7.7,4.5h-6.2
	c-6.6,0-12-1.7-12-3.8v-38.7c0-2.1,5.4-3.8,12-3.8h120.7C548.4,208.2,553.8,209.9,553.8,211.9z"/>
<polygon fill="#283E3D" points="517.7,283.4 472.4,298.2 497.9,334.1 527.5,308.9 "/>
<polygon fill="#012E2E" points="469.5,213.4 433.6,221.7 479.9,248.9 522.4,234.9 476.8,231.1 "/>
<g>
	<path fill="#153535" d="M427.7,225.2c0.1,0.1,0.3,0.2,0.4,0.3c2,1.6,3.1,4,3.1,6.4c0,1.7-0.5,3.5-1.5,5c-2.1,2.9-5.7,4.1-8.9,3.2
		c-0.9-0.2-1.9-0.7-2.7-1.3c-0.8-0.6-1.5-1.3-2.1-2.1c-1.9-2.8-1.9-6.6,0.1-9.5C418.7,223.4,423.9,222.5,427.7,225.2z"/>
	<path fill="#1B2D32" d="M427.7,225.2c0.1,0.1,0.3,0.2,0.4,0.3c2,1.6,3.1,4,3.1,6.4c-0.6-0.6-1.2-1.3-1.8-1.9
		c-2.8-2.8-6.1-4.8-9.5-0.9c-2.6,2.9-2.7,6.2-1.1,8.8c0.5,0.8,1.1,1.6,1.9,2.2c-0.9-0.2-1.9-0.7-2.7-1.3c-0.8-0.6-1.5-1.3-2.1-2.1
		c-1.9-2.8-1.9-6.6,0.1-9.5C418.7,223.4,423.9,222.5,427.7,225.2z"/>
	<path fill="#235953" d="M429.4,229.9c0.1-1.8-0.8-3-1.3-4.5c2,1.6,3.1,4,3.1,6.4c0,1.7-0.5,3.5-1.5,5c-2.1,2.9-5.7,4.1-8.9,3.2
		c-0.9-0.2-1.9-0.7-2.7-1.3c-0.8-0.6-1.5-1.3-2.1-2.1c0.5,0.3,0.9,0.5,1.4,0.7c0.5,0.2,1,0.4,1.5,0.5c2.3,0.6,4.9,0.4,6.8-1
		c1.8-1.4,3.2-3.8,3.7-6C429.3,230.5,429.4,230.2,429.4,229.9z"/>
</g>
<g>
	<path fill="#153535" d="M545.9,223.9c0.1,0.1,0.3,0.2,0.4,0.3c2,1.6,3.1,4,3.1,6.4c0,1.7-0.5,3.5-1.5,5c-2.1,2.9-5.7,4.1-8.9,3.2
		c-0.9-0.2-1.9-0.7-2.7-1.3c-0.8-0.6-1.5-1.3-2.1-2.1c-1.9-2.8-1.9-6.6,0.1-9.5C536.9,222.1,542.1,221.2,545.9,223.9z"/>
	<path fill="#1B2D32" d="M545.9,223.9c0.1,0.1,0.3,0.2,0.4,0.3c2,1.6,3.1,4,3.1,6.4c-0.6-0.6-1.2-1.3-1.8-1.9
		c-2.8-2.8-6.1-4.8-9.5-0.9c-2.6,2.9-2.7,6.2-1.1,8.8c0.5,0.8,1.1,1.6,1.9,2.2c-0.9-0.2-1.9-0.7-2.7-1.3c-0.8-0.6-1.5-1.3-2.1-2.1
		c-1.9-2.8-1.9-6.6,0.1-9.5C536.9,222.1,542.1,221.2,545.9,223.9z"/>
	<path fill="#235953" d="M547.6,228.6c0.1-1.8-0.8-3-1.3-4.5c2,1.6,3.1,4,3.1,6.4c0,1.7-0.5,3.5-1.5,5c-2.1,2.9-5.7,4.1-8.9,3.2
		c-0.9-0.2-1.9-0.7-2.7-1.3c-0.8-0.6-1.5-1.3-2.1-2.1c0.5,0.3,0.9,0.5,1.4,0.7c0.5,0.2,1,0.4,1.5,0.5c2.3,0.6,4.9,0.4,6.8-1
		c1.8-1.4,3.2-3.8,3.7-6C547.5,229.2,547.6,228.9,547.6,228.6z"/>
</g>
</svg>
