<?xml version="1.0" encoding="utf-8"?>
<!-- Generator: Adobe Illustrator 19.0.1, SVG Export Plug-In . SVG Version: 6.00 Build 0)  -->
<!DOCTYPE svg PUBLIC "-//W3C//DTD SVG 1.1//EN" "http://www.w3.org/Graphics/SVG/1.1/DTD/svg11.dtd">
<svg version="1.1" id="Layer_2" xmlns="http://www.w3.org/2000/svg" xmlns:xlink="http://www.w3.org/1999/xlink" x="0px" y="0px"
	 viewBox="0 0 519.4 792.5" enable-background="new 0 0 519.4 792.5" xml:space="preserve">
<rect x="163.7" y="346.1" fill="#1E2929" width="154" height="154"/>
<path fill="#163535" d="M313.1,361.8v122.8c0,6.6-5.4,12-12,12H180.4c-3.8,0-7.1-1.8-9.3-4.5c-1.7-2.1-2.7-4.7-2.7-7.5V361.8
	c0-6.6,5.4-12,12-12h120.7c1.7,0,3.2,0.3,4.7,1C310.1,352.6,313.1,356.8,313.1,361.8z"/>
<path fill="#1C2D32" d="M313.1,361.8v122.8c0,6.6-5.4,12-12,12H180.4c-3.8,0-7.1-1.8-9.3-4.5c10.7,1.9,21.8,2.3,32.6,2
	c10.6-0.3,21.4-3,31.9-1.8c5.2,0.6,10.5,0.7,15.8,0.9c9.6,0.3,20,0.4,29.6-0.4c4.3-0.3,8.5-1.1,12.7-1.4c3.2-0.3,6.6-0.7,9.3-2.5
	c4.4-3,4.8-8.3,5.1-13.1c0.6-8.8,0.7-17.6,1-26.3c0.2-5.2,1.4-10.3,2.1-15.4c1.2-8.9,0.5-17.8,0.2-26.7c-0.5-15.5-0.3-30.2-3.1-45.6
	c-0.7-3.7-1.6-7.3-2.4-10.9C310.1,352.6,313.1,356.8,313.1,361.8z"/>
<path fill="#245954" d="M313.1,361.8v4.3c-2-2.1-4.2-3.9-6.5-5.3c-2.4-1.5-5-2.6-7.8-3.6c-3.1-0.7-6.2-1.3-9.3-1.9
	c-27.6-5-57.6-6-85.6-1.2c-3.2,0.6-6.3,1.3-9.3,2.3c-14.7,4.8-25,15.2-24.5,37c-0.3,3.8-0.5,7.6-0.6,11.2c-0.1,3.7-0.2,7.2-0.3,10.6
	c0,3.2,0.1,6.4,0.3,9.6c0.8,16,3.2,32.2,5.9,47.7c1,3.3,2.2,6.6,3.5,9.8c2.1,4.8,4.6,9.6,7.7,14.3h-6.2c-6.6,0-12-5.4-12-12V361.8
	c0-6.6,5.4-12,12-12h120.7C307.7,349.8,313.1,355.2,313.1,361.8z"/>
<path fill="none" d="M320.4,441.5c-0.1,0-0.1,0-0.2,0"/>
<g>
	<g>
		<path fill="#163535" d="M210,414.8c0.1,0.1,0.3,0.2,0.4,0.3c2,1.6,3.1,4,3.1,6.4c0,1.7-0.5,3.5-1.5,5c-2.1,2.9-5.7,4.1-8.9,3.2
			c-0.9-0.2-1.9-0.7-2.7-1.3c-0.8-0.6-1.5-1.3-2.1-2.1c-1.9-2.8-1.9-6.6,0.1-9.5C201,413,206.2,412.1,210,414.8z"/>
		<path fill="#1C2D32" d="M210,414.8c0.1,0.1,0.3,0.2,0.4,0.3c2,1.6,3.1,4,3.1,6.4c-0.6-0.6-1.2-1.3-1.8-1.9
			c-2.8-2.8-6.1-4.8-9.5-0.9c-2.6,2.9-2.7,6.2-1.1,8.8c0.5,0.8,1.1,1.6,1.9,2.2c-0.9-0.2-1.9-0.7-2.7-1.3c-0.8-0.6-1.5-1.3-2.1-2.1
			c-1.9-2.8-1.9-6.6,0.1-9.5C201,413,206.2,412.1,210,414.8z"/>
		<path fill="#245954" d="M211.7,419.6c0.1-1.8-0.8-3-1.3-4.5c2,1.6,3.1,4,3.1,6.4c0,1.7-0.5,3.5-1.5,5c-2.1,2.9-5.7,4.1-8.9,3.2
			c-0.9-0.2-1.9-0.7-2.7-1.3c-0.8-0.6-1.5-1.3-2.1-2.1c0.5,0.3,0.9,0.5,1.4,0.7c0.5,0.2,1,0.4,1.5,0.5c2.3,0.6,4.9,0.4,6.8-1
			c1.8-1.4,3.2-3.8,3.7-6C211.6,420.1,211.7,419.8,211.7,419.6z"/>
	</g>
	<g>
		<path fill="#163535" d="M210,448.1c0.1,0.1,0.3,0.2,0.4,0.3c2,1.6,3.1,4,3.1,6.4c0,1.7-0.5,3.5-1.5,5c-2.1,2.9-5.7,4.1-8.9,3.2
			c-0.9-0.2-1.9-0.7-2.7-1.3c-0.8-0.6-1.5-1.3-2.1-2.1c-1.9-2.8-1.9-6.6,0.1-9.5C201,446.3,206.2,445.5,210,448.1z"/>
		<path fill="#1C2D32" d="M210,448.1c0.1,0.1,0.3,0.2,0.4,0.3c2,1.6,3.1,4,3.1,6.4c-0.6-0.6-1.2-1.3-1.8-1.9
			c-2.8-2.8-6.1-4.8-9.5-0.9c-2.6,2.9-2.7,6.2-1.1,8.8c0.5,0.8,1.1,1.6,1.9,2.2c-0.9-0.2-1.9-0.7-2.7-1.3c-0.8-0.6-1.5-1.3-2.1-2.1
			c-1.9-2.8-1.9-6.6,0.1-9.5C201,446.3,206.2,445.5,210,448.1z"/>
		<path fill="#245954" d="M211.7,452.9c0.1-1.8-0.8-3-1.3-4.5c2,1.6,3.1,4,3.1,6.4c0,1.7-0.5,3.5-1.5,5c-2.1,2.9-5.7,4.1-8.9,3.2
			c-0.9-0.2-1.9-0.7-2.7-1.3c-0.8-0.6-1.5-1.3-2.1-2.1c0.5,0.3,0.9,0.5,1.4,0.7c0.5,0.2,1,0.4,1.5,0.5c2.3,0.6,4.9,0.4,6.8-1
			c1.8-1.4,3.2-3.8,3.7-6C211.6,453.4,211.7,453.2,211.7,452.9z"/>
	</g>
	<g>
		<path fill="#163535" d="M210.7,381.5c0.1,0.1,0.3,0.2,0.4,0.3c2,1.6,3.1,4,3.1,6.4c0,1.7-0.5,3.5-1.5,5c-2.1,2.9-5.7,4.1-8.9,3.2
			c-0.9-0.2-1.9-0.7-2.7-1.3c-0.8-0.6-1.5-1.3-2.1-2.1c-1.9-2.8-1.9-6.6,0.1-9.5C201.7,379.7,206.9,378.8,210.7,381.5z"/>
		<path fill="#1C2D32" d="M210.7,381.5c0.1,0.1,0.3,0.2,0.4,0.3c2,1.6,3.1,4,3.1,6.4c-0.6-0.6-1.2-1.3-1.8-1.9
			c-2.8-2.8-6.1-4.8-9.5-0.9c-2.6,2.9-2.7,6.2-1.1,8.8c0.5,0.8,1.1,1.6,1.9,2.2c-0.9-0.2-1.9-0.7-2.7-1.3c-0.8-0.6-1.5-1.3-2.1-2.1
			c-1.9-2.8-1.9-6.6,0.1-9.5C201.7,379.7,206.9,378.8,210.7,381.5z"/>
		<path fill="#245954" d="M212.4,386.2c0.1-1.8-0.8-3-1.3-4.5c2,1.6,3.1,4,3.1,6.4c0,1.7-0.5,3.5-1.5,5c-2.1,2.9-5.7,4.1-8.9,3.2
			c-0.9-0.2-1.9-0.7-2.7-1.3c-0.8-0.6-1.5-1.3-2.1-2.1c0.5,0.3,0.9,0.5,1.4,0.7c0.5,0.2,1,0.4,1.5,0.5c2.3,0.6,4.9,0.4,6.8-1
			c1.8-1.4,3.2-3.8,3.7-6C212.3,386.8,212.4,386.5,212.4,386.2z"/>
	</g>
</g>
<g>
	<g>
		<path fill="#163535" d="M245.3,415.7c0.1,0.1,0.3,0.2,0.4,0.3c2,1.6,3.1,4,3.1,6.4c0,1.7-0.5,3.5-1.5,5c-2.1,2.9-5.7,4.1-8.9,3.2
			c-0.9-0.2-1.9-0.7-2.7-1.3c-0.8-0.6-1.5-1.3-2.1-2.1c-1.9-2.8-1.9-6.6,0.1-9.5C236.3,413.9,241.5,413,245.3,415.7z"/>
		<path fill="#1C2D32" d="M245.3,415.7c0.1,0.1,0.3,0.2,0.4,0.3c2,1.6,3.1,4,3.1,6.4c-0.6-0.6-1.2-1.3-1.8-1.9
			c-2.8-2.8-6.1-4.8-9.5-0.9c-2.6,2.9-2.7,6.2-1.1,8.8c0.5,0.8,1.1,1.6,1.9,2.2c-0.9-0.2-1.9-0.7-2.7-1.3c-0.8-0.6-1.5-1.3-2.1-2.1
			c-1.9-2.8-1.9-6.6,0.1-9.5C236.3,413.9,241.5,413,245.3,415.7z"/>
		<path fill="#245954" d="M247,420.5c0.1-1.8-0.8-3-1.3-4.5c2,1.6,3.1,4,3.1,6.4c0,1.7-0.5,3.5-1.5,5c-2.1,2.9-5.7,4.1-8.9,3.2
			c-0.9-0.2-1.9-0.7-2.7-1.3c-0.8-0.6-1.5-1.3-2.1-2.1c0.5,0.3,0.9,0.5,1.4,0.7c0.5,0.2,1,0.4,1.5,0.5c2.3,0.6,4.9,0.4,6.8-1
			c1.8-1.4,3.2-3.8,3.7-6C246.9,421,247,420.7,247,420.5z"/>
	</g>
	<g>
		<path fill="#163535" d="M245.2,449c0.1,0.1,0.3,0.2,0.4,0.3c2,1.6,3.1,4,3.1,6.4c0,1.7-0.5,3.5-1.5,5c-2.1,2.9-5.7,4.1-8.9,3.2
			c-0.9-0.2-1.9-0.7-2.7-1.3c-0.8-0.6-1.5-1.3-2.1-2.1c-1.9-2.8-1.9-6.6,0.1-9.5C236.3,447.2,241.5,446.4,245.2,449z"/>
		<path fill="#1C2D32" d="M245.2,449c0.1,0.1,0.3,0.2,0.4,0.3c2,1.6,3.1,4,3.1,6.4c-0.6-0.6-1.2-1.3-1.8-1.9
			c-2.8-2.8-6.1-4.8-9.5-0.9c-2.6,2.9-2.7,6.2-1.1,8.8c0.5,0.8,1.1,1.6,1.9,2.2c-0.9-0.2-1.9-0.7-2.7-1.3c-0.8-0.6-1.5-1.3-2.1-2.1
			c-1.9-2.8-1.9-6.6,0.1-9.5C236.3,447.2,241.5,446.4,245.2,449z"/>
		<path fill="#245954" d="M247,453.8c0.1-1.8-0.8-3-1.3-4.5c2,1.6,3.1,4,3.1,6.4c0,1.7-0.5,3.5-1.5,5c-2.1,2.9-5.7,4.1-8.9,3.2
			c-0.9-0.2-1.9-0.7-2.7-1.3c-0.8-0.6-1.5-1.3-2.1-2.1c0.5,0.3,0.9,0.5,1.4,0.7c0.5,0.2,1,0.4,1.5,0.5c2.3,0.6,4.9,0.4,6.8-1
			c1.8-1.4,3.2-3.8,3.7-6C246.9,454.4,247,454.1,247,453.8z"/>
	</g>
	<g>
		<path fill="#163535" d="M246,382.4c0.1,0.1,0.3,0.2,0.4,0.3c2,1.6,3.1,4,3.1,6.4c0,1.7-0.5,3.5-1.5,5c-2.1,2.9-5.7,4.1-8.9,3.2
			c-0.9-0.2-1.9-0.7-2.7-1.3c-0.8-0.6-1.5-1.3-2.1-2.1c-1.9-2.8-1.9-6.6,0.1-9.5C237,380.6,242.2,379.7,246,382.4z"/>
		<path fill="#1C2D32" d="M246,382.4c0.1,0.1,0.3,0.2,0.4,0.3c2,1.6,3.1,4,3.1,6.4c-0.6-0.6-1.2-1.3-1.8-1.9
			c-2.8-2.8-6.1-4.8-9.5-0.9c-2.6,2.9-2.7,6.2-1.1,8.8c0.5,0.8,1.1,1.6,1.9,2.2c-0.9-0.2-1.9-0.7-2.7-1.3c-0.8-0.6-1.5-1.3-2.1-2.1
			c-1.9-2.8-1.9-6.6,0.1-9.5C237,380.6,242.2,379.7,246,382.4z"/>
		<path fill="#245954" d="M247.7,387.1c0.1-1.8-0.8-3-1.3-4.5c2,1.6,3.1,4,3.1,6.4c0,1.7-0.5,3.5-1.5,5c-2.1,2.9-5.7,4.1-8.9,3.2
			c-0.9-0.2-1.9-0.7-2.7-1.3c-0.8-0.6-1.5-1.3-2.1-2.1c0.5,0.3,0.9,0.5,1.4,0.7c0.5,0.2,1,0.4,1.5,0.5c2.3,0.6,4.9,0.4,6.8-1
			c1.8-1.4,3.2-3.8,3.7-6C247.6,387.7,247.7,387.4,247.7,387.1z"/>
	</g>
</g>
<g>
	<g>
		<path fill="#163535" d="M280.5,416.6c0.1,0.1,0.3,0.2,0.4,0.3c2,1.6,3.1,4,3.1,6.4c0,1.7-0.5,3.5-1.5,5c-2.1,2.9-5.7,4.1-8.9,3.2
			c-0.9-0.2-1.9-0.7-2.7-1.3c-0.8-0.6-1.5-1.3-2.1-2.1c-1.9-2.8-1.9-6.6,0.1-9.5C271.6,414.8,276.8,414,280.5,416.6z"/>
		<path fill="#1C2D32" d="M280.5,416.6c0.1,0.1,0.3,0.2,0.4,0.3c2,1.6,3.1,4,3.1,6.4c-0.6-0.6-1.2-1.3-1.8-1.9
			c-2.8-2.8-6.1-4.8-9.5-0.9c-2.6,2.9-2.7,6.2-1.1,8.8c0.5,0.8,1.1,1.6,1.9,2.2c-0.9-0.2-1.9-0.7-2.7-1.3c-0.8-0.6-1.5-1.3-2.1-2.1
			c-1.9-2.8-1.9-6.6,0.1-9.5C271.6,414.8,276.8,414,280.5,416.6z"/>
		<path fill="#245954" d="M282.3,421.4c0.1-1.8-0.8-3-1.3-4.5c2,1.6,3.1,4,3.1,6.4c0,1.7-0.5,3.5-1.5,5c-2.1,2.9-5.7,4.1-8.9,3.2
			c-0.9-0.2-1.9-0.7-2.7-1.3c-0.8-0.6-1.5-1.3-2.1-2.1c0.5,0.3,0.9,0.5,1.4,0.7c0.5,0.2,1,0.4,1.5,0.5c2.3,0.6,4.9,0.4,6.8-1
			c1.8-1.4,3.2-3.8,3.7-6C282.2,421.9,282.2,421.7,282.3,421.4z"/>
	</g>
	<g>
		<path fill="#163535" d="M280.5,450c0.1,0.1,0.3,0.2,0.4,0.3c2,1.6,3.1,4,3.1,6.4c0,1.7-0.5,3.5-1.5,5c-2.1,2.9-5.7,4.1-8.9,3.2
			c-0.9-0.2-1.9-0.7-2.7-1.3c-0.8-0.6-1.5-1.3-2.1-2.1c-1.9-2.8-1.9-6.6,0.1-9.5C271.6,448.2,276.8,447.3,280.5,450z"/>
		<path fill="#1C2D32" d="M280.5,450c0.1,0.1,0.3,0.2,0.4,0.3c2,1.6,3.1,4,3.1,6.4c-0.6-0.6-1.2-1.3-1.8-1.9
			c-2.8-2.8-6.1-4.8-9.5-0.9c-2.6,2.9-2.7,6.2-1.1,8.8c0.5,0.8,1.1,1.6,1.9,2.2c-0.9-0.2-1.9-0.7-2.7-1.3c-0.8-0.6-1.5-1.3-2.1-2.1
			c-1.9-2.8-1.9-6.6,0.1-9.5C271.6,448.2,276.8,447.3,280.5,450z"/>
		<path fill="#245954" d="M282.3,454.7c0.1-1.8-0.8-3-1.3-4.5c2,1.6,3.1,4,3.1,6.4c0,1.7-0.5,3.5-1.5,5c-2.1,2.9-5.7,4.1-8.9,3.2
			c-0.9-0.2-1.9-0.7-2.7-1.3c-0.8-0.6-1.5-1.3-2.1-2.1c0.5,0.3,0.9,0.5,1.4,0.7c0.5,0.2,1,0.4,1.5,0.5c2.3,0.6,4.9,0.4,6.8-1
			c1.8-1.4,3.2-3.8,3.7-6C282.2,455.3,282.2,455,282.3,454.7z"/>
	</g>
	<g>
		<path fill="#163535" d="M281.2,383.3c0.1,0.1,0.3,0.2,0.4,0.3c2,1.6,3.1,4,3.1,6.4c0,1.7-0.5,3.5-1.5,5c-2.1,2.9-5.7,4.1-8.9,3.2
			c-0.9-0.2-1.9-0.7-2.7-1.3c-0.8-0.6-1.5-1.3-2.1-2.1c-1.9-2.8-1.9-6.6,0.1-9.5C272.3,381.5,277.5,380.6,281.2,383.3z"/>
		<path fill="#1C2D32" d="M281.2,383.3c0.1,0.1,0.3,0.2,0.4,0.3c2,1.6,3.1,4,3.1,6.4c-0.6-0.6-1.2-1.3-1.8-1.9
			c-2.8-2.8-6.1-4.8-9.5-0.9c-2.6,2.9-2.7,6.2-1.1,8.8c0.5,0.8,1.1,1.6,1.9,2.2c-0.9-0.2-1.9-0.7-2.7-1.3c-0.8-0.6-1.5-1.3-2.1-2.1
			c-1.9-2.8-1.9-6.6,0.1-9.5C272.3,381.5,277.5,380.6,281.2,383.3z"/>
		<path fill="#245954" d="M283,388.1c0.1-1.8-0.8-3-1.3-4.5c2,1.6,3.1,4,3.1,6.4c0,1.7-0.5,3.5-1.5,5c-2.1,2.9-5.7,4.1-8.9,3.2
			c-0.9-0.2-1.9-0.7-2.7-1.3c-0.8-0.6-1.5-1.3-2.1-2.1c0.5,0.3,0.9,0.5,1.4,0.7c0.5,0.2,1,0.4,1.5,0.5c2.3,0.6,4.9,0.4,6.8-1
			c1.8-1.4,3.2-3.8,3.7-6C282.9,388.6,283,388.3,283,388.1z"/>
	</g>
</g>
<polygon fill="#283E3D" points="296.6,393.2 282.9,406.1 299.5,420.6 305.4,404.5 "/>
<path fill="#283E3D" d="M224.4,356l-18.6,7.8c0,0,19.5,22.7,19.9,22c0.3-0.7,23.1-22.3,23.1-22.3L224.4,356z"/>
<polygon fill="#283E3D" points="228.4,479.3 218.5,463.2 201,476.6 215.6,485.6 "/>
<polygon fill="#012E2F" points="263,465.1 234.2,470.9 271.3,490.1 305.4,480.2 268.8,477.6 "/>
<path fill="#012E2F" d="M197.5,434.6c1.3-0.3,24.1-3.2,24.1-3.2l25.7,8.2l-24.9,8.7L197.5,434.6z"/>
</svg>
