<?xml version="1.0" encoding="utf-8"?>
<!-- Generator: Adobe Illustrator 19.0.1, SVG Export Plug-In . SVG Version: 6.00 Build 0)  -->
<!DOCTYPE svg PUBLIC "-//W3C//DTD SVG 1.1//EN" "http://www.w3.org/Graphics/SVG/1.1/DTD/svg11.dtd">
<svg version="1.1" id="Layer_1" xmlns="http://www.w3.org/2000/svg" xmlns:xlink="http://www.w3.org/1999/xlink" x="0px" y="0px"
	 viewBox="0 0 960 560" enable-background="new 0 0 960 560" xml:space="preserve">
<rect x="403.9" y="203.8" fill="#1E2929" width="154" height="154"/>
<path fill="#153535" d="M468.4,353.1h77.4c4.2,0,7.6-5.4,7.6-12V220.4c0-3.8-1.1-7.1-2.8-9.3c-1.3-1.7-3-2.7-4.7-2.7h-77.4
	c-4.2,0-7.6,5.4-7.6,12v120.7c0,1.7,0.2,3.2,0.6,4.7C462.6,350.1,465.3,353.1,468.4,353.1z"/>
<path fill="#1B2D32" d="M468.4,353.1h77.4c4.2,0,7.6-5.4,7.6-12V220.4c0-3.8-1.1-7.1-2.8-9.3c1.2,10.7,1.5,21.8,1.3,32.6
	c-0.2,10.6-1.9,21.4-1.1,31.9c0.4,5.2,0.5,10.5,0.6,15.8c0.2,9.6,0.2,20-0.3,29.6c-0.2,4.3-0.7,8.5-0.9,12.7
	c-0.2,3.2-0.4,6.6-1.6,9.3c-1.9,4.4-5.2,4.8-8.3,5.1c-5.5,0.6-11.1,0.7-16.6,1c-3.3,0.2-6.5,1.4-9.7,2.1c-5.6,1.2-11.2,0.5-16.8,0.2
	c-9.8-0.5-19.1-0.3-28.8-3.1c-2.3-0.7-4.6-1.6-6.9-2.4C462.6,350.1,465.3,353.1,468.4,353.1z"/>
<path fill="#235953" d="M468.4,353.1h2.7c-1.3-2-2.4-4.2-3.4-6.5c-0.9-2.4-1.7-5-2.3-7.8c-0.4-3.1-0.8-6.2-1.2-9.3
	c-3.2-27.6-3.8-57.6-0.8-85.6c0.4-3.2,0.8-6.3,1.4-9.3c3.1-14.7,9.6-25,23.3-24.5c2.4-0.3,4.8-0.5,7.1-0.6c2.3-0.1,4.6-0.2,6.7-0.3
	c2,0,4,0.1,6.1,0.3c10.1,0.8,20.3,3.2,30.1,5.9c2.1,1,4.1,2.2,6.2,3.5c3.1,2.1,6.1,4.6,9,7.7v-6.2c0-6.6-3.4-12-7.6-12h-77.4
	c-4.2,0-7.6,5.4-7.6,12v120.7C460.8,347.7,464.2,353.1,468.4,353.1z"/>
<path fill="none" d="M499.3,202.1c0-0.1,0-0.1,0-0.2"/>
<g>
	<path fill="#153535" d="M466.1,345.2c0.1,0.1,0.2,0.3,0.3,0.4c1.6,2,4,3.1,6.4,3.1c1.7,0,3.5-0.5,5-1.5c2.9-2.1,4.1-5.7,3.2-8.9
		c-0.2-0.9-0.7-1.9-1.3-2.7c-0.6-0.8-1.3-1.5-2.1-2.1c-2.8-1.9-6.6-1.9-9.5,0.1C464.4,336.3,463.5,341.5,466.1,345.2z"/>
	<path fill="#1B2D32" d="M466.1,345.2c0.1,0.1,0.2,0.3,0.3,0.4c1.6,2,4,3.1,6.4,3.1c-0.6-0.6-1.3-1.2-1.9-1.8
		c-2.8-2.8-4.8-6.1-0.9-9.5c2.9-2.6,6.2-2.7,8.8-1.1c0.8,0.5,1.6,1.1,2.2,1.9c-0.2-0.9-0.7-1.9-1.3-2.7c-0.6-0.8-1.3-1.5-2.1-2.1
		c-2.8-1.9-6.6-1.9-9.5,0.1C464.4,336.3,463.5,341.5,466.1,345.2z"/>
	<path fill="#235953" d="M470.9,346.9c-1.8,0.1-3-0.8-4.5-1.3c1.6,2,4,3.1,6.4,3.1c1.7,0,3.5-0.5,5-1.5c2.9-2.1,4.1-5.7,3.2-8.9
		c-0.2-0.9-0.7-1.9-1.3-2.7c-0.6-0.8-1.3-1.5-2.1-2.1c0.3,0.5,0.5,0.9,0.7,1.4c0.2,0.5,0.4,1,0.5,1.5c0.6,2.3,0.4,4.9-1,6.8
		c-1.4,1.8-3.8,3.2-6,3.7C471.5,346.9,471.2,346.9,470.9,346.9z"/>
</g>
<g>
	<path fill="#153535" d="M534.8,224.2c0.1,0.1,0.2,0.3,0.3,0.4c1.6,2,4,3.1,6.4,3.1c1.7,0,3.5-0.5,5-1.5c2.9-2.1,4.1-5.7,3.2-8.9
		c-0.2-0.9-0.7-1.9-1.3-2.7c-0.6-0.8-1.3-1.5-2.1-2.1c-2.8-1.9-6.6-1.9-9.5,0.1C533.1,215.3,532.2,220.5,534.8,224.2z"/>
	<path fill="#1B2D32" d="M534.8,224.2c0.1,0.1,0.2,0.3,0.3,0.4c1.6,2,4,3.1,6.4,3.1c-0.6-0.6-1.3-1.2-1.9-1.8
		c-2.8-2.8-4.8-6.1-0.9-9.5c2.9-2.6,6.2-2.7,8.8-1.1c0.8,0.5,1.6,1.1,2.2,1.9c-0.2-0.9-0.7-1.9-1.3-2.7c-0.6-0.8-1.3-1.5-2.1-2.1
		c-2.8-1.9-6.6-1.9-9.5,0.1C533.1,215.3,532.2,220.5,534.8,224.2z"/>
	<path fill="#235953" d="M539.6,225.9c-1.8,0.1-3-0.8-4.5-1.3c1.6,2,4,3.1,6.4,3.1c1.7,0,3.5-0.5,5-1.5c2.9-2.1,4.1-5.7,3.2-8.9
		c-0.2-0.9-0.7-1.9-1.3-2.7c-0.6-0.8-1.3-1.5-2.1-2.1c0.3,0.5,0.5,0.9,0.7,1.4c0.2,0.5,0.4,1,0.5,1.5c0.6,2.3,0.4,4.9-1,6.8
		c-1.4,1.8-3.8,3.2-6,3.7C540.2,225.9,539.9,225.9,539.6,225.9z"/>
</g>
<g>
	<path fill="#153535" d="M532.9,344.8c0.1,0.1,0.2,0.3,0.3,0.4c1.6,2,4,3.1,6.4,3.1c1.7,0,3.5-0.5,5-1.5c2.9-2.1,4.1-5.7,3.2-8.9
		c-0.2-0.9-0.7-1.9-1.3-2.7s-1.3-1.5-2.1-2.1c-2.8-1.9-6.6-1.9-9.5,0.1C531.1,335.8,530.3,341,532.9,344.8z"/>
	<path fill="#1B2D32" d="M532.9,344.8c0.1,0.1,0.2,0.3,0.3,0.4c1.6,2,4,3.1,6.4,3.1c-0.6-0.6-1.3-1.2-1.9-1.8
		c-2.8-2.8-4.8-6.1-0.9-9.5c2.9-2.6,6.2-2.7,8.8-1.1c0.8,0.5,1.6,1.1,2.2,1.9c-0.2-0.9-0.7-1.9-1.3-2.7s-1.3-1.5-2.1-2.1
		c-2.8-1.9-6.6-1.9-9.5,0.1C531.1,335.8,530.3,341,532.9,344.8z"/>
	<path fill="#235953" d="M537.7,346.5c-1.8,0.1-3-0.8-4.5-1.3c1.6,2,4,3.1,6.4,3.1c1.7,0,3.5-0.5,5-1.5c2.9-2.1,4.1-5.7,3.2-8.9
		c-0.2-0.9-0.7-1.9-1.3-2.7s-1.3-1.5-2.1-2.1c0.3,0.5,0.5,0.9,0.7,1.4c0.2,0.5,0.4,1,0.5,1.5c0.6,2.3,0.4,4.9-1,6.8
		c-1.4,1.8-3.8,3.2-6,3.7C538.2,346.5,538,346.5,537.7,346.5z"/>
</g>
<g>
	<path fill="#153535" d="M467,226.6c0.1,0.1,0.2,0.3,0.3,0.4c1.6,2,4,3.1,6.4,3.1c1.7,0,3.5-0.5,5-1.5c2.9-2.1,4.1-5.7,3.2-8.9
		c-0.2-0.9-0.7-1.9-1.3-2.7c-0.6-0.8-1.3-1.5-2.1-2.1c-2.8-1.9-6.6-1.9-9.5,0.1C465.2,217.7,464.3,222.9,467,226.6z"/>
	<path fill="#1B2D32" d="M467,226.6c0.1,0.1,0.2,0.3,0.3,0.4c1.6,2,4,3.1,6.4,3.1c-0.6-0.6-1.3-1.2-1.9-1.8
		c-2.8-2.8-4.8-6.1-0.9-9.5c2.9-2.6,6.2-2.7,8.8-1.1c0.8,0.5,1.6,1.1,2.2,1.9c-0.2-0.9-0.7-1.9-1.3-2.7c-0.6-0.8-1.3-1.5-2.1-2.1
		c-2.8-1.9-6.6-1.9-9.5,0.1C465.2,217.7,464.3,222.9,467,226.6z"/>
	<path fill="#235953" d="M471.7,228.3c-1.8,0.1-3-0.8-4.5-1.3c1.6,2,4,3.1,6.4,3.1c1.7,0,3.5-0.5,5-1.5c2.9-2.1,4.1-5.7,3.2-8.9
		c-0.2-0.9-0.7-1.9-1.3-2.7c-0.6-0.8-1.3-1.5-2.1-2.1c0.3,0.5,0.5,0.9,0.7,1.4c0.2,0.5,0.4,1,0.5,1.5c0.6,2.3,0.4,4.9-1,6.8
		c-1.4,1.8-3.8,3.2-6,3.7C472.3,228.3,472,228.3,471.7,228.3z"/>
</g>
<path fill="#283E3D" d="M495.8,241.5c0,1.4,4.4,24.3,4.4,24.3L523,284l3.9-28.7L495.8,241.5z"/>
<path fill="#153535" d="M413,352.8h38.7c2.1,0,3.8-5.4,3.8-12V220.1c0-3.8-0.6-7.1-1.4-9.3c-0.7-1.7-1.5-2.7-2.4-2.7H413
	c-2.1,0-3.8,5.4-3.8,12v120.7c0,1.7,0.1,3.2,0.3,4.7C410.1,349.7,411.4,352.8,413,352.8z"/>
<path fill="#1B2D32" d="M413,352.8h38.7c2.1,0,3.8-5.4,3.8-12V220.1c0-3.8-0.6-7.1-1.4-9.3c0.6,10.7,0.7,21.8,0.6,32.6
	c-0.1,10.6-1,21.4-0.6,31.9c0.2,5.2,0.2,10.5,0.3,15.8c0.1,9.6,0.1,20-0.1,29.6c-0.1,4.3-0.4,8.5-0.5,12.7c-0.1,3.2-0.2,6.6-0.8,9.3
	c-0.9,4.4-2.6,4.8-4.1,5.1c-2.8,0.6-5.5,0.7-8.3,1c-1.6,0.2-3.2,1.4-4.9,2.1c-2.8,1.2-5.6,0.5-8.4,0.2c-4.9-0.5-9.5-0.3-14.4-3.1
	c-1.2-0.7-2.3-1.6-3.4-2.4C410.1,349.7,411.4,352.8,413,352.8z"/>
<path fill="#235953" d="M413,352.8h1.3c-0.7-2-1.2-4.2-1.7-6.5c-0.5-2.4-0.8-5-1.1-7.8c-0.2-3.1-0.4-6.2-0.6-9.3
	c-1.6-27.6-1.9-57.6-0.4-85.6c0.2-3.2,0.4-6.3,0.7-9.3c1.5-14.7,4.8-25,11.6-24.5c1.2-0.3,2.4-0.5,3.5-0.6c1.2-0.1,2.3-0.2,3.3-0.3
	c1,0,2,0.1,3,0.3c5.1,0.8,10.1,3.2,15,5.9c1,1,2.1,2.2,3.1,3.5c1.5,2.1,3,4.6,4.5,7.7v-6.2c0-6.6-1.7-12-3.8-12H413
	c-2.1,0-3.8,5.4-3.8,12v120.7C409.2,347.4,410.9,352.8,413,352.8z"/>
<polygon fill="#012E2E" points="484.5,316.6 499.2,271.3 535.1,296.9 510,326.5 "/>
<polygon fill="#283E3D" points="414.4,268.5 422.8,232.5 450,278.9 436,321.3 432.2,275.7 "/>
<g>
	<path fill="#153535" d="M426.2,226.6c0.1,0.1,0.2,0.3,0.3,0.4c1.6,2,4,3.1,6.4,3.1c1.7,0,3.5-0.5,5-1.5c2.9-2.1,4.1-5.7,3.2-8.9
		c-0.2-0.9-0.7-1.9-1.3-2.7s-1.3-1.5-2.1-2.1c-2.8-1.9-6.6-1.9-9.5,0.1C424.4,217.7,423.6,222.9,426.2,226.6z"/>
	<path fill="#1B2D32" d="M426.2,226.6c0.1,0.1,0.2,0.3,0.3,0.4c1.6,2,4,3.1,6.4,3.1c-0.6-0.6-1.3-1.2-1.9-1.8
		c-2.8-2.8-4.8-6.1-0.9-9.5c2.9-2.6,6.2-2.7,8.8-1.1c0.8,0.5,1.6,1.1,2.2,1.9c-0.2-0.9-0.7-1.9-1.3-2.7s-1.3-1.5-2.1-2.1
		c-2.8-1.9-6.6-1.9-9.5,0.1C424.4,217.7,423.6,222.9,426.2,226.6z"/>
	<path fill="#235953" d="M431,228.3c-1.8,0.1-3-0.8-4.5-1.3c1.6,2,4,3.1,6.4,3.1c1.7,0,3.5-0.5,5-1.5c2.9-2.1,4.1-5.7,3.2-8.9
		c-0.2-0.9-0.7-1.9-1.3-2.7s-1.3-1.5-2.1-2.1c0.3,0.5,0.5,0.9,0.7,1.4c0.2,0.5,0.4,1,0.5,1.5c0.6,2.3,0.4,4.9-1,6.8
		c-1.4,1.8-3.8,3.2-6,3.7C431.5,228.3,431.3,228.3,431,228.3z"/>
</g>
<g>
	<path fill="#153535" d="M424.9,344.8c0.1,0.1,0.2,0.3,0.3,0.4c1.6,2,4,3.1,6.4,3.1c1.7,0,3.5-0.5,5-1.5c2.9-2.1,4.1-5.7,3.2-8.9
		c-0.2-0.9-0.7-1.9-1.3-2.7c-0.6-0.8-1.3-1.5-2.1-2.1c-2.8-1.9-6.6-1.9-9.5,0.1C423.1,335.8,422.3,341,424.9,344.8z"/>
	<path fill="#1B2D32" d="M424.9,344.8c0.1,0.1,0.2,0.3,0.3,0.4c1.6,2,4,3.1,6.4,3.1c-0.6-0.6-1.3-1.2-1.9-1.8
		c-2.8-2.8-4.8-6.1-0.9-9.5c2.9-2.6,6.2-2.7,8.8-1.1c0.8,0.5,1.6,1.1,2.2,1.9c-0.2-0.9-0.7-1.9-1.3-2.7c-0.6-0.8-1.3-1.5-2.1-2.1
		c-2.8-1.9-6.6-1.9-9.5,0.1C423.1,335.8,422.3,341,424.9,344.8z"/>
	<path fill="#235953" d="M429.7,346.5c-1.8,0.1-3-0.8-4.5-1.3c1.6,2,4,3.1,6.4,3.1c1.7,0,3.5-0.5,5-1.5c2.9-2.1,4.1-5.7,3.2-8.9
		c-0.2-0.9-0.7-1.9-1.3-2.7c-0.6-0.8-1.3-1.5-2.1-2.1c0.3,0.5,0.5,0.9,0.7,1.4c0.2,0.5,0.4,1,0.5,1.5c0.6,2.3,0.4,4.9-1,6.8
		c-1.4,1.8-3.8,3.2-6,3.7C430.2,346.5,429.9,346.5,429.7,346.5z"/>
</g>
<polygon fill="#283E3D" points="490.3,287.9 481.7,315.6 466.4,298.9 "/>
<rect x="403.9" y="203.8" fill="#1E2929" width="154" height="154"/>
<path fill="#153535" d="M468.4,353.1h77.4c4.2,0,7.6-5.4,7.6-12V220.4c0-3.8-1.1-7.1-2.8-9.3c-1.3-1.7-3-2.7-4.7-2.7h-77.4
	c-4.2,0-7.6,5.4-7.6,12v120.7c0,1.7,0.2,3.2,0.6,4.7C462.6,350.1,465.3,353.1,468.4,353.1z"/>
<path fill="#1B2D32" d="M468.4,353.1h77.4c4.2,0,7.6-5.4,7.6-12V220.4c0-3.8-1.1-7.1-2.8-9.3c1.2,10.7,1.5,21.8,1.3,32.6
	c-0.2,10.6-1.9,21.4-1.1,31.9c0.4,5.2,0.5,10.5,0.6,15.8c0.2,9.6,0.2,20-0.3,29.6c-0.2,4.3-0.7,8.5-0.9,12.7
	c-0.2,3.2-0.4,6.6-1.6,9.3c-1.9,4.4-5.2,4.8-8.3,5.1c-5.5,0.6-11.1,0.7-16.6,1c-3.3,0.2-6.5,1.4-9.7,2.1c-5.6,1.2-11.2,0.5-16.8,0.2
	c-9.8-0.5-19.1-0.3-28.8-3.1c-2.3-0.7-4.6-1.6-6.9-2.4C462.6,350.1,465.3,353.1,468.4,353.1z"/>
<path fill="#235953" d="M468.4,353.1h2.7c-1.3-2-2.4-4.2-3.4-6.5c-0.9-2.4-1.7-5-2.3-7.8c-0.4-3.1-0.8-6.2-1.2-9.3
	c-3.2-27.6-3.8-57.6-0.8-85.6c0.4-3.2,0.8-6.3,1.4-9.3c3.1-14.7,9.6-25,23.3-24.5c2.4-0.3,4.8-0.5,7.1-0.6c2.3-0.1,4.6-0.2,6.7-0.3
	c2,0,4,0.1,6.1,0.3c10.1,0.8,20.3,3.2,30.1,5.9c2.1,1,4.1,2.2,6.2,3.5c3.1,2.1,6.1,4.6,9,7.7v-6.2c0-6.6-3.4-12-7.6-12h-77.4
	c-4.2,0-7.6,5.4-7.6,12v120.7C460.8,347.7,464.2,353.1,468.4,353.1z"/>
<path fill="none" d="M499.3,202.1c0-0.1,0-0.1,0-0.2"/>
<g>
	<path fill="#153535" d="M466.1,345.2c0.1,0.1,0.2,0.3,0.3,0.4c1.6,2,4,3.1,6.4,3.1c1.7,0,3.5-0.5,5-1.5c2.9-2.1,4.1-5.7,3.2-8.9
		c-0.2-0.9-0.7-1.9-1.3-2.7c-0.6-0.8-1.3-1.5-2.1-2.1c-2.8-1.9-6.6-1.9-9.5,0.1C464.4,336.3,463.5,341.5,466.1,345.2z"/>
	<path fill="#1B2D32" d="M466.1,345.2c0.1,0.1,0.2,0.3,0.3,0.4c1.6,2,4,3.1,6.4,3.1c-0.6-0.6-1.3-1.2-1.9-1.8
		c-2.8-2.8-4.8-6.1-0.9-9.5c2.9-2.6,6.2-2.7,8.8-1.1c0.8,0.5,1.6,1.1,2.2,1.9c-0.2-0.9-0.7-1.9-1.3-2.7c-0.6-0.8-1.3-1.5-2.1-2.1
		c-2.8-1.9-6.6-1.9-9.5,0.1C464.4,336.3,463.5,341.5,466.1,345.2z"/>
	<path fill="#235953" d="M470.9,346.9c-1.8,0.1-3-0.8-4.5-1.3c1.6,2,4,3.1,6.4,3.1c1.7,0,3.5-0.5,5-1.5c2.9-2.1,4.1-5.7,3.2-8.9
		c-0.2-0.9-0.7-1.9-1.3-2.7c-0.6-0.8-1.3-1.5-2.1-2.1c0.3,0.5,0.5,0.9,0.7,1.4c0.2,0.5,0.4,1,0.5,1.5c0.6,2.3,0.4,4.9-1,6.8
		c-1.4,1.8-3.8,3.2-6,3.7C471.5,346.9,471.2,346.9,470.9,346.9z"/>
</g>
<g>
	<path fill="#153535" d="M534.8,224.2c0.1,0.1,0.2,0.3,0.3,0.4c1.6,2,4,3.1,6.4,3.1c1.7,0,3.5-0.5,5-1.5c2.9-2.1,4.1-5.7,3.2-8.9
		c-0.2-0.9-0.7-1.9-1.3-2.7c-0.6-0.8-1.3-1.5-2.1-2.1c-2.8-1.9-6.6-1.9-9.5,0.1C533.1,215.3,532.2,220.5,534.8,224.2z"/>
	<path fill="#1B2D32" d="M534.8,224.2c0.1,0.1,0.2,0.3,0.3,0.4c1.6,2,4,3.1,6.4,3.1c-0.6-0.6-1.3-1.2-1.9-1.8
		c-2.8-2.8-4.8-6.1-0.9-9.5c2.9-2.6,6.2-2.7,8.8-1.1c0.8,0.5,1.6,1.1,2.2,1.9c-0.2-0.9-0.7-1.9-1.3-2.7c-0.6-0.8-1.3-1.5-2.1-2.1
		c-2.8-1.9-6.6-1.9-9.5,0.1C533.1,215.3,532.2,220.5,534.8,224.2z"/>
	<path fill="#235953" d="M539.6,225.9c-1.8,0.1-3-0.8-4.5-1.3c1.6,2,4,3.1,6.4,3.1c1.7,0,3.5-0.5,5-1.5c2.9-2.1,4.1-5.7,3.2-8.9
		c-0.2-0.9-0.7-1.9-1.3-2.7c-0.6-0.8-1.3-1.5-2.1-2.1c0.3,0.5,0.5,0.9,0.7,1.4c0.2,0.5,0.4,1,0.5,1.5c0.6,2.3,0.4,4.9-1,6.8
		c-1.4,1.8-3.8,3.2-6,3.7C540.2,225.9,539.9,225.9,539.6,225.9z"/>
</g>
<g>
	<path fill="#153535" d="M532.9,344.8c0.1,0.1,0.2,0.3,0.3,0.4c1.6,2,4,3.1,6.4,3.1c1.7,0,3.5-0.5,5-1.5c2.9-2.1,4.1-5.7,3.2-8.9
		c-0.2-0.9-0.7-1.9-1.3-2.7s-1.3-1.5-2.1-2.1c-2.8-1.9-6.6-1.9-9.5,0.1C531.1,335.8,530.3,341,532.9,344.8z"/>
	<path fill="#1B2D32" d="M532.9,344.8c0.1,0.1,0.2,0.3,0.3,0.4c1.6,2,4,3.1,6.4,3.1c-0.6-0.6-1.3-1.2-1.9-1.8
		c-2.8-2.8-4.8-6.1-0.9-9.5c2.9-2.6,6.2-2.7,8.8-1.1c0.8,0.5,1.6,1.1,2.2,1.9c-0.2-0.9-0.7-1.9-1.3-2.7s-1.3-1.5-2.1-2.1
		c-2.8-1.9-6.6-1.9-9.5,0.1C531.1,335.8,530.3,341,532.9,344.8z"/>
	<path fill="#235953" d="M537.7,346.5c-1.8,0.1-3-0.8-4.5-1.3c1.6,2,4,3.1,6.4,3.1c1.7,0,3.5-0.5,5-1.5c2.9-2.1,4.1-5.7,3.2-8.9
		c-0.2-0.9-0.7-1.9-1.3-2.7s-1.3-1.5-2.1-2.1c0.3,0.5,0.5,0.9,0.7,1.4c0.2,0.5,0.4,1,0.5,1.5c0.6,2.3,0.4,4.9-1,6.8
		c-1.4,1.8-3.8,3.2-6,3.7C538.2,346.5,538,346.5,537.7,346.5z"/>
</g>
<g>
	<path fill="#153535" d="M467,226.6c0.1,0.1,0.2,0.3,0.3,0.4c1.6,2,4,3.1,6.4,3.1c1.7,0,3.5-0.5,5-1.5c2.9-2.1,4.1-5.7,3.2-8.9
		c-0.2-0.9-0.7-1.9-1.3-2.7c-0.6-0.8-1.3-1.5-2.1-2.1c-2.8-1.9-6.6-1.9-9.5,0.1C465.2,217.7,464.3,222.9,467,226.6z"/>
	<path fill="#1B2D32" d="M467,226.6c0.1,0.1,0.2,0.3,0.3,0.4c1.6,2,4,3.1,6.4,3.1c-0.6-0.6-1.3-1.2-1.9-1.8
		c-2.8-2.8-4.8-6.1-0.9-9.5c2.9-2.6,6.2-2.7,8.8-1.1c0.8,0.5,1.6,1.1,2.2,1.9c-0.2-0.9-0.7-1.9-1.3-2.7c-0.6-0.8-1.3-1.5-2.1-2.1
		c-2.8-1.9-6.6-1.9-9.5,0.1C465.2,217.7,464.3,222.9,467,226.6z"/>
	<path fill="#235953" d="M471.7,228.3c-1.8,0.1-3-0.8-4.5-1.3c1.6,2,4,3.1,6.4,3.1c1.7,0,3.5-0.5,5-1.5c2.9-2.1,4.1-5.7,3.2-8.9
		c-0.2-0.9-0.7-1.9-1.3-2.7c-0.6-0.8-1.3-1.5-2.1-2.1c0.3,0.5,0.5,0.9,0.7,1.4c0.2,0.5,0.4,1,0.5,1.5c0.6,2.3,0.4,4.9-1,6.8
		c-1.4,1.8-3.8,3.2-6,3.7C472.3,228.3,472,228.3,471.7,228.3z"/>
</g>
<path fill="#283E3D" d="M495.8,241.5c0,1.4,4.4,24.3,4.4,24.3L523,284l3.9-28.7L495.8,241.5z"/>
<path fill="#153535" d="M413,352.8h38.7c2.1,0,3.8-5.4,3.8-12V220.1c0-3.8-0.6-7.1-1.4-9.3c-0.7-1.7-1.5-2.7-2.4-2.7H413
	c-2.1,0-3.8,5.4-3.8,12v120.7c0,1.7,0.1,3.2,0.3,4.7C410.1,349.7,411.4,352.8,413,352.8z"/>
<path fill="#1B2D32" d="M413,352.8h38.7c2.1,0,3.8-5.4,3.8-12V220.1c0-3.8-0.6-7.1-1.4-9.3c0.6,10.7,0.7,21.8,0.6,32.6
	c-0.1,10.6-1,21.4-0.6,31.9c0.2,5.2,0.2,10.5,0.3,15.8c0.1,9.6,0.1,20-0.1,29.6c-0.1,4.3-0.4,8.5-0.5,12.7c-0.1,3.2-0.2,6.6-0.8,9.3
	c-0.9,4.4-2.6,4.8-4.1,5.1c-2.8,0.6-5.5,0.7-8.3,1c-1.6,0.2-3.2,1.4-4.9,2.1c-2.8,1.2-5.6,0.5-8.4,0.2c-4.9-0.5-9.5-0.3-14.4-3.1
	c-1.2-0.7-2.3-1.6-3.4-2.4C410.1,349.7,411.4,352.8,413,352.8z"/>
<path fill="#235953" d="M413,352.8h1.3c-0.7-2-1.2-4.2-1.7-6.5c-0.5-2.4-0.8-5-1.1-7.8c-0.2-3.1-0.4-6.2-0.6-9.3
	c-1.6-27.6-1.9-57.6-0.4-85.6c0.2-3.2,0.4-6.3,0.7-9.3c1.5-14.7,4.8-25,11.6-24.5c1.2-0.3,2.4-0.5,3.5-0.6c1.2-0.1,2.3-0.2,3.3-0.3
	c1,0,2,0.1,3,0.3c5.1,0.8,10.1,3.2,15,5.9c1,1,2.1,2.2,3.1,3.5c1.5,2.1,3,4.6,4.5,7.7v-6.2c0-6.6-1.7-12-3.8-12H413
	c-2.1,0-3.8,5.4-3.8,12v120.7C409.2,347.4,410.9,352.8,413,352.8z"/>
<polygon fill="#012E2E" points="484.5,316.6 499.2,271.3 535.1,296.9 510,326.5 "/>
<polygon fill="#283E3D" points="414.4,268.5 422.8,232.5 450,278.9 436,321.3 432.2,275.7 "/>
<g>
	<path fill="#153535" d="M426.2,226.6c0.1,0.1,0.2,0.3,0.3,0.4c1.6,2,4,3.1,6.4,3.1c1.7,0,3.5-0.5,5-1.5c2.9-2.1,4.1-5.7,3.2-8.9
		c-0.2-0.9-0.7-1.9-1.3-2.7s-1.3-1.5-2.1-2.1c-2.8-1.9-6.6-1.9-9.5,0.1C424.4,217.7,423.6,222.9,426.2,226.6z"/>
	<path fill="#1B2D32" d="M426.2,226.6c0.1,0.1,0.2,0.3,0.3,0.4c1.6,2,4,3.1,6.4,3.1c-0.6-0.6-1.3-1.2-1.9-1.8
		c-2.8-2.8-4.8-6.1-0.9-9.5c2.9-2.6,6.2-2.7,8.8-1.1c0.8,0.5,1.6,1.1,2.2,1.9c-0.2-0.9-0.7-1.9-1.3-2.7s-1.3-1.5-2.1-2.1
		c-2.8-1.9-6.6-1.9-9.5,0.1C424.4,217.7,423.6,222.9,426.2,226.6z"/>
	<path fill="#235953" d="M431,228.3c-1.8,0.1-3-0.8-4.5-1.3c1.6,2,4,3.1,6.4,3.1c1.7,0,3.5-0.5,5-1.5c2.9-2.1,4.1-5.7,3.2-8.9
		c-0.2-0.9-0.7-1.9-1.3-2.7s-1.3-1.5-2.1-2.1c0.3,0.5,0.5,0.9,0.7,1.4c0.2,0.5,0.4,1,0.5,1.5c0.6,2.3,0.4,4.9-1,6.8
		c-1.4,1.8-3.8,3.2-6,3.7C431.5,228.3,431.3,228.3,431,228.3z"/>
</g>
<g>
	<path fill="#153535" d="M424.9,344.8c0.1,0.1,0.2,0.3,0.3,0.4c1.6,2,4,3.1,6.4,3.1c1.7,0,3.5-0.5,5-1.5c2.9-2.1,4.1-5.7,3.2-8.9
		c-0.2-0.9-0.7-1.9-1.3-2.7c-0.6-0.8-1.3-1.5-2.1-2.1c-2.8-1.9-6.6-1.9-9.5,0.1C423.1,335.8,422.3,341,424.9,344.8z"/>
	<path fill="#1B2D32" d="M424.9,344.8c0.1,0.1,0.2,0.3,0.3,0.4c1.6,2,4,3.1,6.4,3.1c-0.6-0.6-1.3-1.2-1.9-1.8
		c-2.8-2.8-4.8-6.1-0.9-9.5c2.9-2.6,6.2-2.7,8.8-1.1c0.8,0.5,1.6,1.1,2.2,1.9c-0.2-0.9-0.7-1.9-1.3-2.7c-0.6-0.8-1.3-1.5-2.1-2.1
		c-2.8-1.9-6.6-1.9-9.5,0.1C423.1,335.8,422.3,341,424.9,344.8z"/>
	<path fill="#235953" d="M429.7,346.5c-1.8,0.1-3-0.8-4.5-1.3c1.6,2,4,3.1,6.4,3.1c1.7,0,3.5-0.5,5-1.5c2.9-2.1,4.1-5.7,3.2-8.9
		c-0.2-0.9-0.7-1.9-1.3-2.7c-0.6-0.8-1.3-1.5-2.1-2.1c0.3,0.5,0.5,0.9,0.7,1.4c0.2,0.5,0.4,1,0.5,1.5c0.6,2.3,0.4,4.9-1,6.8
		c-1.4,1.8-3.8,3.2-6,3.7C430.2,346.5,429.9,346.5,429.7,346.5z"/>
</g>
<polygon fill="#283E3D" points="490.3,287.9 481.7,315.6 466.4,298.9 "/>
</svg>
