<?xml version="1.0" encoding="utf-8"?>
<!-- Generator: Adobe Illustrator 19.0.1, SVG Export Plug-In . SVG Version: 6.00 Build 0)  -->
<!DOCTYPE svg PUBLIC "-//W3C//DTD SVG 1.1//EN" "http://www.w3.org/Graphics/SVG/1.1/DTD/svg11.dtd">
<svg version="1.1" id="Layer_1" xmlns="http://www.w3.org/2000/svg" xmlns:xlink="http://www.w3.org/1999/xlink" x="0px" y="0px"
	 viewBox="0 0 960 560" enable-background="new 0 0 960 560" xml:space="preserve">
<linearGradient id="SVGID_1_" gradientUnits="userSpaceOnUse" x1="481.3165" y1="354.4" x2="481.3165" y2="207.2509">
	<stop  offset="0" style="stop-color:#1E2929"/>
	<stop  offset="1" style="stop-color:#16D835"/>
</linearGradient>
<path opacity="0.5" fill="url(#SVGID_1_)" d="M544.1,220.4c0.5,5.6-7,8.4-8.5,14.4c-1.6,6.5,3.2,10.4,7.8,13.8
	c6.4,4.7,9.6,7.2,11.4,14.8c1,4.6,2.7,8.9,4,13.5c1.6,5.5,0.5,8.2-1.8,13.3c-4.8,10.6,7.7,15.1,11.3,23.9c3.5,8.8,6.1,19.6,0.1,27.6
	c-2.6,3.4-5.9,6.7-9.9,8.4c-2.3,1-4.9,0.9-7.1,2c-2.2,1.1-3.5,2.3-6.3,2.3c0,0-120.7,0-120.7,0c-0.9,0-1.8-0.1-2.7-0.3
	c-0.9-0.2-1.8-0.5-2.6-0.9c-0.3-0.1-0.6-0.3-0.8-0.5c-2.7-1.6-4.8-1.7-6.7-4.7c-1.6-2.5-3.8-5.2-4.4-8.2c-1.2-6.3-1.4-13.1-4-19.1
	c-3.1-7.1-14.4-7.3-12.2-16.3c1.2-4.9,4.7-10.1,7.5-14.2c1.9-2.7,6.7-6.3,7.5-9.5c1.1-4.5-4.7-4.8-2.9-9.7c1.4-3.9,4.7-7.6,6.7-11.3
	c4-7.4,7-18.1,15.2-21.9c2.5-1.2,7.6-0.8,9.4-3.2c1.3-1.6,0.1-3.5,0.7-5.3c1.4-4,7.2-6.4,10.9-7.8c8.9-3.4,19-3.8,28.3-5.4
	c0.8-0.1,4.5-0.2,5.2-1c0.4-0.5-0.1-1.2,0.2-1.6c0.7-1-0.3-1.1,1.3-2.2c4.8-3.4,12.1-0.5,17.2-0.2c2.7,0.1,5-1,7.4-1.3
	c5-0.6,9.9-2,14.9-2.5c8.6-1,18,1.6,22.5,9.5C543.6,218.2,544,219.4,544.1,220.4z"/>
<path opacity="0.5" fill="#7CF106" d="M426.9,246.8c0.1-2.1,7.3-4.4,8.7-5c6.7-2.7,13.2-1.9,20.1-3.1c2.5-0.4,7.2-0.7,8.6-3.5
	c1.1-2.2-0.5-3.9,1-5.9c2.5-3.3,10.7-4.7,14.4-5.1c4-0.4,7.5,1.4,11.5,1.4c4.9-0.1,6.3-2.5,9.3-5.2c5.5-5,14.4-5.1,21.4-5.2
	c3.8,0,6.6-0.2,9.5,2.5c2.9,2.7,4,6.6,1.4,10c-1.7,2.1-6.4,4.9-6.7,7.8c-0.2,2.2,3.4,6.1,5,7.4c1.6,1.3,5.5,2.1,6.6,3.9
	c1.8,3.2-2.4,4.1-2.5,6.7c-0.2,3.8,7.7,5.1,9.3,8c3.7,6.4-6.2,6.4-9.9,6c-7.6-0.7-12,4.1-18.7,7c-3.4,1.5-6.9,1.4-10.3-0.3
	c-5-2.5-5.2-4.5-2.7-8.8c1.7-3.1,5.4-7.3,3.5-11.1c-2.3-4.5-9.3-4.4-13.5-4.3c-10,0.2-19.2,3.6-29.1,5.5c-2.4,0.4-9.9,3-13.1,1.7
	c-2.6-1.1-1.2-1.5-2.8-3.7c-1.4-1.8-3.5-2.1-5.8-2.2c-2.9-0.1-5.7,1.2-8.7,1C431.3,252.1,426.7,249.7,426.9,246.8z"/>
<path opacity="0.53" fill="#2D5C00" d="M531.5,317.9c-1.7,1-3.4,2.3-5.3,2.8c-4.2,1-9.3,1.1-13.7,1.3c-7.5,0.4-15.1,0.5-22.6,0.7
	c-4.2,0.1-8.1,0.1-12.2-0.3c-4.3-0.4-8.8,0.6-12.9-1.2c-1.5-0.6-6-3.1-6.4-4.8c-0.3-1.2,1.8-2.5,1.5-4c-0.5-2.1-5.9-3.3-7.5-4.6
	c-1.4-1.1-2.3-3.4-3.8-4.2c-3.7-2.1-15.4,5.9-18.2,2.6c-1.5-1.8,0.4-4.9-1.7-6.7c-1.8-1.6-5.7-0.6-7.5,0c-3.6,1.1-7.8,3.7-8.6,7.6
	c-0.4,1.9,0.4,3.1-0.9,4.6c-2.4,2.8-5.7,2.1-5.8,6.4c-0.1,3.1,2.2,6.1,3.9,8.5c5.2,7.3,11.8,11.6,18.9,16.6c5.6,4,11.2,4.4,18,5.4
	c10.9,1.7,23.1,2.2,34,0.8c15.9-2.1,31.9-1.4,47.8-1c6.5,0.2,11.6-2.2,17.7-3.1c5.1-0.8,11.5-2.9,13.4-8.2c1.4-4.1-2.6-5.8-0.4-10.2
	c2.2-4.4,4.5-6.6,0.9-11c-3.1-3.8-6-2.7-7,1.6c-0.4,1.8-0.3,2.9-1.8,4.2c-2,1.8-8.2,3.6-10.4,1.7c-2.2-1.9-0.7-6.5-4.8-6.8
	C534.3,316.5,532.9,317.1,531.5,317.9z"/>
<path opacity="0.31" fill="#2D5C00" d="M449.4,276.9c3.4-4.6,14.4-5.3,19.7-5.7c10.3-0.8,0,4.1,4.8,8.3c2.9,2.6,12.1,0.9,15.9,0.9
	c5.8,0,11.7-0.4,17.4,0.3c6.2,0.8,5.7,1.2,5.5,6c5,1.6,11.4-0.2,16.5,0.3c1.2,0.1,2.3-0.3,3.2,0.6c2.8,2.7-2.4,10.9-3.8,12.8
	c-4.8,6.3-12.7,11.6-20.6,12.4c-3.7,0.4-12.6,0.6-10.7-4.8c1.1-3.3,7.2-6.8,6.1-10.8c-1.5-5.1-11.9-3.1-15.2-2.8
	c-4.3,0.4-28.4,2.6-21.7-5.9c-2.8-1.1-25.2,9.9-19.5-2.5c1-2.2,5.7-3.1,4.7-5.8c-0.6-1.6-3.7-0.3-3.6-2.3"/>
</svg>
