<?xml version="1.0" encoding="utf-8"?>
<!-- Generator: Adobe Illustrator 19.0.1, SVG Export Plug-In . SVG Version: 6.00 Build 0)  -->
<!DOCTYPE svg PUBLIC "-//W3C//DTD SVG 1.1//EN" "http://www.w3.org/Graphics/SVG/1.1/DTD/svg11.dtd">
<svg version="1.1" id="Layer_1" xmlns="http://www.w3.org/2000/svg" xmlns:xlink="http://www.w3.org/1999/xlink" x="0px" y="0px"
	 viewBox="0 0 960 560" enable-background="new 0 0 960 560" xml:space="preserve">
<linearGradient id="SVGID_1_" gradientUnits="userSpaceOnUse" x1="475.4253" y1="353.4" x2="475.4253" y2="206.3075">
	<stop  offset="0" style="stop-color:#1E2929"/>
	<stop  offset="1" style="stop-color:#16D835"/>
</linearGradient>
<path opacity="0.5" fill="url(#SVGID_1_)" d="M552,218.6c0.3,2,0.2,3.9-0.2,5.7c-0.6,2.6-1.5,4.1-2.4,6.5c-1.3,3.6-1.7,7.6-3.1,11.3
	c-1.6,4.3-3.4,9.3-4.2,13.8c-0.4,2.3-0.7,4.7,0.6,6.7c1.3,2.1,2.5,1.8,2.6,4.4c0.2,3.1-1.8,6.7-2.3,9.7c-1.1,6.9,1.3,13.5,3.5,19.8
	c1.6,4.5,4.2,8.8,5.1,13.5c1,4.5,0.3,9.7,0.3,14.3c0,5.6,0,11.3,0,16.9c0,6.6-5.4,12-12,12H419.3c-0.9,0-1.8-0.1-2.7-0.3
	c-0.9-0.2-1.8-0.5-2.6-0.9c-0.3-0.1-0.6-0.3-0.8-0.5c-0.9-0.5-1.7-1.2-2.4-1.9c0,0,0,0-0.1-0.1c-0.1-0.1-0.2-0.2-0.3-0.4
	c-0.1-0.2-0.3-0.3-0.4-0.5c-0.1-0.1-0.2-0.3-0.3-0.4c-1.5-2-2.4-4.4-2.4-7.1c0-3,0.2-5.6,0.3-8.6c0.1-1.7-0.4-3.7-0.3-5.4
	c0.1-2.8,1-6,0.6-8.7c-0.4-2.4-1.9-5.6-3.4-7.5c-1.5-1.8-4.8-2.6-5.6-4.8c-1.5-4.1,3.7-10.3,5.4-13.5c1.8-3.3,2.2-5.5,2.2-9.1
	c0-3.2-0.1-6.6-1.6-9.6c-1.7-3.4-2.4-3,0.6-7c2.1-2.8,2.7-5.2,4-8.4c2-4.9,5.9-8.7,7.6-13.6c2-5.8,0.7-7.9-2.7-12.9
	c-1-1.6-2.1-3.5-3.5-4.7c-1.5-1.3-4.5-2-5.3-4.1c-1.4-3.9,5.2-11.1,8.9-11.9c1.7-0.4,3.1,0.3,4.7,0.5c4.2,0.4,9.1,0.3,13.2-0.7
	c3.7-0.9,7-2.3,11-2.4c5.9-0.1,11.9,0.4,17.5,1.9c4.9,1.3,7.1,2.5,11.1-0.2c3.2-2.1,6.6-2,10.5-2c7.7,0,15.3,1.2,22.9,0
	c3.3-0.5,6.5-2,9.9-2.3c3.3-0.4,6.9,0.2,10.3,0.2c4.8,0,9.5,0,14.3,0c1.7,0,3.2,0.3,4.7,1C549,209.4,551.4,214,552,218.6z"/>
<path opacity="0.5" fill="#7CF106" d="M538.7,219c-2.5,3.7-1.9,4.1,2.4,6.1c4.6,2.1,1.7,6.1-1.4,8.1c-4.2,2.7-8.7,1.5-13.4,1.5
	c-10.7,0-22.2-2-32.8-0.3c-3.6,0.6-8.2,1.8-8.7,5.6c-0.1,1,1.1,2.1,0.5,3.3c-1,1.7-11.7,1.5-10.7,1.4c-10.9,0.5-19.4-0.1-27.8,7.8
	c-3.8,3.5-5.9,6.5-3.5,11.2c2,3.9,6.3,6,9.2,9.2c2.2,2.4,2.7,2.9,0.5,5.2c-2.8,3-7.3,3.8-11.1,4.1c-6.9,0.5-14,0.1-20.9-0.5
	c-2.1-0.2-6.8,0-8.4-1.7c-1.6-1.7-0.7-6-0.7-8c0-5,0.9-9.3,3-13.8c1.3-2.9,2.6-5.2,4.8-7.3c0.9-0.8,2.6-1.6,3.1-2.8
	c0.2-0.5-0.8-0.9-0.7-1.2c0.5-1.3,1.1-2.6,2-3.7c3.7-4.8,9.8-7,14.1-10.9c-2.8-3.5-24.5-5-14.1-12.1c7.6-5.2,17.5-5.4,26-3
	c5,1.4,13.2,5.2,18.3,3c1.9-0.8,2.6-2.6,5-3.3c8.2-2.2,19.8-2.3,27.6-2.9c6.7-0.5,14-1.3,20.8-0.8c4.6,0.3,9.1,1.2,13.5,2.5
	c2.2,0.6,3.6-0.5,4.5,1.7c0.8,1.9-0.1,3.9-1.9,4.5"/>
<path opacity="0.53" fill="#2D5C00" d="M515.9,298c3.8,4.8,11.2,8.2,8.8,15.4c-0.9,2.7-3.7,4.8-6.3,5.9c-3.3,1.4-7.2,1.4-10.8,1.5
	c-7.5,0.4-15.1,0.5-22.6,0.7c-7.1,0.2-14.2,0.4-21.2,0.7c-6.4,0.2-13.1-1.8-19.3-3.2c-7.9-1.7-20.9-3.6-26.3,4.5
	c-1.8,2.7,0.5,2.5,0.7,4.6c0.2,1.8-1.9,3.7-2.9,5.2c-2.4,3.9-5.3,9.8-1.8,14.1c4.9,6,20.3,0.5,26.8,0.5c11.7,0,23.1,1.9,34.8,0.4
	c15.9-2.1,31.9-1.4,47.8-1c4.8,0.1,8.1,0.1,12.2-2c1.2-0.6,2.1-1.1,3.3-1.5c6.3-2.2-0.3-3.7,0.6-8.3c0.5-2.5,3.9-3.5,4.2-6.2
	c0.2-1.5-1-1.9-1.3-3.1c-0.4-1.7,0.1-2.4,0.4-4c0.6-3.2,1.8-8,0.4-11.1c-1.1-2.3-4.8-2.6-5.7-5.1c-1.1-2.8,1.6-7.1,2-9.9
	c0.6-4-1.5-8-5-10c-3-1.7-7.5-2-10.6-0.2c-1.4,0.8-2,2.5-3.2,3.4c-1,0.8-2.2,0.7-3.3,1.3C514.7,292.4,513.7,295.2,515.9,298z"/>
</svg>
