<?xml version="1.0" encoding="utf-8"?>
<!-- Generator: Adobe Illustrator 19.0.1, SVG Export Plug-In . SVG Version: 6.00 Build 0)  -->
<!DOCTYPE svg PUBLIC "-//W3C//DTD SVG 1.1//EN" "http://www.w3.org/Graphics/SVG/1.1/DTD/svg11.dtd">
<svg version="1.1" id="Layer_1" xmlns="http://www.w3.org/2000/svg" xmlns:xlink="http://www.w3.org/1999/xlink" x="0px" y="0px"
	 viewBox="0 0 960 560" enable-background="new 0 0 960 560" xml:space="preserve">
<g>
	<path fill="#616C6A" d="M664.7,342c0.6,2.8,3.6,6,7.9,8.2c0.1,0.1,0.2,0.1,0.3,0.2c4,1.9,8,2.5,10.7,1.7c0.5-1.7,1.3-4.1,2.3-7.1
		c6.3-18.7,20.4-58.7,22.6-64.9l0.1-0.3l0.1-0.2l0.1-0.2l-40.5,57.6L664.7,342z"/>
	<path fill="#8E9593" d="M664.7,342c0.6,2.8,3.6,6,7.9,8.2l5.9-11.6l30-58.4l0-0.1l0.1-0.3l0.1-0.2l0.1-0.2l-40.5,57.6L664.7,342z"
		/>
</g>
<g>
	<path fill="#616C6A" d="M605.2,343.1c-0.6,2.8-3.6,6-7.9,8.2c-0.1,0.1-0.2,0.1-0.3,0.2c-4,1.9-8,2.5-10.7,1.7
		c-0.5-1.7-1.3-4.1-2.3-7.1c-6.3-18.7-20.4-58.7-22.6-64.9l-0.1-0.3l-0.1-0.2l-0.1-0.2l40.5,57.6L605.2,343.1z"/>
	<path fill="#8E9593" d="M605.2,343.1c-0.6,2.8-3.6,6-7.9,8.2l-5.9-11.6l-30-58.4l0-0.1l-0.1-0.3l-0.1-0.2l-0.1-0.2l40.5,57.6
		L605.2,343.1z"/>
</g>
<g>
	<path fill="#616C6A" d="M653.2,335c-3,3.7-9.8,6.4-17.7,6.5c-0.2,0-0.4,0-0.6,0c-7.3,0-13.7-2.1-17.2-5.3c0.5-2.9,1-7.2,1.7-12.4
		c4.3-32.6,12.4-102.7,13.6-113.4l0.1-0.6l0-0.4l0-0.4l18.4,115.8L653.2,335z"/>
	<path fill="#8E9593" d="M653.2,335c-3,3.7-9.8,6.4-17.7,6.5l-0.4-21.7l-2.1-109.2l0-0.2l0.1-0.6l0-0.4l0-0.4l18.4,115.8L653.2,335z
		"/>
</g>
<path fill="#8E9593" d="M637,347.2c0,1.5-0.6,3-1.6,4.3c-3,3.7-9.8,6.4-17.7,6.5c-0.2,0-0.4,0-0.6,0c-7.3,0-13.7-2.1-17.2-5.3
	c-1.8-1.6-2.8-3.5-2.8-5.5c0-2.6,1.7-5,4.5-6.9c3.7-2.4,9.2-4,15.5-4h0.2c6.9,0,13,2,16.5,4.9C635.8,343,637,345,637,347.2z"/>
<path fill="#283E3D" d="M696,356.8H573.6c10.4-23.5,33.9-39.8,61.2-39.8C662.1,317,685.6,333.4,696,356.8z"/>
<g>
	<path fill="#616C6A" d="M640.8,322.6c1.5,2.5,5.4,4.5,10.1,5.2c0.1,0,0.3,0,0.4,0.1c4.4,0.5,8.3-0.3,10.7-1.9
		c-0.1-1.8-0.1-4.3-0.1-7.5c-0.2-19.8,0.1-62.2,0.2-68.7l0-0.4l0-0.3l0-0.2l-19.5,67.7L640.8,322.6z"/>
	<path fill="#8E9593" d="M640.8,322.6c1.5,2.5,5.4,4.5,10.1,5.2l1.8-12.9l9.2-65l0-0.1l0-0.4l0-0.3l0-0.2l-19.5,67.7L640.8,322.6z"
		/>
</g>
<g>
	<path fill="#616C6A" d="M649.6,336.4c2,4.3,8,8.5,15.7,10.5c0.2,0.1,0.4,0.1,0.6,0.2c7.1,1.7,13.8,1.1,18-1.2
		c0.2-2.9,0.7-7.2,1.2-12.5c3.4-32.7,11.9-102.7,13.2-113.5l0.1-0.6l0-0.4l0.1-0.4l-44.9,108.3L649.6,336.4z"/>
	<path fill="#8E9593" d="M649.6,336.4c2,4.3,8,8.5,15.7,10.5l5.5-21l27.5-105.7l0-0.2l0.1-0.6l0-0.4l0.1-0.4l-44.9,108.3
		L649.6,336.4z"/>
</g>
<g>
	<path fill="#616C6A" d="M626.4,322.6c-1.5,2.5-5.4,4.5-10.1,5.2c-0.1,0-0.3,0-0.4,0.1c-4.4,0.5-8.3-0.3-10.7-1.9
		c0.1-1.8,0.1-4.3,0.1-7.5c0.2-19.8-0.1-62.2-0.2-68.7l0-0.4l0-0.3l0-0.2l19.5,67.7L626.4,322.6z"/>
	<path fill="#8E9593" d="M626.4,322.6c-1.5,2.5-5.4,4.5-10.1,5.2l-1.8-12.9l-9.2-65l0-0.1l0-0.4l0-0.3l0-0.2l19.5,67.7L626.4,322.6z
		"/>
</g>
<g>
	<path fill="#616C6A" d="M622.1,336.9c-2,4.3-8,8.5-15.7,10.5c-0.2,0.1-0.4,0.1-0.6,0.2c-7.1,1.7-13.8,1.1-18-1.2
		c-0.2-2.9-0.7-7.2-1.2-12.5c-3.4-32.7-11.9-102.7-13.2-113.5l-0.1-0.6l0-0.4l-0.1-0.4l44.9,108.3L622.1,336.9z"/>
	<path fill="#8E9593" d="M622.1,336.9c-2,4.3-8,8.5-15.7,10.5l-5.5-21l-27.5-105.7l0-0.2l-0.1-0.6l0-0.4l-0.1-0.4l44.9,108.3
		L622.1,336.9z"/>
</g>
<g>
	<path fill="#616C6A" d="M643.1,348.9c-1.7,1.4-5.7,2.5-10.3,2.5c-0.1,0-0.2,0-0.4,0c-4.2,0-7.9-0.8-10-2c0.3-1.1,0.6-2.8,1-4.8
		c2.5-12.6,7.2-39.6,7.9-43.8l0-0.2l0-0.2l0-0.2l10.7,44.7L643.1,348.9z"/>
	<path fill="#8E9593" d="M643.1,348.9c-1.7,1.4-5.7,2.5-10.3,2.5l-0.2-8.4l-1.2-42.1l0-0.1l0-0.2l0-0.2l0-0.2l10.7,44.7L643.1,348.9
		z"/>
</g>
</svg>
