<?xml version="1.0" encoding="utf-8"?>
<!-- Generator: Adobe Illustrator 19.0.1, SVG Export Plug-In . SVG Version: 6.00 Build 0)  -->
<!DOCTYPE svg PUBLIC "-//W3C//DTD SVG 1.1//EN" "http://www.w3.org/Graphics/SVG/1.1/DTD/svg11.dtd">
<svg version="1.1" id="Layer_1" xmlns="http://www.w3.org/2000/svg" xmlns:xlink="http://www.w3.org/1999/xlink" x="0px" y="0px"
	 viewBox="0 0 960 560" enable-background="new 0 0 960 560" xml:space="preserve">
<path fill="#4EAEAF" d="M450.1,220.5c8.7,8.2,28.1,24.2,27,36.8c-4.8-1.1-9-4.9-14.2-5.3c0.7,3.1,2.1,5.8,3.6,8.7
	c9.2,18.4,21.7,35.4,31.7,53.4c1.5,2.7,12.3,19.5,6.1,24.5c-4.5,3.6-13.6-4.7-16.4-6.9c-10.8-8.5-25.4-27.2-41.5-23.8
	c-0.8,3.6,0.8,5.9,2.1,9.4c4,11.1,9.8,21.2,12.3,33c1.4,6.7,5.1,27.9-5,31.1c-6.5,2-14.7-7.3-17.9-11.5
	c-14.8-19-21.7-43.2-38.3-61.5c-16.7-18.3-31.8-38.7-49.5-56.2c-8.5-8.4-19-18.7-29.8-24.3c-4.2-2.2-8.9-2.4-12.3-6
	c-4.7-4.9-8.5-17.8-2.6-22.6c7-5.7,17.8,1,23.1,5.3c9,7.2,15.1,17.8,23.4,25.8c8.5,8.1,16.3,16.4,24.3,25.1
	c9.2,10,17.7,20.5,26.7,30.6c3,3.3,10.6,13.5,15.6,13c12.6-1.3-5.1-20.4-4.4-26.3c12.5-2.4,24.5,15.1,35.7,18.4
	c13.2,4,12.5-5.9,7.3-13.8c-4.5-6.8-8.7-12.1-11.5-20c-2.4-6.6-15.2-33.2-10.4-40.2c5.3-7.7,11.1,7.9,16.4,8.3
	c-0.8-2-0.9-4.7-1.8-6.5c1.8,0.5,1.7,1.6,2.5,3.2"/>
<path fill="#8B1F00" d="M502.5,303.3c-7.2-9.5-23.8-28.5-20.6-40.7c4.6,1.8,8.1,6.3,13.1,7.5c-0.2-3.2-1.2-6.1-2.1-9.1
	c-6.1-19.7-15.7-38.4-22.5-57.9c-1-3-8.9-21.2-2-25.2c5-2.8,12.6,6.9,15,9.5c9.3,10.2,20.6,31,37,30.3c1.3-3.5,0.1-5.9-0.6-9.7
	c-2.2-11.6-6.2-22.5-6.7-34.6c-0.3-6.8-0.5-28.4,10-29.8c6.8-0.9,13.3,9.6,15.8,14.3c11.4,21.2,14.3,46.2,27.7,66.9
	c13.5,20.8,25.1,43.3,39.6,63.5c7,9.7,15.7,21.5,25.4,28.9c3.8,2.9,8.4,3.8,11.1,7.9c3.8,5.6,5.5,19-1.1,22.7
	c-7.8,4.5-17.4-3.9-22-9c-7.7-8.6-12-20-18.9-29.3c-7-9.4-13.4-18.9-19.8-28.7c-7.5-11.4-14.1-23.1-21.4-34.6
	c-2.4-3.8-8.2-15-13.2-15.4c-12.6-0.8,1.7,20.9,0,26.6c-12.7,0.3-21.7-18.9-32.2-24c-12.4-6.1-13.3,3.8-9.5,12.4
	c3.3,7.4,6.6,13.4,8.1,21.7c1.3,6.9,9.6,35.2,3.7,41.3c-6.5,6.7-9.6-9.6-14.9-10.9c0.5,2.1,0.1,4.7,0.7,6.8c-1.7-0.7-1.4-1.8-2-3.5"
	/>
<path fill="#1C2D32" d="M636.1,247.7l1.3,5.2C636.7,250.9,636.2,249.1,636.1,247.7z"/>
</svg>
